<svg id="Layer_1" data-name="Layer 1" xmlns="http://www.w3.org/2000/svg" viewBox="0 0 585.1938 410.0965"><defs><style>.cls-1{fill:#d51527;}.cls-2{fill:#7c7d81;opacity:0.4;}.cls-2,.cls-3{isolation:isolate;}.cls-3{fill:#afcdea;opacity:0.7;}.cls-4{fill:#e21b22;}.cls-5{fill:#ca0c12;}.cls-6{fill:#5f91d9;}.cls-7{opacity:0.6;}.cls-8{fill:#dceaf9;}.cls-9{fill:#fff;}.cls-10{fill:#131414;}</style></defs><title>404</title><path class="cls-1" d="M21.5692,299.483V273.066L138.115,88.6655H157.28V129.586H144.33L56.2738,268.922v2.072H213.222v28.489ZM146.402,353.871V88.6655h30.561V353.871Z" transform="translate(-21.5692 -88.6655)"/><path class="cls-1" d="M415.11,299.483V273.066L531.656,88.6655h19.165V129.586h-12.95L449.815,268.922v2.072H606.763v28.489Zm124.833,54.388V88.6655h30.561V353.871Z" transform="translate(-21.5692 -88.6655)"/><path class="cls-2" d="M401.659,181.925a102.40569,102.40569,0,0,0-61.903-71.128,102.55154,102.55154,0,0,1-95.272,180.265,102.3811,102.3811,0,0,0,65.787,17.305l6.638,27.326a14.64923,14.64923,0,0,0-4.216,14.142l16.424,67.623.56,2.303,2.722,11.211a17.34108,17.34108,0,0,0,33.702-8.187l-2.722-11.211-.857-3.531-13.289-54.711-.857-3.531-1.981-8.152a14.6462,14.6462,0,0,0-10.232-10.633l-6.36-26.187A102.54983,102.54983,0,0,0,401.659,181.925Z" transform="translate(-21.5692 -88.6655)"/><path class="cls-3" d="M198.368,231.054A102.53557,102.53557,0,0,1,348.97,117.855,102.54489,102.54489,0,1,0,231.312,284.717,102.08748,102.08748,0,0,1,198.368,231.054Z" transform="translate(-21.5692 -88.6655)"/><path class="cls-4" d="M315.591,291.148l-19.253,4.676,17.879,73.615,19.253-4.676Z" transform="translate(-21.5692 -88.6655)"/><path class="cls-5" d="M316.953,327.25l-5.207,1.263a14.6653,14.6653,0,0,0-10.788,17.71l19.708,81.136a17.34109,17.34109,0,1,0,33.702-8.187L334.66,338.036A14.66,14.66,0,0,0,316.953,327.25Z" transform="translate(-21.5692 -88.6655)"/><path class="cls-4" d="M314.696,327.797l-2.948.717a14.6638,14.6638,0,0,0-10.788,17.709l19.708,81.136a17.34084,17.34084,0,0,0,20.944,12.758c.118-.029.226-.071.341-.101Z" transform="translate(-21.5692 -88.6655)"/><path class="cls-6" d="M306.872,297.091a104.31384,104.31384,0,1,1,76.746-125.987A104.43212,104.43212,0,0,1,306.872,297.091ZM260.846,107.595a90.69132,90.69132,0,1,0,109.535,66.724A90.79458,90.79458,0,0,0,260.846,107.595Z" transform="translate(-21.5692 -88.6655)"/><path class="cls-5" d="M318.099,301.343l-2.475-10.187-19.255,4.678,2.475,10.187c3.244-.47,6.494-1.08,9.741-1.869C311.835,303.361,315.001,302.414,318.099,301.343Z" transform="translate(-21.5692 -88.6655)"/><path class="cls-4" d="M306.872,297.091a104.31384,104.31384,0,1,1,76.746-125.987A104.43212,104.43212,0,0,1,306.872,297.091ZM260.846,107.595a90.69132,90.69132,0,1,0,109.535,66.724A90.79458,90.79458,0,0,0,260.846,107.595Z" transform="translate(-21.5692 -88.6655)"/><g class="cls-7"><path class="cls-8" d="M260.847,107.596A90.69132,90.69132,0,1,0,370.381,174.32,90.79411,90.79411,0,0,0,260.847,107.596Z" transform="translate(-21.5692 -88.6655)"/></g><path class="cls-9" d="M213.711,219.54a5.44823,5.44823,0,0,1-6.58-4.009,77.46083,77.46083,0,0,1,56.926-93.45,5.44941,5.44941,0,1,1,2.572,10.591,66.55092,66.55092,0,0,0-48.907,80.288A5.45073,5.45073,0,0,1,213.711,219.54Z" transform="translate(-21.5692 -88.6655)"/><path class="cls-9" d="M336.605,346.182l-33.701,8.185.857,3.53,33.701-8.185Z" transform="translate(-21.5692 -88.6655)"/><path class="cls-9" d="M350.75,404.421l-33.699,8.184.857,3.53,33.699-8.185Z" transform="translate(-21.5692 -88.6655)"/><path class="cls-10" d="M226.414,498.5V482.745h5.616a6.235,6.235,0,0,1,3.047.669,4.35519,4.35519,0,0,1,1.807,1.831,5.93707,5.93707,0,0,1-.007,5.216,4.39916,4.39916,0,0,1-1.816,1.831,6.21281,6.21281,0,0,1-3.039.669h-3.861v-2.015h3.646a3.88518,3.88518,0,0,0,1.885-.4,2.50708,2.50708,0,0,0,1.061-1.108,3.6103,3.6103,0,0,0,.339-1.592,3.55828,3.55828,0,0,0-.339-1.585,2.42545,2.42545,0,0,0-1.069-1.085,4.00587,4.00587,0,0,0-1.908-.392h-2.984V498.5Zm13.517,0h-2.524l5.67-15.755h2.746l5.67,15.755H248.97l-4.454-12.893h-.124Zm.423-6.17h8.185v2.001h-8.185Zm23.336-4.608a4.82849,4.82849,0,0,0-.6-1.253,3.80592,3.80592,0,0,0-.885-.954,3.705,3.705,0,0,0-1.177-.608,4.71348,4.71348,0,0,0-1.438-.208,4.35353,4.35353,0,0,0-2.401.685,4.66941,4.66941,0,0,0-1.692,2.008,8.7421,8.7421,0,0,0,.008,6.462,4.622,4.622,0,0,0,1.707,2.007,4.528,4.528,0,0,0,2.47.685,4.57777,4.57777,0,0,0,2.238-.523,3.6423,3.6423,0,0,0,1.485-1.477,4.60644,4.60644,0,0,0,.531-2.262l.615.116h-4.508v-1.962h6.193v1.792a6.76184,6.76184,0,0,1-.846,3.447,5.76608,5.76608,0,0,1-2.323,2.246,7.6419,7.6419,0,0,1-7.139-.192,6.68007,6.68007,0,0,1-2.508-2.793,9.59808,9.59808,0,0,1-.9-4.308,10.24086,10.24086,0,0,1,.523-3.385,7.3551,7.3551,0,0,1,1.469-2.546,6.42956,6.42956,0,0,1,2.239-1.608,7.01271,7.01271,0,0,1,2.823-.561,7.26692,7.26692,0,0,1,2.377.377,6.3982,6.3982,0,0,1,1.97,1.069,6.05784,6.05784,0,0,1,2.207,3.746Zm5.564,10.778V482.745h9.877v2.046h-7.5v4.801h6.985v2.038h-6.985v4.824h7.592V498.5Zm31.501-15.755V498.5h-2.184l-8.008-11.555h-.147V498.5h-2.377V482.745h2.2l8.016,11.57h.146v-11.57Zm17.153,7.878a9.45906,9.45906,0,0,1-.923,4.338,6.7659,6.7659,0,0,1-2.531,2.785,7.34381,7.34381,0,0,1-7.292,0,6.7859,6.7859,0,0,1-2.524-2.792,10.62274,10.62274,0,0,1,0-8.662,6.72953,6.72953,0,0,1,2.524-2.785,7.2917,7.2917,0,0,1,7.292,0,6.70477,6.70477,0,0,1,2.531,2.785A9.41152,9.41152,0,0,1,317.908,490.623Zm-2.354,0a7.52669,7.52669,0,0,0-.623-3.239,4.54526,4.54526,0,0,0-1.692-2,4.64206,4.64206,0,0,0-4.854,0,4.61886,4.61886,0,0,0-1.693,2,8.85541,8.85541,0,0,0,0,6.485,4.67693,4.67693,0,0,0,1.693,2,4.68881,4.68881,0,0,0,4.854,0,4.60134,4.60134,0,0,0,1.692-2A7.57841,7.57841,0,0,0,315.554,490.623Zm3.864-5.832v-2.046h12.193v2.046h-4.916V498.5h-2.369V484.791ZM340.039,498.5V482.745h9.769v2.046h-7.392v4.801h6.692v2.038h-6.692v6.87Zm26.378-7.877a9.47187,9.47187,0,0,1-.923,4.338,6.7659,6.7659,0,0,1-2.531,2.785,7.34565,7.34565,0,0,1-7.293,0,6.78356,6.78356,0,0,1-2.523-2.792,10.62274,10.62274,0,0,1,0-8.662,6.72721,6.72721,0,0,1,2.523-2.785,7.29354,7.29354,0,0,1,7.293,0,6.70477,6.70477,0,0,1,2.531,2.785A9.42425,9.42425,0,0,1,366.417,490.623Zm-2.354,0a7.54109,7.54109,0,0,0-.623-3.239,4.54517,4.54517,0,0,0-1.692-2,4.6438,4.6438,0,0,0-4.855,0,4.617,4.617,0,0,0-1.692,2,8.85541,8.85541,0,0,0,0,6.485,4.675,4.675,0,0,0,1.692,2,4.69057,4.69057,0,0,0,4.855,0,4.60125,4.60125,0,0,0,1.692-2A7.593,7.593,0,0,0,364.063,490.623Zm15.449-7.878h2.385v10.362a5.52382,5.52382,0,0,1-.777,2.931,5.42117,5.42117,0,0,1-2.185,2,7.86674,7.86674,0,0,1-6.593,0,5.42462,5.42462,0,0,1-2.184-2,5.524,5.524,0,0,1-.777-2.931V482.745h2.377v10.17a3.794,3.794,0,0,0,.469,1.9,3.40963,3.40963,0,0,0,1.346,1.308,4.78261,4.78261,0,0,0,4.131,0,3.29046,3.29046,0,0,0,1.339-1.308,3.794,3.794,0,0,0,.469-1.9Zm18.557,0V498.5h-2.185l-8.008-11.555h-.146V498.5h-2.377V482.745h2.2l8.016,11.57h.146v-11.57Zm8.568,15.755h-5.101V482.745h5.262a7.9154,7.9154,0,0,1,3.977.946,6.23771,6.23771,0,0,1,2.547,2.701,10.38345,10.38345,0,0,1-.008,8.439,6.31613,6.31613,0,0,1-2.585,2.723A8.26362,8.26362,0,0,1,406.637,498.5Zm-2.723-2.077h2.592a5.9935,5.9935,0,0,0,2.992-.677,4.26264,4.26264,0,0,0,1.785-1.977,7.615,7.615,0,0,0,.593-3.169,7.524,7.524,0,0,0-.593-3.147,4.18788,4.18788,0,0,0-1.746-1.961,5.69383,5.69383,0,0,0-2.885-.67h-2.738Z" transform="translate(-21.5692 -88.6655)"/></svg>