<?xml version="1.0" encoding="utf-8"?>
<!-- Generator: Adobe Illustrator 18.1.1, SVG Export Plug-In . SVG Version: 6.00 Build 0)  -->
<svg version="1.1" id="Layer_1" xmlns:serif="http://www.serif.com/"
	 xmlns="http://www.w3.org/2000/svg" xmlns:xlink="http://www.w3.org/1999/xlink" x="0px" y="0px" viewBox="0 0 4000 3000"
	 style="enable-background:new 0 0 4000 3000;" xml:space="preserve">
<style type="text/css">
	.st0{fill:none;}
	.st1{fill-rule:evenodd;clip-rule:evenodd;fill:#F1F7FD;}
	.st2{fill-rule:evenodd;clip-rule:evenodd;fill:#83A4CD;}
	.st3{fill-rule:evenodd;clip-rule:evenodd;fill:#728BBE;}
	.st4{fill-rule:evenodd;clip-rule:evenodd;fill:#EE7070;}
	.st5{fill-rule:evenodd;clip-rule:evenodd;fill:#86A8D8;}
	.st6{fill-rule:evenodd;clip-rule:evenodd;fill:url(#SVGID_1_);}
	.st7{fill-rule:evenodd;clip-rule:evenodd;fill:url(#SVGID_2_);}
	.st8{fill-rule:evenodd;clip-rule:evenodd;fill:#2C4087;}
	.st9{fill-rule:evenodd;clip-rule:evenodd;fill:#C2D1F8;}
	.st10{fill-rule:evenodd;clip-rule:evenodd;fill:#69CCF1;}
	.st11{fill-rule:evenodd;clip-rule:evenodd;fill:#EE94F9;}
	.st12{fill-rule:evenodd;clip-rule:evenodd;fill:#1D387D;}
	.st13{fill-rule:evenodd;clip-rule:evenodd;fill:#F8FBFF;}
	.st14{fill:#768BB3;}
	.st15{fill-rule:evenodd;clip-rule:evenodd;fill:#182D66;}
	.st16{fill-rule:evenodd;clip-rule:evenodd;fill:url(#SVGID_3_);}
	.st17{fill-rule:evenodd;clip-rule:evenodd;fill:#FFFFFF;}
</style>
<g>
	<rect id="Web-10" x="-339" y="-406.5" serif:id="Web 10" class="st0" width="4844" height="3633">
	</rect>
	<g id="back">
		<path class="st1" d="M353.8,2692c-308.5-582.9-25.8-922.7,183.4-1084.9C804,1400.3,656.7,1194.2,626.4,903
			c-56.9-546,546.1-773.3,848.2-642.8C1722,367.1,1853,511.5,2056.4,511.5c326.1,0,311.1-144.8,631-251.2
			c374.3-124.5,854,149.5,854,642.8c0,352.4-237.5,646.8,35.2,906.9c482.4,460.1,109.2,882,109.2,882H353.8L353.8,2692z"/>
		<path class="st2" d="M3823.4,2708.2c0-10.8-8.7-19.5-19.5-19.5H186.3c-10.8,0-19.5,8.7-19.5,19.5v3.4c0,10.8,8.7,19.5,19.5,19.5
			H3804c10.8,0,19.5-8.7,19.5-19.5V2708.2z"/>
	</g>
	<g id="Front">
		<g>
			<path class="st3" d="M1522.9,1872.1v-58.2c0-4-3.3-7.3-7.3-7.3c-4,0-7.3,3.3-7.3,7.3v58.2c0,4,3.3,7.3,7.3,7.3
				C1519.6,1879.3,1522.9,1876.1,1522.9,1872.1z M1522.9,1755.7c0-17.8,0-37.3,0-58.2c0-4-3.3-7.3-7.3-7.3c-4,0-7.3,3.3-7.3,7.3
				c0,20.8,0,40.3,0,58.2c0,4,3.3,7.3,7.3,7.3C1519.6,1763,1522.9,1759.8,1522.9,1755.7z M1522.9,1639.4v-58.2c0-4-3.3-7.3-7.3-7.3
				c-4,0-7.3,3.3-7.3,7.3v58.2c0,4,3.3,7.3,7.3,7.3C1519.6,1646.7,1522.9,1643.4,1522.9,1639.4z M1522.9,1523.1
				c0-19.1,0-38.5,0-58.2c0-4-3.3-7.3-7.3-7.3c-4,0-7.3,3.3-7.3,7.3c0,19.6,0,39.1,0,58.2c0,4,3.3,7.3,7.3,7.3
				C1519.6,1530.4,1522.9,1527.1,1522.9,1523.1z M1522.9,1406.8c0-19.3,0-38.8,0-58.2c0-4-3.3-7.3-7.3-7.3c-4,0-7.3,3.3-7.3,7.3
				c0,19.4,0,38.8,0,58.2c0,4,3.3,7.3,7.3,7.3C1519.6,1414,1522.9,1410.8,1522.9,1406.8z M1522.9,1290.5v-58.2c0-4-3.3-7.3-7.3-7.3
				c-4,0-7.3,3.3-7.3,7.3v58.2c0,4,3.3,7.3,7.3,7.3C1519.6,1297.7,1522.9,1294.5,1522.9,1290.5z M1522.9,1174.1
				c0-19.9,0-39.3,0-58.2c0-4-3.3-7.3-7.3-7.3c-4,0-7.3,3.3-7.3,7.3c0,18.9,0,38.3,0,58.2c0,4,3.3,7.3,7.3,7.3
				C1519.6,1181.4,1522.9,1178.1,1522.9,1174.1z M2831.4,974.9c0,23.7,0,43.8,0,58.2c0,4,3.3,7.3,7.3,7.3c4,0,7.3-3.3,7.3-7.3
				c0-14.3,0-34.5,0-58.2c0-4-3.3-7.3-7.3-7.3C2834.6,967.6,2831.4,970.8,2831.4,974.9z M1522.9,1057.8c0-20.5,0-39.9,0-58.2
				c0-4-3.3-7.3-7.3-7.3c-4,0-7.3,3.3-7.3,7.3c0,18.2,0,37.7,0,58.2c0,4,3.3,7.3,7.3,7.3C1519.6,1065.1,1522.9,1061.8,1522.9,1057.8
				z M2831.4,858.5c0,19.8,0,39.4,0,58.2c0,4,3.3,7.3,7.3,7.3c4,0,7.3-3.3,7.3-7.3c0-18.8,0-38.4,0-58.2c0-4-3.3-7.3-7.3-7.3
				C2834.6,851.3,2831.4,854.5,2831.4,858.5z M1522.9,941.5c0-23.1,0-42.8,0-58.2c0-4-3.3-7.3-7.3-7.3c-4,0-7.3,3.3-7.3,7.3
				c0,15.4,0,35,0,58.2c0,4,3.3,7.3,7.3,7.3C1519.6,948.8,1522.9,945.5,1522.9,941.5z M2831.4,742.2c0,18.2,0,37.9,0,58.2
				c0,4,3.3,7.3,7.3,7.3c4,0,7.3-3.3,7.3-7.3c0-20.3,0-39.9,0-58.2c0-4-3.3-7.3-7.3-7.3C2834.6,734.9,2831.4,738.2,2831.4,742.2z
				 M2827.9,643.9h3.5v40.2c0,4,3.3,7.3,7.3,7.3c4,0,7.3-3.3,7.3-7.3c0-29.1,0-47.4,0-47.4c0-4-3.3-7.3-7.3-7.3h-10.7
				c-4,0-7.3,3.3-7.3,7.3C2820.6,640.6,2823.9,643.9,2827.9,643.9z M1781,643.9h58.2c4,0,7.3-3.3,7.3-7.3c0-4-3.3-7.3-7.3-7.3H1781
				c-4,0-7.3,3.3-7.3,7.3C1773.7,640.6,1777,643.9,1781,643.9z M1897.3,643.9h58.2c4,0,7.3-3.3,7.3-7.3c0-4-3.3-7.3-7.3-7.3h-58.2
				c-4,0-7.3,3.3-7.3,7.3C1890,640.6,1893.3,643.9,1897.3,643.9z M2478.9,643.9h58.2c4,0,7.3-3.3,7.3-7.3c0-4-3.3-7.3-7.3-7.3h-58.2
				c-4,0-7.3,3.3-7.3,7.3C2471.7,640.6,2474.9,643.9,2478.9,643.9z M1664.7,643.9h58.2c4,0,7.3-3.3,7.3-7.3c0-4-3.3-7.3-7.3-7.3
				h-58.2c-4,0-7.3,3.3-7.3,7.3C1657.4,640.6,1660.7,643.9,1664.7,643.9z M2013.6,643.9h58.2c4,0,7.3-3.3,7.3-7.3
				c0-4-3.3-7.3-7.3-7.3h-58.2c-4,0-7.3,3.3-7.3,7.3C2006.4,640.6,2009.6,643.9,2013.6,643.9z M2595.3,643.9h58.2
				c4,0,7.3-3.3,7.3-7.3c0-4-3.3-7.3-7.3-7.3h-58.2c-4,0-7.3,3.3-7.3,7.3C2588,640.6,2591.2,643.9,2595.3,643.9z M2711.6,643.9h58.2
				c4,0,7.3-3.3,7.3-7.3c0-4-3.3-7.3-7.3-7.3h-58.2c-4,0-7.3,3.3-7.3,7.3C2704.3,640.6,2707.6,643.9,2711.6,643.9z M2130,643.9h58.2
				c4,0,7.3-3.3,7.3-7.3c0-4-3.3-7.3-7.3-7.3H2130c-4,0-7.3,3.3-7.3,7.3C2122.7,640.6,2126,643.9,2130,643.9L2130,643.9z
				 M2246.3,643.9h58.2c4,0,7.3-3.3,7.3-7.3c0-4-3.3-7.3-7.3-7.3h-58.2c-4,0-7.3,3.3-7.3,7.3C2239,640.6,2242.3,643.9,2246.3,643.9z
				 M2362.6,643.9h58.2c4,0,7.3-3.3,7.3-7.3c0-4-3.3-7.3-7.3-7.3h-58.2c-4,0-7.3,3.3-7.3,7.3
				C2355.3,640.6,2358.6,643.9,2362.6,643.9z"/>
			<path class="st4" d="M1558.5,569.9l-43.3,43.3l-43.3-43.3l-21.1,21.1l43.3,43.3l-43.3,43.3l21.1,21.1l43.3-43.3l43.3,43.3
				l21.1-21.1l-43.3-43.3l43.3-43.3L1558.5,569.9z"/>
		</g>
		<g>
			<rect x="2765.8" y="855.9" class="st5" width="522.1" height="44.1"/>
			<rect x="2783.8" y="2642.9" class="st5" width="522.1" height="44.1"/>
			
				<linearGradient id="SVGID_1_" gradientUnits="userSpaceOnUse" x1="0.8766" y1="3000.8547" x2="2.0876" y2="3000.8547" gradientTransform="matrix(0 1291.36 1291.36 0 -3872590.75 -114.0693)">
				<stop  offset="0" style="stop-color:#D5E4FB"/>
				<stop  offset="1" style="stop-color:#BCCFF3"/>
			</linearGradient>
			<path class="st6" d="M3109.4,897.2c0-22.8-18.5-41.3-41.3-41.3H2118c-22.8,0-41.3,18.5-41.3,41.3v1748.5
				c0,22.8,18.5,41.3,41.3,41.3h950.1c22.8,0,41.3-18.5,41.3-41.3V897.2L3109.4,897.2z"/>
			
				<linearGradient id="SVGID_2_" gradientUnits="userSpaceOnUse" x1="0.8766" y1="3001.5896" x2="2.0876" y2="3001.5896" gradientTransform="matrix(0 1291.36 327.068 0 -978483.6875 -114.0693)">
				<stop  offset="0" style="stop-color:#B6CFF6"/>
				<stop  offset="1" style="stop-color:#88AFE5"/>
			</linearGradient>
			<path class="st7" d="M3371,889.7c0-18.7-15.1-33.8-33.8-33.8h-194c-18.7,0-33.8,15.1-33.8,33.8v1763.5
				c0,18.7,15.1,33.8,33.8,33.8h194c18.7,0,33.8-15.1,33.8-33.8V889.7L3371,889.7z"/>
			<g>
				<path class="st8" d="M3026.9,938.9c0-9.1-7.4-16.5-16.5-16.5h-834.6c-9.1,0-16.5,7.4-16.5,16.5v132.3c0,9.1,7.4,16.5,16.5,16.5
					h834.6c9.1,0,16.5-7.4,16.5-16.5V938.9z"/>
				<path class="st9" d="M2994.7,966.7c0-9.1-7.4-16.4-16.4-16.4h-437.4c-9.1,0-16.4,7.4-16.4,16.4v76.6c0,9.1,7.4,16.4,16.4,16.4
					h437.4c9.1,0,16.4-7.4,16.4-16.4V966.7z"/>
				<path class="st10" d="M2397.5,968.6c0-3.5-2.8-6.4-6.4-6.4h-29.7c-3.5,0-6.4,2.8-6.4,6.4v72.8c0,3.5,2.8,6.4,6.4,6.4h29.7
					c3.5,0,6.4-2.8,6.4-6.4V968.6z"/>
				<path class="st11" d="M2479.3,968.6c0-3.5-2.8-6.4-6.4-6.4h-29.7c-3.5,0-6.4,2.8-6.4,6.4v72.8c0,3.5,2.8,6.4,6.4,6.4h29.7
					c3.5,0,6.4-2.8,6.4-6.4V968.6z"/>
				<path class="st11" d="M2315.7,968.6c0-3.5-2.8-6.4-6.4-6.4h-29.7c-3.5,0-6.4,2.8-6.4,6.4v72.8c0,3.5,2.8,6.4,6.4,6.4h29.7
					c3.5,0,6.4-2.8,6.4-6.4V968.6z"/>
				<path class="st10" d="M2233.8,968.6c0-3.5-2.8-6.4-6.4-6.4h-29.7c-3.5,0-6.4,2.8-6.4,6.4v72.8c0,3.5,2.8,6.4,6.4,6.4h29.7
					c3.5,0,6.4-2.8,6.4-6.4V968.6z"/>
			</g>
			<g>
				<path class="st8" d="M3026.9,1152.3c0-9.1-7.4-16.5-16.5-16.5h-834.6c-9.1,0-16.5,7.4-16.5,16.5v132.3c0,9.1,7.4,16.5,16.5,16.5
					h834.6c9.1,0,16.5-7.4,16.5-16.5V1152.3z"/>
				<path class="st9" d="M2994.7,1180.2c0-9.1-7.4-16.4-16.4-16.4h-437.4c-9.1,0-16.4,7.4-16.4,16.4v76.6c0,9.1,7.4,16.4,16.4,16.4
					h437.4c9.1,0,16.4-7.4,16.4-16.4V1180.2z"/>
				<path class="st10" d="M2397.5,1182.1c0-3.5-2.8-6.4-6.4-6.4h-29.7c-3.5,0-6.4,2.8-6.4,6.4v72.8c0,3.5,2.8,6.4,6.4,6.4h29.7
					c3.5,0,6.4-2.8,6.4-6.4V1182.1z"/>
				<path class="st11" d="M2479.3,1182.1c0-3.5-2.8-6.4-6.4-6.4h-29.7c-3.5,0-6.4,2.8-6.4,6.4v72.8c0,3.5,2.8,6.4,6.4,6.4h29.7
					c3.5,0,6.4-2.8,6.4-6.4V1182.1z"/>
				<path class="st11" d="M2315.7,1182.1c0-3.5-2.8-6.4-6.4-6.4h-29.7c-3.5,0-6.4,2.8-6.4,6.4v72.8c0,3.5,2.8,6.4,6.4,6.4h29.7
					c3.5,0,6.4-2.8,6.4-6.4V1182.1z"/>
				<path class="st10" d="M2233.8,1182.1c0-3.5-2.8-6.4-6.4-6.4h-29.7c-3.5,0-6.4,2.8-6.4,6.4v72.8c0,3.5,2.8,6.4,6.4,6.4h29.7
					c3.5,0,6.4-2.8,6.4-6.4V1182.1z"/>
			</g>
			<g>
				<path class="st8" d="M3026.9,1365.8c0-9.1-7.4-16.5-16.5-16.5h-834.6c-9.1,0-16.5,7.4-16.5,16.5V1498c0,9.1,7.4,16.5,16.5,16.5
					h834.6c9.1,0,16.5-7.4,16.5-16.5V1365.8z"/>
				<path class="st9" d="M2994.7,1393.6c0-9.1-7.4-16.4-16.4-16.4h-437.4c-9.1,0-16.4,7.4-16.4,16.4v76.6c0,9.1,7.4,16.4,16.4,16.4
					h437.4c9.1,0,16.4-7.4,16.4-16.4V1393.6z"/>
				<path class="st10" d="M2397.5,1395.5c0-3.5-2.8-6.4-6.4-6.4h-29.7c-3.5,0-6.4,2.8-6.4,6.4v72.8c0,3.5,2.8,6.4,6.4,6.4h29.7
					c3.5,0,6.4-2.8,6.4-6.4V1395.5z"/>
				<path class="st11" d="M2479.3,1395.5c0-3.5-2.8-6.4-6.4-6.4h-29.7c-3.5,0-6.4,2.8-6.4,6.4v72.8c0,3.5,2.8,6.4,6.4,6.4h29.7
					c3.5,0,6.4-2.8,6.4-6.4V1395.5z"/>
				<path class="st11" d="M2315.7,1395.5c0-3.5-2.8-6.4-6.4-6.4h-29.7c-3.5,0-6.4,2.8-6.4,6.4v72.8c0,3.5,2.8,6.4,6.4,6.4h29.7
					c3.5,0,6.4-2.8,6.4-6.4V1395.5z"/>
				<path class="st10" d="M2233.8,1395.5c0-3.5-2.8-6.4-6.4-6.4h-29.7c-3.5,0-6.4,2.8-6.4,6.4v72.8c0,3.5,2.8,6.4,6.4,6.4h29.7
					c3.5,0,6.4-2.8,6.4-6.4V1395.5z"/>
			</g>
			<g>
				<path class="st8" d="M3026.9,1579.2c0-9.1-7.4-16.5-16.5-16.5h-834.6c-9.1,0-16.5,7.4-16.5,16.5v132.3c0,9.1,7.4,16.5,16.5,16.5
					h834.6c9.1,0,16.5-7.4,16.5-16.5V1579.2z"/>
				<path class="st9" d="M2994.7,1607c0-9.1-7.4-16.4-16.4-16.4h-437.4c-9.1,0-16.4,7.4-16.4,16.4v76.6c0,9.1,7.4,16.4,16.4,16.4
					h437.4c9.1,0,16.4-7.4,16.4-16.4V1607z"/>
				<path class="st10" d="M2397.5,1608.9c0-3.5-2.8-6.4-6.4-6.4h-29.7c-3.5,0-6.4,2.8-6.4,6.4v72.8c0,3.5,2.8,6.4,6.4,6.4h29.7
					c3.5,0,6.4-2.8,6.4-6.4V1608.9z"/>
				<path class="st11" d="M2479.3,1608.9c0-3.5-2.8-6.4-6.4-6.4h-29.7c-3.5,0-6.4,2.8-6.4,6.4v72.8c0,3.5,2.8,6.4,6.4,6.4h29.7
					c3.5,0,6.4-2.8,6.4-6.4V1608.9z"/>
				<path class="st11" d="M2315.7,1608.9c0-3.5-2.8-6.4-6.4-6.4h-29.7c-3.5,0-6.4,2.8-6.4,6.4v72.8c0,3.5,2.8,6.4,6.4,6.4h29.7
					c3.5,0,6.4-2.8,6.4-6.4V1608.9z"/>
				<path class="st10" d="M2233.8,1608.9c0-3.5-2.8-6.4-6.4-6.4h-29.7c-3.5,0-6.4,2.8-6.4,6.4v72.8c0,3.5,2.8,6.4,6.4,6.4h29.7
					c3.5,0,6.4-2.8,6.4-6.4V1608.9z"/>
			</g>
			<g>
				<path class="st8" d="M3026.9,1792.6c0-9.1-7.4-16.5-16.5-16.5h-834.6c-9.1,0-16.5,7.4-16.5,16.5v132.3c0,9.1,7.4,16.5,16.5,16.5
					h834.6c9.1,0,16.5-7.4,16.5-16.5V1792.6z"/>
				<path class="st9" d="M2994.7,1820.4c0-9.1-7.4-16.4-16.4-16.4h-437.4c-9.1,0-16.4,7.4-16.4,16.4v76.6c0,9.1,7.4,16.4,16.4,16.4
					h437.4c9.1,0,16.4-7.4,16.4-16.4V1820.4z"/>
				<path class="st10" d="M2397.5,1822.3c0-3.5-2.8-6.4-6.4-6.4h-29.7c-3.5,0-6.4,2.8-6.4,6.4v72.8c0,3.5,2.8,6.4,6.4,6.4h29.7
					c3.5,0,6.4-2.8,6.4-6.4V1822.3z"/>
				<path class="st11" d="M2479.3,1822.3c0-3.5-2.8-6.4-6.4-6.4h-29.7c-3.5,0-6.4,2.8-6.4,6.4v72.8c0,3.5,2.8,6.4,6.4,6.4h29.7
					c3.5,0,6.4-2.8,6.4-6.4V1822.3z"/>
				<path class="st11" d="M2315.7,1822.3c0-3.5-2.8-6.4-6.4-6.4h-29.7c-3.5,0-6.4,2.8-6.4,6.4v72.8c0,3.5,2.8,6.4,6.4,6.4h29.7
					c3.5,0,6.4-2.8,6.4-6.4V1822.3z"/>
				<path class="st10" d="M2233.8,1822.3c0-3.5-2.8-6.4-6.4-6.4h-29.7c-3.5,0-6.4,2.8-6.4,6.4v72.8c0,3.5,2.8,6.4,6.4,6.4h29.7
					c3.5,0,6.4-2.8,6.4-6.4V1822.3z"/>
			</g>
			<g>
				<path class="st8" d="M3026.9,2006c0-9.1-7.4-16.5-16.5-16.5h-834.6c-9.1,0-16.5,7.4-16.5,16.5v132.3c0,9.1,7.4,16.5,16.5,16.5
					h834.6c9.1,0,16.5-7.4,16.5-16.5V2006L3026.9,2006z"/>
				<path class="st9" d="M2994.7,2033.9c0-9.1-7.4-16.4-16.4-16.4h-437.4c-9.1,0-16.4,7.4-16.4,16.4v76.6c0,9.1,7.4,16.4,16.4,16.4
					h437.4c9.1,0,16.4-7.4,16.4-16.4V2033.9L2994.7,2033.9z"/>
				<path class="st10" d="M2397.5,2035.8c0-3.5-2.8-6.4-6.4-6.4h-29.7c-3.5,0-6.4,2.8-6.4,6.4v72.8c0,3.5,2.8,6.4,6.4,6.4h29.7
					c3.5,0,6.4-2.8,6.4-6.4V2035.8z"/>
				<path class="st11" d="M2479.3,2035.8c0-3.5-2.8-6.4-6.4-6.4h-29.7c-3.5,0-6.4,2.8-6.4,6.4v72.8c0,3.5,2.8,6.4,6.4,6.4h29.7
					c3.5,0,6.4-2.8,6.4-6.4V2035.8z"/>
				<path class="st11" d="M2315.7,2035.8c0-3.5-2.8-6.4-6.4-6.4h-29.7c-3.5,0-6.4,2.8-6.4,6.4v72.8c0,3.5,2.8,6.4,6.4,6.4h29.7
					c3.5,0,6.4-2.8,6.4-6.4V2035.8z"/>
				<path class="st10" d="M2233.8,2035.8c0-3.5-2.8-6.4-6.4-6.4h-29.7c-3.5,0-6.4,2.8-6.4,6.4v72.8c0,3.5,2.8,6.4,6.4,6.4h29.7
					c3.5,0,6.4-2.8,6.4-6.4V2035.8z"/>
			</g>
			<g>
				<path class="st8" d="M3026.9,2219.5c0-9.1-7.4-16.5-16.5-16.5h-834.6c-9.1,0-16.5,7.4-16.5,16.5v132.3c0,9.1,7.4,16.5,16.5,16.5
					h834.6c9.1,0,16.5-7.4,16.5-16.5V2219.5z"/>
				<path class="st9" d="M2994.7,2247.3c0-9.1-7.4-16.4-16.4-16.4h-437.4c-9.1,0-16.4,7.4-16.4,16.4v76.6c0,9.1,7.4,16.4,16.4,16.4
					h437.4c9.1,0,16.4-7.4,16.4-16.4V2247.3z"/>
				<path class="st10" d="M2397.5,2249.2c0-3.5-2.8-6.4-6.4-6.4h-29.7c-3.5,0-6.4,2.8-6.4,6.4v72.8c0,3.5,2.8,6.4,6.4,6.4h29.7
					c3.5,0,6.4-2.8,6.4-6.4V2249.2z"/>
				<path class="st11" d="M2479.3,2249.2c0-3.5-2.8-6.4-6.4-6.4h-29.7c-3.5,0-6.4,2.8-6.4,6.4v72.8c0,3.5,2.8,6.4,6.4,6.4h29.7
					c3.5,0,6.4-2.8,6.4-6.4V2249.2z"/>
				<path class="st11" d="M2315.7,2249.2c0-3.5-2.8-6.4-6.4-6.4h-29.7c-3.5,0-6.4,2.8-6.4,6.4v72.8c0,3.5,2.8,6.4,6.4,6.4h29.7
					c3.5,0,6.4-2.8,6.4-6.4V2249.2z"/>
				<path class="st10" d="M2233.8,2249.2c0-3.5-2.8-6.4-6.4-6.4h-29.7c-3.5,0-6.4,2.8-6.4,6.4v72.8c0,3.5,2.8,6.4,6.4,6.4h29.7
					c3.5,0,6.4-2.8,6.4-6.4V2249.2z"/>
			</g>
			<g>
				<path class="st8" d="M3026.9,2432.9c0-9.1-7.4-16.5-16.5-16.5h-834.6c-9.1,0-16.5,7.4-16.5,16.5v132.3c0,9.1,7.4,16.5,16.5,16.5
					h834.6c9.1,0,16.5-7.4,16.5-16.5V2432.9z"/>
				<path class="st9" d="M2994.7,2460.7c0-9.1-7.4-16.4-16.4-16.4h-437.4c-9.1,0-16.4,7.4-16.4,16.4v76.6c0,9.1,7.4,16.4,16.4,16.4
					h437.4c9.1,0,16.4-7.4,16.4-16.4V2460.7z"/>
				<path class="st10" d="M2397.5,2462.6c0-3.5-2.8-6.4-6.4-6.4h-29.7c-3.5,0-6.4,2.8-6.4,6.4v72.8c0,3.5,2.8,6.4,6.4,6.4h29.7
					c3.5,0,6.4-2.8,6.4-6.4V2462.6z"/>
				<path class="st11" d="M2479.3,2462.6c0-3.5-2.8-6.4-6.4-6.4h-29.7c-3.5,0-6.4,2.8-6.4,6.4v72.8c0,3.5,2.8,6.4,6.4,6.4h29.7
					c3.5,0,6.4-2.8,6.4-6.4V2462.6z"/>
				<path class="st11" d="M2315.7,2462.6c0-3.5-2.8-6.4-6.4-6.4h-29.7c-3.5,0-6.4,2.8-6.4,6.4v72.8c0,3.5,2.8,6.4,6.4,6.4h29.7
					c3.5,0,6.4-2.8,6.4-6.4V2462.6z"/>
				<path class="st10" d="M2233.8,2462.6c0-3.5-2.8-6.4-6.4-6.4h-29.7c-3.5,0-6.4,2.8-6.4,6.4v72.8c0,3.5,2.8,6.4,6.4,6.4h29.7
					c3.5,0,6.4-2.8,6.4-6.4V2462.6z"/>
			</g>
		</g>
		<g>
			<path class="st12" d="M2474.6,1466.2c0-6.5-5.3-11.8-11.8-11.8H583.3c-6.5,0-11.8,5.3-11.8,11.8v1153c0,6.5,5.3,11.8,11.8,11.8
				h1879.5c6.5,0,11.8-5.3,11.8-11.8V1466.2L2474.6,1466.2z"/>
			<path class="st13" d="M2454.9,1486.8c0-5.7-4.6-10.4-10.4-10.4H601.6c-5.7,0-10.4,4.7-10.4,10.4v1016.9c0,5.7,4.6,10.4,10.4,10.4
				h1842.9c5.7,0,10.4-4.6,10.4-10.4V1486.8z"/>
			<path class="st14" d="M1457.6,2249.9c13.4,0,19.8-6.7,19.8-14.6c0-18-29.1-11.2-29.1-21.6c0-3.7,3.1-6.7,10.6-6.7
				c4.3,0,9.1,1.3,13.5,3.9l2.9-7.1c-4.3-2.8-10.4-4.3-16.3-4.3c-13.4,0-19.7,6.7-19.7,14.6c0,18.2,29.1,11.3,29.1,21.8
				c0,3.6-3.2,6.4-10.9,6.4c-6,0-12.3-2.2-16.2-5.4l-3.1,7.1C1442.4,2247.6,1450,2249.9,1457.6,2249.9L1457.6,2249.9z
				 M1924.1,2249.9c15.2,0,26.4-10.6,26.4-25.2c0-14.6-11.2-25.2-26.4-25.2s-26.4,10.7-26.4,25.2
				C1897.7,2239.2,1908.9,2249.9,1924.1,2249.9z M1052.8,2249.2h9.1v-49h-9.1V2249.2z M2002,2249.2l-11.3-16.1
				c6.6-2.6,10.4-8,10.4-15.5c0-10.9-8-17.4-20.9-17.4h-20.2v49h9.1V2235h11.1c0.6,0,1.3,0,1.9-0.1l10,14.4H2002L2002,2249.2z
				 M1109.6,2200.2v33.2l-27-33.2h-7.5v49h9v-33.2l27,33.2h7.5v-49H1109.6z M1306.6,2200.2v33.2l-27-33.2h-7.5v49h9v-33.2l27,33.2
				h7.5v-49H1306.6z M1620.3,2200.2l-16.4,37.8l-16.3-37.8h-9.9l21.4,49h9l21.3-49H1620.3L1620.3,2200.2z M1141.8,2249.2h9.1v-41.3
				h16.2v-7.7h-41.6v7.7h16.2V2249.2z M1262.7,2249.2l-11.3-16.1c6.6-2.6,10.4-8,10.4-15.5c0-10.9-8-17.4-20.9-17.4h-20.2v49h9.1
				V2235h11.1c0.6,0,1.3,0,1.9-0.1l10,14.4H1262.7L1262.7,2249.2z M1365.4,2249.2h9.5l-22.1-49h-9l-22,49h9.4l4.8-11.3h24.5
				L1365.4,2249.2z M1891.9,2249.2l-11.3-16.1c6.6-2.6,10.4-8,10.4-15.5c0-10.9-8-17.4-20.9-17.4H1850v49h9.1V2235h11.1
				c0.6,0,1.3,0,1.9-0.1l10,14.4H1891.9L1891.9,2249.2z M1575.2,2249.2l-11.3-16.1c6.6-2.6,10.4-8,10.4-15.5
				c0-10.9-8-17.4-20.9-17.4h-20.2v49h9.1V2235h11.1c0.6,0,1.3,0,1.9-0.1l10,14.4H1575.2z M1723.3,2249.2l-11.3-16.1
				c6.6-2.6,10.4-8,10.4-15.5c0-10.9-8-17.4-20.9-17.4h-20.2v49h9.1V2235h11.1c0.6,0,1.3,0,1.9-0.1l10,14.4H1723.3z M1840.7,2249.2
				l-11.3-16.1c6.6-2.6,10.4-8,10.4-15.5c0-10.9-8-17.4-20.9-17.4h-20.2v49h9.1V2235h11.1c0.6,0,1.3,0,1.9-0.1l10,14.4H1840.7
				L1840.7,2249.2z M1381.2,2249.2h34.7v-7.7h-25.6v-41.3h-9.1L1381.2,2249.2L1381.2,2249.2z M1495.6,2241.6v-13.5h23.7v-7.5h-23.7
				v-12.8h26.7v-7.6h-35.8v49h36.7v-7.6H1495.6z M1183.1,2241.6v-13.5h23.7v-7.5h-23.7v-12.8h26.7v-7.6H1174v49h36.7v-7.6H1183.1z
				 M1643.6,2241.6v-13.5h23.7v-7.5h-23.7v-12.8h26.7v-7.6h-35.8v49h36.7v-7.6H1643.6z M1761,2241.6v-13.5h23.7v-7.5H1761v-12.8
				h26.7v-7.6H1752v49h36.7v-7.6H1761L1761,2241.6z M1924.1,2242c-9.9,0-17.2-7.2-17.2-17.2c0-10,7.4-17.2,17.2-17.2
				c9.9,0,17.2,7.2,17.2,17.2C1941.3,2234.8,1934,2242,1924.1,2242z M1339.1,2230.8l9.2-21.4l9.2,21.4H1339.1z M1252.7,2217.7
				c0,6.2-4.1,9.8-12.1,9.8H1230v-19.5h10.6C1248.6,2207.9,1252.7,2211.5,1252.7,2217.7z M1881.9,2217.7c0,6.2-4.1,9.8-12.1,9.8
				h-10.6v-19.5h10.6C1877.8,2207.9,1881.9,2211.5,1881.9,2217.7z M1992,2217.7c0,6.2-4.1,9.8-12.1,9.8h-10.6v-19.5h10.6
				C1987.9,2207.9,1992,2211.5,1992,2217.7z M1713.3,2217.7c0,6.2-4.1,9.8-12.1,9.8h-10.6v-19.5h10.6
				C1709.2,2207.9,1713.3,2211.5,1713.3,2217.7z M1830.7,2217.7c0,6.2-4.1,9.8-12.1,9.8H1808v-19.5h10.6
				C1826.6,2207.9,1830.7,2211.5,1830.7,2217.7z M1565.2,2217.7c0,6.2-4.1,9.8-12.1,9.8h-10.6v-19.5h10.6
				C1561.1,2207.9,1565.2,2211.5,1565.2,2217.7z"/>
			<path class="st14" d="M1170.7,1905.6h-39.8l9.7-98.1h158.7v-44.3h-201.6l-18.9,186.7h81.1c82.7,0,108.2,25,108.2,65.4
				c0,38.8-30.6,63.8-84.7,63.8c-43.4,0-83.2-15.8-107.2-38.3l-23.5,40.3c30.6,27,80.6,43.3,131.2,43.3
				c91.3,0,135.2-49.4,135.2-111.2C1319.1,1949.9,1277.3,1905.6,1170.7,1905.6L1170.7,1905.6z M1507.5,2124.5
				c83.2,0,145.4-66.3,145.4-182.7s-62.2-182.7-145.4-182.7c-83.7,0-145.9,66.3-145.9,182.7S1423.8,2124.5,1507.5,2124.5
				L1507.5,2124.5z M1847.9,2124.5c83.2,0,145.4-66.3,145.4-182.7s-62.2-182.7-145.4-182.7c-83.7,0-145.9,66.3-145.9,182.7
				S1764.2,2124.5,1847.9,2124.5z M1507.5,2079.1c-56.2,0-95-45.9-95-137.3c0-91.4,38.8-137.3,95-137.3c55.6,0,94.5,45.9,94.5,137.3
				C1601.9,2033.2,1563.1,2079.1,1507.5,2079.1z M1847.9,2079.1c-56.2,0-95-45.9-95-137.3c0-91.4,38.8-137.3,95-137.3
				c55.6,0,94.4,45.9,94.4,137.3C1942.4,2033.2,1903.6,2079.1,1847.9,2079.1z"/>
			<path class="st15" d="M2559.4,2583H486.7v0c0,57.5,46.6,104,104,104c354.1,0,1510.5,0,1864.6,0
				C2512.8,2687,2559.4,2640.4,2559.4,2583L2559.4,2583L2559.4,2583z"/>
		</g>
		
			<linearGradient id="SVGID_3_" gradientUnits="userSpaceOnUse" x1="-1.745616e-002" y1="3000.6025" x2="1.1935" y2="3000.6025" gradientTransform="matrix(0 248.066 309.619 0 -927533 488.2275)">
			<stop  offset="0" style="stop-color:#EE8570"/>
			<stop  offset="1" style="stop-color:#F06060"/>
		</linearGradient>
		<path class="st16" d="M1484,490.3c5.7-9.2,15.8-14.7,26.6-14.7s20.9,5.6,26.6,14.7c44.7,71.6,134.7,215.8,181.5,290.9
			c6,9.7,6.3,21.8,0.8,31.8c-5.5,10-16,16.1-27.4,16.1h-363c-11.4,0-21.9-6.2-27.4-16.1c-5.5-10-5.2-22.1,0.8-31.8
			C1349.3,706.1,1439.3,562,1484,490.3L1484,490.3z"/>
		<path class="st17" d="M1510.6,743.3c7.3,0,13.3,6.5,13.3,14.5c0,8-6,14.5-13.3,14.5c-7.3,0-13.3-6.5-13.3-14.5
			C1497.3,749.8,1503.2,743.3,1510.6,743.3z M1527.8,606c0.2-4.7-1.5-9.3-4.8-12.7c-3.3-3.4-7.8-5.3-12.5-5.3h0
			c-4.7,0-9.2,1.9-12.5,5.3c-3.3,3.4-5,8-4.8,12.7c1.3,29.1,3.9,85.7,5.1,110.1c0.3,6.5,5.7,11.6,12.2,11.6l0,0
			c6.5,0,11.9-5.1,12.2-11.6C1523.9,691.7,1526.5,635.1,1527.8,606z"/>
	</g>
</g>
</svg>
