<?xml version="1.0" encoding="utf-8"?>
<!-- Generator: Adobe Illustrator 23.0.5, SVG Export Plug-In . SVG Version: 6.00 Build 0)  -->
<svg version="1.1" id="Layer_1" xmlns="http://www.w3.org/2000/svg" xmlns:xlink="http://www.w3.org/1999/xlink" x="0px" y="0px"
	 viewBox="0 0 1121 616" style="enable-background:new 0 0 1121 616;" xml:space="preserve">
<style type="text/css">
	.st0{fill:#F3F3F3;}
	.st1{fill:#ED3B41;}
	.st2{fill:#263238;}
	.st3{fill:#455A64;}
	.st4{fill:#FFBC8F;}
	.st5{fill:#CCA67F;}
	.st6{fill:#BC936F;}
	.st7{fill:#FFC8A0;}
	.st8{fill:#FFD9C0;}
</style>
<path class="st0" d="M819.8,75.9l5.9,3.5c0.8,0.5,0.7,1.6-0.1,2l-6.3,3.1c-0.2,0.1-0.4,0.2-0.5,0.4l-3.7,6c-0.5,0.8-1.6,0.7-2-0.1
	l-3-6.2c-0.1-0.2-0.2-0.4-0.4-0.5l-5.9-3.5c-0.8-0.5-0.7-1.6,0.1-2l6.3-3.1c0.2-0.1,0.4-0.2,0.5-0.4l3.7-6c0.5-0.8,1.6-0.7,2,0.1
	l3,6.2C819.4,75.6,819.6,75.8,819.8,75.9z"/>
<path class="st0" d="M463.1,576.6l-5.9,3.5c-0.8,0.5-0.7,1.6,0.1,2l6.3,3.1c0.2,0.1,0.4,0.3,0.5,0.4l3.7,6c0.5,0.8,1.6,0.7,2-0.1
	l3-6.2c0.1-0.2,0.2-0.4,0.4-0.5l5.9-3.5c0.8-0.5,0.7-1.6-0.1-2l-6.3-3.1c-0.2-0.1-0.4-0.3-0.5-0.4l-3.7-6c-0.5-0.8-1.6-0.7-2,0.1
	l-3,6.2C463.5,576.3,463.3,576.4,463.1,576.6z"/>
<path class="st0" d="M963.6,556.5l5.9,3.5c0.8,0.5,0.7,1.6-0.1,2l-6.3,3.1c-0.2,0.1-0.4,0.2-0.5,0.4l-3.7,6c-0.5,0.8-1.6,0.7-2-0.1
	l-3-6.2c-0.1-0.2-0.2-0.4-0.4-0.5l-5.9-3.5c-0.8-0.5-0.7-1.6,0.1-2l6.3-3.1c0.2-0.1,0.4-0.3,0.5-0.4l3.7-6c0.5-0.8,1.6-0.7,2,0.1
	l3,6.2C963.2,556.2,963.4,556.4,963.6,556.5z"/>
<path class="st0" d="M161.6,126.4l5.9,3.5c0.8,0.5,0.7,1.6-0.1,2l-6.3,3.1c-0.2,0.1-0.4,0.2-0.5,0.4l-3.7,6c-0.5,0.8-1.6,0.7-2-0.1
	l-3-6.2c-0.1-0.2-0.2-0.4-0.4-0.5l-5.9-3.5c-0.8-0.5-0.7-1.6,0.1-2l6.3-3.1c0.2-0.1,0.4-0.3,0.5-0.4l3.7-6c0.5-0.8,1.6-0.7,2,0.1
	l3,6.2C161.3,126.1,161.4,126.3,161.6,126.4z"/>
<path class="st0" d="M263.3,8l5.9,3.5c0.8,0.5,0.7,1.6-0.1,2l-6.3,3.1c-0.2,0.1-0.4,0.2-0.5,0.4l-3.7,6c-0.5,0.8-1.6,0.7-2-0.1
	l-3-6.2c-0.1-0.2-0.2-0.4-0.4-0.5l-5.9-3.5c-0.8-0.5-0.7-1.6,0.1-2l6.3-3.1c0.2-0.1,0.4-0.2,0.5-0.4l3.7-6c0.5-0.8,1.6-0.7,2,0.1
	l3,6.2C263,7.7,263.1,7.9,263.3,8z"/>
<path class="st0" d="M8.4,59.6l3,1.8c0.4,0.2,0.4,0.8-0.1,1L8.1,64C8,64,8,64.1,7.9,64.2l-1.9,3c-0.2,0.4-0.8,0.4-1,0l-1.5-3.1
	c0-0.1-0.1-0.2-0.2-0.2l-3-1.8c-0.4-0.2-0.4-0.8,0.1-1l3.2-1.6c0.1,0,0.2-0.1,0.2-0.2l1.9-3c0.2-0.4,0.8-0.4,1,0l1.5,3.1
	C8.2,59.5,8.3,59.5,8.4,59.6z"/>
<path class="st0" d="M514.7,42.3l3,1.8c0.4,0.2,0.4,0.8-0.1,1l-3.2,1.6c-0.1,0-0.2,0.1-0.2,0.2l-1.9,3c-0.2,0.4-0.8,0.4-1,0
	l-1.5-3.1c0-0.1-0.1-0.2-0.2-0.2l-3-1.8c-0.4-0.2-0.4-0.8,0.1-1l3.2-1.6c0.1,0,0.2-0.1,0.2-0.2l1.9-3c0.2-0.4,0.8-0.4,1,0l1.5,3.1
	C514.6,42.2,514.7,42.3,514.7,42.3z"/>
<path class="st0" d="M854.8,40l3,1.8c0.4,0.2,0.4,0.8-0.1,1l-3.2,1.6c-0.1,0-0.2,0.1-0.2,0.2l-1.9,3c-0.2,0.4-0.8,0.4-1,0l-1.5-3.1
	c0-0.1-0.1-0.2-0.2-0.2l-3-1.8c-0.4-0.2-0.4-0.8,0.1-1l3.2-1.6c0.1,0,0.2-0.1,0.2-0.2l1.9-3c0.2-0.4,0.8-0.4,1,0l1.5,3.1
	C854.6,39.9,854.7,40,854.8,40z"/>
<path class="st0" d="M528.8,606.5l-3.5,2c-0.5,0.3-0.4,0.9,0.1,1.2l3.7,1.9c0.1,0.1,0.2,0.2,0.3,0.3l2.1,3.6c0.3,0.5,0.9,0.4,1.2,0
	l1.8-3.6c0.1-0.1,0.1-0.2,0.3-0.3l3.5-2c0.5-0.3,0.4-0.9-0.1-1.2l-3.7-1.9c-0.1-0.1-0.2-0.1-0.3-0.3l-2.1-3.6
	c-0.3-0.5-0.9-0.4-1.2,0l-1.8,3.6C529,606.4,528.9,606.5,528.8,606.5z"/>
<path class="st0" d="M1116.7,337.4l3.5,2c0.5,0.3,0.4,0.9,0,1.2l-3.7,1.9c-0.1,0.1-0.2,0.2-0.3,0.3l-2.1,3.6c-0.3,0.5-1,0.4-1.2,0
	l-1.8-3.6c-0.1-0.1-0.1-0.2-0.3-0.3l-3.5-2c-0.5-0.3-0.4-0.9,0-1.2l3.7-1.9c0.1-0.1,0.2-0.1,0.3-0.3l2.1-3.6c0.3-0.5,1-0.4,1.2,0
	l1.8,3.6C1116.5,337.3,1116.6,337.4,1116.7,337.4z"/>
<path class="st0" d="M134.6,427.6l2.8,1.7c0.4,0.2,0.3,0.8-0.1,1l-3,1.5c-0.1,0-0.2,0.1-0.2,0.2l-1.7,2.9c-0.2,0.4-0.8,0.4-1,0
	l-1.4-3c0-0.1-0.1-0.2-0.2-0.2l-2.8-1.7c-0.4-0.2-0.3-0.8,0.1-1l3-1.5c0.1,0,0.2-0.1,0.2-0.2l1.8-2.9c0.2-0.4,0.8-0.4,1,0l1.4,3
	C134.5,427.5,134.6,427.6,134.6,427.6z"/>
<path class="st0" d="M356.7,516.5l2.8,1.7c0.4,0.2,0.3,0.8-0.1,1l-3,1.5c-0.1,0-0.2,0.1-0.2,0.2l-1.7,2.9c-0.2,0.4-0.8,0.4-1,0
	l-1.4-3c0-0.1-0.1-0.2-0.2-0.2l-2.8-1.7c-0.4-0.2-0.3-0.8,0.1-1l3-1.5c0.1,0,0.2-0.1,0.2-0.2l1.7-2.9c0.2-0.4,0.8-0.4,1,0l1.4,3
	C356.5,516.4,356.6,516.5,356.7,516.5z"/>
<path class="st0" d="M938.6,508.5l2.8,1.7c0.4,0.2,0.3,0.8-0.1,1l-3,1.5c-0.1,0-0.2,0.1-0.2,0.2l-1.7,2.9c-0.2,0.4-0.8,0.4-1,0
	l-1.4-3c0-0.1-0.1-0.2-0.2-0.2l-2.8-1.7c-0.4-0.2-0.3-0.8,0.1-1l3-1.5c0.1,0,0.2-0.1,0.2-0.2l1.7-2.9c0.2-0.4,0.8-0.4,1,0l1.4,3
	C938.4,508.4,938.5,508.4,938.6,508.5z"/>
<path class="st0" d="M879,575.1l2.8,1.7c0.4,0.2,0.3,0.8-0.1,1l-3,1.5c-0.1,0-0.2,0.1-0.2,0.2l-1.7,2.9c-0.2,0.4-0.8,0.4-1,0l-1.4-3
	c0-0.1-0.1-0.2-0.2-0.2l-2.8-1.7c-0.4-0.2-0.3-0.8,0.1-1l3-1.5c0.1,0,0.2-0.1,0.2-0.2l1.7-2.9c0.2-0.4,0.8-0.4,1,0l1.4,3
	C878.8,574.9,878.9,575,879,575.1z"/>
<path class="st1" d="M950.4,199.6l1.5,0.9c0.2,0.1,0.2,0.4,0,0.5l-1.5,0.7c0,0-0.1,0.1-0.1,0.1l-0.8,1.4c-0.1,0.2-0.4,0.2-0.5,0
	l-0.8-1.5c0,0-0.1-0.1-0.1-0.1l-1.5-0.9c-0.2-0.1-0.2-0.4,0-0.5l1.5-0.7c0,0,0.1-0.1,0.1-0.1l0.8-1.4c0.1-0.2,0.4-0.2,0.5,0l0.8,1.5
	C950.3,199.5,950.3,199.6,950.4,199.6z"/>
<path class="st1" d="M951.5,411.5l1.5,0.9c0.2,0.1,0.2,0.4,0,0.5l-1.5,0.7c0,0-0.1,0.1-0.1,0.1l-0.8,1.4c-0.1,0.2-0.4,0.2-0.5,0
	l-0.8-1.5c0,0-0.1-0.1-0.1-0.1l-1.5-0.9c-0.2-0.1-0.2-0.4,0-0.5l1.5-0.7c0,0,0.1-0.1,0.1-0.1l0.8-1.4c0.1-0.2,0.4-0.2,0.5,0l0.8,1.5
	C951.4,411.4,951.5,411.4,951.5,411.5z"/>
<path class="st1" d="M1009.7,314.4l2.8,1.7c0.4,0.2,0.3,0.8-0.1,1l-3,1.5c-0.1,0-0.2,0.1-0.2,0.2l-1.8,2.9c-0.2,0.4-0.8,0.4-1,0
	l-1.4-3c0-0.1-0.1-0.2-0.2-0.2l-2.8-1.7c-0.4-0.2-0.3-0.8,0.1-1l3-1.5c0.1,0,0.2-0.1,0.2-0.2l1.8-2.9c0.2-0.4,0.8-0.4,1,0l1.4,3
	C1009.5,314.2,1009.6,314.3,1009.7,314.4z"/>
<path class="st1" d="M934.7,215.5l2.8,1.8c0.4,0.2,0.4,0.8,0,0.9l-2.9,1.4c-0.1,0-0.2,0.1-0.2,0.2l-1.6,2.8
	c-0.2,0.4-0.7,0.3-0.9-0.1l-1.5-3c0-0.1-0.1-0.2-0.2-0.2l-2.8-1.8c-0.4-0.2-0.4-0.8,0-0.9l2.9-1.4c0.1,0,0.2-0.1,0.2-0.2l1.6-2.8
	c0.2-0.4,0.7-0.3,0.9,0.1l1.5,3C934.6,215.3,934.6,215.4,934.7,215.5z"/>
<path class="st1" d="M252.8,312.4l2.1,1.4c0.3,0.2,0.3,0.6,0,0.7l-2.2,1c-0.1,0-0.1,0.1-0.2,0.1l-1.3,2.1c-0.2,0.3-0.6,0.2-0.7-0.1
	l-1.1-2.3c0-0.1-0.1-0.1-0.2-0.2l-2.1-1.4c-0.3-0.2-0.3-0.6,0-0.7l2.2-1c0.1,0,0.1-0.1,0.2-0.1l1.3-2.1c0.2-0.3,0.6-0.2,0.7,0.1
	l1.1,2.3C252.7,312.3,252.7,312.4,252.8,312.4z"/>
<path class="st1" d="M48.2,300.9l2.1,1.4c0.3,0.2,0.3,0.6,0,0.7l-2.2,1c-0.1,0-0.1,0.1-0.2,0.2l-1.3,2.1c-0.2,0.3-0.6,0.2-0.7-0.1
	l-1.1-2.3c0-0.1-0.1-0.1-0.2-0.2l-2.1-1.4c-0.3-0.2-0.3-0.6,0-0.7l2.2-1c0.1,0,0.1-0.1,0.2-0.1l1.3-2.1c0.2-0.3,0.6-0.2,0.7,0.1
	l1.1,2.3C48.1,300.8,48.1,300.9,48.2,300.9z"/>
<path class="st1" d="M230.9,442.4l2.1,1.2c0.3,0.2,0.3,0.5,0,0.7l-2,1.1c-0.1,0-0.1,0.1-0.2,0.1l-1.1,2c-0.1,0.3-0.5,0.3-0.7,0
	l-1.1-2.1c0-0.1-0.1-0.1-0.2-0.2l-2.1-1.2c-0.3-0.2-0.3-0.5,0-0.7l2-1.1c0.1,0,0.1-0.1,0.2-0.1l1.1-2c0.1-0.3,0.5-0.3,0.7,0l1.1,2.1
	C230.8,442.3,230.8,442.4,230.9,442.4z"/>
<path class="st1" d="M95.4,185.7l2.1,1.2c0.3,0.2,0.3,0.5,0,0.7l-2,1.1c-0.1,0-0.1,0.1-0.2,0.1l-1.1,2c-0.1,0.3-0.5,0.3-0.7,0
	l-1.1-2.1c0-0.1-0.1-0.1-0.2-0.2l-2.1-1.2c-0.3-0.2-0.3-0.5,0-0.7l2-1.1c0.1,0,0.1-0.1,0.2-0.1l1.1-2c0.1-0.3,0.5-0.3,0.7,0l1.1,2.1
	C95.3,185.6,95.3,185.7,95.4,185.7z"/>
<path class="st1" d="M215.8,450.2l4.1,2.4c0.5,0.3,0.5,1.1,0,1.3l-4.1,2.1c-0.1,0.1-0.2,0.2-0.3,0.3l-2.2,4c-0.3,0.5-1,0.5-1.3,0
	l-2.3-4.2c-0.1-0.1-0.2-0.2-0.3-0.3l-4.1-2.4c-0.5-0.3-0.5-1.1,0-1.3l4.1-2.1c0.1-0.1,0.2-0.2,0.3-0.3l2.2-4c0.3-0.5,1-0.5,1.3,0
	l2.3,4.2C215.5,450.1,215.6,450.2,215.8,450.2z"/>
<path class="st1" d="M782.4,457l4.1,2.4c0.5,0.3,0.5,1.1,0,1.3l-4.1,2.1c-0.1,0.1-0.2,0.2-0.3,0.3l-2.2,4c-0.3,0.5-1,0.5-1.3,0
	l-2.3-4.2c-0.1-0.1-0.2-0.2-0.3-0.3l-4.1-2.4c-0.5-0.3-0.5-1.1,0-1.3l4.1-2.1c0.1-0.1,0.2-0.2,0.3-0.3l2.2-4c0.3-0.5,1-0.5,1.3,0
	l2.3,4.2C782.2,456.8,782.3,456.9,782.4,457z"/>
<path class="st1" d="M725.9,152.6l2.7,1.5c0.3,0.2,0.4,0.7,0,0.9l-2.6,1.4c-0.1,0-0.2,0.1-0.2,0.2l-1.4,2.6c-0.2,0.3-0.7,0.3-0.9,0
	l-1.5-2.7c0-0.1-0.1-0.2-0.2-0.2l-2.7-1.5c-0.3-0.2-0.4-0.7,0-0.9l2.6-1.4c0.1,0,0.2-0.1,0.2-0.2l1.4-2.6c0.2-0.3,0.7-0.3,0.9,0
	l1.5,2.7C725.7,152.5,725.8,152.6,725.9,152.6z"/>
<path class="st2" d="M569,531.4c62.3,5,114.1-7.1,115.7-26.9c1.6-19.9-47.6-40.1-109.9-45.1c-62.3-5-114.1,7.1-115.7,26.9
	C457.5,506.3,506.7,526.4,569,531.4z"/>
<path class="st3" d="M573.7,470.3c56.8,4.6,102.7,21.7,109.2,39.8c1.1-1.8,1.7-3.7,1.9-5.6c1.6-19.9-47.6-40.1-109.9-45.1
	c-62.3-5-114.1,7.1-115.7,27c-0.1,1.8,0.1,3.5,0.8,5.3C469.9,475.2,517.5,465.8,573.7,470.3z"/>
<path class="st4" d="M563,432l-3.1-10.8l-18-6.5C546.9,423.8,563,432,563,432z"/>
<path class="st5" d="M566.3,437.6c-3.5,0-6.4-2.8-6.4-6.4V181.8c0-3.5,2.8-6.4,6.4-6.4s6.4,2.8,6.4,6.4v249.4
	C572.6,434.7,569.8,437.6,566.3,437.6z"/>
<path class="st6" d="M566.3,175.4c-3.5,0-6.4,2.8-6.4,6.4v80.8c0,0,8.4,2.6,8.4,15.9c0,3.7,0,54.1,0,71.1c-2,4.5-3.5,9.8-3.2,19.3
	c0.1,1.5-5.2-1-5.2-1l0,63.4c0,3.5,2.8,6.4,6.4,6.4s6.4-2.8,6.4-6.4V181.8C572.6,178.3,569.8,175.4,566.3,175.4z"/>
<path class="st0" d="M847.6,289.1H284.9c-4.9,0-8.9-2.1-8.9-4.8V63.6c0-2.6,4-4.8,8.9-4.8h562.7c4.9,0,8.9,2.1,8.9,4.8v220.7
	C856.5,286.9,852.5,289.1,847.6,289.1z"/>
<path class="st7" d="M628.2,530.9c0,0-20-57.1-22.4-66.4c-2.4-9.3-7.4-26.8-7.9-28.8c-3.1-12.4-3.5-39.3-5.1-44
	c-1.3-3.9-12.1-25-13-28.4c-1.1-4.2-0.6-11.9-1.9-13c-3.2-2.8-11.7,2.9-10.9,14c0.8,11.1,4.9,19.7,4.6,21.8c-0.3,2.1,0,33.5,0,45.1
	c0,1.8-1.5,5.3-4.3,6c-2.8,0.8-4.6-0.2-4.6-0.2s5,12.4,7.2,25.8c4.6,28.9,7.3,69.3,7.3,69.3l6.3,0.3l6.2,0.2h12.7l6.7-0.3l3.3-0.2
	l3.3-0.2l6.2-0.5l3.2-0.3L628.2,530.9z"/>
<path class="st4" d="M548.8,366.4c3.9,3.1,10.5,5,11.2,5.3l0-3.8C559.9,367.9,550.8,365.4,548.8,366.4z"/>
<path class="st7" d="M541.7,408.3c-2,4.2-1.5,7.1,6.1,9.9c7.1,2.6,16.3,6.1,18.9,2.7c2.2-2.8,3.8-7.4-7.8-11.5
	C548.3,405.7,543.5,404.5,541.7,408.3z"/>
<path class="st4" d="M558.9,409.6c-6.4-2.2-9.1-3.7-11.9-3.5c0.7,0.3,2.7,1.4,4.5,1.9c6.4,2,8,2.4,10.6,2.7
	C560.8,410,561,410.3,558.9,409.6z"/>
<path class="st7" d="M572.5,404.5c-1-4.6-10.1-7-23-12c-3.6-1.4-8.3-2.1-10,2.6c-2.1,5.7-0.4,8,8.1,11.2c8.4,3.2,15.4,4.7,17.7,5.1
	C570.8,412.2,573.1,407.3,572.5,404.5z"/>
<path class="st4" d="M545.1,391.4c3.4,2.1,6.9,3.1,12.2,4.9c4.1,1.4,6,2,8.3,2.4c-4.1-2.1-8.4-3.3-16.1-6.2
	C547.8,391.8,546.9,391.2,545.1,391.4z"/>
<path class="st4" d="M569.6,374.2c0.3,1.2,0.6,2.3,0.9,3.4c1,3.5,1.9,5.1,2.1,7.5c0.1,0.3,0.1,0.6,0.1,0.8c0.3-0.2,2-1.3,2.4-3.2
	C575.9,378.3,573.6,376.1,569.6,374.2C569.6,374.2,569.6,374.2,569.6,374.2z"/>
<path class="st4" d="M572.6,387.6c-0.1,1.8-0.1,6.1-0.1,12c1.3-0.1,2.9-2.1,3.5-3.5C577.6,391.8,575.2,388.7,572.6,387.6z"/>
<path class="st7" d="M570.8,386.6c-1.8-0.8-12.4-4.2-19.3-8c-4.2-2.3-9.7-1-11.3,3.7c-2.9,8.3,7.7,10.3,18.4,14.1
	c10.8,3.9,14.6,4.5,16.7-0.8C576.8,391.4,574.8,388.3,570.8,386.6z"/>
<path class="st4" d="M551.3,381.3c4.3,2.3,13.3,7,19.1,5.1c-2.5-1-12.7-3.2-19.3-6.9c-1.7-0.9-3.1-2.3-4.9-2.1
	C546.6,378.4,549.9,380.6,551.3,381.3z"/>
<path class="st7" d="M544.9,370.4c-1.1,3.6-0.3,6.8,3.9,8.9c5.1,2.7,21.6,12.9,25.2,3.7c3-7.8-8.3-10.4-12-12.3
	c-3.8-2-10.2-4.7-11.8-4.7C548.8,366.1,545.9,367,544.9,370.4z"/>
<path class="st8" d="M579.4,351.6c-0.5-0.7-2.1-0.9-2.6-0.6c-1.1,0.8-0.9,10-0.2,11.1c0.3,0.5,2.4,0.4,3.8,0
	C579.8,358.7,579.9,353.9,579.4,351.6z"/>
<path class="st8" d="M563.8,375.3c1.4-1.7,6.4,0.7,8.2,2.4c1.9,1.8,1.1,4.7,0.5,5.8c-1,1.7-3.6,2.1-5.6,1.7c-2-0.3-5.6-1.6-5.6-3.3
	C561.4,380.2,563,376.4,563.8,375.3z"/>
<path class="st8" d="M565.1,387.9c1.4-1.7,6.4,0.7,8.2,2.4c1.9,1.8,1.1,4.7,0.5,5.8c-1,1.7-3.6,2.1-5.6,1.7c-2-0.3-5.6-1.6-5.6-3.3
	C562.6,392.8,564.2,389,565.1,387.9z"/>
<path class="st8" d="M561.8,400.5c1.4-1.1,6.6,1.1,8.4,2.7c1.8,1.7,1,4.3,0.3,5.3c-1.1,1.5-3.6,1.5-5.6,1.1c-2-0.4-5.3-1.5-5.5-3
	C559.2,405.1,560.8,401.3,561.8,400.5z"/>
<path class="st8" d="M557.7,412.3c1.2-1.1,6.2,0.9,7.9,2.5c1.8,1.7,1,3.9,0.4,4.9c-1,1.5-3.3,1.4-5.2,1.1c-1.9-0.3-4.9-1.2-5.1-2.8
	C555.5,416.6,556.7,413.2,557.7,412.3z"/>
</svg>
