<svg id="Layer_1" data-name="Layer 1" xmlns="http://www.w3.org/2000/svg" viewBox="0 0 24 24"><defs><style>.cls-1{stroke:#000;stroke-miterlimit:10;stroke-width:0.5px;}</style></defs><title>cancellation-policy</title><path d="M15.92968,3.52344a2.51793,2.51793,0,0,1,1.55545.98673,2.42025,2.42025,0,0,1,.46468,1.43849q.00122,2.31693,0,4.63387a.70163.70163,0,0,1-.68771.78014.718.718,0,0,1-.67867-.77456c-.00377-1.54461-.00021-3.08924-.00314-4.63386a1.03474,1.03474,0,0,0-.67877-1.02163,1.31094,1.31094,0,0,0-.482-.08191q-4.92093-.00042-9.84184.00069A1.106,1.106,0,0,0,4.37857,6.05582q-.00241,6.65349,0,13.307a1.10938,1.10938,0,0,0,1.21669,1.208q3.33188.00279,6.66374.00117a.67866.67866,0,0,1,.72465.55755.66741.66741,0,0,1-.663.7814c-.62874.00564-1.25755.00188-1.88634.0019-1.6198.00007-3.24049-.03321-4.85914.01A2.51026,2.51026,0,0,1,3.02419,19.384q.049-6.67364.00245-13.34785A2.50494,2.50494,0,0,1,4.9041,3.56355a1.1656,1.1656,0,0,0,.11543-.04011Z"/><path d="M9.10849,8.69987c-.61323-.00018-1.22655.00618-1.83966-.00223a.65316.65316,0,0,1-.66466-.8258.67573.67573,0,0,1,.70116-.48444c.48772-.006.97557-.00217,1.46337-.00227.655-.00015,4.45526-.00007,5.1103,0,.06272,0,.12553-.00114.18813.00176a.65806.65806,0,1,1-.0156,1.3119C13.45228,8.70362,9.70778,8.7,9.10849,8.69987Z"/><path d="M9.1057,11.20958c-.61323-.0001-1.22655.00642-1.83966-.0022a.65289.65289,0,0,1-.66114-.82828.67679.67679,0,0,1,.70325-.48191C7.8377,9.89136,8.36736,9.89508,8.897,9.895c.61324-.00014,4.37164-.0001,4.98488.0001.06967,0,.13955-.00158.209.00295a.67045.67045,0,0,1,.67849.65657.66369.66369,0,0,1-.69966.65349C13.46345,11.21426,9.712,11.20968,9.1057,11.20958Z"/><path d="M9.1057,13.55214c-.61323-.0001-1.22655.00642-1.83966-.00221a.65288.65288,0,0,1-.66114-.82827.67679.67679,0,0,1,.70325-.48191c.52955-.00583,1.05921-.00211,1.58881-.00223q.91986-.00021,1.8397.0001c.06968,0,.13955-.00158.209.00294a.67047.67047,0,0,1,.67849.65658.66372.66372,0,0,1-.69967.65349C10.31827,13.55682,9.712,13.55224,9.1057,13.55214Z"/><path class="cls-1" d="M17.20505,12.99176a3.88632,3.88632,0,1,1-3.88147,3.88642A3.87495,3.87495,0,0,1,17.20505,12.99176ZM13.96586,16.8816a3.246,3.246,0,1,0,3.23932-3.2534A3.22654,3.22654,0,0,0,13.96586,16.8816Z"/><path class="cls-1" d="M15.57659,18.198a.3415.3415,0,0,1,.1207-.26254c.32986-.32875.65761-.65963.98932-.98649.05616-.05533.06044-.08648.00139-.14452q-.5107-.502-1.01348-1.012a.31755.31755,0,0,1,.14445-.54117.32857.32857,0,0,1,.32558.107c.32869.32991.66023.657.98611.98968.06283.06414.09577.06308.15793-.00029q.49532-.50493.99941-1.00123a.31632.31632,0,0,1,.53351.09906.31189.31189,0,0,1-.0823.35367c-.33392.333-.66517.66865-1.00205.99859-.06406.06274-.06332.0946.00008.15672.33053.32387.65579.65311.98342.97995a.3833.3833,0,0,1,.11717.1919.31674.31674,0,0,1-.15335.34486.31162.31162,0,0,1-.38071-.04976c-.15355-.14876-.3032-.30154-.45443-.45269-.1906-.19053-.383-.3793-.57043-.57292-.05193-.05366-.08048-.06014-.13712-.00247-.33454.34059-.67293.67741-1.01171,1.0138a.31746.31746,0,0,1-.46906.00609A.30654.30654,0,0,1,15.57659,18.198Z"/></svg>