<svg id="Layer_1" data-name="Layer 1" xmlns="http://www.w3.org/2000/svg" viewBox="0 0 24 24"><title>privacy-policy</title><path d="M14.92968,1.52344a2.51793,2.51793,0,0,1,1.55545.98673,2.42025,2.42025,0,0,1,.46468,1.43849q.00122,2.31693,0,4.63387a.70163.70163,0,0,1-.68771.78014.718.718,0,0,1-.67867-.77456c-.00377-1.54461-.00021-3.08924-.00314-4.63386a1.03474,1.03474,0,0,0-.67877-1.02163,1.31094,1.31094,0,0,0-.482-.08191q-4.92093-.00042-9.84184.00069A1.106,1.106,0,0,0,3.37857,4.05582q-.00242,6.65349,0,13.307a1.10938,1.10938,0,0,0,1.21669,1.208q3.33188.00279,6.66374.00117a.67866.67866,0,0,1,.72465.55755.66741.66741,0,0,1-.663.7814c-.62874.00564-1.25755.00188-1.88634.0019-1.6198.00007-3.24049-.03321-4.85914.01A2.51026,2.51026,0,0,1,2.02419,17.384q.049-6.67364.00245-13.34785A2.50494,2.50494,0,0,1,3.9041,1.56355a1.1656,1.1656,0,0,0,.11543-.04011Z"/><path d="M23.05078,16.65821a6.492,6.492,0,0,1-.59463,1.908,7.87418,7.87418,0,0,1-2.21557,2.60107,11.35135,11.35135,0,0,1-1.99549,1.24733.91832.91832,0,0,1-.87965.00155,9.5769,9.5769,0,0,1-3.85435-3.22343,5.598,5.598,0,0,1-.97688-3.20432c.01006-1.13444.00179-2.269.00238-3.40356a.68836.68836,0,0,1,.54033-.76449c1.455-.49523,2.91115-.98722,4.36451-1.48728a1.017,1.017,0,0,1,.69715-.00781q2.199.75727,4.40388,1.49753a.87969.87969,0,0,1,.50832.4467Zm-1.32694-1.966c0-.56031-.009-1.01846.00441-1.476a.28055.28055,0,0,0-.23225-.3191q-1.76892-.59-3.532-1.19737a.49443.49443,0,0,0-.33811.00834q-1.77484.60429-3.5519,1.202a.24807.24807,0,0,0-.19953.2787c.0068.91572-.00155,1.83155.00487,2.74727a4.39626,4.39626,0,0,0,.65483,2.31713,8.05729,8.05729,0,0,0,3.1682,2.80783.19984.19984,0,0,0,.21075-.00283,8.63658,8.63658,0,0,0,2.76826-2.24173,4.53928,4.53928,0,0,0,1.02142-2.56717C21.73617,15.69561,21.70552,15.14275,21.72384,14.69223Z"/><path d="M17.57576,18.59923a.62033.62033,0,0,1-.4784-.19584c-.58039-.57871-1.163-1.15527-1.73745-1.73981a.66884.66884,0,0,1,.00742-.97222.6615.6615,0,0,1,.95519.02471c.34706.33863.69212.67966,1.02731,1.02994.12116.12661.18353.1281.29131-.0178.65333-.88435,1.31709-1.761,1.975-2.64194a.67934.67934,0,0,1,.70092-.32073.66563.66563,0,0,1,.43549,1.05764c-.29709.42528-.61765.83419-.92877,1.24963q-.8167,1.09057-1.63416,2.1806A.70832.70832,0,0,1,17.57576,18.59923Z"/><path d="M8.10849,6.69987c-.61323-.00018-1.22655.00618-1.83966-.00223a.65316.65316,0,0,1-.66466-.8258.67573.67573,0,0,1,.70116-.48444c.48772-.006.97557-.00217,1.46337-.00227.655-.00015,4.45526-.00007,5.1103,0,.06272,0,.12553-.00114.18813.00176a.65806.65806,0,1,1-.0156,1.3119C12.45228,6.70362,8.70778,6.70005,8.10849,6.69987Z"/><path d="M8.1057,9.20958c-.61323-.0001-1.22655.00642-1.83966-.0022A.65289.65289,0,0,1,5.6049,8.3791a.67679.67679,0,0,1,.70325-.48191C6.8377,7.89136,7.36736,7.89508,7.897,7.895c.61324-.00014,4.37164-.0001,4.98488.0001.06967,0,.13955-.00158.209.003a.67045.67045,0,0,1,.67849.65657.66369.66369,0,0,1-.69966.65349C12.46345,9.21426,8.712,9.20968,8.1057,9.20958Z"/><path d="M8.1057,11.55214c-.61323-.0001-1.22655.00642-1.83966-.00221a.65288.65288,0,0,1-.66114-.82827.67679.67679,0,0,1,.70325-.48191c.52955-.00583,1.05921-.00211,1.58881-.00223q.91986-.00021,1.8397.0001c.06968,0,.13955-.00158.209.00294a.67047.67047,0,0,1,.67849.65658.66372.66372,0,0,1-.69967.65349C9.31827,11.55682,8.712,11.55224,8.1057,11.55214Z"/></svg>