<svg id="Layer_1" data-name="Layer 1" xmlns="http://www.w3.org/2000/svg" viewBox="0 0 24 24"><defs><style>.cls-1{opacity:0.9;}</style></defs><title>reward1</title><g class="cls-1"><path d="M17.82711,21.84358H5.53356c-.01538-.00963-.02984-.02559-.04627-.028a2.30246,2.30246,0,0,1-1.91035-2.3691c.02817-2.08468.00593-4.17.01116-6.25509.00038-.15216-.03157-.20172-.19188-.19731-.43666.012-.87387.00412-1.31086.00412v-3.898A.29807.29807,0,0,0,2.11642,9.035,2.24685,2.24685,0,0,1,4.4283,7.15135C5.17166,7.151,5.915,7.148,6.65835,7.154c.15143.00121.16577-.031.09686-.16088a2.7757,2.7757,0,0,1-.31714-1.16517,2.99465,2.99465,0,0,1,5.1273-2.27384c.09026.091.13213.1009.22779.003a2.892,2.892,0,0,1,1.94343-.89691,2.99872,2.99872,0,0,1,2.88935,4.29814c-.09231.19281-.09231.19293.12952.193.77459.00029,1.54928-.007,2.32375.00248a2.24029,2.24029,0,0,1,2.19211,2.17611c.01387,1.17422.00214,2.34872.00636,3.52309.00041.1132-.02709.15046-.14511.14807-.37465-.00761-.74992.007-1.1242-.007-.18092-.00678-.23846.0312-.23765.22874q.01293,3.1764.00371,6.35288a2.2195,2.2195,0,0,1-.93993,1.84645A2.86361,2.86361,0,0,1,17.82711,21.84358Zm-6.89638-5.17377c0-1.16164-.00209-2.32329.00277-3.48492.00058-.13755-.022-.19115-.179-.19062q-2.74482.00925-5.48968.00051c-.14781-.00042-.18472.03885-.18439.18522q.00726,3.17575.0037,6.35155a.75341.75341,0,0,0,.82066.8125c1.61131.00084,3.22263-.002,4.83392.004.15422.00057.19685-.03549.19587-.19331C10.92741,18.99312,10.93073,17.83146,10.93073,16.66981ZM12.43,16.65239c0,1.16787.00187,2.33575-.00256,3.50361-.00051.13466.017.19315.177.19248,1.62375-.00675,3.24755-.00324,4.87133-.00467a.75119.75119,0,0,0,.80069-.81378q.00144-3.17574.00393-6.35147c.00037-.14932-.04115-.184-.186-.18357q-2.73543.00738-5.47088-.00029c-.15182-.00046-.1986.03128-.19756.19158C12.43343,14.34161,12.43,15.497,12.43,16.65239ZM7.26518,11.499c1.16159,0,2.32319-.00286,3.48475.00355.14846.00082.18548-.03969.18422-.18562q-.01063-1.23645.00025-2.473c.00144-.15218-.03187-.19777-.19185-.19732-2.11707.00584-4.23418.00335-6.35127.00431a.75126.75126,0,0,0-.80631.80755c-.00157.61826.00623,1.23665-.0048,1.85472-.00294.1651.05248.18988.20025.18912C4.942,11.49635,6.10359,11.499,7.26518,11.499Zm8.83031,0c1.16782,0,2.33564-.002,3.50344.00278.13142.00053.18335-.02028.18112-.16977-.00939-.63061-.002-1.26144-.00468-1.89218a.747.747,0,0,0-.78746-.78865c-2.12955-.0015-4.2591.00093-6.38864-.00421-.14494-.00035-.17346.04274-.17244.17832q.00934,1.24581-.00032,2.4917c-.00124.146.036.18637.18429.18555C13.77234,11.49615,14.93392,11.499,16.09549,11.499ZM13.2966,7.15117v-.001c.22473,0,.44959.00506.67416-.00092a1.49928,1.49928,0,0,0,.113-2.99A1.48032,1.48032,0,0,0,12.465,5.37378a12.55973,12.55973,0,0,0-.03436,1.70092c-.00232.089.06274.076.11688.07616C12.7972,7.15157,13.0469,7.15117,13.2966,7.15117Zm-2.36589-.86041h-.00106c0-.22473.00465-.44957-.00083-.67417A1.49816,1.49816,0,1,0,9.38727,7.14828c.468.01059.93642-.00188,1.40449.006.12343.00208.1441-.04438.141-.15191C10.92606,6.76533,10.93071,6.528,10.93071,6.29076Z"/></g></svg>