<svg id="Layer_1" data-name="Layer 1" xmlns="http://www.w3.org/2000/svg" viewBox="0 0 25.49028 24.73116"><title>Shop</title><path d="M14.17366,26.60522H9.172q-1.00218,0-2.00437-.00011c-.11551,0-.2311.001-.34652-.00271a4.53855,4.53855,0,0,1-1.7529-.38662,4.2613,4.2613,0,0,1-2.44209-3.32147c-.01273-.102-.02017-.20477-.02739-.30756-.02036-.29011-.01115-.58035-.01151-.8705-.00127-1.02093-.01028-2.042.003-3.06275.01276-.98336.00444-1.9666.008-2.94988.00352-.98033.0003-1.96068.00142-2.941a1.40488,1.40488,0,0,0-.04056-.33352.98174.98174,0,0,0-.17724-.36859c-.06626-.08684-.13307-.17335-.19662-.26216a4.41428,4.41428,0,0,1-.59781-1.16151,4.06785,4.06785,0,0,1-.17006-.72832,4.58181,4.58181,0,0,1-.02881-.897,4.26689,4.26689,0,0,1,.11363-.76778Q1.67949,7.5063,1.86167,6.77c.15114-.60569.30566-1.21054.45974-1.8155.05315-.20869.10677-.41732.1647-.62472a3.521,3.521,0,0,1,.54373-1.13416,3.01273,3.01273,0,0,1,1.0704-.91836,3.33864,3.33864,0,0,1,1.1413-.34421,3.48714,3.48714,0,0,1,.39221-.02438c.34949-.00237.69894-.00985,1.04843-.01228.31844-.00221.637-.00612.95534.00056,1.08628.02279,2.17263.00767,3.25894.01061,1.08649.003,2.173.00067,3.25948.0006a.88762.88762,0,0,0,.2236-.01494.16768.16768,0,0,1,.03725-.00314c.17153-.00419.34306-.01153.51459-.01171,1.024-.00111,2.04822-.01032,3.07212.00214,1.06453.013,2.129.00276,3.19343.011.24663.0019.49328.00151.73989.00484.28391.00383.56823.00234.85157.01783a3.257,3.257,0,0,1,1.66341.539,3.01551,3.01551,0,0,1,.88645.91433,3.69015,3.69015,0,0,1,.44583,1.03676c.17575.67348.35505,1.346.53049,2.01961.17862.68577.34136,1.37524.47176,2.072q.0491.26239.07555.528c.00337.03413.00466.06856.00494.10287.0011.13736.00463.2748.00144.41207a3.64709,3.64709,0,0,1-.22491,1.17161,4.60816,4.60816,0,0,1-.73483,1.29829,1.13333,1.13333,0,0,0-.16419.24966,1.087,1.087,0,0,0-.0926.43651c-.0002,1.06151-.00933,2.12314.0031,3.18451.00848.72422.00549,1.44833.00838,2.17247.00288.72432.00978,1.44882-.0026,2.17294-.01271.743-.0031,1.48582-.00907,2.22869a3.978,3.978,0,0,1-.09367.817,4.19768,4.19768,0,0,1-.74821,1.64006,4.0928,4.0928,0,0,1-.27643.33006,4.31783,4.31783,0,0,1-2.29147,1.2821,5.22172,5.22172,0,0,1-.54751.0694c-.16229.0134-.32427.01276-.48647.01278Q17.69072,26.60548,14.17366,26.60522ZM3.7862,18.13851q0,1.46109.0001,2.92218c.0001.32781-.00107.65564.003.98341.00258.20582-.00225.41158.01188.61761a2.89376,2.89376,0,0,0,.80105,1.80277,2.99567,2.99567,0,0,0,2.03457.93349c.27732.014.55555-.0017.83283.01995q.94128.00018,1.88257.00054a.71186.71186,0,0,0,.21182-.03369.41465.41465,0,0,0,.29013-.29255.77907.77907,0,0,0,.034-.23065q-.00207-.32312-.00206-.64624-.00033-1.11924-.00008-2.23848,0-.49639,0-.99278a8.30175,8.30175,0,0,1,.03744-1.00971,3.90511,3.90511,0,0,1,.14195-.68662,4.1404,4.1404,0,0,1,.73918-1.37814,4.39467,4.39467,0,0,1,.75772-.73445,4.54665,4.54665,0,0,1,.76583-.4679,4.01366,4.01366,0,0,1,1.49072-.405,3.87512,3.87512,0,0,1,.90566.0374,4.54846,4.54846,0,0,1,1.60074.58292,4.10426,4.10426,0,0,1,1.08054.9301,4.1823,4.1823,0,0,1,.71959,1.29481,4.24045,4.24045,0,0,1,.19656.83716,3.91578,3.91578,0,0,1,.04056.51286q.0008,1.73271.00176,3.46542.00015.44956-.00213.89913a.79792.79792,0,0,0,.02259.20415.42236.42236,0,0,0,.31572.32482.77037.77037,0,0,0,.21259.02846c.7709-.0098,1.542.01339,2.31278-.0138.17766-.00626.35547.00072.533-.01932a3.1698,3.1698,0,0,0,.8071-.19644,2.96014,2.96014,0,0,0,1.17752-.8402A3.03217,3.03217,0,0,0,24.463,22.415c-.0001-.70244.00329-1.40488.00347-2.10733q.00079-3.161.00017-6.32207c0-.04059.00047-.08119-.00054-.12175a.75507.75507,0,0,0-.00587-.0934.401.401,0,0,0-.19663-.31309.41913.41913,0,0,0-.28928-.0488,1.47344,1.47344,0,0,0-.20723.05779,3.79405,3.79405,0,0,1-1.018.19276,4.27925,4.27925,0,0,1-.92374-.04956,4.453,4.453,0,0,1-1.03336-.29212,4.40285,4.40285,0,0,1-1.62232-1.20818c-.11426-.13246-.22112-.27075-.32625-.41045-.015-.01995-.03027-.03972-.046-.05909a.11636.11636,0,0,0-.10022-.04016.14754.14754,0,0,0-.10925.06417c-.0899.1038-.18112.2065-.26916.31186a4.89686,4.89686,0,0,1-.5886.60155,4.55852,4.55852,0,0,1-1.831.9457,4.76818,4.76818,0,0,1-.766.12408c-.23655.01933-.47352.02286-.71043.02942-.06831.00189-.13688-.00915-.20541-.01055-.29948-.0061-.599-.00664-.89851-.01705a5.191,5.191,0,0,1-.79056-.08016,4.18491,4.18491,0,0,1-1.49421-.59937,4.66516,4.66516,0,0,1-.62307-.47849,3.59775,3.59775,0,0,1-.51638-.55306.428.428,0,0,0-.25831-.17434c-.04558-.01036-.09175-.01884-.13809-.02489a.14428.14428,0,0,0-.13427.05041c-.01022.01179-.01952.02436-.02944.03641a6.38546,6.38546,0,0,1-.72729.75381,4.81222,4.81222,0,0,1-.752.53938,4.05188,4.05188,0,0,1-1.90834.54006,4.6769,4.6769,0,0,1-.72845-.038A5.67764,5.67764,0,0,1,4.3023,13.432c-.08993-.02607-.17913-.05489-.26972-.07838a.11321.11321,0,0,0-.1567.07765,1.1773,1.1773,0,0,0-.09113.41761Q3.78838,15.99369,3.7862,18.13851Zm10.33415-15.043V3.09319q-1.6953,0-3.39059.00019a1.4578,1.4578,0,0,0-.16839.005.471.471,0,0,0-.44137.38145.82005.82005,0,0,0-.02062.19493c.0004.16858.00189.33717.0019.50576q.00024,2.36031.00005,4.72062a4.67219,4.67219,0,0,0,.0359.70045,3.42378,3.42378,0,0,0,.28408.957,3.29232,3.29232,0,0,0,2.16358,1.7924,3.88158,3.88158,0,0,0,.93457.12651c.29343.00155.58709.00451.88027-.00511.20583-.00675.41166-.01172.61753-.01637.01871-.00042.03746-.00148.05608-.00334a3.75359,3.75359,0,0,0,.67966-.12859,3.24534,3.24534,0,0,0,.90546-.4201,3.33472,3.33472,0,0,0,1.21971-1.47122,3.38987,3.38987,0,0,0,.26826-1.33128q.00345-1.95288.00086-3.90576c0-.09366.00093-.18733.00116-.281q.0015-.61348.00308-1.227a.89038.89038,0,0,0-.03026-.23125.45118.45118,0,0,0-.33192-.33575.76529.76529,0,0,0-.22221-.02749c-.14673.00077-.29347.00208-.4402.00211Q15.62365,3.09566,14.12035,3.09548ZM19.33863,7.045c.00666.43953-.016,1.1419.01156,1.844.00527.13406.00109.26846.00336.40267.00216.12782.00319.25538.01587.38324a3.09342,3.09342,0,0,0,.20832.852,3.02591,3.02591,0,0,0,.83449,1.17048,3.1453,3.1453,0,0,0,.8812.542,3.26786,3.26786,0,0,0,1.0368.23282,2.98911,2.98911,0,0,0,.75451-.05376,3.12149,3.12149,0,0,0,1.18745-.48582,3.23636,3.23636,0,0,0,1.03748-1.149,3.16361,3.16361,0,0,0,.36621-1.2872,2.70119,2.70119,0,0,0-.04377-.71764c-.034-.17138-.07476-.34141-.11278-.512-.12563-.56361-.26717-1.12342-.40491-1.68412-.09082-.36975-.18776-.738-.2831-1.10665-.08362-.32331-.16355-.64771-.25474-.96889a1.862,1.862,0,0,0-.56014-.89251,2.07364,2.07364,0,0,0-1.33479-.51611c-.11842-.00535-.23722-.003-.35584-.00291q-.8991.00069-1.7982.00194c-.21229.00012-.42457-.00139-.63685-.002-.03122-.00009-.06256-.001-.09363.00133a.45047.45047,0,0,0-.43778.38977.63384.63384,0,0,0-.00794.10255c-.00574.44-.00135.87994-.00976,1.32C19.32973,5.53339,19.33863,6.15794,19.33863,7.045ZM8.89318,4.04894c0-.128-.00117-.25595.00048-.3839a.8089.8089,0,0,0-.02192-.1949.44465.44465,0,0,0-.32505-.35245.66011.66011,0,0,0-.18491-.024c-.10923-.00008-.21846.0016-.32769.00172q-1.18449.0013-2.369.00162a2.402,2.402,0,0,0-.63786.086A1.8803,1.8803,0,0,0,4.011,3.86275a2.20937,2.20937,0,0,0-.391.83274q-.46379,1.85734-.92888,3.71438a3.87868,3.87868,0,0,0-.11718.94489,2.78813,2.78813,0,0,0,.03268.40067,2.99669,2.99669,0,0,0,.25463.85809,3.16741,3.16741,0,0,0,.48195.733,3.69843,3.69843,0,0,0,.41189.40841,2.90659,2.90659,0,0,0,.86233.50037,3.108,3.108,0,0,0,1.01359.205,3.41227,3.41227,0,0,0,.44912-.00826,3.1307,3.1307,0,0,0,2.02244-1.02869,3.10361,3.10361,0,0,0,.53334-.82115,2.873,2.873,0,0,0,.259-1.17033c.001-.58053.00254-1.16109-.0004-1.74161-.003-.58348.01177-1.167-.01167-1.75047-.00814-.20256.0002-.40573-.00233-.60858-.00482-.387.00808-.7737.01263-1.16053C8.89362,4.1301,8.89321,4.08952,8.89318,4.04894Zm2.18231,18.6096h-.0022q0,1.08624.00006,2.17247c0,.03745-.00131.07509.0018.11232a.46756.46756,0,0,0,.40272.46025.84635.84635,0,0,0,.158.01463c.2246-.00112.44914-.00671.67365-.01018.48682-.00752.97383-.00264,1.46076-.002a2.67546,2.67546,0,0,1,.31795.01.76858.76858,0,0,0,.12145-.00194c.04984-.002.09965-.0077.14943-.00729.59286.00491,1.18581-.01353,1.77863.01012.16828.00671.33707.00073.50562.0012a.69087.69087,0,0,0,.20259-.03234.43138.43138,0,0,0,.30688-.31213.824.824,0,0,0,.02459-.23177q-.00149-2.11627-.002-4.23255A3.38479,3.38479,0,0,0,17.14,20.1057a3.02523,3.02523,0,0,0-1.04317-1.89209,3.00746,3.00746,0,0,0-1.13118-.60379,3.3866,3.3866,0,0,0-.831-.12229c-.06513-.00206-.13057.01012-.196.01153a2.21367,2.21367,0,0,0-.36207.04266,3.0198,3.0198,0,0,0-1.71791.95774,2.99406,2.99406,0,0,0-.54686.86647,3.12492,3.12492,0,0,0-.23655,1.19507Q11.07647,21.60977,11.07549,22.65854Z" transform="translate(-1.37929 -1.87409)"/></svg>