<?xml version="1.0" encoding="utf-8"?>
<!-- Generator: Adobe Illustrator 23.0.5, SVG Export Plug-In . SVG Version: 6.00 Build 0)  -->
<svg version="1.1" id="Layer_1" xmlns="http://www.w3.org/2000/svg" xmlns:xlink="http://www.w3.org/1999/xlink" x="0px" y="0px"
	 viewBox="0 0 24 24" style="enable-background:new 0 0 24 24;" xml:space="preserve">
<title>wallet</title>
<path d="M22.7,7.6v11.7c0,0.1,0,0.2-0.1,0.2c-0.3,1.3-1.5,2.2-2.8,2.2c-5.2,0-10.4,0-15.7,0c-1.6,0-2.8-1.3-2.8-2.9
	c0-4.5,0-8.9,0-13.4c0-0.1,0-0.2,0-0.4c0.2-1.5,1.4-2.5,2.9-2.5c4.5,0,8.9,0,13.4,0c1.4,0,2.7,1,2.9,2.5c0,0.1,0.1,0.2,0.2,0.3
	c0.3,0.1,0.6,0.3,0.8,0.5C22.2,6.3,22.5,6.9,22.7,7.6z M12,6.6c-2.6,0-5.1,0-7.7,0c-0.9,0-1.6,0.7-1.6,1.5c0,0,0,0,0,0
	c0,3.5,0,7.1,0,10.6c0,0.1,0,0.3,0,0.4c0.2,0.7,0.8,1.2,1.5,1.1c1.3,0,2.6,0,4,0c3.8,0,7.6,0,11.5,0c0.9,0,1.6-0.6,1.6-1.5
	c0,0,0-0.1,0-0.1c0-0.6,0-1.2,0-1.8c0-0.3,0-0.3-0.3-0.3c-1.3,0-2.6,0-3.8,0c-0.2,0-0.4,0-0.5,0c-1.7-0.2-2.9-1.8-2.7-3.5
	c0.2-1.5,1.5-2.7,3.1-2.7c1.3,0,2.6,0,3.9,0c0.3,0,0.3,0,0.3-0.3c0-0.6,0-1.3,0-1.9c0-0.1,0-0.3,0-0.4c-0.2-0.7-0.8-1.2-1.5-1.2
	C17.2,6.6,14.6,6.6,12,6.6z M11.5,5.2c2.4,0,4.8,0,7.2,0c0.1,0,0.4,0.1,0.4,0C19.2,5,19,4.8,18.9,4.7C18.6,4.2,18.1,4,17.5,4
	c-4.4,0-8.8,0-13.2,0c-0.1,0-0.3,0-0.4,0C3.3,4.2,2.8,4.7,2.7,5.4c0,0.1,0,0.2,0.2,0.1c0.5-0.2,1-0.3,1.5-0.3
	C6.7,5.2,9.1,5.2,11.5,5.2z M19,15.2c0.7,0,1.4,0,2,0c0.2,0,0.3-0.1,0.2-0.2c0-1,0-2,0-3c0-0.2-0.1-0.2-0.2-0.2c-1.3,0-2.7,0-4,0
	c-0.9,0-1.7,0.8-1.7,1.7c0,0.9,0.8,1.7,1.7,1.7c0,0,0,0,0,0C17.7,15.2,18.4,15.2,19,15.2L19,15.2z"/>
<path d="M16.6,13.6c0-0.4,0.3-0.7,0.7-0.7c0,0,0,0,0,0c0.4,0,0.7,0.3,0.7,0.7c0,0.4-0.3,0.7-0.7,0.7C16.9,14.3,16.6,14,16.6,13.6
	C16.6,13.6,16.6,13.6,16.6,13.6z"/>
<g>
	<path d="M8,18.1c-1-1-2-2-3-3C4.9,15,4.9,15,4.9,14.9c0-0.3,0-0.5,0-0.8c0-0.1,0-0.1,0.1-0.1c0.6,0,1.2,0,1.7,0
		c0.7,0,1.1-0.3,1.4-0.9c0,0,0,0,0,0c0-0.1,0-0.1-0.1-0.1c-1.1,0-2.1,0-3.2,0c-0.1,0-0.1,0-0.1-0.1c0-0.3,0-0.6,0-0.8
		c0-0.1,0-0.1,0.1-0.1c1.1,0,2.1,0,3.2,0c0.1,0,0.1,0,0.1-0.1c-0.3-0.6-0.8-0.9-1.5-0.9c-0.6,0-1.2,0-1.8,0c-0.1,0-0.1,0-0.1-0.1
		c0-0.3,0-0.6,0-0.9c0-0.1,0-0.1,0.1-0.1c1.7,0,3.5,0,5.2,0c0.1,0,0.1,0,0.1,0.1c0,0.3,0,0.6,0,0.9c0,0.1,0,0.1-0.1,0.1
		c-0.4,0-0.8,0-1.1,0c0,0-0.1,0-0.1,0c0,0.1,0.1,0.1,0.1,0.2c0.2,0.2,0.3,0.5,0.3,0.8c0,0.1,0,0.1,0.1,0.1c0.2,0,0.4,0,0.7,0
		c0.1,0,0.1,0,0.1,0.1c0,0.3,0,0.6,0,0.9c0,0.1,0,0.1-0.1,0.1c-0.2,0-0.5,0-0.7,0c-0.1,0-0.1,0-0.1,0.1c-0.3,1.1-1,1.8-2.1,2
		c-0.2,0-0.3,0-0.5,0c-0.1,0-0.2,0-0.3,0c0,0,0,0.1,0.1,0.1c0.7,0.7,1.5,1.5,2.2,2.2c0.1,0.1,0.1,0.1,0,0.1
		C8.5,17.7,8.3,17.9,8,18.1C8,18.1,8,18.1,8,18.1z"/>
</g>
</svg>
