<?xml version="1.0" encoding="utf-8"?>
<!-- Generator: Adobe Illustrator 23.0.5, SVG Export Plug-In . SVG Version: 6.00 Build 0)  -->
<svg version="1.1" id="Layer_1" xmlns="http://www.w3.org/2000/svg" xmlns:xlink="http://www.w3.org/1999/xlink" x="0px" y="0px"
	 viewBox="0 0 114 98" style="enable-background:new 0 0 114 98;" xml:space="preserve">
<style type="text/css">
	.st0{fill:#A73934;}
	.st1{fill:#FFFFFF;}
</style>
<path class="st0" d="M0.3,60.5l7.8-11.3L0.2,37.9h113.4l-7.8,11.3l7.9,11.3H0.3z"/>
<path class="st0" d="M21.6,35.5C27.1,21.3,40.9,11.2,57,11.2c16.1,0,29.9,10.1,35.4,24.2H94c-5.6-15-20.1-25.7-37-25.7
	c-16.9,0-31.4,10.7-37,25.7H21.6z"/>
<path class="st0" d="M92.4,63C86.8,77.1,73.1,87.2,57,87.2c-16.1,0-29.9-10.1-35.4-24.2h-1.6C25.5,78,40,88.7,57,88.7S88.4,78,94,63
	H92.4z"/>
<path class="st0" d="M90.3,35.5C84.9,22.4,72,13.1,57,13.1s-28,9.2-33.4,22.3H90.3z"/>
<path class="st0" d="M23.6,63C29,76.1,41.9,85.3,57,85.3c15.1,0,28-9.2,33.4-22.3H23.6z"/>
<path class="st0" d="M14,35c0.1,0.1,0.1,0.3,0.2,0.4h4.5C24.3,19.7,39.3,8.5,57,8.5s32.7,11.2,38.3,26.9h4.5c0-0.2,0.1-0.3,0.2-0.4
	l1.6-2.9c0.5-0.9,0-2-0.9-2.3l-3.1-0.9c-0.8-0.3-1.3-1.1-1.1-2l1-3.1c0.3-1-0.4-2-1.4-2.1l-3.3-0.3c-0.9-0.1-1.5-0.9-1.4-1.7
	l0.3-3.3c0.1-1-0.7-1.8-1.7-1.7L86.5,15c-0.9,0.1-1.7-0.6-1.7-1.4l-0.3-3.3c-0.1-1-1.1-1.7-2.1-1.4l-3.1,1c-0.8,0.3-1.7-0.2-2-1.1
	l-0.9-3.1c-0.3-1-1.4-1.4-2.3-0.9l-2.9,1.6c-0.8,0.4-1.7,0.1-2.2-0.7l-1.5-2.9c-0.5-0.9-1.6-1.1-2.4-0.5l-2.5,2.1
	c-0.7,0.6-1.7,0.5-2.2-0.2l-2.1-2.5c-0.6-0.8-1.8-0.8-2.5,0l-2.1,2.5c-0.6,0.7-1.6,0.8-2.2,0.2l-2.5-2.1c-0.8-0.6-1.9-0.4-2.4,0.5
	l-1.5,2.9c-0.4,0.8-1.4,1.1-2.2,0.7l-2.9-1.6c-0.9-0.5-2,0-2.3,0.9l-0.9,3.1c-0.3,0.8-1.1,1.3-2,1.1l-3.1-1c-1-0.3-2,0.4-2.1,1.4
	l-0.3,3.3c-0.1,0.9-0.9,1.5-1.7,1.4l-3.3-0.3c-1-0.1-1.8,0.7-1.7,1.7l0.3,3.3c0.1,0.9-0.6,1.7-1.4,1.7L18,21.7
	c-1,0.1-1.7,1.1-1.4,2.1l1,3.1c0.3,0.8-0.2,1.7-1.1,2l-3.1,0.9c-1,0.3-1.4,1.4-0.9,2.3L14,35z"/>
<path class="st0" d="M99.9,63.4c-0.1-0.1-0.1-0.3-0.2-0.4h-4.5C89.6,78.7,74.6,89.9,57,89.9S24.3,78.7,18.6,63h-4.5
	c0,0.2-0.1,0.3-0.2,0.4l-1.6,2.9c-0.5,0.9,0,2,0.9,2.3l3.1,0.9c0.8,0.3,1.3,1.1,1.1,2l-1,3.1c-0.3,1,0.4,2,1.4,2.1l3.3,0.3
	c0.9,0.1,1.5,0.9,1.4,1.7L22.4,82c-0.1,1,0.7,1.8,1.7,1.7l3.3-0.3c0.9-0.1,1.7,0.6,1.7,1.4l0.3,3.3c0.1,1,1.1,1.7,2.1,1.4l3.1-1
	c0.8-0.3,1.7,0.2,2,1.1l0.9,3.1c0.3,1,1.4,1.4,2.3,0.9l2.9-1.6c0.8-0.4,1.7-0.1,2.2,0.7l1.5,2.9c0.5,0.9,1.6,1.1,2.4,0.5l2.5-2.1
	c0.7-0.6,1.7-0.5,2.2,0.2l2.1,2.5c0.6,0.8,1.8,0.8,2.5,0l2.1-2.5c0.6-0.7,1.6-0.8,2.2-0.2l2.5,2.1c0.8,0.6,1.9,0.4,2.4-0.5l1.5-2.9
	c0.4-0.8,1.4-1.1,2.2-0.7l2.9,1.6c0.9,0.5,2,0,2.3-0.9l0.9-3.1c0.3-0.8,1.1-1.3,2-1.1l3.1,1c1,0.3,2-0.4,2.1-1.4l0.3-3.3
	c0.1-0.9,0.9-1.5,1.7-1.4l3.3,0.3c1,0.1,1.8-0.7,1.7-1.7l-0.3-3.3c-0.1-0.9,0.6-1.7,1.4-1.7l3.3-0.3c1-0.1,1.7-1.1,1.4-2.1l-1-3.1
	c-0.3-0.8,0.2-1.7,1.1-2l3.1-0.9c1-0.3,1.4-1.4,0.9-2.3L99.9,63.4z"/>
<path class="st1" d="M57,17l1.9,5.9H65l-5,3.6l1.9,5.9l-5-3.6l-5,3.6l1.9-5.9l-5-3.6h6.2L57,17z"/>
<path class="st1" d="M74.8,23.3l1.1,3.5h3.6l-2.9,2.1l1.1,3.5l-2.9-2.1l-2.9,2.1l1.1-3.5L70,26.8h3.6L74.8,23.3z"/>
<path class="st1" d="M39.2,23.3L38,26.8h-3.6l2.9,2.1l-1.1,3.5l2.9-2.1l2.9,2.1L41,28.9l2.9-2.1h-3.6L39.2,23.3z"/>
<path class="st1" d="M57,75.8l0.7,2.2h2.4l-1.9,1.4l0.7,2.2L57,80.2l-1.9,1.4l0.7-2.2L53.9,78h2.4L57,75.8z"/>
<path class="st1" d="M65.4,75.3l0.5,1.6h1.7l-1.4,1l0.5,1.6l-1.4-1l-1.4,1l0.5-1.6l-1.4-1h1.7L65.4,75.3z"/>
<path class="st1" d="M48.5,75.3L48,76.9h-1.7l1.4,1l-0.5,1.6l1.4-1l1.4,1l-0.5-1.6l1.4-1h-1.7L48.5,75.3z"/>
<path class="st1" d="M20.6,41.9V56h-1.7V41.9H20.6z M31.7,45.5c-0.1-0.7-0.4-1.2-1-1.6c-0.6-0.4-1.3-0.6-2.2-0.6
	c-0.6,0-1.2,0.1-1.6,0.3c-0.5,0.2-0.8,0.5-1.1,0.8c-0.3,0.4-0.4,0.8-0.4,1.2c0,0.4,0.1,0.7,0.3,1c0.2,0.3,0.4,0.5,0.7,0.7
	c0.3,0.2,0.6,0.3,0.9,0.4c0.3,0.1,0.6,0.2,0.9,0.3l1.4,0.4c0.4,0.1,0.8,0.2,1.2,0.4c0.5,0.2,0.9,0.4,1.3,0.7c0.4,0.3,0.8,0.7,1,1.1
	c0.3,0.5,0.4,1,0.4,1.7c0,0.8-0.2,1.5-0.6,2.1c-0.4,0.6-1,1.1-1.7,1.5c-0.8,0.4-1.7,0.5-2.8,0.5c-1,0-1.9-0.2-2.6-0.5
	c-0.7-0.3-1.3-0.8-1.7-1.4c-0.4-0.6-0.7-1.3-0.7-2h1.8c0,0.5,0.2,1,0.5,1.3c0.3,0.3,0.7,0.6,1.2,0.8c0.5,0.2,1,0.2,1.6,0.2
	c0.7,0,1.2-0.1,1.8-0.3c0.5-0.2,0.9-0.5,1.2-0.9c0.3-0.4,0.5-0.8,0.5-1.4c0-0.5-0.1-0.8-0.4-1.1c-0.3-0.3-0.6-0.5-1-0.7
	c-0.4-0.2-0.9-0.3-1.4-0.5l-1.7-0.5c-1.1-0.3-2-0.8-2.6-1.4c-0.6-0.6-1-1.4-1-2.3c0-0.8,0.2-1.5,0.6-2.1c0.4-0.6,1-1.1,1.7-1.4
	c0.7-0.3,1.5-0.5,2.4-0.5c0.9,0,1.7,0.2,2.4,0.5c0.7,0.3,1.3,0.8,1.7,1.3c0.4,0.6,0.6,1.2,0.7,1.9H31.7z M48.3,49
	c0,1.5-0.3,2.8-0.8,3.9c-0.5,1.1-1.3,1.9-2.2,2.5c-0.9,0.6-2,0.9-3.2,0.9c-1.2,0-2.3-0.3-3.2-0.9c-0.9-0.6-1.7-1.4-2.2-2.5
	c-0.5-1.1-0.8-2.4-0.8-3.9c0-1.5,0.3-2.8,0.8-3.9c0.5-1.1,1.3-1.9,2.2-2.5c0.9-0.6,2-0.9,3.2-0.9c1.2,0,2.3,0.3,3.2,0.9
	c0.9,0.6,1.7,1.4,2.2,2.5C48,46.2,48.3,47.5,48.3,49z M46.6,49c0-1.2-0.2-2.3-0.6-3.1c-0.4-0.8-1-1.5-1.6-1.9
	c-0.7-0.4-1.5-0.6-2.3-0.6c-0.9,0-1.6,0.2-2.3,0.6c-0.7,0.4-1.2,1.1-1.6,1.9c-0.4,0.8-0.6,1.9-0.6,3.1c0,1.2,0.2,2.3,0.6,3.1
	c0.4,0.8,1,1.5,1.6,1.9c0.7,0.4,1.5,0.6,2.3,0.6c0.9,0,1.6-0.2,2.3-0.6c0.7-0.4,1.2-1.1,1.6-1.9C46.4,51.2,46.6,50.2,46.6,49z
	 M60.8,41.7c0.6,0,1.2,0.1,1.7,0.3c0.6,0.2,1.1,0.6,1.6,1.1c0.5,0.5,0.9,1.2,1.2,2c0.3,0.9,0.4,1.9,0.4,3.2c0,1.3-0.1,2.4-0.4,3.3
	c-0.2,1-0.6,1.8-1,2.5c-0.4,0.7-1,1.2-1.6,1.5c-0.6,0.3-1.3,0.5-2.1,0.5c-0.8,0-1.5-0.2-2.1-0.5c-0.6-0.3-1.1-0.8-1.5-1.3
	c-0.4-0.6-0.6-1.2-0.8-2h1.7c0.2,0.6,0.5,1.2,0.9,1.6c0.5,0.4,1.1,0.6,1.8,0.6c1.1,0,1.9-0.5,2.6-1.4c0.6-1,1-2.3,1-4H64
	c-0.3,0.4-0.6,0.7-0.9,1c-0.4,0.3-0.7,0.5-1.2,0.6c-0.4,0.2-0.9,0.2-1.4,0.2c-0.8,0-1.5-0.2-2.2-0.6c-0.7-0.4-1.2-1-1.6-1.7
	c-0.4-0.7-0.6-1.5-0.6-2.4c0-0.9,0.2-1.7,0.6-2.4c0.4-0.7,0.9-1.3,1.6-1.7C59.1,41.9,59.9,41.7,60.8,41.7z M60.8,43.3
	c-0.6,0-1.1,0.1-1.6,0.4c-0.5,0.3-0.8,0.7-1.1,1.2c-0.3,0.5-0.4,1-0.4,1.6s0.1,1.1,0.4,1.6c0.3,0.5,0.6,0.9,1.1,1.1
	c0.5,0.3,1,0.4,1.5,0.4c0.4,0,0.8-0.1,1.2-0.3c0.4-0.2,0.7-0.4,1-0.7c0.3-0.3,0.5-0.6,0.7-1c0.2-0.4,0.2-0.8,0.2-1.2
	c0-0.6-0.1-1.1-0.4-1.5c-0.3-0.5-0.6-0.9-1.1-1.2C62,43.4,61.4,43.3,60.8,43.3z M73.1,56.2c-1,0-1.9-0.3-2.7-0.8
	c-0.7-0.6-1.3-1.4-1.7-2.5c-0.4-1.1-0.6-2.4-0.6-3.9c0-1.5,0.2-2.8,0.6-3.9c0.4-1.1,1-1.9,1.7-2.5c0.7-0.6,1.6-0.9,2.6-0.9
	c1,0,1.9,0.3,2.6,0.9c0.7,0.6,1.3,1.4,1.7,2.5c0.4,1.1,0.6,2.4,0.6,3.9c0,1.5-0.2,2.8-0.6,3.9c-0.4,1.1-0.9,1.9-1.7,2.5
	C75,56,74.1,56.2,73.1,56.2z M73.1,54.7c1,0,1.8-0.5,2.4-1.5c0.6-1,0.9-2.4,0.9-4.2c0-1.2-0.1-2.3-0.4-3.1c-0.3-0.9-0.6-1.5-1.1-2
	c-0.5-0.5-1.1-0.7-1.7-0.7c-1,0-1.8,0.5-2.4,1.5c-0.6,1-0.9,2.4-0.9,4.3c0,1.2,0.1,2.3,0.4,3.1c0.3,0.9,0.6,1.5,1.1,1.9
	C71.8,54.5,72.4,54.7,73.1,54.7z M85.2,56.2c-1,0-1.9-0.3-2.7-0.8c-0.7-0.6-1.3-1.4-1.7-2.5c-0.4-1.1-0.6-2.4-0.6-3.9
	c0-1.5,0.2-2.8,0.6-3.9c0.4-1.1,1-1.9,1.7-2.5c0.7-0.6,1.6-0.9,2.6-0.9c1,0,1.9,0.3,2.6,0.9c0.7,0.6,1.3,1.4,1.7,2.5
	c0.4,1.1,0.6,2.4,0.6,3.9c0,1.5-0.2,2.8-0.6,3.9c-0.4,1.1-0.9,1.9-1.7,2.5C87.1,56,86.2,56.2,85.2,56.2z M85.2,54.7
	c1,0,1.8-0.5,2.4-1.5c0.6-1,0.9-2.4,0.9-4.2c0-1.2-0.1-2.3-0.4-3.1c-0.3-0.9-0.6-1.5-1.1-2c-0.5-0.5-1.1-0.7-1.7-0.7
	c-1,0-1.8,0.5-2.4,1.5c-0.6,1-0.9,2.4-0.9,4.3c0,1.2,0.1,2.3,0.4,3.1c0.3,0.9,0.6,1.5,1.1,1.9C83.9,54.5,84.5,54.7,85.2,54.7z
	 M97.7,41.9V56H96V43.7h-0.1L92.4,46v-1.7l3.5-2.3H97.7z"/>
<path class="st1" d="M41.8,69.4l0,1.2c-0.1,0.2-0.3,0.4-0.5,0.5c-0.2,0.2-0.4,0.3-0.7,0.4c-0.3,0.1-0.6,0.1-0.9,0.1
	c-0.6,0-1.1-0.1-1.5-0.3c-0.4-0.2-0.8-0.5-1-0.9c-0.2-0.4-0.4-0.9-0.4-1.5c0-0.6,0.1-1,0.4-1.4c0.2-0.4,0.6-0.7,1-0.9
	c0.4-0.2,1-0.3,1.6-0.3c0.4,0,0.7,0,1,0.1c0.3,0.1,0.6,0.2,0.8,0.3l0.1,1.2h-0.1c-0.1-0.5-0.3-0.8-0.7-1c-0.3-0.2-0.7-0.3-1.1-0.3
	c-0.4,0-0.8,0.1-1.1,0.3c-0.3,0.2-0.5,0.5-0.7,0.8c-0.2,0.4-0.2,0.8-0.2,1.3c0,0.5,0.1,0.9,0.2,1.3c0.2,0.4,0.4,0.6,0.7,0.9
	c0.3,0.2,0.6,0.3,1,0.3c0.4,0,0.7-0.1,1-0.2c0.3-0.1,0.5-0.3,0.7-0.6C41.5,70.3,41.6,69.9,41.8,69.4L41.8,69.4z M44,66.4v5.2h-0.9
	v-5.2H44z M46,71.3l0.1,0.3H44v-0.3H46z M45.7,68.9v0.3H44v-0.3H45.7z M46.1,66.4v0.3H44v-0.3H46.1z M46.5,70.2l-0.4,1.4h-1.4
	l0.3-0.3c0.3,0,0.5,0,0.7-0.1c0.2-0.1,0.3-0.2,0.5-0.4C46.3,70.6,46.4,70.4,46.5,70.2L46.5,70.2z M45.7,69.2v0.6h-0.1v-0.1
	c0-0.2-0.1-0.3-0.2-0.4c-0.1-0.1-0.2-0.2-0.4-0.2v0H45.7z M45.7,68.3v0.6h-0.6v0c0.2,0,0.3-0.1,0.4-0.2
	C45.6,68.6,45.6,68.5,45.7,68.3L45.7,68.3L45.7,68.3z M46.1,66.7v0.8H46v-0.1c0-0.2-0.1-0.3-0.2-0.5c-0.1-0.1-0.3-0.2-0.5-0.2v0
	H46.1z M46.1,66.3v0.2l-0.9-0.1c0.1,0,0.2,0,0.3,0c0.1,0,0.2,0,0.3-0.1C45.9,66.3,46,66.3,46.1,66.3z M43.1,71.1v0.5h-0.6v-0.1
	c0,0,0,0,0,0c0,0,0.1,0,0.1,0c0.1,0,0.2,0,0.3-0.1C43.1,71.3,43.1,71.2,43.1,71.1L43.1,71.1z M43.1,66.9L43.1,66.9
	c0-0.1-0.1-0.2-0.2-0.3c-0.1-0.1-0.2-0.1-0.3-0.1c0,0,0,0-0.1,0c0,0,0,0,0,0v-0.1h0.6V66.9z M48.5,66.4h1c0.2,0,0.4,0,0.6,0.1
	c0.2,0.1,0.4,0.1,0.5,0.3c0.2,0.1,0.3,0.3,0.4,0.4c0.1,0.2,0.1,0.4,0.1,0.6c0,0.2,0,0.4-0.1,0.6c-0.1,0.2-0.2,0.4-0.4,0.5
	c-0.2,0.1-0.4,0.2-0.7,0.2c0.1,0,0.3,0.1,0.4,0.3c0.1,0.1,0.2,0.2,0.3,0.4c0,0,0,0.1,0.1,0.1c0.1,0.1,0.1,0.2,0.2,0.3
	c0.1,0.1,0.2,0.2,0.3,0.4c0.1,0.1,0.2,0.2,0.2,0.3c0.1,0.1,0.2,0.2,0.3,0.3c0.1,0.1,0.2,0.1,0.3,0.2c0.1,0,0.2,0.1,0.4,0.1v0.1h-0.6
	c-0.3,0-0.5,0-0.7-0.1c-0.2-0.1-0.4-0.1-0.5-0.2c-0.1-0.1-0.3-0.2-0.4-0.4c0,0-0.1-0.1-0.1-0.2c-0.1-0.1-0.1-0.2-0.2-0.3
	c-0.1-0.1-0.1-0.2-0.2-0.3c-0.1-0.1-0.1-0.2-0.2-0.3c0-0.1-0.1-0.1-0.1-0.2c-0.1-0.1-0.2-0.3-0.3-0.4s-0.2-0.1-0.3-0.1V69
	c0,0,0,0,0.1,0c0.1,0,0.1,0,0.2,0c0.1,0,0.3,0,0.4-0.1c0.1,0,0.3-0.1,0.4-0.2c0.1-0.1,0.2-0.3,0.2-0.5c0,0,0-0.1,0-0.2
	c0-0.1,0-0.1,0-0.2c0-0.3-0.1-0.6-0.3-0.8c-0.2-0.2-0.4-0.3-0.6-0.3c-0.1,0-0.2,0-0.3,0c-0.1,0-0.2,0-0.3,0c-0.1,0-0.1,0-0.1,0
	c0,0,0,0,0-0.1C48.5,66.6,48.5,66.5,48.5,66.4C48.5,66.4,48.5,66.4,48.5,66.4z M48.6,66.4v5.2h-0.9v-5.2H48.6z M47.7,71.1v0.5h-0.6
	v-0.1c0,0,0,0,0,0c0,0,0,0,0.1,0c0.1,0,0.2,0,0.3-0.1C47.6,71.3,47.7,71.2,47.7,71.1L47.7,71.1z M47.7,66.9L47.7,66.9
	c0-0.1-0.1-0.2-0.2-0.3c-0.1-0.1-0.2-0.1-0.3-0.1c0,0,0,0-0.1,0c0,0,0,0,0,0v-0.1h0.6V66.9z M48.5,71.1L48.5,71.1
	c0,0.1,0.1,0.2,0.2,0.3c0.1,0.1,0.2,0.1,0.3,0.1c0,0,0,0,0,0c0,0,0,0,0,0v0.1h-0.6V71.1z M54.7,66.4v5.2h-0.9v-5.2H54.7z M56.5,66.4
	v0.3h-4.6v-0.3H56.5z M56.5,66.7v0.8l-0.1,0v-0.1c0-0.2-0.1-0.4-0.2-0.5s-0.3-0.2-0.5-0.2v0H56.5z M56.5,66.3v0.2l-0.9-0.1
	c0.1,0,0.2,0,0.3,0c0.1,0,0.2,0,0.3-0.1C56.4,66.3,56.5,66.3,56.5,66.3z M53.8,71.1v0.5h-0.6v-0.1c0,0,0,0,0,0c0,0,0.1,0,0.1,0
	c0.1,0,0.2,0,0.3-0.1C53.7,71.3,53.8,71.2,53.8,71.1L53.8,71.1z M54.7,71.1L54.7,71.1c0,0.1,0.1,0.2,0.2,0.3
	c0.1,0.1,0.2,0.1,0.3,0.1c0,0,0,0,0,0c0,0,0.1,0,0.1,0v0.1h-0.6V71.1z M52.6,66.7L52.6,66.7c-0.2,0-0.4,0.1-0.5,0.2
	C52,67,52,67.1,52,67.3v0.1l-0.1,0v-0.8H52.6z M51.9,66.3c0,0,0.1,0,0.2,0.1c0.1,0,0.2,0,0.3,0.1s0.2,0,0.3,0l-0.9,0.1V66.3z
	 M58.5,66.4v5.2h-0.9v-5.2H58.5z M57.6,71.1v0.5H57v-0.1c0,0,0,0,0,0c0,0,0.1,0,0.1,0c0.1,0,0.2,0,0.3-0.1
	C57.5,71.3,57.6,71.2,57.6,71.1L57.6,71.1z M57.6,66.9L57.6,66.9c0-0.1-0.1-0.2-0.2-0.3c-0.1-0.1-0.2-0.1-0.3-0.1c0,0,0,0-0.1,0
	c0,0,0,0,0,0v-0.1h0.6V66.9z M58.5,71.1L58.5,71.1c0,0.1,0.1,0.2,0.2,0.3c0.1,0.1,0.2,0.1,0.3,0.1c0,0,0,0,0,0s0,0,0.1,0v0.1h-0.6
	V71.1z M58.5,66.9v-0.5h0.6v0.1c0,0,0,0-0.1,0s0,0,0,0c-0.1,0-0.2,0-0.3,0.1C58.6,66.7,58.5,66.8,58.5,66.9L58.5,66.9z M61.3,66.4
	v5.2h-0.9v-5.2H61.3z M63,68.9v0.3h-1.7v-0.3H63z M63.3,66.4v0.3h-2.1v-0.3H63.3z M63,69.2v0.6h-0.1v-0.1c0-0.2-0.1-0.3-0.2-0.4
	c-0.1-0.1-0.2-0.2-0.4-0.2v0H63z M63,68.3v0.6h-0.6v0c0.2,0,0.3-0.1,0.4-0.2C62.8,68.6,62.9,68.5,63,68.3L63,68.3L63,68.3z
	 M63.3,66.7v0.7h-0.1v-0.1c0-0.2-0.1-0.3-0.2-0.4c-0.1-0.1-0.3-0.2-0.4-0.2v0H63.3z M63.3,66.3v0.2l-0.9-0.1c0.1,0,0.2,0,0.3,0
	c0.1,0,0.2,0,0.3-0.1C63.2,66.3,63.3,66.3,63.3,66.3z M60.4,71.1v0.5h-0.6v-0.1c0,0,0,0,0,0c0,0,0.1,0,0.1,0c0.1,0,0.2,0,0.3-0.1
	C60.3,71.3,60.3,71.2,60.4,71.1L60.4,71.1z M60.4,66.9L60.4,66.9c0-0.1-0.1-0.2-0.2-0.3c-0.1-0.1-0.2-0.1-0.3-0.1c0,0,0,0-0.1,0
	c0,0,0,0,0,0v-0.1h0.6V66.9z M61.2,71.1L61.2,71.1c0,0.1,0.1,0.2,0.2,0.3c0.1,0.1,0.2,0.1,0.3,0.1c0,0,0,0,0,0c0,0,0,0,0.1,0v0.1
	h-0.6V71.1z M65.6,66.4v5.2h-0.9v-5.2H65.6z M64.7,71.1v0.5h-0.6v-0.1c0,0,0,0,0,0c0,0,0.1,0,0.1,0c0.1,0,0.2,0,0.3-0.1
	C64.6,71.3,64.7,71.2,64.7,71.1L64.7,71.1z M64.7,66.9L64.7,66.9c0-0.1-0.1-0.2-0.2-0.3c-0.1-0.1-0.2-0.1-0.3-0.1c0,0,0,0-0.1,0
	c0,0,0,0,0,0v-0.1h0.6V66.9z M65.6,71.1L65.6,71.1c0,0.1,0.1,0.2,0.2,0.3c0.1,0.1,0.2,0.1,0.3,0.1c0,0,0,0,0,0c0,0,0,0,0.1,0v0.1
	h-0.6V71.1z M65.6,66.9v-0.5h0.6v0.1c0,0,0,0-0.1,0c0,0,0,0,0,0c-0.1,0-0.2,0-0.3,0.1C65.6,66.7,65.6,66.8,65.6,66.9L65.6,66.9z
	 M68.3,66.4v5.2h-0.9v-5.2H68.3z M70.3,71.3l0.1,0.3h-2.1v-0.3H70.3z M70,68.9v0.3h-1.7v-0.3H70z M70.4,66.4v0.3h-2.1v-0.3H70.4z
	 M70.8,70.2l-0.4,1.4h-1.4l0.3-0.3c0.3,0,0.5,0,0.7-0.1c0.2-0.1,0.3-0.2,0.5-0.4C70.6,70.6,70.7,70.4,70.8,70.2L70.8,70.2z M70,69.2
	v0.6H70v-0.1c0-0.2-0.1-0.3-0.2-0.4c-0.1-0.1-0.2-0.2-0.4-0.2v0H70z M70,68.3v0.6h-0.6v0c0.2,0,0.3-0.1,0.4-0.2
	C69.9,68.6,70,68.5,70,68.3L70,68.3L70,68.3z M70.4,66.7v0.8h-0.1v-0.1c0-0.2-0.1-0.3-0.2-0.5c-0.1-0.1-0.3-0.2-0.5-0.2v0H70.4z
	 M70.4,66.3v0.2l-0.9-0.1c0.1,0,0.2,0,0.3,0c0.1,0,0.2,0,0.3-0.1C70.3,66.3,70.3,66.3,70.4,66.3z M67.4,71.1v0.5h-0.6v-0.1
	c0,0,0,0,0,0c0,0,0.1,0,0.1,0c0.1,0,0.2,0,0.3-0.1C67.4,71.3,67.4,71.2,67.4,71.1L67.4,71.1z M67.4,66.9L67.4,66.9
	c0-0.1-0.1-0.2-0.2-0.3c-0.1-0.1-0.2-0.1-0.3-0.1c0,0,0,0-0.1,0c0,0,0,0,0,0v-0.1h0.6V66.9z M74,66.4c0.6,0,1.1,0.1,1.5,0.3
	c0.4,0.2,0.7,0.5,1,0.9c0.2,0.4,0.3,0.9,0.3,1.4c0,0.5-0.1,1-0.3,1.4c-0.2,0.4-0.6,0.7-1,0.9c-0.4,0.2-0.9,0.3-1.5,0.3h-1.7l0-0.3
	c0.1,0,0.2,0,0.4,0c0.1,0,0.3,0,0.4,0c0.2,0,0.3,0,0.4,0c0.1,0,0.2,0,0.3,0c0.1,0,0.1,0,0.1,0c0.4,0,0.7-0.1,1-0.3
	c0.3-0.2,0.5-0.5,0.6-0.8c0.2-0.3,0.2-0.8,0.2-1.2c0-0.5-0.1-0.9-0.2-1.2c-0.2-0.3-0.4-0.6-0.6-0.8c-0.3-0.2-0.6-0.3-1-0.3
	c0,0,0,0-0.1,0c-0.1,0-0.2,0-0.3,0c-0.1,0-0.3,0-0.4,0c-0.2,0-0.3,0-0.5,0c-0.1,0-0.3,0-0.4,0v-0.3H74z M72.9,66.4v5.2H72v-5.2H72.9
	z M72,71.1v0.5h-0.6v-0.1c0,0,0,0,0,0c0,0,0.1,0,0.1,0c0.1,0,0.2,0,0.3-0.1C71.9,71.3,72,71.2,72,71.1L72,71.1z M72,66.9L72,66.9
	c0-0.1-0.1-0.2-0.2-0.3c-0.1-0.1-0.2-0.1-0.3-0.1c0,0,0,0,0,0c0,0,0,0,0,0l0-0.1H72V66.9z"/>
</svg>
