<?xml version="1.0" encoding="utf-8"?>
<!-- Generator: Adobe Illustrator 23.0.5, SVG Export Plug-In . SVG Version: 6.00 Build 0)  -->
<svg version="1.1" id="Layer_1" xmlns="http://www.w3.org/2000/svg" xmlns:xlink="http://www.w3.org/1999/xlink" x="0px" y="0px"
	 viewBox="0 0 115 98" style="enable-background:new 0 0 115 98;" xml:space="preserve">
<style type="text/css">
	.st0{fill:#A73934;}
	.st1{fill:#FFFFFF;}
</style>
<path class="st0" d="M0.9,60.5l7.8-11.3L0.8,37.9h113.4l-7.8,11.3l7.9,11.3H0.9z"/>
<path class="st0" d="M22.2,35.5c5.5-14.2,19.3-24.2,35.4-24.2S87.5,21.3,93,35.5h1.6c-5.6-15-20.1-25.7-37-25.7
	c-16.9,0-31.4,10.7-37,25.7H22.2z"/>
<path class="st0" d="M93,63c-5.5,14.2-19.3,24.2-35.4,24.2c-16.1,0-29.9-10.1-35.4-24.2h-1.6c5.6,15,20.1,25.7,37,25.7
	S89,78,94.6,63H93z"/>
<path class="st0" d="M90.9,35.5c-5.4-13.1-18.3-22.3-33.4-22.3s-28,9.2-33.4,22.3H90.9z"/>
<path class="st0" d="M24.2,63c5.4,13.1,18.3,22.3,33.4,22.3c15.1,0,28-9.2,33.4-22.3H24.2z"/>
<path class="st0" d="M14.6,35c0.1,0.1,0.1,0.3,0.2,0.4h4.5C24.9,19.7,39.9,8.5,57.6,8.5s32.7,11.2,38.3,26.9h4.5
	c0-0.2,0.1-0.3,0.2-0.4l1.6-2.9c0.5-0.9,0-2-0.9-2.3L98,28.9c-0.8-0.3-1.3-1.1-1.1-2l1-3.1c0.3-1-0.4-2-1.4-2.1l-3.3-0.3
	c-0.9-0.1-1.5-0.9-1.4-1.7l0.3-3.3c0.1-1-0.7-1.8-1.7-1.7L87.1,15c-0.9,0.1-1.7-0.6-1.7-1.4l-0.3-3.3C85,9.3,84,8.6,83,8.9l-3.1,1
	c-0.8,0.3-1.7-0.2-2-1.1l-0.9-3.1c-0.3-1-1.4-1.4-2.3-0.9l-2.9,1.6C71,6.7,70,6.4,69.6,5.6l-1.5-2.9c-0.5-0.9-1.6-1.1-2.4-0.5
	l-2.5,2.1c-0.7,0.6-1.7,0.5-2.2-0.2l-2.1-2.5c-0.6-0.8-1.8-0.8-2.5,0l-2.1,2.5c-0.6,0.7-1.6,0.8-2.2,0.2l-2.5-2.1
	c-0.8-0.6-1.9-0.4-2.4,0.5l-1.5,2.9c-0.4,0.8-1.4,1.1-2.2,0.7l-2.9-1.6c-0.9-0.5-2,0-2.3,0.9l-0.9,3.1c-0.3,0.8-1.1,1.3-2,1.1
	l-3.1-1c-1-0.3-2,0.4-2.1,1.4l-0.3,3.3c-0.1,0.9-0.9,1.5-1.7,1.4l-3.3-0.3c-1-0.1-1.8,0.7-1.7,1.7l0.3,3.3c0.1,0.9-0.6,1.7-1.4,1.7
	l-3.3,0.3c-1,0.1-1.7,1.1-1.4,2.1l1,3.1c0.3,0.8-0.2,1.7-1.1,2L14,29.8c-1,0.3-1.4,1.4-0.9,2.3L14.6,35z"/>
<path class="st0" d="M100.5,63.4c-0.1-0.1-0.1-0.3-0.2-0.4h-4.5c-5.6,15.7-20.7,26.9-38.3,26.9S24.9,78.7,19.3,63h-4.5
	c0,0.2-0.1,0.3-0.2,0.4l-1.6,2.9c-0.5,0.9,0,2,0.9,2.3l3.1,0.9c0.8,0.3,1.3,1.1,1.1,2l-1,3.1c-0.3,1,0.4,2,1.4,2.1l3.3,0.3
	c0.9,0.1,1.5,0.9,1.4,1.7L23,82c-0.1,1,0.7,1.8,1.7,1.7l3.3-0.3c0.9-0.1,1.7,0.6,1.7,1.4l0.3,3.3c0.1,1,1.1,1.7,2.1,1.4l3.1-1
	c0.8-0.3,1.7,0.2,2,1.1l0.9,3.1c0.3,1,1.4,1.4,2.3,0.9l2.9-1.6c0.8-0.4,1.7-0.1,2.2,0.7l1.5,2.9c0.5,0.9,1.6,1.1,2.4,0.5l2.5-2.1
	c0.7-0.6,1.7-0.5,2.2,0.2l2.1,2.5c0.6,0.8,1.8,0.8,2.5,0l2.1-2.5c0.6-0.7,1.6-0.8,2.2-0.2l2.5,2.1c0.8,0.6,1.9,0.4,2.4-0.5l1.5-2.9
	c0.4-0.8,1.4-1.1,2.2-0.7l2.9,1.6c0.9,0.5,2,0,2.3-0.9l0.9-3.1c0.3-0.8,1.1-1.3,2-1.1l3.1,1c1,0.3,2-0.4,2.1-1.4l0.3-3.3
	c0.1-0.9,0.9-1.5,1.7-1.4l3.3,0.3c1,0.1,1.8-0.7,1.7-1.7l-0.3-3.3c-0.1-0.9,0.6-1.7,1.4-1.7l3.3-0.3c1-0.1,1.7-1.1,1.4-2.1l-1-3.1
	c-0.3-0.8,0.2-1.7,1.1-2l3.1-0.9c1-0.3,1.4-1.4,0.9-2.3L100.5,63.4z"/>
<path class="st1" d="M57.6,17l1.9,5.9h6.2l-5,3.6l1.9,5.9l-5-3.6l-5,3.6l1.9-5.9l-5-3.6h6.2L57.6,17z"/>
<path class="st1" d="M75.4,23.3l1.1,3.5h3.6l-2.9,2.1l1.1,3.5l-2.9-2.1l-2.9,2.1l1.1-3.5l-2.9-2.1h3.6L75.4,23.3z"/>
<path class="st1" d="M39.8,23.3l-1.1,3.5H35l2.9,2.1l-1.1,3.5l2.9-2.1l2.9,2.1l-1.1-3.5l2.9-2.1h-3.6L39.8,23.3z"/>
<path class="st1" d="M57.6,75.8l0.7,2.2h2.4l-1.9,1.4l0.7,2.2l-1.9-1.4l-1.9,1.4l0.7-2.2L54.5,78h2.4L57.6,75.8z"/>
<path class="st1" d="M66,75.3l0.5,1.6h1.7l-1.4,1l0.5,1.6l-1.4-1l-1.4,1l0.5-1.6l-1.4-1h1.7L66,75.3z"/>
<path class="st1" d="M49.1,75.3l-0.5,1.6h-1.7l1.4,1l-0.5,1.6l1.4-1l1.4,1L50,77.9l1.4-1h-1.7L49.1,75.3z"/>
<path class="st1" d="M14,41.9V56h-1.7V41.9H14z M25.1,45.5c-0.1-0.7-0.4-1.2-1-1.6c-0.6-0.4-1.3-0.6-2.2-0.6c-0.6,0-1.2,0.1-1.6,0.3
	c-0.5,0.2-0.8,0.5-1.1,0.8c-0.3,0.4-0.4,0.8-0.4,1.2c0,0.4,0.1,0.7,0.3,1c0.2,0.3,0.4,0.5,0.7,0.7c0.3,0.2,0.6,0.3,0.9,0.4
	c0.3,0.1,0.6,0.2,0.9,0.3l1.4,0.4c0.4,0.1,0.8,0.2,1.2,0.4c0.5,0.2,0.9,0.4,1.3,0.7c0.4,0.3,0.8,0.7,1,1.1c0.3,0.5,0.4,1,0.4,1.7
	c0,0.8-0.2,1.5-0.6,2.1c-0.4,0.6-1,1.1-1.7,1.5c-0.8,0.4-1.7,0.5-2.8,0.5c-1,0-1.9-0.2-2.6-0.5c-0.7-0.3-1.3-0.8-1.7-1.4
	c-0.4-0.6-0.7-1.3-0.7-2h1.8c0,0.5,0.2,1,0.5,1.3c0.3,0.3,0.7,0.6,1.2,0.8c0.5,0.2,1,0.2,1.6,0.2c0.7,0,1.2-0.1,1.8-0.3
	c0.5-0.2,0.9-0.5,1.2-0.9c0.3-0.4,0.5-0.8,0.5-1.4c0-0.5-0.1-0.8-0.4-1.1c-0.3-0.3-0.6-0.5-1-0.7c-0.4-0.2-0.9-0.3-1.4-0.5l-1.7-0.5
	c-1.1-0.3-2-0.8-2.6-1.4c-0.6-0.6-1-1.4-1-2.3c0-0.8,0.2-1.5,0.6-2.1c0.4-0.6,1-1.1,1.7-1.4c0.7-0.3,1.5-0.5,2.4-0.5
	c0.9,0,1.7,0.2,2.4,0.5c0.7,0.3,1.3,0.8,1.7,1.3c0.4,0.6,0.6,1.2,0.7,1.9H25.1z M41.7,49c0,1.5-0.3,2.8-0.8,3.9
	c-0.5,1.1-1.3,1.9-2.2,2.5c-0.9,0.6-2,0.9-3.2,0.9c-1.2,0-2.3-0.3-3.2-0.9c-0.9-0.6-1.7-1.4-2.2-2.5c-0.5-1.1-0.8-2.4-0.8-3.9
	c0-1.5,0.3-2.8,0.8-3.9c0.5-1.1,1.3-1.9,2.2-2.5c0.9-0.6,2-0.9,3.2-0.9c1.2,0,2.3,0.3,3.2,0.9c0.9,0.6,1.7,1.4,2.2,2.5
	S41.7,47.5,41.7,49z M40,49c0-1.2-0.2-2.3-0.6-3.1c-0.4-0.8-1-1.5-1.6-1.9c-0.7-0.4-1.5-0.6-2.3-0.6c-0.9,0-1.6,0.2-2.3,0.6
	c-0.7,0.4-1.2,1.1-1.6,1.9c-0.4,0.8-0.6,1.9-0.6,3.1c0,1.2,0.2,2.3,0.6,3.1c0.4,0.8,1,1.5,1.6,1.9c0.7,0.4,1.5,0.6,2.3,0.6
	c0.9,0,1.6-0.2,2.3-0.6c0.7-0.4,1.2-1.1,1.6-1.9C39.8,51.2,40,50.2,40,49z M49.8,56v-1.2l4.7-5.1c0.5-0.6,1-1.1,1.4-1.6
	c0.4-0.4,0.6-0.9,0.8-1.3c0.2-0.4,0.3-0.8,0.3-1.2c0-0.5-0.1-0.9-0.4-1.3c-0.2-0.4-0.6-0.6-1-0.8c-0.4-0.2-0.9-0.3-1.4-0.3
	c-0.5,0-1,0.1-1.4,0.3c-0.4,0.2-0.7,0.5-0.9,0.9c-0.2,0.4-0.3,0.9-0.3,1.4h-1.6c0-0.8,0.2-1.6,0.6-2.2c0.4-0.6,0.9-1.1,1.6-1.5
	c0.7-0.3,1.4-0.5,2.2-0.5c0.8,0,1.6,0.2,2.2,0.5s1.1,0.8,1.5,1.4c0.4,0.6,0.5,1.3,0.5,2c0,0.5-0.1,1-0.3,1.5c-0.2,0.5-0.5,1-1,1.6
	c-0.5,0.6-1.1,1.3-1.9,2.2l-3.2,3.4v0.1h6.6V56H49.8z M62,56l6.3-12.5v-0.1H61v-1.5h9v1.6L63.8,56H62z M76.9,56.2
	c-1,0-1.9-0.3-2.7-0.8c-0.7-0.6-1.3-1.4-1.7-2.5C72.2,51.8,72,50.5,72,49c0-1.5,0.2-2.8,0.6-3.9c0.4-1.1,1-1.9,1.7-2.5
	c0.7-0.6,1.6-0.9,2.6-0.9c1,0,1.9,0.3,2.6,0.9c0.7,0.6,1.3,1.4,1.7,2.5c0.4,1.1,0.6,2.4,0.6,3.9c0,1.5-0.2,2.8-0.6,3.9
	c-0.4,1.1-0.9,1.9-1.7,2.5C78.8,56,77.9,56.2,76.9,56.2z M76.9,54.7c1,0,1.8-0.5,2.4-1.5c0.6-1,0.9-2.4,0.9-4.2
	c0-1.2-0.1-2.3-0.4-3.1c-0.3-0.9-0.6-1.5-1.1-2c-0.5-0.5-1.1-0.7-1.7-0.7c-1,0-1.8,0.5-2.4,1.5c-0.6,1-0.9,2.4-0.9,4.3
	c0,1.2,0.1,2.3,0.4,3.1c0.3,0.9,0.6,1.5,1.1,1.9C75.6,54.5,76.2,54.7,76.9,54.7z M89,56.2c-1,0-1.9-0.3-2.7-0.8
	c-0.7-0.6-1.3-1.4-1.7-2.5c-0.4-1.1-0.6-2.4-0.6-3.9c0-1.5,0.2-2.8,0.6-3.9c0.4-1.1,1-1.9,1.7-2.5c0.7-0.6,1.6-0.9,2.6-0.9
	c1,0,1.9,0.3,2.6,0.9c0.7,0.6,1.3,1.4,1.7,2.5c0.4,1.1,0.6,2.4,0.6,3.9c0,1.5-0.2,2.8-0.6,3.9c-0.4,1.1-0.9,1.9-1.7,2.5
	C90.9,56,90.1,56.2,89,56.2z M89,54.7c1,0,1.8-0.5,2.4-1.5c0.6-1,0.9-2.4,0.9-4.2c0-1.2-0.1-2.3-0.4-3.1c-0.3-0.9-0.6-1.5-1.1-2
	c-0.5-0.5-1.1-0.7-1.7-0.7c-1,0-1.8,0.5-2.4,1.5c-0.6,1-0.9,2.4-0.9,4.3c0,1.2,0.1,2.3,0.4,3.1c0.3,0.9,0.6,1.5,1.1,1.9
	C87.8,54.5,88.3,54.7,89,54.7z M101.5,41.9V56h-1.7V43.7h-0.1L96.3,46v-1.7l3.5-2.3H101.5z"/>
<path class="st1" d="M42.4,69.4l0,1.2c-0.1,0.2-0.3,0.4-0.5,0.5c-0.2,0.2-0.4,0.3-0.7,0.4c-0.3,0.1-0.6,0.1-0.9,0.1
	c-0.6,0-1.1-0.1-1.5-0.3c-0.4-0.2-0.8-0.5-1-0.9c-0.2-0.4-0.4-0.9-0.4-1.5c0-0.6,0.1-1,0.4-1.4c0.2-0.4,0.6-0.7,1-0.9
	c0.4-0.2,1-0.3,1.6-0.3c0.4,0,0.7,0,1,0.1c0.3,0.1,0.6,0.2,0.8,0.3l0.1,1.2h-0.1c-0.1-0.5-0.3-0.8-0.7-1c-0.3-0.2-0.7-0.3-1.1-0.3
	c-0.4,0-0.8,0.1-1.1,0.3c-0.3,0.2-0.5,0.5-0.7,0.8c-0.2,0.4-0.2,0.8-0.2,1.3c0,0.5,0.1,0.9,0.2,1.3c0.2,0.4,0.4,0.6,0.7,0.9
	c0.3,0.2,0.6,0.3,1,0.3c0.4,0,0.7-0.1,1-0.2c0.3-0.1,0.5-0.3,0.7-0.6C42.1,70.3,42.3,69.9,42.4,69.4L42.4,69.4z M44.6,66.4v5.2h-0.9
	v-5.2H44.6z M46.6,71.3l0.1,0.3h-2.1v-0.3H46.6z M46.3,68.9v0.3h-1.7v-0.3H46.3z M46.7,66.4v0.3h-2.1v-0.3H46.7z M47.1,70.2
	l-0.4,1.4h-1.4l0.3-0.3c0.3,0,0.5,0,0.7-0.1c0.2-0.1,0.3-0.2,0.5-0.4C46.9,70.6,47,70.4,47.1,70.2L47.1,70.2z M46.3,69.2v0.6h-0.1
	v-0.1c0-0.2-0.1-0.3-0.2-0.4c-0.1-0.1-0.2-0.2-0.4-0.2v0H46.3z M46.3,68.3v0.6h-0.6v0c0.2,0,0.3-0.1,0.4-0.2
	C46.2,68.6,46.2,68.5,46.3,68.3L46.3,68.3L46.3,68.3z M46.7,66.7v0.8h-0.1v-0.1c0-0.2-0.1-0.3-0.2-0.5c-0.1-0.1-0.3-0.2-0.5-0.2v0
	H46.7z M46.7,66.3v0.2l-0.9-0.1c0.1,0,0.2,0,0.3,0c0.1,0,0.2,0,0.3-0.1C46.6,66.3,46.6,66.3,46.7,66.3z M43.7,71.1v0.5h-0.6v-0.1
	c0,0,0,0,0,0c0,0,0.1,0,0.1,0c0.1,0,0.2,0,0.3-0.1C43.7,71.3,43.7,71.2,43.7,71.1L43.7,71.1z M43.7,66.9L43.7,66.9
	c0-0.1-0.1-0.2-0.2-0.3c-0.1-0.1-0.2-0.1-0.3-0.1c0,0,0,0-0.1,0c0,0,0,0,0,0v-0.1h0.6V66.9z M49.1,66.4h1c0.2,0,0.4,0,0.6,0.1
	c0.2,0.1,0.4,0.1,0.5,0.3c0.2,0.1,0.3,0.3,0.4,0.4c0.1,0.2,0.1,0.4,0.1,0.6c0,0.2,0,0.4-0.1,0.6c-0.1,0.2-0.2,0.4-0.4,0.5
	c-0.2,0.1-0.4,0.2-0.7,0.2c0.1,0,0.3,0.1,0.4,0.3c0.1,0.1,0.2,0.2,0.3,0.4c0,0,0,0.1,0.1,0.1c0.1,0.1,0.1,0.2,0.2,0.3
	c0.1,0.1,0.2,0.2,0.3,0.4c0.1,0.1,0.2,0.2,0.2,0.3c0.1,0.1,0.2,0.2,0.3,0.3c0.1,0.1,0.2,0.1,0.3,0.2c0.1,0,0.2,0.1,0.4,0.1v0.1h-0.6
	c-0.3,0-0.5,0-0.7-0.1c-0.2-0.1-0.4-0.1-0.5-0.2c-0.1-0.1-0.3-0.2-0.4-0.4c0,0-0.1-0.1-0.1-0.2c-0.1-0.1-0.1-0.2-0.2-0.3
	c-0.1-0.1-0.1-0.2-0.2-0.3c-0.1-0.1-0.1-0.2-0.2-0.3c0-0.1-0.1-0.1-0.1-0.2c-0.1-0.1-0.2-0.3-0.3-0.4c-0.1-0.1-0.2-0.1-0.3-0.1V69
	c0,0,0,0,0.1,0c0.1,0,0.1,0,0.2,0c0.1,0,0.3,0,0.4-0.1c0.1,0,0.3-0.1,0.4-0.2c0.1-0.1,0.2-0.3,0.2-0.5c0,0,0-0.1,0-0.2
	c0-0.1,0-0.1,0-0.2c0-0.3-0.1-0.6-0.3-0.8c-0.2-0.2-0.4-0.3-0.6-0.3c-0.1,0-0.2,0-0.3,0c-0.1,0-0.2,0-0.3,0c-0.1,0-0.1,0-0.1,0
	c0,0,0,0,0-0.1C49.1,66.6,49.1,66.5,49.1,66.4C49.1,66.4,49.1,66.4,49.1,66.4z M49.2,66.4v5.2h-0.9v-5.2H49.2z M48.3,71.1v0.5h-0.6
	v-0.1c0,0,0,0,0,0c0,0,0,0,0.1,0c0.1,0,0.2,0,0.3-0.1C48.2,71.3,48.3,71.2,48.3,71.1L48.3,71.1z M48.3,66.9L48.3,66.9
	c0-0.1-0.1-0.2-0.2-0.3c-0.1-0.1-0.2-0.1-0.3-0.1c0,0,0,0-0.1,0c0,0,0,0,0,0v-0.1h0.6V66.9z M49.2,71.1L49.2,71.1
	c0,0.1,0.1,0.2,0.2,0.3c0.1,0.1,0.2,0.1,0.3,0.1c0,0,0,0,0,0c0,0,0,0,0,0v0.1h-0.6V71.1z M55.3,66.4v5.2h-0.9v-5.2H55.3z M57.1,66.4
	v0.3h-4.6v-0.3H57.1z M57.1,66.7v0.8l-0.1,0v-0.1c0-0.2-0.1-0.4-0.2-0.5c-0.1-0.1-0.3-0.2-0.5-0.2v0H57.1z M57.1,66.3v0.2l-0.9-0.1
	c0.1,0,0.2,0,0.3,0c0.1,0,0.2,0,0.3-0.1C57,66.3,57.1,66.3,57.1,66.3z M54.4,71.1v0.5h-0.6v-0.1c0,0,0,0,0,0c0,0,0.1,0,0.1,0
	c0.1,0,0.2,0,0.3-0.1C54.3,71.3,54.4,71.2,54.4,71.1L54.4,71.1z M55.3,71.1L55.3,71.1c0,0.1,0.1,0.2,0.2,0.3
	c0.1,0.1,0.2,0.1,0.3,0.1c0,0,0,0,0,0c0,0,0.1,0,0.1,0v0.1h-0.6V71.1z M53.2,66.7L53.2,66.7c-0.2,0-0.4,0.1-0.5,0.2
	c-0.1,0.1-0.2,0.3-0.2,0.5v0.1l-0.1,0v-0.8H53.2z M52.5,66.3c0,0,0.1,0,0.2,0.1c0.1,0,0.2,0,0.3,0.1s0.2,0,0.3,0l-0.9,0.1V66.3z
	 M59.1,66.4v5.2h-0.9v-5.2H59.1z M58.2,71.1v0.5h-0.6v-0.1c0,0,0,0,0,0c0,0,0.1,0,0.1,0c0.1,0,0.2,0,0.3-0.1
	C58.1,71.3,58.2,71.2,58.2,71.1L58.2,71.1z M58.2,66.9L58.2,66.9c0-0.1-0.1-0.2-0.2-0.3c-0.1-0.1-0.2-0.1-0.3-0.1c0,0,0,0-0.1,0
	c0,0,0,0,0,0v-0.1h0.6V66.9z M59.1,71.1L59.1,71.1c0,0.1,0.1,0.2,0.2,0.3c0.1,0.1,0.2,0.1,0.3,0.1c0,0,0,0,0,0c0,0,0,0,0.1,0v0.1
	h-0.6V71.1z M59.1,66.9v-0.5h0.6v0.1c0,0,0,0-0.1,0c0,0,0,0,0,0c-0.1,0-0.2,0-0.3,0.1C59.2,66.7,59.1,66.8,59.1,66.9L59.1,66.9z
	 M61.9,66.4v5.2H61v-5.2H61.9z M63.6,68.9v0.3h-1.7v-0.3H63.6z M63.9,66.4v0.3h-2.1v-0.3H63.9z M63.6,69.2v0.6h-0.1v-0.1
	c0-0.2-0.1-0.3-0.2-0.4c-0.1-0.1-0.2-0.2-0.4-0.2v0H63.6z M63.6,68.3v0.6h-0.6v0c0.2,0,0.3-0.1,0.4-0.2
	C63.4,68.6,63.5,68.5,63.6,68.3L63.6,68.3L63.6,68.3z M63.9,66.7v0.7h-0.1v-0.1c0-0.2-0.1-0.3-0.2-0.4c-0.1-0.1-0.3-0.2-0.4-0.2v0
	H63.9z M63.9,66.3v0.2L63,66.4c0.1,0,0.2,0,0.3,0c0.1,0,0.2,0,0.3-0.1C63.8,66.3,63.9,66.3,63.9,66.3z M61,71.1v0.5h-0.6v-0.1
	c0,0,0,0,0,0c0,0,0.1,0,0.1,0c0.1,0,0.2,0,0.3-0.1C60.9,71.3,61,71.2,61,71.1L61,71.1z M61,66.9L61,66.9c0-0.1-0.1-0.2-0.2-0.3
	c-0.1-0.1-0.2-0.1-0.3-0.1c0,0,0,0-0.1,0c0,0,0,0,0,0v-0.1H61V66.9z M61.8,71.1L61.8,71.1c0,0.1,0.1,0.2,0.2,0.3
	c0.1,0.1,0.2,0.1,0.3,0.1c0,0,0,0,0,0s0,0,0.1,0v0.1h-0.6V71.1z M66.2,66.4v5.2h-0.9v-5.2H66.2z M65.3,71.1v0.5h-0.6v-0.1
	c0,0,0,0,0,0c0,0,0.1,0,0.1,0c0.1,0,0.2,0,0.3-0.1C65.2,71.3,65.3,71.2,65.3,71.1L65.3,71.1z M65.3,66.9L65.3,66.9
	c0-0.1-0.1-0.2-0.2-0.3c-0.1-0.1-0.2-0.1-0.3-0.1c0,0,0,0-0.1,0c0,0,0,0,0,0v-0.1h0.6V66.9z M66.2,71.1L66.2,71.1
	c0,0.1,0.1,0.2,0.2,0.3c0.1,0.1,0.2,0.1,0.3,0.1c0,0,0,0,0,0c0,0,0,0,0.1,0v0.1h-0.6V71.1z M66.2,66.9v-0.5h0.6v0.1c0,0,0,0-0.1,0
	c0,0,0,0,0,0c-0.1,0-0.2,0-0.3,0.1C66.2,66.7,66.2,66.8,66.2,66.9L66.2,66.9z M68.9,66.4v5.2H68v-5.2H68.9z M70.9,71.3l0.1,0.3h-2.1
	v-0.3H70.9z M70.6,68.9v0.3h-1.7v-0.3H70.6z M71,66.4v0.3h-2.1v-0.3H71z M71.5,70.2l-0.4,1.4h-1.4l0.3-0.3c0.3,0,0.5,0,0.7-0.1
	c0.2-0.1,0.3-0.2,0.5-0.4C71.2,70.6,71.3,70.4,71.5,70.2L71.5,70.2z M70.6,69.2v0.6h-0.1v-0.1c0-0.2-0.1-0.3-0.2-0.4
	c-0.1-0.1-0.2-0.2-0.4-0.2v0H70.6z M70.6,68.3v0.6H70v0c0.2,0,0.3-0.1,0.4-0.2C70.5,68.6,70.6,68.5,70.6,68.3L70.6,68.3L70.6,68.3z
	 M71,66.7v0.8h-0.1v-0.1c0-0.2-0.1-0.3-0.2-0.5c-0.1-0.1-0.3-0.2-0.5-0.2v0H71z M71,66.3v0.2l-0.9-0.1c0.1,0,0.2,0,0.3,0
	c0.1,0,0.2,0,0.3-0.1C70.9,66.3,71,66.3,71,66.3z M68.1,71.1v0.5h-0.6v-0.1c0,0,0,0,0,0c0,0,0.1,0,0.1,0c0.1,0,0.2,0,0.3-0.1
	C68,71.3,68,71.2,68.1,71.1L68.1,71.1z M68.1,66.9L68.1,66.9c0-0.1-0.1-0.2-0.2-0.3c-0.1-0.1-0.2-0.1-0.3-0.1c0,0,0,0-0.1,0
	c0,0,0,0,0,0v-0.1h0.6V66.9z M74.7,66.4c0.6,0,1.1,0.1,1.5,0.3c0.4,0.2,0.7,0.5,1,0.9c0.2,0.4,0.3,0.9,0.3,1.4c0,0.5-0.1,1-0.3,1.4
	c-0.2,0.4-0.6,0.7-1,0.9c-0.4,0.2-0.9,0.3-1.5,0.3h-1.7l0-0.3c0.1,0,0.2,0,0.4,0c0.1,0,0.3,0,0.4,0c0.2,0,0.3,0,0.4,0
	c0.1,0,0.2,0,0.3,0c0.1,0,0.1,0,0.1,0c0.4,0,0.7-0.1,1-0.3c0.3-0.2,0.5-0.5,0.6-0.8c0.2-0.3,0.2-0.8,0.2-1.2c0-0.5-0.1-0.9-0.2-1.2
	c-0.2-0.3-0.4-0.6-0.6-0.8c-0.3-0.2-0.6-0.3-1-0.3c0,0,0,0-0.1,0c-0.1,0-0.2,0-0.3,0c-0.1,0-0.3,0-0.4,0c-0.2,0-0.3,0-0.5,0
	c-0.1,0-0.3,0-0.4,0v-0.3H74.7z M73.5,66.4v5.2h-0.9v-5.2H73.5z M72.6,71.1v0.5H72v-0.1c0,0,0,0,0,0c0,0,0.1,0,0.1,0
	c0.1,0,0.2,0,0.3-0.1C72.5,71.3,72.6,71.2,72.6,71.1L72.6,71.1z M72.6,66.9L72.6,66.9c0-0.1-0.1-0.2-0.2-0.3
	c-0.1-0.1-0.2-0.1-0.3-0.1c0,0,0,0,0,0c0,0,0,0,0,0l0-0.1h0.6V66.9z"/>
</svg>
