<svg id="Layer_1" data-name="Layer 1" xmlns="http://www.w3.org/2000/svg" viewBox="0 0 56.62417 56.62417"><defs><style>.cls-1{fill:#fff;}.cls-2{fill:none;stroke:#f3f3f3;stroke-width:2.26497px;}.cls-3{fill:#b30920;}</style></defs><title>in1</title><rect class="cls-1" x="1.13249" y="1.13249" width="54.3592" height="54.3592" rx="7.92739"/><rect class="cls-2" x="1.13249" y="1.13249" width="54.3592" height="54.3592" rx="7.92739"/><path class="cls-3" d="M22.0946,34.169h1.9167a.47679.47679,0,0,0,.4788-.4748V25.3853a.47679.47679,0,0,0-.4788-.4748H22.0946a.47685.47685,0,0,0-.4788.4748v8.3089A.47685.47685,0,0,0,22.0946,34.169Z" transform="translate(-0.67834 -0.05016)"/><path class="cls-3" d="M22.0946,23.4496h1.9167a.47681.47681,0,0,0,.4788-.4749v-1.688a.47679.47679,0,0,0-.4788-.4748H22.0946a.47685.47685,0,0,0-.4788.4748v1.688A.47687.47687,0,0,0,22.0946,23.4496Z" transform="translate(-0.67834 -0.05016)"/><path class="cls-3" d="M35.636,25.8746a2.91231,2.91231,0,0,0-1.1916-.8674,4.34538,4.34538,0,0,0-1.739-.3398,4.27381,4.27381,0,0,0-3.2726,1.462c-.178.1939-.3074.1515-.3074-.1107v-.633a.47679.47679,0,0,0-.4788-.4748H26.9345a.47672.47672,0,0,0-.4788.4748v8.3088a.47681.47681,0,0,0,.4788.4749h1.9167a.47678.47678,0,0,0,.4787-.4749V30.8049a9.22245,9.22245,0,0,1,.2199-2.4753,2.04608,2.04608,0,0,1,.8132-1.0752,2.318,2.318,0,0,1,1.34-.4059,1.72061,1.72061,0,0,1,.9974.2841,1.58407,1.58407,0,0,1,.5984.7964,8.42676,8.42676,0,0,1,.1842,2.2572v3.5083a.47676.47676,0,0,0,.4787.4748h1.9167a.47685.47685,0,0,0,.4788-.4748V28.989a8.838,8.838,0,0,0-.1585-1.9172A3.12838,3.12838,0,0,0,35.636,25.8746Z" transform="translate(-0.67834 -0.05016)"/></svg>