<svg id="Layer_1" data-name="Layer 1" xmlns="http://www.w3.org/2000/svg" viewBox="0 0 56.62417 56.62417"><defs><style>.cls-1{fill:#fff;}.cls-2{fill:none;stroke:#f3f3f3;stroke-width:2.26497px;}.cls-3{fill:#b30920;}</style></defs><title>instagram</title><rect class="cls-1" x="1.13249" y="1.13249" width="54.3592" height="54.3592" rx="7.92739"/><rect class="cls-2" x="1.13249" y="1.13249" width="54.3592" height="54.3592" rx="7.92739"/><path class="cls-3" d="M28.5778,26.5967a2.2729,2.2729,0,1,0,.87.173A2.27348,2.27348,0,0,0,28.5778,26.5967Zm9.1025-2.2458a5.98621,5.98621,0,0,0-.385-2.0717,3.66722,3.66722,0,0,0-2.1267-2.1267,5.98755,5.98755,0,0,0-2.0716-.385c-1.1825-.0641-1.5309-.0641-4.5192-.0641s-3.3367,0-4.5192.0641a5.98755,5.98755,0,0,0-2.0716.385,3.66722,3.66722,0,0,0-2.1267,2.1267,5.98621,5.98621,0,0,0-.385,2.0717c-.0642,1.1825-.0642,1.5308-.0642,4.5191s0,3.3367.0642,4.5192a6.2874,6.2874,0,0,0,.385,2.0808,3.61158,3.61158,0,0,0,.8342,1.2834,3.56521,3.56521,0,0,0,1.2925.8341,5.9829,5.9829,0,0,0,2.0716.385c1.1825.0642,1.5309.0642,4.5192.0642s3.3367,0,4.5192-.0642a5.9829,5.9829,0,0,0,2.0716-.385,3.56521,3.56521,0,0,0,1.2925-.8341,3.61158,3.61158,0,0,0,.8342-1.2834,6.04981,6.04981,0,0,0,.385-2.0808c.0642-1.1825.0642-1.5308.0642-4.5192S37.7445,25.5334,37.6803,24.3509ZM35.352,31.6842a5.25613,5.25613,0,0,1-.3575,1.65,3.5387,3.5387,0,0,1-1.9525,1.9525,5.25291,5.25291,0,0,1-1.6592.3208h-5.61a5.25291,5.25291,0,0,1-1.6592-.3208,3.41227,3.41227,0,0,1-1.9525-1.9525,5.03389,5.03389,0,0,1-.3116-1.6592v-5.61a5.03331,5.03331,0,0,1,.3116-1.6591,3.21915,3.21915,0,0,1,.7884-1.2009,3.29124,3.29124,0,0,1,1.1641-.7516,5.253,5.253,0,0,1,1.6592-.3209h5.61a5.253,5.253,0,0,1,1.6592.3209,3.41227,3.41227,0,0,1,1.9525,1.9525,5.2523,5.2523,0,0,1,.3208,1.6591V28.87c0,1.8884.0642,2.0809.0367,2.805Zm-1.4667-6.82a2.18219,2.18219,0,0,0-1.2925-1.2925,3.66821,3.66821,0,0,0-1.265-.2017h-5.5a3.66894,3.66894,0,0,0-1.265.2384,2.18167,2.18167,0,0,0-1.2925,1.2466,3.91407,3.91407,0,0,0-.1925,1.265v5.5a3.9143,3.9143,0,0,0,.2383,1.265,2.18149,2.18149,0,0,0,1.2925,1.2925,3.91426,3.91426,0,0,0,1.2192.2384h5.5a3.6666,3.6666,0,0,0,1.265-.2384,2.18149,2.18149,0,0,0,1.2925-1.2925,3.66606,3.66606,0,0,0,.2383-1.265v-5.5a3.4637,3.4637,0,0,0-.2383-1.265Zm-5.3075,7.5075a3.50164,3.50164,0,1,1,1.9479-.5857A3.492,3.492,0,0,1,28.5778,32.3717Zm3.6667-6.3158a.825.825,0,1,1,.5264-.2686A.82557.82557,0,0,1,32.2445,26.0559Z" transform="translate(-0.2705 -0.55798)"/></svg>