<svg id="Layer_1" data-name="Layer 1" xmlns="http://www.w3.org/2000/svg" viewBox="0 0 56.62417 56.62417"><defs><style>.cls-1{fill:#fff;}.cls-2{fill:#b30920;}.cls-3{fill:none;stroke:#f3f3f3;stroke-width:2.26497px;}</style></defs><title>twitter</title><rect class="cls-1" x="1.13249" y="1.13249" width="54.3592" height="54.3592" rx="7.92739"/><path class="cls-2" d="M36.9469,24.2015v.4955a10.55637,10.55637,0,0,1-16.2441,8.8829,6.89313,6.89313,0,0,0,.8848.0708,7.4707,7.4707,0,0,0,4.6007-1.5926,3.69793,3.69793,0,0,1-3.4682-2.5834,4.80684,4.80684,0,0,0,.7078.0707,4.147,4.147,0,0,0,.9555-.1415,3.72065,3.72065,0,0,1-2.9728-3.6452v-.0354a3.91843,3.91843,0,0,0,1.6988.4601,3.656,3.656,0,0,1-1.6634-3.079,3.61436,3.61436,0,0,1,.4955-1.8756,10.78185,10.78185,0,0,0,7.6796,3.8929,3.49509,3.49509,0,0,1-.1061-.8494,3.73013,3.73013,0,0,1,6.441-2.5481,7.84689,7.84689,0,0,0,2.3357-.9201,3.63054,3.63054,0,0,1-1.6279,2.0526,6.96581,6.96581,0,0,0,2.1234-.5662A7.87037,7.87037,0,0,1,36.9469,24.2015Z" transform="translate(-0.89551 -0.55787)"/><rect class="cls-3" x="1.13249" y="1.13249" width="54.3592" height="54.3592" rx="7.92739"/></svg>