<svg id="Layer_1" data-name="Layer 1" xmlns="http://www.w3.org/2000/svg" viewBox="0 0 16.34688 20.7"><defs><style>.cls-1{fill:#e21b22;}</style></defs><title>delete</title><path class="cls-1" d="M12.1,1.5a3.50614,3.50614,0,0,1,1.4.6,2.42955,2.42955,0,0,1,.9,1.4.21508.21508,0,0,0,.2.2h3.1a3.40193,3.40193,0,0,1,1,.1,1.88055,1.88055,0,0,1,1.2,2,1.80725,1.80725,0,0,1-1.6,1.6H5.6a1.65057,1.65057,0,0,1-2-1.3A1.959,1.959,0,0,1,5.1,3.8h.3c1.1-.1,2.2,0,3.4,0,.2,0,.3-.1.3-.2h0a2.97171,2.97171,0,0,1,2.2-2h.8Zm-.3,3.2H5.5a.94434.94434,0,0,0-.7,1.6,1.396,1.396,0,0,0,.9.3H18.2a.92114.92114,0,0,0,.7-1.1.97381.97381,0,0,0-1-.8Zm-.1-1h1.5c.2,0,.2,0,.2-.2a1.71389,1.71389,0,0,0-1.6-1.1,2.03058,2.03058,0,0,0-1.7,1.1c-.1.1,0,.2.1.2Z" transform="translate(-3.56579 -1.5)"/><path class="cls-1" d="M7.5,22.1A2.75136,2.75136,0,0,1,6,21.3a2.79214,2.79214,0,0,1-.8-2V9c0-.5.3-.7.7-.5.1.1.2.2.2.3V19.2a1.87155,1.87155,0,0,0,.5,1.4,1.61246,1.61246,0,0,0,1.3.6h7.7a1.71035,1.71035,0,0,0,1.7-1.8V9a.47239.47239,0,0,1,.5-.5h.1a.43016.43016,0,0,1,.4.4V19.4A2.7924,2.7924,0,0,1,16,22.2h-.1Z" transform="translate(-3.56579 -1.5)"/><path class="cls-1" d="M14.5,14.5v-4c0-.2.3-.4.5-.4a.43016.43016,0,0,1,.4.4v7.9a.45751.45751,0,0,1-.5.4.66441.66441,0,0,1-.5-.4v-.3C14.5,16.9,14.5,15.7,14.5,14.5Z" transform="translate(-3.56579 -1.5)"/><path class="cls-1" d="M11.3,14.5V10.6c0-.2.1-.5.4-.5h.1a.43016.43016,0,0,1,.4.4v8a.54993.54993,0,0,1-.5.3.45751.45751,0,0,1-.4-.5Z" transform="translate(-3.56579 -1.5)"/><path class="cls-1" d="M8.9,14.5v3.9a.47239.47239,0,0,1-.5.5H8.2a.45078.45078,0,0,1-.3-.3v-8a.47239.47239,0,0,1,.5-.5h0a.66441.66441,0,0,1,.5.4v4Z" transform="translate(-3.56579 -1.5)"/></svg>