<svg id="Layer_1" data-name="Layer 1" xmlns="http://www.w3.org/2000/svg" viewBox="0 0 15 16"><defs><style>.cls-1{fill:none;stroke:#292d32;stroke-linecap:round;stroke-linejoin:round;stroke-width:0.99155px;}</style></defs><title>edit</title><path class="cls-1" d="M7.05478,1.332H5.73271c-3.30517,0-4.62724,1.32207-4.62724,4.62724V9.92548c0,3.30522,1.32207,4.62722,4.62724,4.62722H9.69892c3.30518,0,4.62728-1.322,4.62728-4.62722V8.60341"/><path class="cls-1" d="M10.3868,2.0083l-5.209,5.209a1.793,1.793,0,0,0-.43628.87256L4.45727,10.0795A.9416.9416,0,0,0,5.581,11.2033l1.98972-.2843a1.85089,1.85089,0,0,0,.87256-.4362l5.209-5.209a2.008,2.008,0,0,0,0-3.26551A2.008,2.008,0,0,0,10.3868,2.0083Z"/><path class="cls-1" d="M9.63867,2.75A4.72277,4.72277,0,0,0,12.9042,6.01551"/></svg>