<svg id="Layer_1" data-name="Layer 1" xmlns="http://www.w3.org/2000/svg" viewBox="0 0 19.94463 19.8799"><defs><style>.cls-1{fill:#42c305;}</style></defs><title>edit</title><path class="cls-1" d="M4.33879,21.73984a2.67062,2.67062,0,0,1-1.24552-.45744,2.42286,2.42286,0,0,1-1.0631-2.0384q-.00468-6.47088-.00041-12.94176A2.48515,2.48515,0,0,1,4.49142,3.79382l.01067-.00008c1.45288-.01845,2.90617-.006,4.35927-.00362A.54373.54373,0,0,1,9.436,4.2167a.5255.5255,0,0,1-.29355.56128.68046.68046,0,0,1-.32411.04382q-2.06289.00129-4.12579.00135a1.54165,1.54165,0,0,0-1.33138.59292,1.40786,1.40786,0,0,0-.29686.84785c-.00282.519-.00237,1.03792-.00239,1.55688q-.00018,5.65352-.00143,11.307a1.484,1.484,0,0,0,.81683,1.417,1.66243,1.66243,0,0,0,.814.14688q3.91172-.00092,7.82344-.00035c1.93964,0,3.8793-.00445,5.81892.00235a1.47653,1.47653,0,0,0,1.4406-.8373,1.60918,1.60918,0,0,0,.13571-.75765q-.00156-2.01424.00058-4.02849a1.89155,1.89155,0,0,1,.02417-.32881.53374.53374,0,0,1,.4845-.43368.54411.54411,0,0,1,.5164.39808,1.09929,1.09929,0,0,1,.02814.30885c-.00012,1.3558-.00874,2.71167.00217,4.06739a2.52623,2.52623,0,0,1-2.24762,2.63813.22632.22632,0,0,0-.05469.01965Z" transform="translate(-2.02772 -1.85995)"/><path class="cls-1" d="M21.97232,5.07945a2.84574,2.84574,0,0,1-.86075,1.44527q-4.24781,4.22781-8.47684,8.47448a1.28359,1.28359,0,0,1-.59308.3456c-1.30065.35446-2.5992.71667-3.898,1.07777a.53588.53588,0,0,1-.70546-.71032q.55269-1.99563,1.10153-3.99232a.90778.90778,0,0,1,.2413-.41339q4.37043-4.36667,8.73869-8.7355a2.23327,2.23327,0,0,1,3.15635-.11194l.02782.02636a7.00383,7.00383,0,0,1,.82584.8505,2.55474,2.55474,0,0,1,.44263.965ZM12.14651,14.0075c.05173-.04775.10012-.0894.14514-.13442q3.45339-3.45261,6.90879-6.90321c.12294-.12257.13626-.19106.00491-.31978Q18.198,5.66293,17.21046,4.65558c-.126-.12839-.195-.12484-.3202.00125q-1.93977,1.95342-3.89038,3.89605-1.51326,1.51329-3.027,3.02607c-.07667.07655-.15025.13142-.0326.24752.70161.69236,1.39617,1.39187,2.0937,2.08838C12.06523,13.94606,12.10234,13.97142,12.14651,14.0075ZM19.094,2.90588a1.02033,1.02033,0,0,0-.54494.16247,4.24561,4.24561,0,0,0-.70231.63923c-.07288.06962-.014.11352.032.15956Q18.937,4.92557,19.9946,5.98471c.05944.05964.10662.08626.17541.01217a7.49863,7.49863,0,0,0,.548-.57751,1.19674,1.19674,0,0,0-.0485-1.4918c-.2238-.251-.46719-.48549-.71187-.71671A1.1825,1.1825,0,0,0,19.094,2.90588ZM11.11454,14.46841c-.02024-.02326-.03987-.04873-.06242-.07129q-.79682-.79761-1.59335-1.59549c-.08754-.08811-.12662-.05679-.1543.04385q-.30384,1.105-.60909,2.20959c-.03365.12112.00917.13856.11556.10731.19877-.05837.39918-.11121.59892-.16628.52429-.14455,1.04883-.2882,1.57249-.435C11.03186,14.54724,11.10343,14.55325,11.11454,14.46841Z" transform="translate(-2.02772 -1.85995)"/></svg>