<svg id="Layer_1" data-name="Layer 1" xmlns="http://www.w3.org/2000/svg" viewBox="0 0 15 15"><defs><style>.cls-1{fill:#e2e2e2;}</style></defs><title>plus</title><path class="cls-1" d="M10.4502,7.31651H8.13637V5.0027a.534.534,0,0,0-1.06791,0V7.31651H4.75466a.534.534,0,1,0,0,1.06791h2.3138V10.6982a.534.534,0,1,0,1.06791,0V8.38442H10.4502a.534.534,0,0,0,0-1.06791Z"/><path class="cls-1" d="M7.60156.91016A6.94142,6.94142,0,1,0,14.543,7.85156,6.94576,6.94576,0,0,0,7.60156.91016Zm0,12.81494A5.87352,5.87352,0,1,1,13.4751,7.85156,5.87932,5.87932,0,0,1,7.60156,13.7251Z"/></svg>