<svg id="Layer_1" data-name="Layer 1" xmlns="http://www.w3.org/2000/svg" viewBox="0 0 15 15"><defs><style>.cls-1{fill:#e21b22;}</style></defs><title>plus-red</title><path class="cls-1" d="M9.9658,7.31651H7.652V5.0027a.534.534,0,0,0-1.06791,0V7.31651H4.27028a.534.534,0,0,0,0,1.06791h2.3138V10.6982a.534.534,0,1,0,1.06791,0V8.38442H9.9658a.534.534,0,0,0,0-1.06791Z"/><path class="cls-1" d="M7.11719.91016a6.94142,6.94142,0,1,0,6.94141,6.9414A6.94577,6.94577,0,0,0,7.11719.91016Zm0,12.81494A5.87352,5.87352,0,1,1,12.9907,7.85156,5.87932,5.87932,0,0,1,7.11719,13.7251Z"/></svg>