<svg id="Layer_1" data-name="Layer 1" xmlns="http://www.w3.org/2000/svg" viewBox="0 0 22 22"><defs><style>.cls-1{fill:#464646;stroke:#fff;stroke-width:0.1px;}</style></defs><title>filter</title><path class="cls-1" d="M3.13,5.84v0H3a.52.52,0,0,1-.37-.16.49.49,0,0,1-.15-.36.5.5,0,0,1,.15-.37A.52.52,0,0,1,3,4.76h.12v0A2.23,2.23,0,0,1,5.29,3.05a2.18,2.18,0,0,1,1.36.47,2.21,2.21,0,0,1,.79,1.21v0H19a.52.52,0,0,1,.37.16.5.5,0,0,1,.15.37.49.49,0,0,1-.15.36.52.52,0,0,1-.37.16H7.45v0a2.21,2.21,0,0,1-.79,1.21,2.22,2.22,0,0,1-2.73,0A2.21,2.21,0,0,1,3.13,5.84Zm15.74,4.6v0H19a.52.52,0,1,1,0,1h-.12v0a2.22,2.22,0,0,1-4.31,0v0H3a.52.52,0,1,1,0-1H14.55v0a2.22,2.22,0,0,1,4.31,0Zm-5.71,5.72v0H19a.52.52,0,0,1,.37.16.49.49,0,0,1,.15.36.5.5,0,0,1-.15.37.52.52,0,0,1-.37.16H13.17v0a2.26,2.26,0,0,1-.79,1.21,2.23,2.23,0,0,1-2.74,0,2.26,2.26,0,0,1-.79-1.21v0H3a.52.52,0,0,1-.37-.16.5.5,0,0,1-.15-.37.49.49,0,0,1,.15-.36A.52.52,0,0,1,3,16.19H8.83v0A2.26,2.26,0,0,1,9.63,15a2.23,2.23,0,0,1,2.74,0A2.26,2.26,0,0,1,13.16,16.16ZM6,4.29a1.22,1.22,0,0,0-.66-.2,1.2,1.2,0,0,0-1.2,1.2,1.22,1.22,0,0,0,.2.66,1.23,1.23,0,0,0,.54.44,1.25,1.25,0,0,0,.69.07,1.21,1.21,0,0,0,.94-.94,1.25,1.25,0,0,0-.07-.69A1.23,1.23,0,0,0,6,4.29ZM16.05,12a1.22,1.22,0,0,0,.66.2A1.2,1.2,0,0,0,17.91,11a1.2,1.2,0,0,0-1.43-1.17,1.22,1.22,0,0,0-.61.33,1.18,1.18,0,0,0-.33.61A1.19,1.19,0,0,0,16.05,12Zm-5.71,5.72a1.17,1.17,0,0,0,.66.2,1.2,1.2,0,0,0,1.19-1.2,1.22,1.22,0,0,0-.2-.66,1.19,1.19,0,0,0-1.22-.51,1.18,1.18,0,0,0-.61.33,1.22,1.22,0,0,0-.33.61,1.21,1.21,0,0,0,.51,1.23Z"/></svg>