<svg id="Layer_1" data-name="Layer 1" xmlns="http://www.w3.org/2000/svg" viewBox="0 0 22 22"><defs><style>.cls-1{fill:#464646;stroke:#fff;stroke-width:0.1px;}</style></defs><title>grid</title><path class="cls-1" d="M9.09,14.05h0A1.16,1.16,0,0,0,8,12.91h-3a1.14,1.14,0,0,0-1.14,1.14h0V17.1h0A1.13,1.13,0,0,0,4.9,18.24H8A1.14,1.14,0,0,0,9.09,17.1h0Zm0-9.15h0A1.14,1.14,0,0,0,8,3.76h-3A1.13,1.13,0,0,0,3.76,4.9h0V8h0A1.14,1.14,0,0,0,4.9,9.09H8A1.16,1.16,0,0,0,9.09,8h0Zm9.15,9.15h0a1.14,1.14,0,0,0-1.14-1.14H14.05a1.16,1.16,0,0,0-1.14,1.14h0V17.1h0a1.14,1.14,0,0,0,1.14,1.14H17.1a1.13,1.13,0,0,0,1.14-1.14h0Zm0-9.15h0A1.13,1.13,0,0,0,17.1,3.76H14.05A1.14,1.14,0,0,0,12.91,4.9h0V8h0a1.16,1.16,0,0,0,1.14,1.14H17.1A1.14,1.14,0,0,0,18.24,8h0ZM8,11.7a2.36,2.36,0,0,1,2.35,2.35V17.1h0A2.36,2.36,0,0,1,8,19.45h-3A2.36,2.36,0,0,1,2.55,17.1V14.05h0A2.36,2.36,0,0,1,4.9,11.7ZM9.61,3.24A2.36,2.36,0,0,1,10.3,4.9V8h0A2.36,2.36,0,0,1,8,10.3h-3A2.36,2.36,0,0,1,2.55,8v-3h0A2.36,2.36,0,0,1,4.9,2.55H8A2.36,2.36,0,0,1,9.61,3.24ZM17.1,11.7a2.36,2.36,0,0,1,2.35,2.35V17.1a2.36,2.36,0,0,1-2.35,2.35H14.05A2.36,2.36,0,0,1,11.7,17.1V14.05h0a2.36,2.36,0,0,1,2.35-2.35Zm0-9.15A2.36,2.36,0,0,1,19.45,4.9V8A2.36,2.36,0,0,1,17.1,10.3H14.05A2.36,2.36,0,0,1,11.7,8v-3h0a2.36,2.36,0,0,1,2.35-2.35Z"/></svg>