<svg id="Layer_1" data-name="Layer 1" xmlns="http://www.w3.org/2000/svg" viewBox="0 0 22 22"><defs><style>.cls-1,.cls-2{fill:#464646;stroke:#fff;}.cls-1{stroke-width:0.2px;}.cls-2{stroke-width:0.4px;}</style></defs><title>list</title><path class="cls-1" d="M3.9,6A.9.9,0,1,1,3,5.1.9.9,0,0,1,3.9,6Z"/><path class="cls-1" d="M3.9,11a.9.9,0,1,1-.9-.9A.9.9,0,0,1,3.9,11Z"/><path class="cls-1" d="M3.9,16a.9.9,0,1,1-.9-.9A.9.9,0,0,1,3.9,16Z"/><path class="cls-2" d="M6.94,10.2H19.06a.74.74,0,0,1,.74.74v.12a.74.74,0,0,1-.74.74H6.94a.74.74,0,0,1-.74-.74v-.12A.74.74,0,0,1,6.94,10.2Z"/><path class="cls-2" d="M6.94,15.2H19.06a.74.74,0,0,1,.74.74v.12a.74.74,0,0,1-.74.74H6.94a.74.74,0,0,1-.74-.74v-.12A.74.74,0,0,1,6.94,15.2Z"/><path class="cls-2" d="M6.94,5.2H19.06a.74.74,0,0,1,.74.74v.12a.74.74,0,0,1-.74.74H6.94a.74.74,0,0,1-.74-.74V5.94A.74.74,0,0,1,6.94,5.2Z"/></svg>