<svg id="Layer_1" data-name="Layer 1" xmlns="http://www.w3.org/2000/svg" viewBox="0 0 22 22"><defs><style>.cls-1{fill:#464646;stroke:#fff;stroke-width:0.1px;}</style></defs><title>sort-by</title><path class="cls-1" d="M4.07,6.36V6.23L4,6.32,2.52,7.83h0A.63.63,0,0,1,2.06,8a.62.62,0,0,1-.44-.18.64.64,0,0,1,0-.9h0L4.25,4.22h0A.64.64,0,0,1,4.71,4a.61.61,0,0,1,.45.2h0L7.81,6.94a.63.63,0,0,1,0,.9h0a.63.63,0,0,1-.9,0L5.43,6.32l-.09-.09V17.34a.64.64,0,1,1-1.27,0ZM17.79,8.25a.64.64,0,1,1,0,1.27H10.33a.64.64,0,1,1,0-1.27Zm-2.14,4.23a.64.64,0,0,1,0,1.27H10.33a.64.64,0,1,1,0-1.27Zm-6,4.86a.64.64,0,0,1,.64-.63H13.5a.64.64,0,1,1,0,1.27H10.33A.64.64,0,0,1,9.69,17.34ZM10.33,4h9.61a.64.64,0,1,1,0,1.27H10.33a.64.64,0,1,1,0-1.27Z"/></svg>