<svg width="53" height="38" viewBox="0 0 53 38" fill="none" xmlns="http://www.w3.org/2000/svg">
<path d="M9.72164 26.1553C12.3178 29.0536 15.1063 31.8969 18.2519 34.5342C18.815 30.3172 19.0896 26.1827 19.1995 22.1992C16.0951 23.7102 12.9359 25.0289 9.72164 26.1553Z" fill="#FF276A"/>
<path d="M22.4416 20.441C25.6009 22.7623 29.0212 24.9051 32.7025 26.8693C32.4689 22.776 31.8233 18.6964 31.0403 14.864C28.2656 16.8008 25.491 18.7377 22.4416 20.441Z" fill="#6BA6D6"/>
<path d="M33.9934 12.4601C37.6885 14.1084 41.5208 15.5094 45.5867 16.6357C44.4603 12.6935 43.0729 8.9298 41.452 5.44087C39.1307 7.87218 36.5895 10.2623 33.9934 12.4601Z" fill="#FDE600"/>
<path d="M43.5258 0.688241L45.8472 2.62499C35.7102 15.1936 21.6034 24.4245 6.02679 28.8752C5.83448 28.9301 5.54603 29.0125 5.35372 29.0675L4.52952 26.1829C19.749 21.9383 33.5948 12.886 43.5258 0.688241Z" fill="#868CA5"/>
</svg>
