<svg id="Layer_1" data-name="Layer 1" xmlns="http://www.w3.org/2000/svg" viewBox="0 0 47.93478 42.82239"><defs><style>.cls-1{fill:#fff;}.cls-2{fill:#c90905;}</style></defs><title>failed-icon</title><path class="cls-1" d="M23.954,42.603q10.14619,0,20.29252-.00188a5.71723,5.71723,0,0,0,.94135-.04749,2.987,2.987,0,0,0,2.01377-4.57724Q36.99805,19.91815,26.88293,1.80991a3.2312,3.2312,0,0,0-5.804.00078q-7.77726,13.88-15.57112,27.75059c-1.61281,2.87331-3.235,5.74139-4.83436,8.6222a2.87885,2.87885,0,0,0,1.159,4.05292,3.69677,3.69677,0,0,0,1.77338.3707Q13.77991,42.59738,23.954,42.603Z"/><path class="cls-2" d="M21.91644,21.42363c0,1.71276-.0031,3.42552.001,5.13826a2.05148,2.05148,0,1,0,4.09558.02653q.00634-5.13826,0-10.27653a2.05144,2.05144,0,1,0-4.09558.02289C21.91328,18.03105,21.91644,19.72734,21.91644,21.42363Z"/><path class="cls-2" d="M23.95617,35.06185a1.98251,1.98251,0,0,0,2.05547-1.99975,2.04638,2.04638,0,1,0-4.09241-.02021A1.98732,1.98732,0,0,0,23.95617,35.06185Z"/></svg>