<svg id="Layer_1" data-name="Layer 1" xmlns="http://www.w3.org/2000/svg" viewBox="0 0 45.64488 45.66675"><defs><style>.cls-1{fill:#fff;}.cls-2{fill:#057c05;}</style></defs><title>Success-icon</title><path class="cls-1" d="M22.83131,0A22.83337,22.83337,0,1,1,0,22.82454,22.836,22.836,0,0,1,22.83131,0Z"/><path class="cls-2" d="M35.187,16.14127a2.00215,2.00215,0,0,0-1.99823-2.0669,2.22092,2.22092,0,0,0-1.62721.79093q-5.53344,5.54178-11.06782,11.08258c-.28.28129-.46189.34124-.76406.03516-.48346-.48972-1.00935-.93757-1.51779-1.40259q-1.76-1.60968-3.52-3.21935a1.94059,1.94059,0,0,0-1.78363-.5568,1.7933,1.7933,0,0,0-1.47456,1.3412,1.99826,1.99826,0,0,0,.64172,2.12162q3.34935,3.05249,6.69972,6.10385a2.17391,2.17391,0,0,0,.84038.51507,2.0542,2.0542,0,0,0,2.15636-.64773q5.52275-5.49613,11.05817-10.97955c.56434-.56,1.13382-1.11482,1.6959-1.67706A1.92445,1.92445,0,0,0,35.187,16.14127Z"/></svg>