<svg id="Layer_1" data-name="Layer 1" xmlns="http://www.w3.org/2000/svg" xmlns:xlink="http://www.w3.org/1999/xlink" viewBox="0 0 24 24"><defs><style>.cls-1{fill:none;}.cls-2{clip-path:url(#clip-path);}.cls-3{fill:#fff;}.cls-4{fill:#4267b2;}</style><clipPath id="clip-path"><rect class="cls-1" width="24" height="24"/></clipPath></defs><title>facebook</title><g class="cls-2"><path class="cls-3" d="M18.61,0H5.39A5.39,5.39,0,0,0,0,5.39V18.61A5.39,5.39,0,0,0,5.39,24H18.61A5.39,5.39,0,0,0,24,18.61V5.39A5.39,5.39,0,0,0,18.61,0Z"/><path class="cls-4" d="M19.5,0a4.33,4.33,0,0,1,3.18,1.32A4.33,4.33,0,0,1,24,4.5v15A4.51,4.51,0,0,1,19.5,24H16.56V14.7h3.11l.47-3.62H16.56V8.77a2,2,0,0,1,.37-1.32A1.82,1.82,0,0,1,18.36,7l1.91,0V3.77a20.1,20.1,0,0,0-2.79-.14,4.59,4.59,0,0,0-3.39,1.25,4.72,4.72,0,0,0-1.28,3.53v2.67H9.69V14.7h3.12V24H4.5a4.33,4.33,0,0,1-3.18-1.32A4.33,4.33,0,0,1,0,19.5V4.5A4.33,4.33,0,0,1,1.32,1.32,4.33,4.33,0,0,1,4.5,0Z"/></g></svg>