<svg id="Layer_1" data-name="Layer 1" xmlns="http://www.w3.org/2000/svg" viewBox="0 0 147.88 147.88"><defs><style>.cls-1{fill:#ededed;}.cls-2{fill:#ea4435;}.cls-3{fill:#00ac47;}.cls-4{fill:#ffba00;}.cls-5{fill:#4285f4;}.cls-6{fill:#c52528;}</style></defs><title>g-mail</title><path class="cls-1" d="M148.94,39.74v70.52a38.68,38.68,0,0,1-38.68,38.68H39.74A38.67,38.67,0,0,1,1.06,110.28V39.74A38.68,38.68,0,0,1,39.74,1.06h70.52a38.67,38.67,0,0,1,38.68,38.66Z" transform="translate(-1.06 -1.06)"/><path class="cls-2" d="M79.2,87.46,34.86,59.25A10.48,10.48,0,0,1,46.11,41.56l32.53,20.7,29.21-20.45a10.49,10.49,0,0,1,12,17.18Z" transform="translate(-1.06 -1.06)"/><path class="cls-3" d="M117.36,113.3h-14V50.4a10.48,10.48,0,0,1,10.48-10.48h0A10.49,10.49,0,0,1,124.35,50.4v55.91A7,7,0,0,1,117.36,113.3Z" transform="translate(-1.06 -1.06)"/><path class="cls-4" d="M124.19,48.88c0-.21,0-.42-.07-.63s-.19-.62-.28-.93-.21-.7-.34-1c-.07-.17-.18-.31-.26-.48a10.39,10.39,0,0,0-.75-1.34c-.14-.2-.31-.38-.47-.57a9,9,0,0,0-.86-1,7.48,7.48,0,0,0-.75-.62,8.8,8.8,0,0,0-.83-.65c-.28-.18-.58-.32-.88-.48s-.61-.33-.93-.46a7.8,7.8,0,0,0-1-.3,8.36,8.36,0,0,0-1-.27,10.38,10.38,0,0,0-1.25-.13c-.26,0-.52-.06-.79-.06a9,9,0,0,0-1.47.15c-.2,0-.4,0-.59.06-.66.21-1.32.41-2,.63-.18.07-.33.19-.51.27a10.16,10.16,0,0,0-5.85,9.36V70.54L119.88,59a10.09,10.09,0,0,0,4.31-10.11Z" transform="translate(-1.06 -1.06)"/><path class="cls-5" d="M40.48,39.92h0A10.49,10.49,0,0,1,51,50.4v62.9H37a7,7,0,0,1-7-7V50.4A10.48,10.48,0,0,1,40.48,39.92Z" transform="translate(-1.06 -1.06)"/><path class="cls-6" d="M30.15,48.88c0-.21,0-.42.08-.63s.19-.62.28-.93.21-.7.34-1c.07-.17.18-.31.25-.48a10.47,10.47,0,0,1,.76-1.34c.14-.2.31-.38.47-.57a10.07,10.07,0,0,1,.85-1c.24-.23.5-.42.75-.62a10.46,10.46,0,0,1,.84-.65c.28-.18.58-.32.88-.48a10,10,0,0,1,.93-.46,7.8,7.8,0,0,1,1-.3,10.09,10.09,0,0,1,1-.28c.41-.06.83-.1,1.24-.12a7.18,7.18,0,0,1,.8-.06,10.3,10.3,0,0,1,1.47.14c.2,0,.4,0,.59.07s.68.19,1,.31.66.19,1,.31.33.2.51.28a10,10,0,0,1,1.31.74A10.45,10.45,0,0,1,51,50.4V70.54L34.47,59A10.1,10.1,0,0,1,30.15,48.88Z" transform="translate(-1.06 -1.06)"/></svg>