<svg id="Layer_1" data-name="Layer 1" xmlns="http://www.w3.org/2000/svg" xmlns:xlink="http://www.w3.org/1999/xlink" viewBox="0 0 24 24"><defs><style>.cls-1{fill:none;}.cls-2{clip-path:url(#clip-path);}.cls-3{fill:#ff3635;}.cls-4{fill:#fff;fill-rule:evenodd;}</style><clipPath id="clip-path"><rect class="cls-1" width="24" height="24"/></clipPath></defs><title>pinterest</title><g class="cls-2"><path class="cls-3" d="M18.61,0H5.39A5.39,5.39,0,0,0,0,5.39V18.61A5.39,5.39,0,0,0,5.39,24H18.61A5.39,5.39,0,0,0,24,18.61V5.39A5.39,5.39,0,0,0,18.61,0Z"/><path class="cls-4" d="M11.18,14v.1a10.86,10.86,0,0,1-1,3.15,9.7,9.7,0,0,1-.79,1.18.12.12,0,0,1-.13.09c-.07,0-.08-.09-.09-.14A10.08,10.08,0,0,1,9,16.63c0-.75.12-1,1.08-5.06a.22.22,0,0,0,0-.16A2.83,2.83,0,0,1,10,9.53c.43-1.38,2-1.49,2.27-.35.17.7-.27,1.66-.62,3-.26,1.13,1.07,2,2.2,1.13s1.45-2.58,1.37-3.86c-.14-2.57-3-3.11-4.74-2.29C8.41,8.1,8,10.63,8.87,11.79c.12.15.21.24.17.39s-.11.46-.18.7a.19.19,0,0,1,0,.1.16.16,0,0,1-.09.07.14.14,0,0,1-.11,0,.2.2,0,0,1-.11,0,2.12,2.12,0,0,1-.84-.64,4,4,0,0,1,0-4.52A5.56,5.56,0,0,1,10,6a5.44,5.44,0,0,1,3-.41A4.43,4.43,0,0,1,17,9.24a6.08,6.08,0,0,1-1.12,4.29c-1.33,1.66-3.48,1.75-4.48.74A1.13,1.13,0,0,0,11.18,14Z"/></g></svg>