<svg id="Layer_1" data-name="Layer 1" xmlns="http://www.w3.org/2000/svg" viewBox="0 0 24 24"><defs><style>.cls-1{fill:none;stroke:#200e32;stroke-linecap:round;stroke-linejoin:round;stroke-width:1.5px;}</style></defs><title>profile</title><circle class="cls-1" cx="11.58" cy="7.28" r="4.78"/><path class="cls-1" d="M4,18.7a2.19,2.19,0,0,1,.22-1A4.07,4.07,0,0,1,7,16.11a18.3,18.3,0,0,1,2.34-.33,24.76,24.76,0,0,1,4.39,0,18.56,18.56,0,0,1,2.34.33c1.07.22,2.36.66,2.82,1.62a2.29,2.29,0,0,1,0,1.95c-.46,1-1.75,1.4-2.82,1.61a15.35,15.35,0,0,1-2.34.34,26.59,26.59,0,0,1-3.57.06,3.78,3.78,0,0,1-.82-.06,15.4,15.4,0,0,1-2.33-.34,3.88,3.88,0,0,1-2.83-1.61A2.23,2.23,0,0,1,4,18.7Z"/></svg>