<svg id="Layer_1" data-name="Layer 1" xmlns="http://www.w3.org/2000/svg" viewBox="0 0 24 24"><defs><style>.cls-1{fill:#ffc107;stroke:#ffc107;stroke-width:0.96px;}</style></defs><title>star-f</title><path class="cls-1" d="M23,9.48h0a.74.74,0,0,1-.22.79h0l-5,4.43-.22.19.07.28,1.49,6.56h0a.79.79,0,0,1,0,.43.78.78,0,0,1-.26.34.84.84,0,0,1-.41.14.77.77,0,0,1-.42-.1h0l-5.75-3.44L12,18.94l-.25.15L6,22.54H6a.75.75,0,0,1-.42.1.84.84,0,0,1-.4-.14.78.78,0,0,1-.26-.34.79.79,0,0,1,0-.43h0l1.49-6.56.06-.28L6.2,14.7,1.15,10.27h0a.72.72,0,0,1-.23-.36.7.7,0,0,1,0-.43.79.79,0,0,1,.24-.36A.83.83,0,0,1,1.57,9h0l6.68-.6.29,0,.11-.26,2.64-6.18a.69.69,0,0,1,.28-.33A.74.74,0,0,1,12,1.43a.76.76,0,0,1,.41.13.75.75,0,0,1,.28.33h0l2.64,6.18.11.26.29,0,6.67.6h0a.79.79,0,0,1,.39.16A.81.81,0,0,1,23,9.48Z"/></svg>