<svg width="18" height="18" viewBox="0 0 18 18" fill="none" xmlns="http://www.w3.org/2000/svg">
<path d="M16.5752 6.47379C17.4037 6.60127 17.7224 7.62107 17.1169 8.22658L13.7707 11.5091L14.5674 16.1301C14.6949 16.9586 13.8026 17.596 13.0696 17.2136L8.92663 15.0146L4.75181 17.2136C4.01883 17.596 3.1265 16.9586 3.25397 16.1301L4.05069 11.5091L0.704465 8.22658C0.0989571 7.62107 0.417646 6.60127 1.24624 6.47379L5.93096 5.80454L8.00243 1.56599C8.38486 0.801135 9.4684 0.833004 9.81896 1.56599L11.9223 5.80454L16.5752 6.47379ZM12.1135 10.9673L15.3323 7.84415L10.9025 7.20677L8.92663 3.1913L6.91889 7.20677L2.48912 7.84415L5.70787 10.9673L4.94302 15.3652L8.92663 13.2937L12.8784 15.3652L12.1135 10.9673Z" fill="#FFB800"/>
</svg>
