<svg id="Layer_1" data-name="Layer 1" xmlns="http://www.w3.org/2000/svg" xmlns:xlink="http://www.w3.org/1999/xlink" viewBox="0 0 24 24"><defs><style>.cls-1{fill:none;}.cls-2{clip-path:url(#clip-path);}.cls-3{fill:#fff;}</style><clipPath id="clip-path"><rect class="cls-1" width="24" height="24"/></clipPath></defs><title>twitter</title><g class="cls-2"><path d="M18.61,0H5.39A5.39,5.39,0,0,0,0,5.39V18.61A5.39,5.39,0,0,0,5.39,24H18.61A5.39,5.39,0,0,0,24,18.61V5.39A5.39,5.39,0,0,0,18.61,0Z"/><path class="cls-3" d="M16.14,5.5h2.2L13.52,11l5.67,7.49H14.75L11.28,14l-4,4.54H5.09l5.16-5.89L4.81,5.5H9.36L12.5,9.65Zm-.78,11.68h1.22L8.7,6.75H7.38Z"/></g></svg>