<svg id="Layer_1" data-name="Layer 1" xmlns="http://www.w3.org/2000/svg" xmlns:xlink="http://www.w3.org/1999/xlink" viewBox="0 0 150 150"><defs><style>.cls-1{fill:url(#linear-gradient);}.cls-2{fill:#fff;}</style><linearGradient id="linear-gradient" x1="137.61" y1="139.61" x2="12.39" y2="14.39" gradientTransform="matrix(1, 0, 0, -1, 0, 152)" gradientUnits="userSpaceOnUse"><stop offset="0" stop-color="#45d354"/><stop offset="1" stop-color="#33b341"/></linearGradient></defs><title>Whatapp</title><path class="cls-1" d="M148.94,39.74v70.52a38.68,38.68,0,0,1-38.68,38.68H39.74A38.67,38.67,0,0,1,1.06,110.26V39.74A38.68,38.68,0,0,1,39.74,1.06h70.52a38.67,38.67,0,0,1,38.68,38.68Z"/><path class="cls-2" d="M90.23,80.51c-.87-.58-1.75-.88-2.63.29l-3.52,4.69a2.18,2.18,0,0,1-2.63.3c-4.4-2.35-10.55-5-15.82-13.77a2.22,2.22,0,0,1,.87-2.35l2.64-4.1c.59-.59.29-1.17,0-1.76l-3.51-8.49c-.88-2.35-1.76-2-2.64-2H60.64a4.48,4.48,0,0,0-2.93,1.46c-6.44,6.45-3.8,15.53.88,21.39.88,1.17,6.74,11.72,19.34,17.28C87.3,97.5,89.36,96.92,92,96.33c3.22-.29,6.45-2.93,7.91-5.56.29-.88,1.76-4.69.59-5.28"/><path class="cls-2" d="M77.34,113.09a40,40,0,0,1-21.09-6.45l-14.36,3.81,3.52-14.06a41.93,41.93,0,0,1-5.86-20.51A38.83,38.83,0,0,1,78.22,37.21a36.64,36.64,0,0,1,36.92,37.2A38.66,38.66,0,0,1,77.34,113.09Zm-46.58,8.49,24.32-6.74a46.28,46.28,0,0,0,67.38-41A45,45,0,0,0,77.34,28.42,46.28,46.28,0,0,0,37.21,97.56"/></svg>