<svg id="Layer_1" data-name="Layer 1" xmlns="http://www.w3.org/2000/svg" viewBox="0 0 25 24"><defs><style>.cls-1{fill:#2e3033;}.cls-2,.cls-3{fill:none;stroke:#2e3033;stroke-linecap:round;stroke-width:1.5px;}.cls-2{stroke-linejoin:round;}</style></defs><title>eye-hide</title><path class="cls-1" d="M21.17,11.22l.66-.36Zm0,1.56.66.36ZM3.58,11.22l.65.36Zm0,1.56-.66.36h0ZM19.9,8.31a.75.75,0,0,0-1,1.07ZM10.06,17a.75.75,0,0,0-.37,1.45ZM15,6.34l-.19.73ZM7.45,16.71l-.37.65.8-1.26ZM4.23,11.58a9.28,9.28,0,0,1,8.15-4.83V5.25a10.76,10.76,0,0,0-9.46,5.61Zm16.29.84a9.27,9.27,0,0,1-8.14,4.83v1.5a10.75,10.75,0,0,0,9.45-5.61Zm0-.84a.89.89,0,0,1,0,.84l1.31.72a2.37,2.37,0,0,0,0-2.28Zm-17.6-.72a2.37,2.37,0,0,0,0,2.28l1.31-.72a.89.89,0,0,1,0-.84ZM18.85,9.38a9.26,9.26,0,0,1,1.67,2.2l1.31-.72A10.52,10.52,0,0,0,19.9,8.31Zm-6.47,7.87A9.33,9.33,0,0,1,10.06,17l-.37,1.45a10.83,10.83,0,0,0,2.69.34Zm0-10.5a9.16,9.16,0,0,1,2.41.32l.38-1.45a10.73,10.73,0,0,0-2.79-.37ZM6.31,15a9.26,9.26,0,0,1-2.08-2.57l-1.31.72a10.54,10.54,0,0,0,2.4,3Zm1.51,1.07A9.56,9.56,0,0,1,6.31,15l-1,1.13a10.33,10.33,0,0,0,1.76,1.24Zm-2.44.11L7,17.32l.86-1.22L6.25,14.94Zm9.41-9.1a9.16,9.16,0,0,1,2,.81l.72-1.31a10.22,10.22,0,0,0-2.37-1Z"/><path class="cls-2" d="M19.84,4.46l-15,15"/><path class="cls-3" d="M9.38,12a3,3,0,0,1,3-3"/></svg>