<svg id="Layer_1" data-name="Layer 1" xmlns="http://www.w3.org/2000/svg" viewBox="0 0 394.00004 268"><title>mail</title><path d="M389,248.25c-4.009,10.94559-11.88885,15.30782-23.45588,15.29178q-169.47249-.23495-338.94554-.09947c-10.87717-.00074-18.53288-5.4329-21.25412-14.90239a19.80455,19.80455,0,0,1-.60188-5.5626q-.00553-107.9827.01022-215.96538c.00458-12.18451,8.71152-20.44648,21.47563-20.45q99.35907-.02751,198.71816-.00951c46.86749-.00018,93.73567.13892,140.602-.0987C377.1186,6.39507,384.99683,10.7992,389,21.75Zm-15.385-216.1698c-1.61476,1.16079-2.635,1.86723-3.627,2.6112q-74.98658,56.234-149.96695,112.47616c-14.965,11.22657-31.00216,11.26236-45.89792.08879Q99.13932,91.00962,24.13564,34.78935c-1.10689-.8295-2.07008-2.06843-3.66335-2.11314V235.19788c1.38255-.27528,1.793-1.26828,2.39713-2.01469q36.67771-45.31676,73.34574-90.64137a104.50853,104.50853,0,0,1,7.0729-8.24211,7.18333,7.18333,0,0,1,9.88371-.41182,7.45428,7.45428,0,0,1,1.91866,9.75883,29.34473,29.34473,0,0,1-2.8668,3.92873q-39.25671,48.53517-78.51531,97.06879c-.66328.8207-2.07257,1.58911-1.50125,2.75592.56115,1.14606,2.04351.56271,3.10509.56294q161.6097.03645,323.21943.00666c1.08765-.00016,2.60316.53025,3.17315-.44719.77877-1.33548-.82736-2.15845-1.54564-3.04734q-36.28788-44.9076-72.63847-89.76452c-2.35915-2.91406-4.74607-5.807-7.04544-8.76775-3.559-4.5827-3.44764-8.84736.22708-11.94647,3.62606-3.05807,8.01688-2.30474,11.74958,2.01876q.61248.70944,1.203,1.43779,38.79784,47.941,77.60776,95.87226c.57443.70912.90356,1.83808,2.35245,1.7363Zm-339.9955-9.874c1.26975,1.04139,2.089,1.76661,2.96127,2.42106q73.32158,55.00965,146.652,110.0076c9.64432,7.23369,17.939,7.20506,27.6762-.09817Q284.09152,79.64761,357.25882,24.73821c.9329-.7003,2.21318-1.12348,2.58708-2.532Z"/></svg>