<svg id="Layer_1" data-name="Layer 1" xmlns="http://www.w3.org/2000/svg" viewBox="0 0 25 25"><defs><style>.cls-1{fill:#2e3033;}</style></defs><title>otp-01</title><path class="cls-1" d="M2.86,20.2,2.16,20h0ZM4.4,21.73l.25.71h0Zm3.38-.81-.36.66ZM3.73,16.74l.66-.35Zm.06.83.71.25Zm-.41-5.4a9.25,9.25,0,0,1,9.25-9.25V1.42A10.75,10.75,0,0,0,1.88,12.17Zm1,4.22a9.19,9.19,0,0,1-1-4.22H1.88a10.65,10.65,0,0,0,1.18,4.91Zm-.82,4.06.93-2.63-1.41-.5L2.16,20Zm.58.57a.45.45,0,0,1-.58-.57L2.16,20a2,2,0,0,0,2.49,2.49Zm2.52-.89L4.15,21l.5,1.42,2.52-.89Zm6,1.29a9.14,9.14,0,0,1-4.48-1.16l-.73,1.32a10.76,10.76,0,0,0,5.21,1.34Zm9.25-9.25a9.25,9.25,0,0,1-9.25,9.25v1.5A10.75,10.75,0,0,0,23.38,12.17ZM12.63,2.92a9.25,9.25,0,0,1,9.25,9.25h1.5A10.75,10.75,0,0,0,12.63,1.42ZM7.17,21.55a.26.26,0,0,1,.25,0l.73-1.32a1.82,1.82,0,0,0-1.48-.13ZM3.06,17.08a.31.31,0,0,1,0,.24l1.41.5a1.82,1.82,0,0,0-.11-1.43Z"/><circle class="cls-1" cx="7.67" cy="12.22" r="1.25"/><circle class="cls-1" cx="12.68" cy="12.22" r="1.25"/><circle class="cls-1" cx="17.67" cy="12.22" r="1.25"/></svg>