<svg id="Layer_1" data-name="Layer 1" xmlns="http://www.w3.org/2000/svg" viewBox="0 0 31.02301 27.74796"><title>otp</title><path d="M8.45362,13.98425Q8.45356,8.80136,8.45233,3.61847a2.79185,2.79185,0,0,1,.08258-.74728,1.79482,1.79482,0,0,1,1.78274-1.3119q5.09575-.01136,10.19153.00147a1.78075,1.78075,0,0,1,1.85351,1.906c.00147,1.41307.00761,2.82622-.0056,4.23917-.00266.28483.09011.36481.365.35838.69647-.01627,1.3936-.00787,2.09044-.00471a2.23828,2.23828,0,0,1,2.35961,2.34914q.00556,2.2938-.00027,4.58764a2.21177,2.21177,0,0,1-2.34255,2.32434c-.64846.00067-1.29693-.00147-1.94539.00062-.57931.00187-.51988-.05648-.52025.506q-.00222,3.33906-.001,6.67813a1.79256,1.79256,0,0,1-1.89807,1.92043q-5.05221.01076-10.10445.00023a1.82339,1.82339,0,0,1-1.90555-1.96Q8.45046,19.22521,8.45362,13.98425Zm1.06821.00612q0,5.22646.00035,10.45293c.00013.64964.26657.91684.91453.917q4.97961.00119,9.95921.00009c.62953-.00012.9273-.26171.93024-.88512.01085-2.30346.0034-4.607.00784-6.91051.00038-.19632-.08459-.251-.26393-.24588-.29011.00834-.58114.01239-.87084-.00145a.59518.59518,0,0,0-.48429.20474c-.7069.71655-1.42168,1.42532-2.13348,2.137a.55511.55511,0,0,1-1.00743-.41114c.00509-.55163-.00184-1.10338.003-1.655.00148-.16857-.03232-.25879-.23363-.27946a2.1767,2.1767,0,0,1-2.03408-2.262q-.00389-2.35191.00079-4.70382a2.4259,2.4259,0,0,1,.03371-.4616,2.20643,2.20643,0,0,1,2.25919-1.825q2.17764-.01166,4.35536.00164c.24356.00132.34673-.06459.345-.32681-.00952-1.43238-.0014-2.86486-.00678-4.29728a.72824.72824,0,0,0-.82927-.81431c-.49359-.003-.98806.01664-1.48052-.00713a.447.447,0,0,0-.54162.39368,1.71745,1.71745,0,0,1-1.80212,1.34c-.76453.00777-1.5292.00217-2.29382.0018a1.77572,1.77572,0,0,1-1.99963-1.4664.32069.32069,0,0,0-.37237-.26635c-.49335.01151-.98714.00326-1.48075.00373-.73473.00068-.97446.23911-.97453.97184Q9.52141,8.793,9.52183,13.99037Zm8.12127,4.06875c.13588-.1223.208-.18183.274-.24751.384-.3821.77989-.75347,1.14531-1.15267a1.2367,1.2367,0,0,1,1.00292-.41056c1.55733.01478,3.11569-.02446,4.67205.0171a1.2409,1.2409,0,0,0,1.37529-1.3913c-.03727-1.46946-.01026-2.94053-.011-4.41094a1.16888,1.16888,0,0,0-1.33134-1.3361Q21.70866,9.125,18.64692,9.1267c-.72552.00007-1.45116-.00655-2.17654.00382a1.06761,1.06761,0,0,0-1.083,1.00287q-.0241,2.55349-.00089,5.10733a1.05572,1.05572,0,0,0,1.01486,1.00518c.18334.00987.36754.00229.55125.00664.47883.01132.68252.216.68958.70024C17.64706,17.29005,17.6431,17.62746,17.6431,18.05912ZM15.41041,2.62356c-.54074,0-1.08156-.005-1.62215.00374-.12566.002-.32094-.08106-.36569.0632-.0524.16895.0789.32943.21764.44383a.66326.66326,0,0,0,.42959.14944q1.347.00205,2.694.00006a.64481.64481,0,0,0,.59061-.35372c.13245-.2363.09472-.304-.177-.30543C16.58845,2.62156,15.99942,2.62372,15.41041,2.62356Z"/><path d="M15.39965,24.51631q-1.43629,0-2.87257.00043a.92929.92929,0,0,1-.45262-.07622.517.517,0,0,1,.044-.94188,1.02227,1.02227,0,0,1,.39977-.05205q2.90159.00012,5.80317.00053a1.54537,1.54537,0,0,1,.26028.01268.538.538,0,0,1,.46312.51682.52547.52547,0,0,1-.45482.52163,3.53518,3.53518,0,0,1-.52085.01746Q16.73438,24.51778,15.39965,24.51631Z"/></svg>