<svg id="Layer_1" data-name="Layer 1" xmlns="http://www.w3.org/2000/svg" viewBox="0 0 24 25"><defs><style>.cls-1,.cls-2{fill:none;stroke:#2e3033;stroke-width:1.5px;}.cls-2{stroke-linecap:round;stroke-linejoin:round;}.cls-3{fill:#2e3033;}</style></defs><title>password-02</title><rect class="cls-1" x="4" y="9.17" width="16" height="12" rx="4"/><path class="cls-2" d="M12,16.17v-2"/><path class="cls-3" d="M14.61,4.72a.78.78,0,0,0,1.07.19.75.75,0,0,0,.19-1.05ZM8.29,3.55a.76.76,0,0,0,1.17,1h0Zm.48,5V6.5H7.27v2Zm0-2A3.24,3.24,0,0,1,12,3.3V1.75A4.75,4.75,0,0,0,7.27,6.5ZM15.89,3.9a4.78,4.78,0,0,0-2.27-1.85L13.11,3.5a3.36,3.36,0,0,1,1.51,1.23ZM13.65,2.06a4.61,4.61,0,0,0-2.89-.15l.38,1.51a3.08,3.08,0,0,1,2,.1Zm-2.91-.13A4.75,4.75,0,0,0,8.29,3.55l1.18,1a3.21,3.21,0,0,1,1.65-1.1Z"/></svg>