<svg id="Layer_1" data-name="Layer 1" xmlns="http://www.w3.org/2000/svg" viewBox="0 0 24 25"><defs><style>.cls-1{fill:none;stroke:#2e3033;stroke-linecap:round;stroke-linejoin:round;stroke-width:1.5px;}</style></defs><title>profile-01-01</title><circle class="cls-1" cx="12.35" cy="7.37" r="4.78"/><path class="cls-1" d="M4.77,18.79a2,2,0,0,1,.22-1A4,4,0,0,1,7.77,16.2a18.3,18.3,0,0,1,2.34-.33,24.76,24.76,0,0,1,4.39,0,18.82,18.82,0,0,1,2.34.33c1.07.22,2.36.66,2.82,1.62a2.29,2.29,0,0,1,0,1.95c-.46,1-1.75,1.4-2.82,1.61a16.92,16.92,0,0,1-2.34.34,26.59,26.59,0,0,1-3.57.06,3.73,3.73,0,0,1-.82-.06,16.35,16.35,0,0,1-2.33-.34A3.9,3.9,0,0,1,5,19.77,2.09,2.09,0,0,1,4.77,18.79Z"/></svg>