<svg width="27" height="27" viewBox="0 0 27 27" fill="none" xmlns="http://www.w3.org/2000/svg">
<g clip-path="url(#clip0_1332_5775)">
<path d="M20.7233 14.553C20.748 17.1297 22.2459 18.5966 23.3154 19.3173C23.8841 19.7006 24.2248 20.3769 23.9598 20.9973C23.6586 21.7025 23.1819 22.6637 22.492 23.6412C21.358 25.2481 20.1812 26.8489 18.3273 26.8821C16.5057 26.9146 15.9199 25.8348 13.8373 25.8348C11.7553 25.8348 11.1045 26.849 9.3801 26.9147C7.59063 26.9804 6.22791 25.1772 5.08463 23.5762C2.74836 20.3015 0.962967 14.3227 3.3603 10.2869C4.55124 8.28269 6.67954 7.01355 8.98963 6.981C10.7468 6.9485 12.4054 8.12717 13.4797 8.12717C14.5532 8.12717 16.5687 6.70972 18.6876 6.91789C19.4159 6.94728 21.2247 7.16258 22.7337 8.49445C23.3067 9.00025 23.1026 9.85986 22.5499 10.3865C21.7093 11.1876 20.7049 12.5618 20.7233 14.553ZM17.2998 4.75139C17.9967 3.93348 18.5265 2.88031 18.6905 1.76753C18.7916 1.08138 18.1512 0.554987 17.472 0.771456C16.4399 1.10042 15.404 1.74854 14.7072 2.53907C14.0329 3.29502 13.4227 4.39876 13.2676 5.55435C13.1848 6.17173 13.7308 6.67322 14.3586 6.54234C15.503 6.30376 16.5775 5.59958 17.2998 4.75139Z" fill="#1D1E25"/>
</g>
<defs>
<clipPath id="clip0_1332_5775">
<rect width="26.1942" height="26.1942" fill="white" transform="translate(0.0390625 0.722168)"/>
</clipPath>
</defs>
</svg>
