<svg width="14" height="14" viewBox="0 0 14 14" fill="none" xmlns="http://www.w3.org/2000/svg">
<path d="M12.7998 6.08828C13.2969 6.08828 13.6998 6.49122 13.6998 6.98828C13.6998 7.48534 13.2969 7.88828 12.7998 7.88828V6.08828ZM0.463408 7.62468C0.111937 7.27321 0.111937 6.70336 0.463408 6.35189L6.19097 0.624321C6.54245 0.272849 7.11229 0.272849 7.46377 0.624321C7.81524 0.975792 7.81524 1.54564 7.46377 1.89711L2.3726 6.98828L7.46377 12.0795C7.81524 12.4309 7.81524 13.0008 7.46377 13.3522C7.11229 13.7037 6.54245 13.7037 6.19097 13.3522L0.463408 7.62468ZM12.7998 7.88828H1.0998V6.08828H12.7998V7.88828Z" fill="white"/>
</svg>
