<svg width="12" height="12" viewBox="0 0 12 12" fill="none" xmlns="http://www.w3.org/2000/svg">
<g clip-path="url(#clip0_663_27012)">
<path d="M3.74994 7.25L4.74994 8.25M8.99994 3L10.9999 1M1.36794 5.8435C0.891438 6.3755 0.880938 7.1785 1.31794 7.7435C2.16699 8.84532 3.15483 9.83282 4.25694 10.6815C4.82194 11.119 5.62444 11.109 6.15694 10.6325C7.5944 9.34551 8.94565 7.96536 10.2019 6.501C10.3279 6.354 10.4069 6.174 10.4244 5.981C10.5029 5.128 10.6639 2.671 9.99644 2.0035C9.32894 1.336 6.87144 1.497 6.01894 1.5755C5.82657 1.5937 5.64472 1.67168 5.49894 1.7985C4.03475 3.05481 2.65477 4.40606 1.36794 5.8435Z" stroke="#070D17" stroke-width="0.75" stroke-linecap="round" stroke-linejoin="round"/>
</g>
<defs>
<clipPath id="clip0_663_27012">
<rect width="12" height="12" fill="white"/>
</clipPath>
</defs>
</svg>
