<svg width="12" height="12" viewBox="0 0 12 12" fill="none" xmlns="http://www.w3.org/2000/svg">
<g clip-path="url(#clip0_413_44424)">
<path d="M9 1V2M3 1V2M5.998 6.5H6.002M5.998 8.5H6.002M7.9955 6.5H8M4 6.5H4.0045M4 8.5H4.0045M1.75 4H10.25M1.5 4H10.5M1.25 6.1215C1.25 3.943 1.25 2.8535 1.876 2.1765C2.502 1.5 3.51 1.5 5.525 1.5H6.475C8.49 1.5 9.498 1.5 10.124 2.177C10.75 2.8535 10.75 3.943 10.75 6.122V6.3785C10.75 8.557 10.75 9.6465 10.124 10.3235C9.498 11 8.49 11 6.475 11H5.525C3.51 11 2.502 11 1.876 10.323C1.25 9.6465 1.25 8.557 1.25 6.378V6.1215Z" stroke="#070D17" stroke-width="0.75" stroke-linecap="round" stroke-linejoin="round"/>
</g>
<defs>
<clipPath id="clip0_413_44424">
<rect width="12" height="12" fill="white"/>
</clipPath>
</defs>
</svg>
