<svg id="Layer_1" data-name="Layer 1" xmlns="http://www.w3.org/2000/svg" viewBox="0 0 30 30"><defs><style>.cls-1{fill:#2e3033;stroke:#fff;stroke-miterlimit:10;stroke-width:0.5px;}</style></defs><title>cart</title><path class="cls-1" d="M22.39,19.5H12.14A3,3,0,0,1,9.2,17.09L7.18,7H4A1,1,0,0,1,4,5H8a1,1,0,0,1,1,.8l2.16,10.9a1,1,0,0,0,1,.8H22.39a1,1,0,0,0,1-.79L25,9.21A1,1,0,0,0,24.23,8L24,8H14a1,1,0,0,1,0-2H24a3,3,0,0,1,3.07,2.93,3.35,3.35,0,0,1-.07.71l-1.63,7.5A3,3,0,0,1,22.39,19.5ZM13,27a3,3,0,1,1,3-3A3,3,0,0,1,13,27Zm0-4a1,1,0,1,0,1,1A1,1,0,0,0,13,23Zm9,4a3,3,0,1,1,3-3A3,3,0,0,1,22,27Zm0-4a1,1,0,1,0,1,1A1,1,0,0,0,22,23Z"/></svg>