<svg id="Layer_1" data-name="Layer 1" xmlns="http://www.w3.org/2000/svg" viewBox="0 0 64 64"><title>chats</title><path d="M5.8893,36.52583a15.30407,15.30407,0,0,1,1.168-3.99116,16.45023,16.45023,0,0,1,7.3858-7.47747,19.9576,19.9576,0,0,1,7.81322-2.2788c.45835-.03953.56022-.25863.60486-.63013a14.20439,14.20439,0,0,1,4.3443-8.602,17.03626,17.03626,0,0,1,8.69514-4.62519,19.42438,19.42438,0,0,1,16.9039,4.11431,13.66955,13.66955,0,0,1,2.572,19.01,3.46067,3.46067,0,0,1-.49813.64281c-1.09627.9388-.9739,2.16839-.804,3.38785A5.68285,5.68285,0,0,0,55.61414,39.177a1.17474,1.17474,0,0,1,.35269,1.33389,1.11312,1.11312,0,0,1-1.21332.6378A10.95428,10.95428,0,0,1,47.638,38.40421.9167.9167,0,0,0,46.634,38.19a20.74508,20.74508,0,0,1-4.89617.879c-.46929.03474-.60965.21861-.65708.63009a13.7017,13.7017,0,0,1-2.99131,7.082,17.28941,17.28941,0,0,1-10.64879,6.26559,21.36006,21.36006,0,0,1-10.11591-.59136.9819.9819,0,0,0-1.046.23676,10.93123,10.93123,0,0,1-7.17521,2.72044A1.06439,1.06439,0,0,1,7.98416,54.788,1.09009,1.09009,0,0,1,8.254,53.52927a6.16235,6.16235,0,0,0,1.68023-5.00139,1.75784,1.75784,0,0,0-.428-1.06012A14.2202,14.2202,0,0,1,5.9476,39.77685a1.24817,1.24817,0,0,0-.0583-.19441Zm17.721-11.68155c-.55992.04893-1.3411.08629-2.11341.18983A16.267,16.267,0,0,0,10.843,30.63a11.0725,11.0725,0,0,0-2.68342,9.36787,11.94231,11.94231,0,0,0,3.09481,6.19846,2.73926,2.73926,0,0,1,.69286,1.32712,8.31493,8.31493,0,0,1-.41943,4.84674c-.058.15043-.23833.32305-.11084.462.14925.16261.35333-.00443.51776-.06316A9.02222,9.02222,0,0,0,15.54,50.44767a1.21764,1.21764,0,0,1,1.41919-.37277,19.99632,19.99632,0,0,0,7.85383,1.117,15.70262,15.70262,0,0,0,8.52005-2.8673c3.865-2.76684,6.011-6.4416,5.643-11.326a11.62781,11.62781,0,0,0-3.69192-7.61688C32.1034,26.28355,28.20024,24.96205,23.61026,24.84428Zm12.25108,2.0381a1.2214,1.2214,0,0,0,.43869.50414,14.401,14.401,0,0,1,4.7744,8.96982c.05278.41316.2085.59662.65052.55519A18.23706,18.23706,0,0,0,46.6943,35.904a1.53257,1.53257,0,0,1,1.89841.452,8.48888,8.48888,0,0,0,3.51206,2.18129c.13662.04742.29936.17147.42549.03548.10761-.116-.024-.25181-.07261-.37133a8.18771,8.18771,0,0,1-.63745-3.57824,3.84935,3.84935,0,0,1,1.13906-2.99343,4.79866,4.79866,0,0,0,.75388-.9579,11.44771,11.44771,0,0,0-1.17655-14.95021,16.90426,16.90426,0,0,0-12.61218-5.11793,15.76874,15.76874,0,0,0-7.76835,1.9607c-3.80636,2.10905-6.38517,5.149-7.14419,9.551-.08028.46564.02852.63673.50765.678a18.76208,18.76208,0,0,1,6.54773,1.763,2.30107,2.30107,0,0,0,1.0292.22072q7.66419-.00925,15.3284-.00389c.18669,0,.37451-.00853.55986.00828a1.01779,1.01779,0,0,1,.95114,1.06063A1.03758,1.03758,0,0,1,48.75175,26.88q-4.736.00657-9.472.00235C38.16048,26.88243,37.04125,26.88238,35.86134,26.88238Z"/><path d="M23.4901,43.184q-4.14986-.00045-8.29971-.00219c-.75615-.00131-1.20114-.42337-1.1816-1.09075a1.01917,1.01917,0,0,1,.90207-1.00375,2.79453,2.79453,0,0,1,.35591-.01175q8.24879-.00075,16.49758.00039c.70724.00019,1.12573.28007,1.23943.81268a1.04894,1.04894,0,0,1-1.11215,1.29176c-1.90091.00946-3.80189.00364-5.70285.00388Q24.83944,43.18447,23.4901,43.184Z"/><path d="M25.55478,37.07106q-3.05472-.00006-6.10946-.00073a3.2252,3.2252,0,0,1-.508-.0185,1.05426,1.05426,0,0,1,.02222-2.07385,3.64547,3.64547,0,0,1,.50827-.01568q6.084-.00106,12.168-.00044c.11879,0,.23786-.00324.35631.00354a1.02236,1.02236,0,0,1,1.03045,1.03649,1.00848,1.00848,0,0,1-1.05292,1.06239c-1.35749.01539-2.71526.00619-4.07291.00677Q26.72576,37.07155,25.55478,37.07106Z"/><path d="M16.10932,36.002a1.05034,1.05034,0,1,1-1.07714-1.036A1.02486,1.02486,0,0,1,16.10932,36.002Z"/><path d="M42.44355,20.76822c-2.10437,0-4.20875.0047-6.3131-.00261a1.05278,1.05278,0,1,1-.03033-2.10131c1.32362-.01118,2.6474-.00442,3.97111-.00446q4.32753-.00016,8.65507.00153a1.07543,1.07543,0,0,1,1.17977.75993A1.05171,1.05171,0,0,1,48.80756,20.765C46.68626,20.7743,44.56489,20.76819,42.44355,20.76822Z"/><path d="M33.02257,19.70006a1.05034,1.05034,0,1,1-1.07714-1.036A1.02487,1.02487,0,0,1,33.02257,19.70006Z"/></svg>