<svg id="Layer_1" data-name="Layer 1" xmlns="http://www.w3.org/2000/svg" xmlns:xlink="http://www.w3.org/1999/xlink" viewBox="0 0 202.0996 116.61511"><defs><style>.cls-1{fill:none;}.cls-2{clip-path:url(#clip-path);}.cls-3{fill:url(#linear-gradient);}.cls-4{fill:url(#linear-gradient-2);}.cls-5{fill:url(#linear-gradient-3);}.cls-6{fill:url(#linear-gradient-4);}.cls-7{fill:url(#linear-gradient-5);}.cls-8{fill:url(#linear-gradient-6);}.cls-9{fill:#fff;}</style><clipPath id="clip-path" transform="translate(-0.93408 -3.88489)"><rect class="cls-1" x="0.03418" y="0.19995" width="203" height="124.7"/></clipPath><linearGradient id="linear-gradient" x1="-1.16196" y1="60.37003" x2="56.91675" y2="97.17453" gradientTransform="matrix(1, 0, 0, -1, 0, 126)" gradientUnits="userSpaceOnUse"><stop offset="0" stop-color="#0264b5"/><stop offset="0.64063" stop-color="#007ee5"/></linearGradient><linearGradient id="linear-gradient-2" x1="61.6526" y1="81.55941" x2="65.5314" y2="84.97931" xlink:href="#linear-gradient"/><linearGradient id="linear-gradient-3" x1="46.92663" y1="77.55976" x2="23.54313" y2="54.92226" gradientTransform="matrix(1, 0, 0, -1, 0, 126)" gradientUnits="userSpaceOnUse"><stop offset="0" stop-color="#74ad23"/><stop offset="1" stop-color="#5d9312"/></linearGradient><linearGradient id="linear-gradient-4" x1="155.37014" y1="70.52798" x2="195.69814" y2="87.80228" xlink:href="#linear-gradient"/><linearGradient id="linear-gradient-5" x1="70.08275" y1="55.37187" x2="130.28085" y2="100.91847" xlink:href="#linear-gradient"/><linearGradient id="linear-gradient-6" x1="151.18344" y1="56.57342" x2="115.56244" y2="-14.88158" xlink:href="#linear-gradient-3"/></defs><title>go1-market-color</title><g class="cls-2"><path class="cls-3" d="M61.9341,46.6c-1.4-1.4-1.2-3.2-.7-5a3.37755,3.37755,0,0,0,.1-2,9.366,9.366,0,0,0-4.5-4.7c-5.8-2.7-12.2-1.6-16.2,3.5a47.66144,47.66144,0,0,0-5.5,9.2,18.81715,18.81715,0,0,1-8.7,9.3c-5.6-5-9.1-12.3-9.1-18.9,0-10.1,22.4-18.1,33.3-20,2.9-.5,6-1.4,6.7-4.3a7.13773,7.13773,0,0,0-3.2-7.7l-1.6-1a7.29876,7.29876,0,0,0-4.3-1.1c-18,1.2-47.3,14.6-47.3,32.9,0,16.9,12.1,34.2,28.1,38a31.01351,31.01351,0,0,0,7,1.3c7.4.5,13.9-1.7,18.8-7.5,5-6,6.8-13.2,7.5-20.8A1.594,1.594,0,0,0,61.9341,46.6Zm-11.4,8.8a12.59318,12.59318,0,0,1-7.8,8.4c-.8.3-1.6.6-2.5.9l.8-1.8a21.59219,21.59219,0,0,1-12.3-4.1c1-.9,2-1.9,3-2.9,2.8-2.5,5.4-5.3,8.5-7.7a7.35329,7.35329,0,0,1,7-1.3C50.5341,47.9,51.7341,51.4,50.5341,55.4Zm7.3-14.3a1.80312,1.80312,0,0,1-1.2-1.2c0-.5.6-1.1,1.2-1.9.7.9,1.2,1.4,1.3,2C59.1341,40.4,58.2341,41.2,57.8341,41.1Z" transform="translate(-0.93408 -3.88489)"/><path class="cls-4" d="M67.1341,43l-5,2.2c-.1-1.5-.1-2.7-.2-4.4Z" transform="translate(-0.93408 -3.88489)"/><path class="cls-5" d="M16.9341,64.7a27.6495,27.6495,0,0,0,4.7-2,67.34316,67.34316,0,0,0,7.9-6.2c3.6-3.3,6.7-7.3,11.3-9.3a11.25038,11.25038,0,0,1,5.7-.9,5.38079,5.38079,0,0,1,4.7,6v.2c-.6,5.9-4,9.5-9.3,11.7-5.6,2.2-11.4,2.2-17.2,1.7-2.6-.2-5.1-.5-7.6-.8Z" transform="translate(-0.93408 -3.88489)"/><path class="cls-6" d="M160.534,59.9999h7.9v-31.1l-7.9.6v-12.2a30.33685,30.33685,0,0,0,8.9-1.6,36.64906,36.64906,0,0,0,9.3-4.6h9.9v48.9h7.9v13.8h-35.9Z" transform="translate(-0.93408 -3.88489)"/><path class="cls-7" d="M142.034,43.1999c0,19.5-16,35.2-35.7,35.2-19.6997,0-35.6997-15.7-35.6997-35.2s16-35.2,35.6997-35.2a35.38144,35.38144,0,0,1,35.7,35Zm-19.4,0a16.35176,16.35176,0,1,0-16.6,16.1h.3a16.17539,16.17539,0,0,0,16.3-16Z" transform="translate(-0.93408 -3.88489)"/></g><path class="cls-8" d="M193.333,120.5H76.9343c-5.3552,0-9.5989-4.6-9.5989-10.4V92.9c0-5.8,4.2437-10.4,9.5989-10.4H193.434c5.355,0,9.598,4.6,9.598,10.4v17.2A9.969,9.969,0,0,1,193.333,120.5Z" transform="translate(-0.93408 -3.88489)"/><path class="cls-9" d="M103.988,95.718a5.8444,5.8444,0,0,1,4.482,1.728,6.56687,6.56687,0,0,1,1.647,4.725V111h-5.292v-8.127a2.55506,2.55506,0,0,0-.675-1.89,2.83446,2.83446,0,0,0-3.672,0,2.55525,2.55525,0,0,0-.6754,1.89V111h-5.292v-8.127a2.55506,2.55506,0,0,0-.675-1.89,2.38938,2.38938,0,0,0-1.809-.675,2.51768,2.51768,0,0,0-1.863.675,2.55506,2.55506,0,0,0-.675,1.89V111h-5.292V95.853h5.292v1.998a5.01133,5.01133,0,0,1,1.809-1.539,5.50324,5.50324,0,0,1,2.592-.594,5.95329,5.95329,0,0,1,2.97.729,5.29891,5.29891,0,0,1,2.079,2.052,6.14362,6.14362,0,0,1,2.1334-1.998A5.61949,5.61949,0,0,1,103.988,95.718Zm8.164,7.695a9.43835,9.43835,0,0,1,.837-4.104,6.59606,6.59606,0,0,1,2.322-2.7,6.00964,6.00964,0,0,1,3.294-.945,5.5408,5.5408,0,0,1,2.7.621,4.494,4.494,0,0,1,1.755,1.674V95.853h5.292V111H123.06v-2.106a4.44988,4.44988,0,0,1-1.782,1.674,5.48156,5.48156,0,0,1-2.673.621,6.00964,6.00964,0,0,1-3.294-.945,6.59606,6.59606,0,0,1-2.322-2.7A9.6183,9.6183,0,0,1,112.152,103.413Zm10.908,0a3.161,3.161,0,0,0-.81-2.295,2.554,2.554,0,0,0-1.944-.837,2.58452,2.58452,0,0,0-1.971.837,3.16763,3.16763,0,0,0-.783,2.295,3.32657,3.32657,0,0,0,.783,2.322,2.58452,2.58452,0,0,0,1.971.837,2.554,2.554,0,0,0,1.944-.837A3.1994,3.1994,0,0,0,123.06,103.413Zm13.599-4.887a6.88848,6.88848,0,0,1,2.16-2.052,5.23719,5.23719,0,0,1,2.727-.756v5.643h-1.485a4.04519,4.04519,0,0,0-2.565.675,2.86354,2.86354,0,0,0-.837,2.349V111h-5.292V95.853h5.292ZM152.921,111l-4.185-6.21V111h-5.292V91.02h5.292v10.773l4.185-5.94h6.345l-5.967,7.614L159.374,111Zm22.476-7.749a9.59112,9.59112,0,0,1-.081,1.242H165.299a2.88777,2.88777,0,0,0,.675,1.863,2.17481,2.17481,0,0,0,1.566.594,1.94552,1.94552,0,0,0,1.89-1.188h5.643a6.62551,6.62551,0,0,1-1.377,2.808,6.97288,6.97288,0,0,1-2.538,1.917,8.10143,8.10143,0,0,1-3.402.702,8.2945,8.2945,0,0,1-3.996-.945,6.90041,6.90041,0,0,1-2.727-2.7,8.39336,8.39336,0,0,1-.972-4.131,8.23944,8.23944,0,0,1,.972-4.104,6.7216,6.7216,0,0,1,2.7-2.7,9.0374,9.0374,0,0,1,7.992-.027,6.58961,6.58961,0,0,1,2.7,2.646A7.97348,7.97348,0,0,1,175.397,103.251Zm-5.4-1.323a1.8596,1.8596,0,0,0-.648-1.512,2.3713,2.3713,0,0,0-1.62-.567,2.33993,2.33993,0,0,0-1.593.54,2.5,2.5,0,0,0-.81,1.539Zm16.503,4.563V111h-2.295q-5.805,0-5.805-5.751v-4.995h-1.863V95.853H178.4V92.181h5.319v3.672h2.754v4.401h-2.754v5.076a1.227,1.227,0,0,0,.27.891,1.42584,1.42584,0,0,0,.972.27Z" transform="translate(-0.93408 -3.88489)"/></svg>