<svg width="64" height="64" viewBox="0 0 64 64" fill="none" xmlns="http://www.w3.org/2000/svg">
<g style="mix-blend-mode:overlay">
<path d="M32.5 15.8281C41.3594 15.8281 48.6719 23.1406 48.6719 32C48.6719 41 41.3594 48.1719 32.5 48.1719C23.5 48.1719 16.3281 41 16.3281 32C16.3281 23.1406 23.5 15.8281 32.5 15.8281ZM32.5 42.5469C38.2656 42.5469 42.9062 37.9062 42.9062 32C42.9062 26.2344 38.2656 21.5938 32.5 21.5938C26.5938 21.5938 21.9531 26.2344 21.9531 32C21.9531 37.9062 26.7344 42.5469 32.5 42.5469ZM53.0312 15.2656C53.0312 17.375 51.3438 19.0625 49.2344 19.0625C47.125 19.0625 45.4375 17.375 45.4375 15.2656C45.4375 13.1562 47.125 11.4688 49.2344 11.4688C51.3438 11.4688 53.0312 13.1562 53.0312 15.2656ZM63.7188 19.0625C64 24.2656 64 39.875 63.7188 45.0781C63.4375 50.1406 62.3125 54.5 58.6562 58.2969C55 61.9531 50.5 63.0781 45.4375 63.3594C40.2344 63.6406 24.625 63.6406 19.4219 63.3594C14.3594 63.0781 10 61.9531 6.20312 58.2969C2.54688 54.5 1.42188 50.1406 1.14062 45.0781C0.859375 39.875 0.859375 24.2656 1.14062 19.0625C1.42188 14 2.54688 9.5 6.20312 5.84375C10 2.1875 14.3594 1.0625 19.4219 0.78125C24.625 0.5 40.2344 0.5 45.4375 0.78125C50.5 1.0625 55 2.1875 58.6562 5.84375C62.3125 9.5 63.4375 14 63.7188 19.0625ZM56.9688 50.5625C58.6562 46.4844 58.2344 36.6406 58.2344 32C58.2344 27.5 58.6562 17.6562 56.9688 13.4375C55.8438 10.7656 53.7344 8.51562 51.0625 7.53125C46.8438 5.84375 37 6.26562 32.5 6.26562C27.8594 6.26562 18.0156 5.84375 13.9375 7.53125C11.125 8.65625 9.01562 10.7656 7.89062 13.4375C6.20312 17.6562 6.625 27.5 6.625 32C6.625 36.6406 6.20312 46.4844 7.89062 50.5625C9.01562 53.375 11.125 55.4844 13.9375 56.6094C18.0156 58.2969 27.8594 57.875 32.5 57.875C37 57.875 46.8438 58.2969 51.0625 56.6094C53.7344 55.4844 55.9844 53.375 56.9688 50.5625Z" fill="white"/>
</g>
</svg>
