<svg id="Layer_1" data-name="Layer 1" xmlns="http://www.w3.org/2000/svg" xmlns:xlink="http://www.w3.org/1999/xlink" viewBox="0 0 500 500"><defs><style>.cls-1{fill:#fff;}.cls-2{fill:none;}.cls-3{clip-path:url(#clip-path);}.cls-4{clip-path:url(#clip-path-2);}.cls-5{opacity:0.3;}.cls-6{mask:url(#mask);}.cls-7{fill:url(#linear-gradient);}.cls-8{fill:url(#linear-gradient-2);}.cls-9{fill:url(#linear-gradient-3);}.cls-10{fill:url(#linear-gradient-4);}.cls-11{fill:url(#linear-gradient-5);}.cls-12{fill:url(#linear-gradient-6);}.cls-13{fill:url(#linear-gradient-7);}.cls-14{fill:url(#linear-gradient-8);}.cls-15{fill:url(#linear-gradient-9);}.cls-16{fill:url(#linear-gradient-10);}.cls-17{fill:url(#linear-gradient-11);}.cls-18{fill:url(#linear-gradient-12);}.cls-19{fill:url(#linear-gradient-14);}.cls-20{fill:url(#linear-gradient-15);}.cls-21{fill:url(#linear-gradient-16);}.cls-22{fill:url(#linear-gradient-17);}.cls-23{fill:url(#linear-gradient-18);}.cls-24{fill:url(#linear-gradient-19);}.cls-25{fill:url(#linear-gradient-20);}.cls-26{fill:url(#linear-gradient-21);}.cls-27{fill:url(#linear-gradient-22);}.cls-28{fill:url(#linear-gradient-23);}.cls-29{fill:url(#linear-gradient-24);}.cls-30{fill:url(#linear-gradient-25);}.cls-31{fill:url(#linear-gradient-26);}.cls-32{fill:url(#linear-gradient-27);}.cls-33{fill:url(#linear-gradient-28);}.cls-34{fill:url(#linear-gradient-29);}.cls-35{fill:url(#linear-gradient-30);}.cls-36{fill:url(#linear-gradient-31);}.cls-37{fill:url(#linear-gradient-32);}.cls-38{fill:url(#linear-gradient-33);}.cls-39{fill:url(#linear-gradient-34);}.cls-40{fill:url(#linear-gradient-35);}.cls-41{fill:url(#linear-gradient-36);}.cls-42{fill:url(#linear-gradient-37);}.cls-43{fill:url(#linear-gradient-38);}.cls-44{fill:url(#linear-gradient-39);}.cls-45{fill:url(#linear-gradient-40);}.cls-46{fill:url(#linear-gradient-41);}.cls-47{fill:url(#linear-gradient-42);}.cls-48{fill:url(#linear-gradient-43);}.cls-49{fill:url(#linear-gradient-44);}.cls-50{fill:url(#linear-gradient-45);}.cls-51{fill:url(#linear-gradient-46);}.cls-52{fill:url(#linear-gradient-47);}.cls-53{opacity:0.33;}.cls-54{fill:#46bb75;}.cls-55{opacity:0.7;}.cls-56{fill:#99dab3;}.cls-57{fill:url(#linear-gradient-48);}.cls-58{fill:url(#linear-gradient-49);}.cls-59{fill:#80bbae;}.cls-60{fill:url(#linear-gradient-50);}.cls-61{fill:url(#linear-gradient-51);}.cls-62{opacity:0.29;}.cls-63{fill:#19846b;}.cls-64{fill:url(#linear-gradient-52);}.cls-65{fill:url(#linear-gradient-53);}.cls-66{fill:url(#linear-gradient-54);}.cls-67{fill:url(#linear-gradient-55);}.cls-68{fill:url(#linear-gradient-56);}.cls-69{fill:url(#linear-gradient-57);}</style><clipPath id="clip-path"><rect class="cls-2" width="500" height="500"/></clipPath><clipPath id="clip-path-2"><rect class="cls-2" x="-195" y="-6" width="1024" height="512"/></clipPath><mask id="mask" x="-389.46" y="-326.42" width="1360.07" height="1152.84" maskUnits="userSpaceOnUse"><g id="mask0_580_2031" data-name="mask0 580 2031"><path class="cls-1" d="M829-6H-195V506H829Z"/></g></mask><linearGradient id="linear-gradient" x1="252.08" y1="-233.49" x2="252.08" y2="209.91" gradientTransform="matrix(1, 0, 0, -1, 0, 502)" gradientUnits="userSpaceOnUse"><stop offset="0" stop-color="#a5a5a6"/><stop offset="1" stop-color="#fff"/></linearGradient><linearGradient id="linear-gradient-2" x1="252.08" y1="-233.49" x2="252.08" y2="209.91" xlink:href="#linear-gradient"/><linearGradient id="linear-gradient-3" x1="252.09" y1="-233.49" x2="252.09" y2="209.91" xlink:href="#linear-gradient"/><linearGradient id="linear-gradient-4" x1="252.08" y1="-233.49" x2="252.08" y2="209.91" xlink:href="#linear-gradient"/><linearGradient id="linear-gradient-5" x1="252.08" y1="-233.49" x2="252.08" y2="209.91" xlink:href="#linear-gradient"/><linearGradient id="linear-gradient-6" x1="252.07" y1="-233.49" x2="252.07" y2="209.91" xlink:href="#linear-gradient"/><linearGradient id="linear-gradient-7" x1="252.07" y1="-233.49" x2="252.07" y2="209.91" xlink:href="#linear-gradient"/><linearGradient id="linear-gradient-8" x1="252.08" y1="-233.49" x2="252.08" y2="209.91" xlink:href="#linear-gradient"/><linearGradient id="linear-gradient-9" x1="252.08" y1="-233.49" x2="252.08" y2="209.91" xlink:href="#linear-gradient"/><linearGradient id="linear-gradient-10" x1="252.08" y1="-233.49" x2="252.08" y2="209.91" xlink:href="#linear-gradient"/><linearGradient id="linear-gradient-11" x1="252.08" y1="-233.49" x2="252.08" y2="209.91" xlink:href="#linear-gradient"/><linearGradient id="linear-gradient-12" x1="252.09" y1="-233.49" x2="252.09" y2="209.91" xlink:href="#linear-gradient"/><linearGradient id="linear-gradient-14" x1="252.08" y1="-233.49" x2="252.08" y2="209.91" xlink:href="#linear-gradient"/><linearGradient id="linear-gradient-15" x1="252.08" y1="-233.49" x2="252.08" y2="209.91" xlink:href="#linear-gradient"/><linearGradient id="linear-gradient-16" x1="252.08" y1="-233.49" x2="252.08" y2="209.91" xlink:href="#linear-gradient"/><linearGradient id="linear-gradient-17" x1="252.08" y1="-233.49" x2="252.08" y2="209.91" xlink:href="#linear-gradient"/><linearGradient id="linear-gradient-18" x1="252.08" y1="-233.49" x2="252.08" y2="209.91" xlink:href="#linear-gradient"/><linearGradient id="linear-gradient-19" x1="252.08" y1="-233.49" x2="252.08" y2="209.91" xlink:href="#linear-gradient"/><linearGradient id="linear-gradient-20" x1="252.08" y1="-233.49" x2="252.08" y2="209.91" xlink:href="#linear-gradient"/><linearGradient id="linear-gradient-21" x1="252.08" y1="-233.49" x2="252.08" y2="209.91" xlink:href="#linear-gradient"/><linearGradient id="linear-gradient-22" x1="252.08" y1="-233.49" x2="252.08" y2="209.91" xlink:href="#linear-gradient"/><linearGradient id="linear-gradient-23" x1="354.63" y1="708.01" x2="354.63" y2="301.97" xlink:href="#linear-gradient"/><linearGradient id="linear-gradient-24" x1="354.69" y1="708.01" x2="354.69" y2="301.97" xlink:href="#linear-gradient"/><linearGradient id="linear-gradient-25" x1="354.75" y1="708.01" x2="354.75" y2="301.97" xlink:href="#linear-gradient"/><linearGradient id="linear-gradient-26" x1="354.81" y1="708.01" x2="354.81" y2="301.97" xlink:href="#linear-gradient"/><linearGradient id="linear-gradient-27" x1="354.87" y1="708.01" x2="354.87" y2="301.97" xlink:href="#linear-gradient"/><linearGradient id="linear-gradient-28" x1="354.92" y1="708.01" x2="354.92" y2="301.97" xlink:href="#linear-gradient"/><linearGradient id="linear-gradient-29" x1="354.98" y1="708.01" x2="354.98" y2="301.97" xlink:href="#linear-gradient"/><linearGradient id="linear-gradient-30" x1="355.04" y1="708.01" x2="355.04" y2="301.97" xlink:href="#linear-gradient"/><linearGradient id="linear-gradient-31" x1="355.1" y1="708.01" x2="355.1" y2="301.97" xlink:href="#linear-gradient"/><linearGradient id="linear-gradient-32" x1="355.16" y1="708.01" x2="355.16" y2="301.97" xlink:href="#linear-gradient"/><linearGradient id="linear-gradient-33" x1="355.21" y1="708.01" x2="355.21" y2="301.97" xlink:href="#linear-gradient"/><linearGradient id="linear-gradient-34" x1="355.26" y1="708.01" x2="355.26" y2="301.97" xlink:href="#linear-gradient"/><linearGradient id="linear-gradient-35" x1="355.33" y1="708.02" x2="355.33" y2="301.98" xlink:href="#linear-gradient"/><linearGradient id="linear-gradient-36" x1="355.39" y1="708.01" x2="355.39" y2="301.97" xlink:href="#linear-gradient"/><linearGradient id="linear-gradient-37" x1="355.45" y1="708.01" x2="355.45" y2="301.97" xlink:href="#linear-gradient"/><linearGradient id="linear-gradient-38" x1="355.5" y1="708.01" x2="355.5" y2="301.97" xlink:href="#linear-gradient"/><linearGradient id="linear-gradient-39" x1="355.56" y1="708.01" x2="355.56" y2="301.97" xlink:href="#linear-gradient"/><linearGradient id="linear-gradient-40" x1="355.62" y1="708.01" x2="355.62" y2="301.97" xlink:href="#linear-gradient"/><linearGradient id="linear-gradient-41" x1="355.68" y1="708.01" x2="355.68" y2="301.97" xlink:href="#linear-gradient"/><linearGradient id="linear-gradient-42" x1="355.74" y1="708.01" x2="355.74" y2="301.97" xlink:href="#linear-gradient"/><linearGradient id="linear-gradient-43" x1="355.79" y1="708.01" x2="355.79" y2="301.97" xlink:href="#linear-gradient"/><linearGradient id="linear-gradient-44" x1="355.85" y1="708.01" x2="355.85" y2="301.97" xlink:href="#linear-gradient"/><linearGradient id="linear-gradient-45" x1="55.65" y1="385.2" x2="126.08" y2="488.82" gradientTransform="matrix(1, 0, 0, -1, 0, 502)" gradientUnits="userSpaceOnUse"><stop offset="0" stop-color="#0264b5"/><stop offset="0.64" stop-color="#007ee5"/></linearGradient><linearGradient id="linear-gradient-46" x1="416.88" y1="76.75" x2="493.78" y2="100.33" xlink:href="#linear-gradient-45"/><linearGradient id="linear-gradient-47" x1="489.59" y1="465.52" x2="459.19" y2="455.96" gradientTransform="matrix(1, 0, 0, -1, 0, 502)" gradientUnits="userSpaceOnUse"><stop offset="0" stop-color="#74ad23"/><stop offset="1" stop-color="#5d9312"/></linearGradient><linearGradient id="linear-gradient-48" x1="460.77" y1="490.96" x2="443.74" y2="474.61" gradientTransform="matrix(1, 0, 0, -1, 0, 502)" gradientUnits="userSpaceOnUse"><stop offset="0" stop-color="#67a510"/><stop offset="1" stop-color="#5d9312"/></linearGradient><linearGradient id="linear-gradient-49" x1="458.58" y1="491.89" x2="442.28" y2="476.63" xlink:href="#linear-gradient-47"/><linearGradient id="linear-gradient-50" x1="38.19" y1="50.14" x2="7.8" y2="40.58" xlink:href="#linear-gradient-47"/><linearGradient id="linear-gradient-51" x1="55.01" y1="30.8" x2="37.98" y2="14.45" xlink:href="#linear-gradient-47"/><linearGradient id="linear-gradient-52" x1="83.15" y1="257.68" x2="170.44" y2="312.99" xlink:href="#linear-gradient-45"/><linearGradient id="linear-gradient-53" x1="177.56" y1="289.52" x2="183.39" y2="294.66" xlink:href="#linear-gradient-45"/><linearGradient id="linear-gradient-54" x1="155.43" y1="283.51" x2="120.28" y2="249.49" xlink:href="#linear-gradient-47"/><linearGradient id="linear-gradient-55" x1="318.42" y1="272.94" x2="379.03" y2="298.91" xlink:href="#linear-gradient-45"/><linearGradient id="linear-gradient-56" x1="190.23" y1="250.16" x2="280.71" y2="318.62" xlink:href="#linear-gradient-45"/><linearGradient id="linear-gradient-57" x1="312.13" y1="251.97" x2="258.59" y2="144.57" xlink:href="#linear-gradient-47"/></defs><title>create-account (1) 2</title><g class="cls-3"><g class="cls-4"><g class="cls-5"><g class="cls-6"><path class="cls-7" d="M-388.55,545.8l-.06,0,0,0a0,0,0,0,1,0,0,.06.06,0,0,1,0,0l0,0c32.4-29.28,64.73-56.57,96.08-81.12,30-23.5,60-45.14,89-64.3,27.7-18.28,55.32-34.81,82.11-49.12A800.94,800.94,0,0,1-46,315.53a635.87,635.87,0,0,1,69-23.7,523.7,523.7,0,0,1,62.8-13.44,451.6,451.6,0,0,1,56.79-4.82,411.65,411.65,0,0,1,51,2.15c63.85,6.75,113.85,27.64,162.19,47.84,32.39,13.52,63,26.3,96.92,34.81a320.37,320.37,0,0,0,53.45,8.85,318.56,318.56,0,0,0,60.3-1.06A372.38,372.38,0,0,0,667,340.25a465,465,0,0,0,88.12-48.41,627.36,627.36,0,0,0,75.35-61.95,843.1,843.1,0,0,0,62.19-66.56.06.06,0,0,1,.06,0,.1.1,0,0,1,.07,0l0,0s0,0,0,0a0,0,0,0,1,0,0,0,0,0,0,1,0,0A844.92,844.92,0,0,1,830.58,230a627.39,627.39,0,0,1-75.37,62,466.21,466.21,0,0,1-88.15,48.43,372.81,372.81,0,0,1-100.54,25.92,318.87,318.87,0,0,1-60.33,1.06,321,321,0,0,1-53.49-8.85c-34-8.51-64.55-21.29-96.94-34.82-48.34-20.19-98.32-41.07-162.13-47.82a411.41,411.41,0,0,0-51-2.15,451.44,451.44,0,0,0-56.77,4.82A521.31,521.31,0,0,0,23.11,292a634.21,634.21,0,0,0-69,23.69,802.87,802.87,0,0,0-75.43,35.58c-26.78,14.31-54.4,30.83-82.09,49.11-29,19.16-59,40.79-89,64.29-31.36,24.55-63.68,51.84-96.09,81.11l0,0Z"/><path class="cls-8" d="M-388.55,559.17a.25.25,0,0,1-.09,0l0,0a.43.43,0,0,1,0-.05v0l0,0c32.41-29.28,64.74-56.57,96.09-81.12,30-23.5,60-45.14,89-64.3,27.7-18.28,55.33-34.81,82.12-49.12A801,801,0,0,1-46,328.82a634.5,634.5,0,0,1,69-23.69,521.5,521.5,0,0,1,62.81-13.44,450.07,450.07,0,0,1,56.79-4.83,409.89,409.89,0,0,1,51,2.16c63.86,6.74,113.85,27.63,162.21,47.83,32.38,13.53,63,26.31,96.9,34.82a321.58,321.58,0,0,0,53.45,8.85,319.29,319.29,0,0,0,60.29-1.07A372.45,372.45,0,0,0,667,353.55a465.36,465.36,0,0,0,88.1-48.4,627.31,627.31,0,0,0,75.35-62,843,843,0,0,0,62.18-66.56.18.18,0,0,1,.09,0,.1.1,0,0,1,.09,0,.08.08,0,0,1,0,0,.06.06,0,0,1,0,0v.05s0,0,0,0a845.3,845.3,0,0,1-62.21,66.57,625.94,625.94,0,0,1-75.37,62c-28.87,20-58.53,36.3-88.16,48.43a372.53,372.53,0,0,1-100.55,25.93,319,319,0,0,1-60.34,1.06,320.86,320.86,0,0,1-53.49-8.86c-34-8.5-64.56-21.28-96.94-34.81-48.33-20.2-98.31-41.08-162.13-47.82a411.41,411.41,0,0,0-51-2.15,449.42,449.42,0,0,0-56.76,4.82,523.18,523.18,0,0,0-62.77,13.43,638.37,638.37,0,0,0-69,23.69,801.69,801.69,0,0,0-75.43,35.58c-26.78,14.31-54.4,30.84-82.1,49.11-29,19.16-59,40.79-89,64.29-31.36,24.55-63.68,51.84-96.09,81.11A.14.14,0,0,1-388.55,559.17Z"/><path class="cls-9" d="M-388.55,572.53h-.06l-.06,0a.1.1,0,0,1,0-.05s0,0,0-.06,0,0,0-.06a.1.1,0,0,1,0,0c32.41-29.28,64.74-56.57,96.09-81.12,30-23.51,60-45.14,89-64.31,27.71-18.28,55.34-34.81,82.14-49.12A803.59,803.59,0,0,1-46,342.11a636.06,636.06,0,0,1,69-23.69A519.43,519.43,0,0,1,85.85,305a450.22,450.22,0,0,1,56.8-4.83,412,412,0,0,1,51,2.15c63.86,6.75,113.86,27.64,162.21,47.84,32.38,13.53,63,26.31,96.9,34.81a320.54,320.54,0,0,0,53.45,8.85,319.2,319.2,0,0,0,60.28-1.07A372.22,372.22,0,0,0,667,366.83a465.36,465.36,0,0,0,88.1-48.4,627.12,627.12,0,0,0,75.34-61.95,842.72,842.72,0,0,0,62.18-66.55.17.17,0,0,1,.12-.06l.12,0,0,0a.14.14,0,0,1,0,.06s0,0,0,.06l0,.06a848.84,848.84,0,0,1-62.21,66.57,626.8,626.8,0,0,1-75.38,62,465.55,465.55,0,0,1-88.17,48.44,372.87,372.87,0,0,1-100.56,25.93,319,319,0,0,1-60.34,1.06,321,321,0,0,1-53.5-8.86c-34-8.51-64.56-21.29-96.95-34.82-48.33-20.19-98.31-41.07-162.12-47.82a411.17,411.17,0,0,0-51-2.15,449.61,449.61,0,0,0-56.77,4.84,519.57,519.57,0,0,0-62.76,13.43,635.22,635.22,0,0,0-69,23.68A803,803,0,0,0-121.29,378c-26.78,14.31-54.4,30.83-82.09,49.11-29,19.16-59,40.79-89,64.29-31.35,24.55-63.67,51.83-96.07,81.1A.19.19,0,0,1-388.55,572.53Z"/><path class="cls-10" d="M-388.55,585.89h-.08l-.07,0,0-.06a.24.24,0,0,1,0-.08.19.19,0,0,1,0-.07.09.09,0,0,1,0-.06c32.41-29.28,64.74-56.57,96.1-81.12,30-23.51,60-45.15,89-64.31,27.71-18.28,55.34-34.81,82.13-49.13A803.44,803.44,0,0,1-46,355.41a634.75,634.75,0,0,1,69-23.7,519.58,519.58,0,0,1,62.81-13.44,450.06,450.06,0,0,1,56.8-4.83,412.14,412.14,0,0,1,51,2.15c63.87,6.75,113.87,27.65,162.23,47.84,32.37,13.53,63,26.31,96.89,34.81a321.29,321.29,0,0,0,53.44,8.85A319.09,319.09,0,0,0,566.49,406a372.5,372.5,0,0,0,100.45-25.89A464.43,464.43,0,0,0,755,331.73a624.53,624.53,0,0,0,75.33-62,842.48,842.48,0,0,0,62.19-66.54.29.29,0,0,1,.14-.08.21.21,0,0,1,.15.05l.06,0a.19.19,0,0,1,0,.08.17.17,0,0,1,0,.07.15.15,0,0,1,0,.07,847.26,847.26,0,0,1-62.21,66.58,627,627,0,0,1-75.39,62,465.55,465.55,0,0,1-88.17,48.44,372.67,372.67,0,0,1-100.57,25.93,320,320,0,0,1-60.35,1.07,322,322,0,0,1-53.51-8.86c-34-8.51-64.57-21.3-97-34.83-48.33-20.19-98.3-41.07-162.1-47.81a409.24,409.24,0,0,0-51-2.15,447.42,447.42,0,0,0-56.75,4.82,523.44,523.44,0,0,0-62.76,13.43,636.69,636.69,0,0,0-69,23.68,804,804,0,0,0-75.43,35.58c-26.77,14.31-54.39,30.83-82.09,49.11-29,19.16-59,40.79-89,64.28-31.35,24.55-63.67,51.84-96.07,81.11A.24.24,0,0,1-388.55,585.89Z"/><path class="cls-11" d="M-388.55,599.25a.23.23,0,0,1-.17-.07.18.18,0,0,1,0-.07.29.29,0,0,1,0-.09.29.29,0,0,1,0-.09.18.18,0,0,1,0-.07c32.41-29.28,64.74-56.57,96.1-81.13,30-23.51,60-45.14,89-64.3,27.71-18.28,55.34-34.81,82.13-49.13A804.77,804.77,0,0,1-46,368.71,632.62,632.62,0,0,1,23,345a522.4,522.4,0,0,1,62.81-13.45,448.51,448.51,0,0,1,56.81-4.82,408.28,408.28,0,0,1,51,2.15c63.87,6.75,113.88,27.65,162.24,47.84,32.37,13.53,63,26.31,96.89,34.81a321,321,0,0,0,53.43,8.85,319,319,0,0,0,60.26-1.07,372,372,0,0,0,100.44-25.9C696.53,381.31,726.16,365,755,345a626,626,0,0,0,75.33-61.94,848.06,848.06,0,0,0,62.18-66.54.26.26,0,0,1,.16-.09.29.29,0,0,1,.18,0s0,0,.06.07a.11.11,0,0,1,0,.08.31.31,0,0,1,0,.1l0,.08a843.24,843.24,0,0,1-62.2,66.57,627.23,627.23,0,0,1-75.4,62,465.57,465.57,0,0,1-88.18,48.44,372.18,372.18,0,0,1-100.58,25.93,319.19,319.19,0,0,1-60.36,1.07A321.09,321.09,0,0,1,452.67,412c-34-8.51-64.57-21.3-97-34.83-48.32-20.19-98.3-41.07-162.09-47.81a411,411,0,0,0-51-2.15A451,451,0,0,0,85.91,332a523.44,523.44,0,0,0-62.76,13.43,633.77,633.77,0,0,0-69,23.69,800.21,800.21,0,0,0-75.43,35.57C-148,419-175.64,435.53-203.34,453.81c-29,19.15-59,40.79-89,64.28-31.35,24.55-63.67,51.83-96.07,81.1A.27.27,0,0,1-388.55,599.25Z"/><path class="cls-12" d="M-388.55,612.62a.29.29,0,0,1-.21-.09l-.06-.08a.43.43,0,0,1,0-.11.36.36,0,0,1,0-.1l.06-.08c32.42-29.28,64.75-56.57,96.11-81.13,30-23.51,60-45.14,89-64.3,27.71-18.29,55.34-34.82,82.13-49.14A803.88,803.88,0,0,1-46,382a636.9,636.9,0,0,1,69-23.7,520.55,520.55,0,0,1,62.82-13.44A448.68,448.68,0,0,1,142.63,340a412.14,412.14,0,0,1,51,2.15c63.88,6.75,113.89,27.65,162.25,47.85,32.37,13.53,62.95,26.3,96.88,34.8a314.89,314.89,0,0,0,113.68,7.78A372.18,372.18,0,0,0,666.9,406.71,464.53,464.53,0,0,0,755,358.32a626,626,0,0,0,75.33-61.94,842.58,842.58,0,0,0,62.17-66.54.35.35,0,0,1,.19-.1.37.37,0,0,1,.21.06l.08.08a.29.29,0,0,1,0,.1.34.34,0,0,1,0,.1.31.31,0,0,1-.05.1,847.26,847.26,0,0,1-62.21,66.58,628,628,0,0,1-75.4,62,465.75,465.75,0,0,1-88.19,48.45,372.73,372.73,0,0,1-100.59,25.94,318.48,318.48,0,0,1-60.37,1.07,321.2,321.2,0,0,1-53.52-8.86c-34-8.52-64.57-21.3-97-34.83-48.3-20.2-98.27-41.07-162.06-47.82a409.15,409.15,0,0,0-51-2.14,447.26,447.26,0,0,0-56.73,4.82A520.87,520.87,0,0,0,23.17,358.8a635.8,635.8,0,0,0-69,23.68,800.36,800.36,0,0,0-75.43,35.58c-26.77,14.31-54.39,30.83-82.09,49.1-29,19.16-58.95,40.79-89,64.29C-323.64,556-356,583.28-388.36,612.54A.27.27,0,0,1-388.55,612.62Z"/><path class="cls-13" d="M-388.55,626a.36.36,0,0,1-.23-.09.61.61,0,0,1-.07-.1.27.27,0,0,1,0-.12.27.27,0,0,1,0-.12.36.36,0,0,1,.07-.1c32.41-29.27,64.74-56.57,96.1-81.12,30-23.51,60-45.15,89-64.31,27.71-18.29,55.34-34.82,82.13-49.14a807.59,807.59,0,0,1,75.48-35.6,637.79,637.79,0,0,1,69-23.7,522.29,522.29,0,0,1,62.83-13.45,450.52,450.52,0,0,1,56.82-4.82,408.28,408.28,0,0,1,51,2.15c63.88,6.75,113.89,27.65,162.26,47.85,32.37,13.53,62.95,26.3,96.88,34.8A319.82,319.82,0,0,0,506.22,447a317.91,317.91,0,0,0,60.24-1.06A371.93,371.93,0,0,0,666.88,420c29.6-12.12,59.22-28.4,88.06-48.38a626.15,626.15,0,0,0,75.33-61.94,845.91,845.91,0,0,0,62.17-66.53.3.3,0,0,1,.22-.12.33.33,0,0,1,.23.07.3.3,0,0,1,.08.08.28.28,0,0,1,0,.12.17.17,0,0,1,0,.12.31.31,0,0,1,0,.1,847.52,847.52,0,0,1-62.22,66.59,627.17,627.17,0,0,1-75.4,62,465.52,465.52,0,0,1-88.2,48.45,372.8,372.8,0,0,1-100.6,25.94,315.53,315.53,0,0,1-113.91-7.8c-34-8.51-64.57-21.29-97-34.83-48.3-20.19-98.26-41.06-162-47.8a410.93,410.93,0,0,0-51-2.15,447.26,447.26,0,0,0-56.74,4.82,518.87,518.87,0,0,0-62.74,13.43,632.93,632.93,0,0,0-69,23.68,800.07,800.07,0,0,0-75.42,35.57c-26.77,14.31-54.39,30.83-82.08,49.1-29,19.16-59,40.79-89,64.28-31.34,24.55-63.66,51.83-96.06,81.1A.4.4,0,0,1-388.55,626Z"/><path class="cls-14" d="M-388.55,639.34a.35.35,0,0,1-.26-.1.44.44,0,0,1-.08-.11.68.68,0,0,1,0-.14.31.31,0,0,1,0-.13.27.27,0,0,1,.08-.1c32.41-29.28,64.75-56.58,96.1-81.13,30-23.51,60-45.15,89-64.31C-176,475-148.34,458.5-121.55,444.18a801.51,801.51,0,0,1,75.49-35.6,636.42,636.42,0,0,1,69-23.71,520.7,520.7,0,0,1,62.83-13.44,448.68,448.68,0,0,1,56.83-4.83,412.3,412.3,0,0,1,51,2.15C257.57,375.5,307.59,396.4,356,416.61c32.37,13.52,62.94,26.29,96.87,34.79a314.75,314.75,0,0,0,113.65,7.78,372.6,372.6,0,0,0,100.4-25.88c29.6-12.12,59.22-28.4,88.07-48.38A628.41,628.41,0,0,0,830.26,323a844.34,844.34,0,0,0,62.17-66.54.37.37,0,0,1,.25-.12.35.35,0,0,1,.26.07.22.22,0,0,1,.09.1.29.29,0,0,1,.05.13.57.57,0,0,1,0,.13.75.75,0,0,1-.07.12,847.4,847.4,0,0,1-62.22,66.59,628.3,628.3,0,0,1-75.4,62,465.83,465.83,0,0,1-88.2,48.45,373.12,373.12,0,0,1-100.62,25.94,318.6,318.6,0,0,1-60.38,1.07,321.26,321.26,0,0,1-53.54-8.86c-34-8.52-64.58-21.3-97-34.84-48.32-20.18-98.28-41.06-162.06-47.8a408.83,408.83,0,0,0-50.95-2.14,448.78,448.78,0,0,0-56.72,4.81,522.72,522.72,0,0,0-62.74,13.43,635.66,635.66,0,0,0-69,23.68,799.93,799.93,0,0,0-75.41,35.57c-26.78,14.3-54.4,30.82-82.09,49.1-29,19.16-59,40.78-89,64.28-31.35,24.55-63.66,51.83-96.07,81.1A.44.44,0,0,1-388.55,639.34Z"/><path class="cls-15" d="M-388.55,652.71a.45.45,0,0,1-.29-.12l-.08-.12a.4.4,0,0,1,0-.15.4.4,0,0,1,0-.15l.09-.12c32.41-29.27,64.75-56.57,96.11-81.12,30-23.51,60-45.15,89-64.32,27.71-18.28,55.34-34.81,82.14-49.13a802.85,802.85,0,0,1,75.48-35.61A637.31,637.31,0,0,1,23,398.16a520.44,520.44,0,0,1,62.84-13.44,446.85,446.85,0,0,1,56.83-4.83,412.3,412.3,0,0,1,51,2.15c63.9,6.75,113.92,27.65,162.29,47.86,32.37,13.52,62.94,26.3,96.86,34.8a320.74,320.74,0,0,0,53.41,8.84,318.65,318.65,0,0,0,60.23-1.06,371.79,371.79,0,0,0,100.4-25.89,464.26,464.26,0,0,0,88-48.37,625.89,625.89,0,0,0,75.31-61.93,844.15,844.15,0,0,0,62.17-66.53.42.42,0,0,1,.27-.14.43.43,0,0,1,.29.08.38.38,0,0,1,.11.11.33.33,0,0,1,0,.14.26.26,0,0,1,0,.15.33.33,0,0,1-.07.13,847.52,847.52,0,0,1-62.22,66.59,628.31,628.31,0,0,1-75.41,62,466.52,466.52,0,0,1-88.21,48.46,373.1,373.1,0,0,1-100.63,25.94,319.51,319.51,0,0,1-60.39,1.06,321.26,321.26,0,0,1-53.54-8.86c-34-8.51-64.59-21.3-97-34.84-48.31-20.18-98.27-41-162-47.79a406.77,406.77,0,0,0-50.94-2.15,447.11,447.11,0,0,0-56.72,4.82A520.15,520.15,0,0,0,23.2,398.89a635.66,635.66,0,0,0-69,23.68,799.93,799.93,0,0,0-75.41,35.57c-26.77,14.3-54.39,30.82-82.07,49.1-29,19.15-59,40.78-89,64.27-31.34,24.55-63.65,51.83-96.06,81.09A.43.43,0,0,1-388.55,652.71Z"/><path class="cls-16" d="M-388.55,666.07a.48.48,0,0,1-.32-.13.34.34,0,0,1-.09-.14.4.4,0,0,1,0-.15.29.29,0,0,1,0-.16.45.45,0,0,1,.1-.14c32.41-29.27,64.75-56.57,96.11-81.13,30-23.51,60-45.14,89-64.31,27.71-18.29,55.35-34.82,82.15-49.14A802.85,802.85,0,0,1-46.1,435.16,635.19,635.19,0,0,1,23,411.46,520.51,520.51,0,0,1,85.8,398a448.68,448.68,0,0,1,56.83-4.83,410.44,410.44,0,0,1,51.05,2.15c63.9,6.75,113.93,27.65,162.3,47.86,32.37,13.52,62.94,26.3,96.86,34.79a314.55,314.55,0,0,0,113.62,7.78,372.16,372.16,0,0,0,100.39-25.88,464.44,464.44,0,0,0,88-48.37,625.78,625.78,0,0,0,75.31-61.92,845.85,845.85,0,0,0,62.16-66.53.52.52,0,0,1,.3-.16.45.45,0,0,1,.32.09.31.31,0,0,1,.11.12.35.35,0,0,1,0,.32.29.29,0,0,1-.08.14,845.82,845.82,0,0,1-62.22,66.6,627.6,627.6,0,0,1-75.42,62,466.27,466.27,0,0,1-88.21,48.47,373.16,373.16,0,0,1-100.64,25.94,319.61,319.61,0,0,1-60.4,1.06,321.71,321.71,0,0,1-53.55-8.86c-34-8.52-64.59-21.3-97-34.84-48.31-20.18-98.27-41.05-162-47.78A406.69,406.69,0,0,0,142.65,394a448.92,448.92,0,0,0-56.72,4.8,522,522,0,0,0-62.72,13.43,632.53,632.53,0,0,0-68.95,23.67,799.93,799.93,0,0,0-75.41,35.57c-26.77,14.31-54.38,30.83-82.07,49.1-29,19.15-59,40.78-89,64.27-31.35,24.55-63.66,51.83-96.06,81.09A.47.47,0,0,1-388.55,666.07Z"/><path class="cls-17" d="M-388.55,679.43a.48.48,0,0,1-.34-.14.45.45,0,0,1-.1-.14.57.57,0,0,1,0-.18.33.33,0,0,1,0-.17.3.3,0,0,1,.1-.14c32.42-29.28,64.75-56.58,96.12-81.14,30-23.51,60-45.15,89-64.31,27.71-18.29,55.35-34.82,82.14-49.15a802.69,802.69,0,0,1,75.49-35.6,635.26,635.26,0,0,1,69.05-23.72A520.44,520.44,0,0,1,85.78,411.3a447.31,447.31,0,0,1,56.85-4.83,410.44,410.44,0,0,1,51.05,2.15c63.91,6.75,113.93,27.65,162.31,47.86,32.37,13.53,62.94,26.3,96.85,34.8a319.78,319.78,0,0,0,53.39,8.83,317.72,317.72,0,0,0,60.22-1.06,372.09,372.09,0,0,0,100.38-25.88,465.48,465.48,0,0,0,88-48.36,627.52,627.52,0,0,0,75.31-61.92,847.74,847.74,0,0,0,62.16-66.53.56.56,0,0,1,.32-.17.48.48,0,0,1,.35.1.37.37,0,0,1,.12.13.49.49,0,0,1,.06.17.37.37,0,0,1,0,.18.31.31,0,0,1-.08.15,845.89,845.89,0,0,1-62.23,66.6,626.65,626.65,0,0,1-75.42,62A465.53,465.53,0,0,1,667.21,474a372.49,372.49,0,0,1-100.65,25.94,315.79,315.79,0,0,1-114-7.8c-34-8.52-64.6-21.31-97-34.84-48.31-20.19-98.26-41.06-162-47.79a410.37,410.37,0,0,0-50.92-2.15,450.65,450.65,0,0,0-56.72,4.82A520,520,0,0,0,23.21,425.6a634.77,634.77,0,0,0-68.95,23.68,803.32,803.32,0,0,0-75.4,35.56c-26.76,14.31-54.37,30.83-82,49.1-29,19.15-58.95,40.78-89,64.28-31.34,24.54-63.66,51.82-96.06,81.08A.47.47,0,0,1-388.55,679.43Z"/><path class="cls-18" d="M-388.55,692.79a.55.55,0,0,1-.37-.14.57.57,0,0,1-.11-.16.63.63,0,0,1,0-.19.43.43,0,0,1,0-.19l.11-.15c32.42-29.29,64.76-56.58,96.12-81.14,30-23.51,60-45.15,89-64.32,27.71-18.29,55.35-34.82,82.15-49.14a801.8,801.8,0,0,1,75.5-35.61A634.57,634.57,0,0,1,22.94,438a519.84,519.84,0,0,1,62.85-13.45,447,447,0,0,1,56.84-4.83,408.92,408.92,0,0,1,51.07,2.15c63.91,6.75,113.94,27.65,162.32,47.87,32.36,13.52,62.93,26.29,96.84,34.79a320.85,320.85,0,0,0,53.39,8.84,318.46,318.46,0,0,0,60.21-1.07,371.93,371.93,0,0,0,100.36-25.87,464.37,464.37,0,0,0,88-48.37,626.55,626.55,0,0,0,75.3-61.91,845.65,845.65,0,0,0,62.16-66.52.53.53,0,0,1,.35-.19.58.58,0,0,1,.38.11.44.44,0,0,1,.13.14.55.55,0,0,1,.06.18.41.41,0,0,1,0,.19.56.56,0,0,1-.09.17,845.89,845.89,0,0,1-62.23,66.6,628.5,628.5,0,0,1-75.42,62,466.49,466.49,0,0,1-88.24,48.47A372.86,372.86,0,0,1,566.58,513.3a315.59,315.59,0,0,1-114-7.81c-34-8.5-64.6-21.28-97-34.82-48.3-20.18-98.26-41.05-162-47.78a408.44,408.44,0,0,0-50.92-2.15A448.62,448.62,0,0,0,86,425.55,522,522,0,0,0,23.23,439a636.14,636.14,0,0,0-68.95,23.67,802,802,0,0,0-75.39,35.56c-26.77,14.3-54.38,30.82-82.07,49.09-29,19.15-58.95,40.78-88.95,64.27-31.34,24.54-63.66,51.83-96.06,81.09A.53.53,0,0,1-388.55,692.79Z"/><path class="cls-10" d="M-388.55,706.16a.59.59,0,0,1-.4-.16.57.57,0,0,1-.12-.18.64.64,0,0,1,0-.2.46.46,0,0,1,.05-.2.48.48,0,0,1,.12-.17c32.41-29.28,64.75-56.57,96.11-81.13,30-23.51,60-45.15,89-64.32,27.71-18.29,55.35-34.82,82.15-49.16A804.16,804.16,0,0,1-46.14,475a634.82,634.82,0,0,1,69.07-23.72,521.77,521.77,0,0,1,62.85-13.45A451,451,0,0,1,142.63,433a410.85,410.85,0,0,1,51.07,2.16c63.92,6.75,114,27.64,162.33,47.86,32.36,13.53,62.93,26.3,96.84,34.79a320.57,320.57,0,0,0,53.38,8.84,318.32,318.32,0,0,0,60.2-1.06A372.17,372.17,0,0,0,666.8,499.75a464.06,464.06,0,0,0,88-48.36,625.35,625.35,0,0,0,75.29-61.91A845.77,845.77,0,0,0,892.28,323a.54.54,0,0,1,.37-.19.56.56,0,0,1,.41.11.67.67,0,0,1,.14.15.66.66,0,0,1,.06.2.44.44,0,0,1,0,.2.51.51,0,0,1-.09.18,844.46,844.46,0,0,1-62.24,66.62,627.6,627.6,0,0,1-75.42,62,465.37,465.37,0,0,1-88.24,48.47,373.35,373.35,0,0,1-100.66,26,316.3,316.3,0,0,1-114-7.81c-34-8.52-64.6-21.31-97-34.84-48.29-20.18-98.25-41-162-47.79a410.37,410.37,0,0,0-50.92-2.15A450.5,450.5,0,0,0,86,438.9a519.85,519.85,0,0,0-62.71,13.42A635.4,635.4,0,0,0-45.7,476a809.75,809.75,0,0,0-75.39,35.57c-26.77,14.31-54.38,30.82-82.07,49.1-29,19.15-58.94,40.77-89,64.27-31.34,24.54-63.66,51.82-96.05,81.08A.63.63,0,0,1-388.55,706.16Z"/><path class="cls-19" d="M-388.55,719.52a.63.63,0,0,1-.43-.17.52.52,0,0,1-.12-.18.43.43,0,0,1,0-.22.42.42,0,0,1,.05-.22.46.46,0,0,1,.13-.18c32.41-29.28,64.75-56.58,96.12-81.14,30-23.51,60-45.15,89-64.32,27.72-18.29,55.36-34.83,82.16-49.15a801.8,801.8,0,0,1,75.5-35.61,635.7,635.7,0,0,1,69.08-23.72,522.18,522.18,0,0,1,62.85-13.45,449.47,449.47,0,0,1,56.86-4.83,413,413,0,0,1,51.08,2.15c63.92,6.76,114,27.66,162.34,47.88,32.36,13.52,62.93,26.28,96.83,34.78a314.89,314.89,0,0,0,113.57,7.78A371.73,371.73,0,0,0,666.79,513c29.58-12.11,59.19-28.38,88-48.35a625.35,625.35,0,0,0,75.29-61.91,847.28,847.28,0,0,0,62.15-66.51.61.61,0,0,1,.4-.21.6.6,0,0,1,.44.12.36.36,0,0,1,.14.16.54.54,0,0,1,.08.21.55.55,0,0,1,0,.22.45.45,0,0,1-.11.19,844.27,844.27,0,0,1-62.24,66.61,628.86,628.86,0,0,1-75.43,62c-28.9,20-58.59,36.33-88.25,48.47a373,373,0,0,1-100.68,26,315.78,315.78,0,0,1-114-7.81c-34-8.51-64.6-21.3-97-34.84-48.3-20.18-98.25-41.05-162-47.79a410.27,410.27,0,0,0-50.91-2.13A450.5,450.5,0,0,0,86,452.28,520.26,520.26,0,0,0,23.25,465.7a636,636,0,0,0-68.94,23.67,801.71,801.71,0,0,0-75.38,35.55c-26.77,14.31-54.38,30.83-82.06,49.1-29,19.15-58.95,40.77-88.95,64.26-31.34,24.54-63.66,51.82-96.06,81.09A.61.61,0,0,1-388.55,719.52Z"/><path class="cls-20" d="M-388.55,732.88a.67.67,0,0,1-.46-.18.53.53,0,0,1-.13-.2.59.59,0,0,1-.05-.23.53.53,0,0,1,.06-.24.62.62,0,0,1,.14-.19c32.42-29.28,64.76-56.57,96.12-81.13,30-23.52,60-45.16,89-64.33,27.72-18.29,55.36-34.83,82.16-49.15a801.94,801.94,0,0,1,75.51-35.61A637.82,637.82,0,0,1,22.9,477.89a522.48,522.48,0,0,1,62.87-13.45,449.15,449.15,0,0,1,56.86-4.83,412.94,412.94,0,0,1,51.08,2.15c63.93,6.76,114,27.66,162.35,47.88,32.36,13.52,62.93,26.28,96.83,34.78a314.54,314.54,0,0,0,113.55,7.77,371.78,371.78,0,0,0,100.34-25.86,465.2,465.2,0,0,0,88-48.35,627.26,627.26,0,0,0,75.29-61.91,847.28,847.28,0,0,0,62.15-66.51.66.66,0,0,1,.42-.23.72.72,0,0,1,.47.13.69.69,0,0,1,.16.18.52.52,0,0,1,.07.22.44.44,0,0,1,0,.23.53.53,0,0,1-.11.21A844.27,844.27,0,0,1,831,416.91a627,627,0,0,1-75.43,62,466.13,466.13,0,0,1-88.26,48.48,373.09,373.09,0,0,1-100.69,26,315.89,315.89,0,0,1-114-7.81c-34-8.52-64.61-21.3-97-34.84-48.3-20.18-98.24-41.05-162-47.78a408.28,408.28,0,0,0-50.91-2.15A446.48,446.48,0,0,0,86,465.62,519.7,519.7,0,0,0,23.26,479,632.27,632.27,0,0,0-45.68,502.7a804.37,804.37,0,0,0-75.38,35.56c-26.76,14.33-54.37,30.84-82.05,49.11-29,19.15-58.94,40.77-88.95,64.26-31.34,24.54-63.65,51.83-96.05,81.09A.7.7,0,0,1-388.55,732.88Z"/><path class="cls-21" d="M-388.55,746.24a.63.63,0,0,1-.48-.19.62.62,0,0,1-.15-.21.64.64,0,0,1,0-.24.7.7,0,0,1,.05-.25,1,1,0,0,1,.15-.2c32.42-29.28,64.76-56.58,96.13-81.14,30-23.51,60-45.16,89-64.32,27.71-18.3,55.36-34.83,82.16-49.16a801.94,801.94,0,0,1,75.51-35.61A635.7,635.7,0,0,1,22.89,491.2a523.37,523.37,0,0,1,62.87-13.46,451.32,451.32,0,0,1,56.87-4.83,410.93,410.93,0,0,1,51.08,2.16c63.94,6.75,114,27.66,162.37,47.87,32.36,13.52,62.92,26.28,96.82,34.79a315.06,315.06,0,0,0,113.54,7.77,372,372,0,0,0,100.32-25.87,465.7,465.7,0,0,0,88-48.34A627.18,627.18,0,0,0,830,429.38a843.75,843.75,0,0,0,62.15-66.51.71.71,0,0,1,.94-.1.52.52,0,0,1,.17.19.63.63,0,0,1,.08.23.52.52,0,0,1,0,.25.48.48,0,0,1-.12.22A844.27,844.27,0,0,1,831,430.27a628.87,628.87,0,0,1-75.44,62,466.13,466.13,0,0,1-88.26,48.48,373.27,373.27,0,0,1-100.7,26,316.52,316.52,0,0,1-114-7.81c-34-8.52-64.61-21.31-97-34.85-48.3-20.18-98.24-41-162-47.78a408,408,0,0,0-50.9-2.14A448.47,448.47,0,0,0,86,479a521.9,521.9,0,0,0-62.69,13.42,635.11,635.11,0,0,0-68.93,23.67A802.14,802.14,0,0,0-121,551.64c-26.76,14.3-54.37,30.82-82,49.08C-232.1,619.87-262,641.49-292,665c-31.34,24.54-63.66,51.82-96.05,81.08A.69.69,0,0,1-388.55,746.24Z"/><path class="cls-22" d="M-388.55,759.61a.71.71,0,0,1-.51-.21.8.8,0,0,1-.15-.21.8.8,0,0,1-.05-.26.76.76,0,0,1,.06-.26.65.65,0,0,1,.16-.21c32.42-29.29,64.76-56.59,96.12-81.14,30-23.52,60-45.17,89-64.34,27.72-18.29,55.37-34.83,82.17-49.15a803.56,803.56,0,0,1,75.52-35.62,637.86,637.86,0,0,1,69.08-23.72A523,523,0,0,1,85.76,491a451.32,451.32,0,0,1,56.87-4.83,411.17,411.17,0,0,1,51.09,2.16c63.94,6.75,114,27.66,162.37,47.88C388.45,549.76,419,562.52,452.91,571a314.95,314.95,0,0,0,113.52,7.77,371.5,371.5,0,0,0,100.31-25.87,464.28,464.28,0,0,0,88-48.34A624.14,624.14,0,0,0,830,442.68a845.32,845.32,0,0,0,62.15-66.5.73.73,0,0,1,.48-.25.75.75,0,0,1,.52.14.66.66,0,0,1,.18.19.73.73,0,0,1,.08.25.82.82,0,0,1,0,.27.76.76,0,0,1-.13.23A848.11,848.11,0,0,1,831,443.63a629,629,0,0,1-75.45,62,466.27,466.27,0,0,1-88.27,48.49,373.22,373.22,0,0,1-100.71,26,316.27,316.27,0,0,1-114-7.8c-34-8.52-64.62-21.31-97-34.85-48.3-20.18-98.24-41-162-47.78a410,410,0,0,0-50.9-2.14A448.31,448.31,0,0,0,86,492.35a521.48,521.48,0,0,0-62.69,13.42,637.16,637.16,0,0,0-68.93,23.66A808.11,808.11,0,0,0-121,565c-26.76,14.3-54.36,30.81-82,49.08-29,19.15-58.94,40.77-88.94,64.26-31.34,24.54-63.66,51.82-96.05,81.08A.73.73,0,0,1-388.55,759.61Z"/><path class="cls-23" d="M-388.55,773a.77.77,0,0,1-.54-.22.63.63,0,0,1-.16-.23.86.86,0,0,1-.05-.27.6.6,0,0,1,.07-.27.6.6,0,0,1,.16-.23c32.42-29.28,64.76-56.58,96.13-81.14,30-23.52,60-45.16,89-64.33,27.71-18.3,55.36-34.83,82.16-49.15a803.41,803.41,0,0,1,75.52-35.62,638.11,638.11,0,0,1,69.09-23.73,523,523,0,0,1,62.88-13.45,447.78,447.78,0,0,1,56.88-4.83,409.24,409.24,0,0,1,51.09,2.15c64,6.76,114,27.67,162.39,47.88,32.35,13.52,62.92,26.29,96.81,34.78a314.92,314.92,0,0,0,113.51,7.77,371.87,371.87,0,0,0,100.3-25.86,464.69,464.69,0,0,0,88-48.34A625.15,625.15,0,0,0,830,456a847,847,0,0,0,62.14-66.5.78.78,0,0,1,.5-.27.81.81,0,0,1,.55.15.76.76,0,0,1,.19.21.62.62,0,0,1,.09.26.67.67,0,0,1,0,.28.58.58,0,0,1-.14.24A842.71,842.71,0,0,1,831.05,457a627.13,627.13,0,0,1-75.44,62,466.09,466.09,0,0,1-88.28,48.5,373.29,373.29,0,0,1-100.72,26,316.35,316.35,0,0,1-114.06-7.8c-34-8.52-64.63-21.31-97-34.85-48.29-20.18-98.23-41-161.95-47.77a409.88,409.88,0,0,0-50.89-2.15A448.15,448.15,0,0,0,86,505.72,522.31,522.31,0,0,0,23.3,519.14,636.86,636.86,0,0,0-45.61,542.8,798.33,798.33,0,0,0-121,578.36c-26.76,14.3-54.36,30.82-82,49.09-29,19.14-58.94,40.76-88.94,64.26-31.34,24.53-63.66,51.81-96,81.07A.76.76,0,0,1-388.55,773Z"/><path class="cls-24" d="M-388.55,786.33a.78.78,0,0,1-.57-.23.56.56,0,0,1-.16-.24.72.72,0,0,1-.06-.29.68.68,0,0,1,.07-.28.81.81,0,0,1,.17-.24c32.43-29.28,64.77-56.58,96.13-81.14,30.05-23.52,60-45.16,89-64.33,27.72-18.3,55.37-34.84,82.17-49.16A804.89,804.89,0,0,1-46.23,554.8a638,638,0,0,1,69.09-23.72,525.06,525.06,0,0,1,62.88-13.46,451.48,451.48,0,0,1,56.89-4.83,411.33,411.33,0,0,1,51.1,2.16c64,6.76,114,27.66,162.39,47.88,32.36,13.52,62.92,26.28,96.81,34.78a314.8,314.8,0,0,0,113.49,7.77,371.62,371.62,0,0,0,100.29-25.86,464.63,464.63,0,0,0,88-48.33A626.88,626.88,0,0,0,830,469.3a845.14,845.14,0,0,0,62.13-66.51.82.82,0,0,1,.54-.28.87.87,0,0,1,.58.16,1,1,0,0,1,.19.21.73.73,0,0,1,.1.28.7.7,0,0,1,0,.29.51.51,0,0,1-.14.26,844.65,844.65,0,0,1-62.25,66.62,628,628,0,0,1-75.45,62,465.91,465.91,0,0,1-88.29,48.5,373.11,373.11,0,0,1-100.73,26A316.15,316.15,0,0,1,452.53,599c-34-8.52-64.63-21.31-97-34.85-48.28-20.17-98.21-41-161.93-47.77a408,408,0,0,0-50.89-2.14A448.15,448.15,0,0,0,86,519.08a521.67,521.67,0,0,0-62.68,13.41,635,635,0,0,0-68.92,23.67A802.59,802.59,0,0,0-121,591.7c-26.76,14.31-54.36,30.83-82,49.09C-232,659.94-262,681.56-292,705.05c-31.34,24.54-63.66,51.82-96,81.07A.86.86,0,0,1-388.55,786.33Z"/><path class="cls-25" d="M-388.55,799.7a.89.89,0,0,1-.6-.24.9.9,0,0,1-.17-.26.77.77,0,0,1-.06-.3.73.73,0,0,1,.07-.3.92.92,0,0,1,.19-.25c32.42-29.28,64.76-56.58,96.13-81.14,30-23.52,60-45.17,89-64.34,27.72-18.29,55.37-34.83,82.17-49.16a804.75,804.75,0,0,1,75.52-35.62,636.73,636.73,0,0,1,69.1-23.72,523.26,523.26,0,0,1,62.89-13.46,447.78,447.78,0,0,1,56.89-4.83,409.4,409.4,0,0,1,51.1,2.15c64,6.76,114,27.67,162.41,47.89,32.36,13.52,62.92,26.28,96.81,34.77a314.65,314.65,0,0,0,113.47,7.77,372,372,0,0,0,100.28-25.85,465.43,465.43,0,0,0,88-48.33,625.85,625.85,0,0,0,75.26-61.89,843.37,843.37,0,0,0,62.14-66.5.9.9,0,0,1,.56-.29.86.86,0,0,1,.6.17.72.72,0,0,1,.31.51.65.65,0,0,1,0,.31.72.72,0,0,1-.15.27,848.37,848.37,0,0,1-62.25,66.63,628.06,628.06,0,0,1-75.46,62c-28.91,20-58.62,36.36-88.3,48.51a373.08,373.08,0,0,1-100.74,26,316.26,316.26,0,0,1-114.1-7.81c-34-8.52-64.63-21.31-97.05-34.85-48.28-20.18-98.21-41-161.92-47.77a407.79,407.79,0,0,0-50.88-2.14A447.84,447.84,0,0,0,86,532.45a521.67,521.67,0,0,0-62.68,13.41,636.86,636.86,0,0,0-68.91,23.66A802.75,802.75,0,0,0-121,605.07c-26.77,14.3-54.36,30.81-82,49.08-29,19.15-58.93,40.76-88.93,64.26-31.34,24.53-63.66,51.81-96.05,81.06A.91.91,0,0,1-388.55,799.7Z"/><path class="cls-26" d="M-388.55,813.06a.89.89,0,0,1-.62-.25.83.83,0,0,1-.19-.27.87.87,0,0,1-.06-.32.84.84,0,0,1,.08-.31.7.7,0,0,1,.19-.26c32.43-29.28,64.76-56.58,96.13-81.15,30-23.51,60-45.16,89-64.34,27.72-18.29,55.37-34.83,82.17-49.16a805,805,0,0,1,75.54-35.62,635.37,635.37,0,0,1,69.1-23.73,525.21,525.21,0,0,1,62.89-13.46,451.64,451.64,0,0,1,56.9-4.83,411.57,411.57,0,0,1,51.11,2.16c64,6.76,114,27.67,162.42,47.89,32.35,13.51,62.91,26.28,96.79,34.77A314.65,314.65,0,0,0,566.42,632,372,372,0,0,0,666.68,606.1a464.87,464.87,0,0,0,88-48.33,627.41,627.41,0,0,0,75.25-61.88A845.07,845.07,0,0,0,892,429.39a.92.92,0,0,1,1.22-.13.83.83,0,0,1,.33.54.93.93,0,0,1,0,.33.66.66,0,0,1-.16.28A848.37,848.37,0,0,1,831.14,497a629.2,629.2,0,0,1-75.47,62.05,466,466,0,0,1-88.3,48.5,373.17,373.17,0,0,1-100.75,26,316.3,316.3,0,0,1-114.11-7.81c-34-8.52-64.64-21.31-97.06-34.85-48.28-20.18-98.21-41-161.91-47.77A409.72,409.72,0,0,0,142.66,541,448,448,0,0,0,86,545.81a521.52,521.52,0,0,0-62.67,13.41,637.6,637.6,0,0,0-68.91,23.66,803.79,803.79,0,0,0-75.36,35.55c-26.76,14.3-54.36,30.81-82,49.08-29,19.14-58.93,40.76-88.93,64.25-31.33,24.54-63.65,51.81-96,81.07A.93.93,0,0,1-388.55,813.06Z"/><path class="cls-27" d="M-388.55,826.42a.92.92,0,0,1-.65-.26.73.73,0,0,1-.19-.28.75.75,0,0,1-.07-.33.94.94,0,0,1,.08-.33,1.05,1.05,0,0,1,.2-.27c32.43-29.28,64.77-56.59,96.14-81.15,30-23.52,60-45.16,89-64.34,27.73-18.3,55.38-34.84,82.18-49.16a806.37,806.37,0,0,1,75.54-35.63A636.14,636.14,0,0,1,22.83,571a523,523,0,0,1,62.9-13.46,449.79,449.79,0,0,1,56.9-4.84,411.57,411.57,0,0,1,51.11,2.16c64,6.76,114,27.67,162.43,47.9C388.52,616.22,419.08,629,453,637.47a314.58,314.58,0,0,0,113.45,7.77,371.42,371.42,0,0,0,100.25-25.85,464.43,464.43,0,0,0,88-48.32,625.84,625.84,0,0,0,75.25-61.88A843.18,843.18,0,0,0,892,442.7a.94.94,0,0,1,.6-.32,1,1,0,0,1,.67.18.75.75,0,0,1,.22.25.76.76,0,0,1,.11.32.62.62,0,0,1,0,.33.73.73,0,0,1-.16.3,846.55,846.55,0,0,1-62.26,66.63,628.35,628.35,0,0,1-75.46,62.05A467,467,0,0,1,667.39,621a373.67,373.67,0,0,1-100.77,26A319.74,319.74,0,0,1,506.13,648a323.36,323.36,0,0,1-53.63-8.87c-34-8.53-64.64-21.32-97.06-34.86-48.28-20.18-98.21-41-161.9-47.76a409.72,409.72,0,0,0-50.88-2.15A448,448,0,0,0,86,559.17a521,521,0,0,0-62.66,13.42,634.6,634.6,0,0,0-68.91,23.65,804.83,804.83,0,0,0-75.35,35.54c-26.76,14.3-54.36,30.81-82,49.08-29,19.14-58.92,40.76-88.92,64.25-31.34,24.54-63.65,51.81-96,81.07A1,1,0,0,1-388.55,826.42Z"/><path class="cls-28" d="M-259.27,342.73l-.05,0,0,0a0,0,0,0,1,0,0s0,0,0,0l0,0a839,839,0,0,1,59.81-66.9,614.16,614.16,0,0,1,72.4-62.36c27.71-20.14,56.16-36.57,84.56-48.84a346,346,0,0,1,96.33-26.36,292.54,292.54,0,0,1,57.74-1.32,293.63,293.63,0,0,1,51.15,8.65c32.46,8.38,61.68,21,92.61,34.46,46.17,20,93.91,40.73,155,47.21A373,373,0,0,0,459,229.07,410.7,410.7,0,0,0,513.35,224a481.21,481.21,0,0,0,60.13-13.7,594.93,594.93,0,0,0,66.13-24A759.66,759.66,0,0,0,712,150.38c25.69-14.44,52.2-31.1,78.78-49.51,27.86-19.3,56.61-41.08,85.44-64.73,30.1-24.71,61.16-52.16,92.3-81.6h.12v0a0,0,0,0,1,0,0,.06.06,0,0,1,0,0v0c-31.14,29.44-62.2,56.9-92.31,81.61C847.45,59.93,818.71,81.71,790.84,101c-26.59,18.42-53.1,35.08-78.8,49.52a762.33,762.33,0,0,1-72.36,35.94,595.21,595.21,0,0,1-66.15,24,483.76,483.76,0,0,1-60.15,13.71A411,411,0,0,1,459,229.24a373.71,373.71,0,0,1-48.82-1.94c-61.07-6.48-108.82-27.2-155-47.22-30.93-13.42-60.15-26.08-92.59-34.46A294.37,294.37,0,0,0,111.49,137a292.24,292.24,0,0,0-57.71,1.31,346.32,346.32,0,0,0-96.27,26.35c-28.39,12.27-56.83,28.7-84.53,48.84a613.79,613.79,0,0,0-72.38,62.34,842.1,842.1,0,0,0-59.8,66.88l0,0Z"/><path class="cls-29" d="M-259.21,329.42l-.08,0,0,0a.07.07,0,0,1,0-.05v0s0,0,0,0a841,841,0,0,1,59.81-66.91A616.11,616.11,0,0,1-127.08,200c27.71-20.14,56.16-36.57,84.57-48.84a346.07,346.07,0,0,1,96.33-26.37,288.66,288.66,0,0,1,108.9,7.34c32.47,8.37,61.69,21,92.63,34.46,46.16,20,93.9,40.72,154.94,47.21a376.56,376.56,0,0,0,48.78,1.94,414.26,414.26,0,0,0,54.34-5.06,483.33,483.33,0,0,0,60.12-13.71,592.93,592.93,0,0,0,66.13-24A760.71,760.71,0,0,0,712,137c25.69-14.43,52.2-31.09,78.78-49.5,27.86-19.3,56.6-41.08,85.43-64.73,30.1-24.7,61.16-52.15,92.3-81.59a.12.12,0,0,1,.08,0,.13.13,0,0,1,.09,0,.12.12,0,0,1,0,.08.13.13,0,0,1,0,.09C937.54-29.21,906.48-1.75,876.36,23,847.53,46.62,818.79,68.4,790.92,87.7c-26.59,18.41-53.1,35.08-78.8,49.52a764.71,764.71,0,0,1-72.36,35.94,595.35,595.35,0,0,1-66.16,24,482,482,0,0,1-60.15,13.72,412.85,412.85,0,0,1-54.37,5.06A377,377,0,0,1,410.27,214c-61.08-6.49-108.84-27.21-155-47.23-30.93-13.41-60.14-26.08-92.59-34.45a293,293,0,0,0-51.11-8.65A292.15,292.15,0,0,0,53.85,125,345.63,345.63,0,0,0-42.4,151.33c-28.41,12.27-56.84,28.7-84.54,48.83a613.68,613.68,0,0,0-72.38,62.33,846.25,846.25,0,0,0-59.8,66.89l0,0Z"/><path class="cls-30" d="M-259.15,316.12a.12.12,0,0,1-.1,0l0,0a.14.14,0,0,1,0-.06s0-.05,0-.06a.11.11,0,0,1,0-.06A841.06,841.06,0,0,1-199.46,249,615,615,0,0,1-127,186.6c27.72-20.14,56.17-36.59,84.58-48.86a346.42,346.42,0,0,1,96.35-26.36,292.65,292.65,0,0,1,57.75-1.32,293.73,293.73,0,0,1,51.16,8.65c32.47,8.38,61.69,21,92.63,34.47,46.16,20,93.9,40.72,154.93,47.2a374.71,374.71,0,0,0,48.77,2,412.25,412.25,0,0,0,54.34-5.07,481.07,481.07,0,0,0,60.12-13.7,594.79,594.79,0,0,0,66.12-24A762.94,762.94,0,0,0,712,123.64c25.69-14.44,52.19-31.1,78.78-49.51,27.86-19.3,56.6-41.08,85.43-64.73,30.1-24.7,61.16-52.15,92.29-81.59,0,0,0,0,.05,0l.06,0,.07,0,0,0,0,0a.13.13,0,0,1,0,.06.13.13,0,0,1,0,.06l0,.06c-31.15,29.44-62.21,56.9-92.32,81.61C847.61,33.3,818.87,55.09,791,74.38c-26.59,18.44-53.11,35.09-78.8,49.53a760.22,760.22,0,0,1-72.38,35.94,592.59,592.59,0,0,1-66.15,24,482.52,482.52,0,0,1-60.16,13.71,412.85,412.85,0,0,1-54.38,5.07,375.32,375.32,0,0,1-48.81-1.95c-61.08-6.48-108.84-27.2-155-47.23-30.92-13.41-60.13-26.07-92.58-34.45a293.83,293.83,0,0,0-51.1-8.64,292.78,292.78,0,0,0-57.69,1.31A346.34,346.34,0,0,0-42.34,138c-28.38,12.26-56.83,28.69-84.52,48.81a613.54,613.54,0,0,0-72.36,62.33A847.83,847.83,0,0,0-259,316.05a.1.1,0,0,1-.06.05Z"/><path class="cls-31" d="M-259.1,302.81a.19.19,0,0,1-.12,0,.21.21,0,0,1-.07-.13.28.28,0,0,1,0-.15,840.91,840.91,0,0,1,59.83-66.9A614.23,614.23,0,0,1-127,173.23c27.71-20.14,56.17-36.58,84.59-48.86A346.45,346.45,0,0,1,53.93,98a292,292,0,0,1,57.76-1.32,293.84,293.84,0,0,1,51.17,8.65c32.47,8.38,61.69,21,92.63,34.47,46.16,20,93.89,40.72,154.92,47.21A376.47,376.47,0,0,0,459.18,189a414,414,0,0,0,54.33-5.06,483.33,483.33,0,0,0,60.12-13.71,593.26,593.26,0,0,0,66.11-24,760.71,760.71,0,0,0,72.34-35.93c25.69-14.43,52.19-31.09,78.77-49.5C818.71,41.46,847.46,19.68,876.28-4c30.1-24.7,61.15-52.15,92.29-81.59a.24.24,0,0,1,.14,0,.24.24,0,0,1,.14,0,.24.24,0,0,1,0,.14.24.24,0,0,1,0,.14c-31.15,29.45-62.21,56.9-92.32,81.61C847.7,20,819,41.77,791.08,61.07,764.49,79.5,738,96.16,712.27,110.6a760.08,760.08,0,0,1-72.37,35.94,593.45,593.45,0,0,1-66.16,24,482.6,482.6,0,0,1-60.16,13.72,411.45,411.45,0,0,1-54.39,5.06,373.56,373.56,0,0,1-48.81-1.94c-61.09-6.5-108.85-27.21-155-47.23-30.93-13.41-60.14-26.08-92.58-34.45A288.37,288.37,0,0,0,54,98.38a346.16,346.16,0,0,0-96.25,26.34C-70.66,137-99.09,153.4-126.78,173.54a613.61,613.61,0,0,0-72.37,62.33,844,844,0,0,0-59.79,66.88.18.18,0,0,1-.07.05Z"/><path class="cls-32" d="M-259,289.51a.24.24,0,0,1-.14-.05.26.26,0,0,1-.09-.16.26.26,0,0,1,0-.17,842.87,842.87,0,0,1,59.83-66.91A614.35,614.35,0,0,1-127,159.85C-99.26,139.7-70.8,123.26-42.38,111A346.26,346.26,0,0,1,54,84.62a291.33,291.33,0,0,1,57.77-1.32A293.79,293.79,0,0,1,162.93,92c32.47,8.38,61.69,21.06,92.63,34.48,46.16,20,93.89,40.71,154.92,47.2a376.25,376.25,0,0,0,48.76,1.94,413.64,413.64,0,0,0,54.32-5.06,482.71,482.71,0,0,0,60.11-13.7,596.7,596.7,0,0,0,66.12-24,763,763,0,0,0,72.33-35.93c25.69-14.44,52.19-31.09,78.77-49.49,27.87-19.31,56.6-41.09,85.43-64.74,30.1-24.7,61.15-52.15,92.29-81.58a.24.24,0,0,1,.16-.07.28.28,0,0,1,.17.07.27.27,0,0,1,.06.17.24.24,0,0,1-.07.16C937.78-69.15,906.72-41.69,876.62-17,847.77,6.68,819,28.46,791.16,47.76c-26.6,18.43-53.11,35.09-78.81,49.53a762.73,762.73,0,0,1-72.38,36,595.46,595.46,0,0,1-66.16,24A484.46,484.46,0,0,1,513.64,171,413.16,413.16,0,0,1,459.25,176a375.41,375.41,0,0,1-48.82-1.95c-61.1-6.49-108.86-27.2-155-47.23-30.92-13.41-60.13-26.08-92.57-34.45A288.34,288.34,0,0,0,54,85.07,345.81,345.81,0,0,0-42.2,111.42c-28.38,12.25-56.81,28.67-84.5,48.81a614.43,614.43,0,0,0-72.37,62.32,844,844,0,0,0-59.79,66.87.27.27,0,0,1-.08.07Z"/><path class="cls-33" d="M-259,276.2a.27.27,0,0,1-.17-.06.27.27,0,0,1-.07-.08l0-.1a.34.34,0,0,1,0-.1.19.19,0,0,1,.05-.09,841.31,841.31,0,0,1,59.83-66.92,613.48,613.48,0,0,1,72.42-62.37c27.72-20.15,56.19-36.6,84.6-48.87A346.73,346.73,0,0,1,54,71.24a291.32,291.32,0,0,1,57.77-1.32A293.79,293.79,0,0,1,163,78.57c32.48,8.39,61.7,21.06,92.65,34.48,46.15,20,93.88,40.71,154.9,47.2a376.17,376.17,0,0,0,48.75,1.94,413.64,413.64,0,0,0,54.32-5.06,483.52,483.52,0,0,0,60.11-13.7,595.27,595.27,0,0,0,66.11-24,761.75,761.75,0,0,0,72.33-35.93C737.84,69.08,764.34,52.42,790.92,34,818.78,14.72,847.52-7,876.34-30.7c30.11-24.7,61.16-52.15,92.29-81.58a.47.47,0,0,1,.09-.06.21.21,0,0,1,.11,0,.18.18,0,0,1,.1,0,.16.16,0,0,1,.08.06.18.18,0,0,1,.06.09.36.36,0,0,1,0,.1.17.17,0,0,1,0,.1.18.18,0,0,1-.06.09C937.87-82.46,906.8-55,876.69-30.29,847.86-6.63,819.1,15.15,791.23,34.45,764.64,52.88,738.12,69.54,712.42,84a760.37,760.37,0,0,1-72.38,36,592.87,592.87,0,0,1-66.17,24,484.12,484.12,0,0,1-60.17,13.72,411.45,411.45,0,0,1-54.39,5.06,373.87,373.87,0,0,1-48.83-1.94c-61.1-6.5-108.86-27.21-155.06-47.24-30.92-13.41-60.13-26.07-92.56-34.45A288.52,288.52,0,0,0,54.1,71.77,346.44,346.44,0,0,0-42.13,98.1c-28.38,12.26-56.81,28.68-84.49,48.82A614.29,614.29,0,0,0-199,209.24a845.58,845.58,0,0,0-59.79,66.87.22.22,0,0,1-.09.07Z"/><path class="cls-34" d="M-258.92,262.9a.32.32,0,0,1-.19-.07.33.33,0,0,1-.11-.21.29.29,0,0,1,.06-.22,841.31,841.31,0,0,1,59.83-66.92A615.54,615.54,0,0,1-126.9,133.1C-99.18,113-70.71,96.51-42.29,84.24A346.67,346.67,0,0,1,54.09,57.86a288.51,288.51,0,0,1,109,7.34c32.48,8.38,61.7,21,92.65,34.47,46.15,20,93.89,40.71,154.89,47.2a376.17,376.17,0,0,0,48.75,1.94,413.8,413.8,0,0,0,54.32-5.06,481.59,481.59,0,0,0,60.1-13.7,594.4,594.4,0,0,0,66.1-24A760.42,760.42,0,0,0,712.2,70.14C737.89,55.7,764.39,39.05,791,20.65c27.85-19.31,56.59-41.08,85.41-64.73,30.1-24.7,61.16-52.15,92.29-81.58a.31.31,0,0,1,.22-.09.32.32,0,0,1,.21.1.31.31,0,0,1,.09.22.3.3,0,0,1-.1.21c-31.14,29.45-62.2,56.9-92.32,81.61-28.83,23.66-57.59,45.45-85.46,64.75-26.59,18.43-53.1,35.09-78.81,49.53a761.68,761.68,0,0,1-72.39,36,592.87,592.87,0,0,1-66.17,24,484.27,484.27,0,0,1-60.18,13.72,413.16,413.16,0,0,1-54.39,5.07,375.56,375.56,0,0,1-48.83-1.95c-61.1-6.49-108.88-27.21-155.07-47.24-30.93-13.41-60.13-26.07-92.56-34.44A288.16,288.16,0,0,0,54.16,58.46,345.9,345.9,0,0,0-42,84.8c-28.38,12.26-56.81,28.67-84.5,48.8a615,615,0,0,0-72.35,62.31,845.93,845.93,0,0,0-59.78,66.88l-.11.08A.31.31,0,0,1-258.92,262.9Z"/><path class="cls-35" d="M-258.86,249.59a.34.34,0,0,1-.22-.07.44.44,0,0,1-.08-.11.25.25,0,0,1,0-.12.33.33,0,0,1,0-.14.24.24,0,0,1,.06-.11,843.28,843.28,0,0,1,59.83-66.92,615.53,615.53,0,0,1,72.43-62.39c27.73-20.15,56.2-36.59,84.62-48.87A346.39,346.39,0,0,1,54.14,44.48a292.28,292.28,0,0,1,57.79-1.31,294.17,294.17,0,0,1,51.2,8.65c32.48,8.38,61.71,21.06,92.66,34.47,46.15,20,93.86,40.71,154.88,47.2a375.94,375.94,0,0,0,48.74,1.94,411.79,411.79,0,0,0,54.31-5.06,480.78,480.78,0,0,0,60.1-13.7,594.4,594.4,0,0,0,66.1-24,759.11,759.11,0,0,0,72.32-35.92C737.93,42.33,764.43,25.68,791,7.27,818.86-12,847.6-33.8,876.42-57.45c30.1-24.7,61.15-52.15,92.29-81.58a.41.41,0,0,1,.11-.07.3.3,0,0,1,.13,0,.31.31,0,0,1,.13,0,.28.28,0,0,1,.11.08.34.34,0,0,1,.09.24.34.34,0,0,1-.11.24C938-109.09,907-81.63,876.84-56.92,848-33.26,819.27-11.47,791.39,7.82c-26.6,18.44-53.11,35.1-78.81,49.54a762.87,762.87,0,0,1-72.39,36,595.85,595.85,0,0,1-66.18,24,484.27,484.27,0,0,1-60.18,13.72,411.75,411.75,0,0,1-54.41,5.06,373.87,373.87,0,0,1-48.83-1.94C349.48,127.67,301.7,107,255.51,86.92,224.59,73.52,195.38,60.85,163,52.48A288.41,288.41,0,0,0,54.22,45.16,345.88,345.88,0,0,0-42,71.48c-28.38,12.26-56.8,28.67-84.48,48.8a615,615,0,0,0-72.35,62.31,847.51,847.51,0,0,0-59.78,66.87.38.38,0,0,1-.12.1A.4.4,0,0,1-258.86,249.59Z"/><path class="cls-36" d="M-258.8,236.29a.34.34,0,0,1-.24-.09.35.35,0,0,1-.14-.25.4.4,0,0,1,.08-.28,845.1,845.1,0,0,1,59.84-66.92,613.92,613.92,0,0,1,72.43-62.39c27.73-20.15,56.2-36.6,84.62-48.87A346.64,346.64,0,0,1,54.2,31.1,292.36,292.36,0,0,1,112,29.79a294.33,294.33,0,0,1,51.2,8.65c32.48,8.39,61.71,21.06,92.65,34.48,46.16,20,93.87,40.7,154.88,47.19a375.94,375.94,0,0,0,48.74,1.94,411.93,411.93,0,0,0,54.31-5,484.62,484.62,0,0,0,60.09-13.7,594.4,594.4,0,0,0,66.1-24,761.46,761.46,0,0,0,72.32-35.92C738,29,764.47,12.31,791.05-6.1c27.85-19.3,56.59-41.07,85.41-64.72,30.11-24.7,61.15-52.15,92.29-81.58a.5.5,0,0,1,.12-.08l.15,0a.32.32,0,0,1,.14,0,.27.27,0,0,1,.12.09.32.32,0,0,1,.08.12.26.26,0,0,1,0,.15.32.32,0,0,1,0,.14.36.36,0,0,1-.08.12c-31.15,29.45-62.21,56.91-92.34,81.62C848.1-46.57,819.34-24.79,791.47-5.49c-26.6,18.43-53.12,35.1-78.82,49.54a759.31,759.31,0,0,1-72.39,36,596.58,596.58,0,0,1-66.18,24,484.82,484.82,0,0,1-60.19,13.72,413.31,413.31,0,0,1-54.41,5.07,375.78,375.78,0,0,1-48.84-2c-61.11-6.5-108.88-27.21-155.09-47.25C224.63,60.21,195.43,47.54,163,39.17a293.58,293.58,0,0,0-51.08-8.63,292.3,292.3,0,0,0-57.64,1.31,346.16,346.16,0,0,0-96.2,26.33C-70.28,70.44-98.7,86.85-126.39,107a614.67,614.67,0,0,0-72.34,62.29,845.52,845.52,0,0,0-59.78,66.87.69.69,0,0,1-.13.11A.47.47,0,0,1-258.8,236.29Z"/><path class="cls-37" d="M-258.75,223a.43.43,0,0,1-.26-.09.58.58,0,0,1-.1-.12.43.43,0,0,1-.05-.16.3.3,0,0,1,0-.16.37.37,0,0,1,.07-.14,843.53,843.53,0,0,1,59.84-66.93A614,614,0,0,1-126.79,93c27.73-20.15,56.21-36.6,84.63-48.88A347,347,0,0,1,54.25,17.72a292.48,292.48,0,0,1,57.81-1.31,294.17,294.17,0,0,1,51.2,8.65c32.48,8.39,61.71,21.06,92.67,34.48,46.14,20,93.86,40.7,154.86,47.18a372.27,372.27,0,0,0,48.73,1.94,411.93,411.93,0,0,0,54.31-5,477.77,477.77,0,0,0,60.08-13.7,592.29,592.29,0,0,0,66.1-24A757.78,757.78,0,0,0,712.32,30C738,15.58,764.5-1.07,791.08-19.48c27.85-19.29,56.59-41.06,85.41-64.71,30.1-24.7,61.15-52.15,92.28-81.58a.46.46,0,0,1,.3-.11.41.41,0,0,1,.29.13.6.6,0,0,1,.09.13.88.88,0,0,1,0,.16.41.41,0,0,1,0,.16.71.71,0,0,1-.1.14c-31.14,29.44-62.21,56.9-92.33,81.61-28.84,23.66-57.59,45.45-85.47,64.76C765-.36,738.43,16.3,712.72,30.74a760.66,760.66,0,0,1-72.39,36,592.57,592.57,0,0,1-66.18,24A481,481,0,0,1,514,104.44a411.61,411.61,0,0,1-54.41,5.07,377.55,377.55,0,0,1-48.84-1.94c-61.12-6.5-108.9-27.22-155.1-47.26-30.92-13.4-60.11-26.07-92.54-34.44A293.72,293.72,0,0,0,112,17.23a291.65,291.65,0,0,0-57.65,1.32A345.75,345.75,0,0,0-41.83,44.87c-28.38,12.26-56.8,28.67-84.48,48.8A614.67,614.67,0,0,0-198.65,156a847.25,847.25,0,0,0-59.77,66.86.44.44,0,0,1-.15.12A.34.34,0,0,1-258.75,223Z"/><path class="cls-38" d="M-258.69,209.68a.48.48,0,0,1-.28-.1.48.48,0,0,1-.17-.31.5.5,0,0,1,.1-.33A845.3,845.3,0,0,1-199.2,142a614,614,0,0,1,72.44-62.39C-99,59.46-70.55,43-42.12,30.74A346.33,346.33,0,0,1,54.31,4.35a288.75,288.75,0,0,1,109,7.34c32.49,8.38,61.72,21.06,92.67,34.47,46.15,20,93.87,40.7,154.85,47.19a375.93,375.93,0,0,0,48.73,1.94,411.8,411.8,0,0,0,54.3-5.06A482.61,482.61,0,0,0,574,76.54a593.54,593.54,0,0,0,66.09-24,761.18,761.18,0,0,0,72.31-35.91C738,2.21,764.54-14.44,791.11-32.85,819-52.13,847.7-73.91,876.52-97.56c30.1-24.7,61.15-52.15,92.28-81.58a.5.5,0,0,1,.33-.12.41.41,0,0,1,.31.14.43.43,0,0,1,.12.32.45.45,0,0,1-.14.32c-31.14,29.44-62.21,56.9-92.33,81.62C848.26-73.2,819.5-51.41,791.62-32.11,765-13.68,738.51,3,712.8,17.43a761.84,761.84,0,0,1-72.39,36,596,596,0,0,1-66.19,24A480.85,480.85,0,0,1,514,91.13a413.61,413.61,0,0,1-54.42,5.07,375.87,375.87,0,0,1-48.85-2C349.63,87.76,301.86,67,255.65,47c-30.93-13.41-60.13-26.07-92.55-34.44a293.41,293.41,0,0,0-51-8.63A292.3,292.3,0,0,0,54.41,5.24,346,346,0,0,0-41.76,31.56c-28.37,12.26-56.79,28.67-84.46,48.8a612,612,0,0,0-72.34,62.29,843.55,843.55,0,0,0-59.78,66.86.44.44,0,0,1-.15.12A.49.49,0,0,1-258.69,209.68Z"/><path class="cls-39" d="M-258.63,196.37a.51.51,0,0,1-.31-.11.44.44,0,0,1-.17-.32.47.47,0,0,1,.1-.36,845.3,845.3,0,0,1,59.84-66.93,614,614,0,0,1,72.45-62.4C-99,46.09-70.51,29.64-42.08,17.36A346.33,346.33,0,0,1,54.35-9a293.36,293.36,0,0,1,57.82-1.32,294.42,294.42,0,0,1,51.22,8.66c32.49,8.39,61.73,21.06,92.67,34.48C302.2,52.8,349.91,73.49,410.9,80a373.94,373.94,0,0,0,48.72,2,413.5,413.5,0,0,0,54.3-5.06A482.06,482.06,0,0,0,574,63.17a594.26,594.26,0,0,0,66.09-24A761.18,761.18,0,0,0,712.39,3.27c25.68-14.43,52.17-31.08,78.75-49.49,27.85-19.29,56.58-41.07,85.4-64.71,30.11-24.7,61.15-52.15,92.28-81.58a.47.47,0,0,1,.35-.13.45.45,0,0,1,.34.15.51.51,0,0,1,.13.34.53.53,0,0,1-.15.34c-31.15,29.44-62.21,56.91-92.33,81.62-28.85,23.66-57.6,45.45-85.48,64.76C765.11-27,738.59-10.33,712.88,4.12a762,762,0,0,1-72.4,36,596.13,596.13,0,0,1-66.2,24,484.56,484.56,0,0,1-60.2,13.72,411.92,411.92,0,0,1-54.42,5.07,372.37,372.37,0,0,1-48.85-2c-61.14-6.49-108.92-27.21-155.13-47.25C224.77,20.28,195.57,7.62,163.15-.75A293.41,293.41,0,0,0,112.1-9.38,291.45,291.45,0,0,0,54.47-8.06,345.62,345.62,0,0,0-41.69,18.26C-70.06,30.51-98.47,46.93-126.15,67a613.8,613.8,0,0,0-72.33,62.29,843.49,843.49,0,0,0-59.77,66.86.55.55,0,0,1-.17.13A.54.54,0,0,1-258.63,196.37Z"/><path class="cls-40" d="M-258.57,183.07a.5.5,0,0,1-.33-.12.49.49,0,0,1-.19-.35.5.5,0,0,1,.11-.39,843.39,843.39,0,0,1,59.85-66.93,612.44,612.44,0,0,1,72.45-62.4C-98.95,32.72-70.47,16.27-42,4a346.76,346.76,0,0,1,96.44-26.4,293.46,293.46,0,0,1,57.83-1.32,295.21,295.21,0,0,1,51.22,8.66C196-6.68,225.19,6,256.14,19.42,302.28,39.43,350,60.11,411,66.6a375.7,375.7,0,0,0,48.72,1.94A411.49,411.49,0,0,0,514,63.48a482.61,482.61,0,0,0,60.08-13.69,596.76,596.76,0,0,0,66.08-24A762.11,762.11,0,0,0,712.43-10.1c25.68-14.43,52.18-31.08,78.75-49.49,27.85-19.28,56.59-41.06,85.41-64.71,30.1-24.7,61.14-52.14,92.27-81.58A.78.78,0,0,1,969-206a.64.64,0,0,1,.2,0,.46.46,0,0,1,.2.05.36.36,0,0,1,.16.11.42.42,0,0,1,.11.18.45.45,0,0,1,0,.2.49.49,0,0,1,0,.2.46.46,0,0,1-.11.16c-31.15,29.45-62.22,56.91-92.34,81.63C848.42-99.83,819.66-78,791.79-58.74,765.19-40.3,738.67-23.64,713-9.19a763.29,763.29,0,0,1-72.41,36,596.13,596.13,0,0,1-66.2,24,484.63,484.63,0,0,1-60.2,13.73,413.75,413.75,0,0,1-54.43,5.06,374.1,374.1,0,0,1-48.85-1.94c-61.15-6.5-108.93-27.22-155.14-47.26C224.81,7,195.62-5.68,163.2-14a293.3,293.3,0,0,0-51-8.63,292.08,292.08,0,0,0-57.62,1.31A345.44,345.44,0,0,0-41.62,5C-70,17.2-98.39,33.61-126.07,53.73A612.11,612.11,0,0,0-198.39,116a841.59,841.59,0,0,0-59.78,66.84.54.54,0,0,1-.18.15A.54.54,0,0,1-258.57,183.07Z"/><path class="cls-41" d="M-258.52,169.76a.57.57,0,0,1-.35-.12.57.57,0,0,1-.2-.38.54.54,0,0,1,.12-.41,843.59,843.59,0,0,1,59.85-66.94,615,615,0,0,1,72.45-62.4C-98.91,19.34-70.43,2.89-42-9.39a346.55,346.55,0,0,1,96.46-26.4,289.23,289.23,0,0,1,109.06,7.35C196-20.06,225.26-7.38,256.22,6c46.13,20,93.84,40.7,154.82,47.18a373.78,373.78,0,0,0,48.71,1.94,411.63,411.63,0,0,0,54.29-5,481.16,481.16,0,0,0,60.07-13.7,592.59,592.59,0,0,0,66.07-24,759.86,759.86,0,0,0,72.3-35.91C738.16-37.91,764.65-54.56,791.23-73c27.85-19.29,56.58-41.06,85.4-64.71,30.1-24.7,61.14-52.14,92.27-81.58a.6.6,0,0,1,.4-.15.62.62,0,0,1,.4.18.42.42,0,0,1,.11.18.54.54,0,0,1,0,.22.54.54,0,0,1-.05.21.46.46,0,0,1-.13.18c-31.14,29.45-62.21,56.91-92.33,81.62C848.5-113.15,819.74-91.36,791.87-72,765.27-53.62,738.74-37,713-22.51a762,762,0,0,1-72.4,36,596.27,596.27,0,0,1-66.21,24A483,483,0,0,1,514.21,51.2a413.61,413.61,0,0,1-54.43,5.07,376.09,376.09,0,0,1-48.86-2C349.77,47.83,302,27.11,255.77,7.07,224.86-6.33,195.66-19,163.25-27.36a293.35,293.35,0,0,0-51-8.63,291.24,291.24,0,0,0-57.61,1.32A345.35,345.35,0,0,0-41.54-8.36C-69.9,3.9-98.32,20.3-126,40.42a612.68,612.68,0,0,0-72.32,62.28,843.09,843.09,0,0,0-59.77,66.85.58.58,0,0,1-.19.16A.7.7,0,0,1-258.52,169.76Z"/><path class="cls-42" d="M-258.46,156.46a.57.57,0,0,1-.37-.14.52.52,0,0,1-.15-.18.57.57,0,0,1-.07-.22.58.58,0,0,1,0-.23.53.53,0,0,1,.11-.21,845.36,845.36,0,0,1,59.85-66.94,615.3,615.3,0,0,1,72.46-62.41C-98.87,6-70.39-10.48-41.95-22.76a346.36,346.36,0,0,1,96.47-26.4A289.07,289.07,0,0,1,163.6-41.82c32.5,8.39,61.74,21.07,92.69,34.49,46.13,20,93.84,40.69,154.81,47.17a373.72,373.72,0,0,0,48.71,1.95,411.35,411.35,0,0,0,54.27-5.06A482.32,482.32,0,0,0,574.14,23a595.3,595.3,0,0,0,66.08-24,762.25,762.25,0,0,0,72.3-35.91c25.68-14.43,52.17-31.08,78.74-49.48,27.85-19.29,56.59-41.06,85.4-64.71,30.1-24.7,61.15-52.14,92.28-81.57a.58.58,0,0,1,.2-.13.85.85,0,0,1,.23,0,.6.6,0,0,1,.23.06.64.64,0,0,1,.19.13.59.59,0,0,1,.12.2.45.45,0,0,1,0,.23.59.59,0,0,1-.05.23.8.8,0,0,1-.13.19c-31.15,29.45-62.22,56.91-92.34,81.62-28.84,23.67-57.59,45.46-85.47,64.77-26.62,18.42-53.14,35.09-78.85,49.54a764.79,764.79,0,0,1-72.42,36,596.13,596.13,0,0,1-66.2,24,484.92,484.92,0,0,1-60.22,13.73A413.76,413.76,0,0,1,459.83,43,376.24,376.24,0,0,1,411,41C349.81,34.53,302,13.81,255.81-6.24c-30.91-13.4-60.1-26.06-92.51-34.42A287.88,287.88,0,0,0,54.66-48,345.65,345.65,0,0,0-41.47-21.67C-69.83-9.41-98.23,7-125.91,27.11a612.68,612.68,0,0,0-72.32,62.28A844.81,844.81,0,0,0-258,156.23a.68.68,0,0,1-.21.17A.58.58,0,0,1-258.46,156.46Z"/><path class="cls-43" d="M-258.4,143.15a.67.67,0,0,1-.4-.14.66.66,0,0,1-.23-.42.61.61,0,0,1,.14-.47A847.54,847.54,0,0,1-199,75.17a615.23,615.23,0,0,1,72.47-62.41C-98.83-7.4-70.35-23.85-41.9-36.14a346.61,346.61,0,0,1,96.47-26.4,289.14,289.14,0,0,1,109.1,7.34c32.5,8.39,61.73,21.07,92.69,34.49C302.49-.71,350.2,20,411.16,26.46a371.81,371.81,0,0,0,48.7,1.94,411.32,411.32,0,0,0,54.28-5A481.92,481.92,0,0,0,574.2,9.66a593.87,593.87,0,0,0,66.07-24,757.21,757.21,0,0,0,72.29-35.9c25.68-14.43,52.17-31.08,78.74-49.49,27.85-19.28,56.58-41,85.4-64.7,30.1-24.7,61.14-52.14,92.27-81.57a.68.68,0,0,1,.45-.17.65.65,0,0,1,.45.2.66.66,0,0,1,.17.45.65.65,0,0,1-.2.44c-31.15,29.45-62.22,56.91-92.34,81.63C848.66-139.76,819.9-118,792-98.66c-26.6,18.43-53.13,35.09-78.84,49.54a762.26,762.26,0,0,1-72.41,36,595,595,0,0,1-66.21,24A483.53,483.53,0,0,1,514.34,24.6a412.37,412.37,0,0,1-54.45,5.07,374.48,374.48,0,0,1-48.87-2C349.87,21.22,302.07.5,255.85-19.54,225-32.95,195.75-45.6,163.35-54a293,293,0,0,0-51-8.63,291.91,291.91,0,0,0-57.6,1.31A345.93,345.93,0,0,0-41.4-35C-69.76-22.73-98.16-6.32-125.83,13.8a613.3,613.3,0,0,0-72.31,62.27,841.32,841.32,0,0,0-59.77,66.85.54.54,0,0,1-.22.17A.6.6,0,0,1-258.4,143.15Z"/><path class="cls-44" d="M-258.34,129.85a.66.66,0,0,1-.42-.15.66.66,0,0,1-.25-.45.63.63,0,0,1,.15-.49A847.54,847.54,0,0,1-199,61.81,615.23,615.23,0,0,1-126.54-.6C-98.79-20.77-70.3-37.23-41.86-49.52a346.74,346.74,0,0,1,96.49-26.4,288.9,288.9,0,0,1,109.1,7.35c32.51,8.39,61.75,21.06,92.7,34.49,46.14,20,93.84,40.68,154.79,47.16A371.81,371.81,0,0,0,459.92,15a411.32,411.32,0,0,0,54.28-5,480.8,480.8,0,0,0,60-13.69,593.76,593.76,0,0,0,66.07-24A760.91,760.91,0,0,0,712.61-63.6c25.67-14.43,52.16-31.07,78.73-49.48,27.85-19.28,56.58-41.06,85.4-64.7,30.08-24.7,61.14-52.13,92.26-81.57a.7.7,0,0,1,.48-.18.68.68,0,0,1,.47.21.66.66,0,0,1,.18.48.64.64,0,0,1-.21.47c-31.15,29.45-62.21,56.91-92.34,81.63C848.74-153.08,820-131.29,792.1-112,765.5-93.54,739-76.88,713.25-62.43a760,760,0,0,1-72.42,36,595.79,595.79,0,0,1-66.22,24A485.33,485.33,0,0,1,514.39,11.3,413.92,413.92,0,0,1,460,16.37a376.33,376.33,0,0,1-48.88-2c-61.16-6.5-109-27.23-155.18-47.28-30.9-13.39-60.09-26-92.49-34.41A288,288,0,0,0,54.79-74.58a345.5,345.5,0,0,0-96.11,26.3C-69.68-36-98.09-19.63-125.75.48a614.23,614.23,0,0,0-72.31,62.27,843.23,843.23,0,0,0-59.76,66.85.58.58,0,0,1-.23.18A.59.59,0,0,1-258.34,129.85Z"/><path class="cls-45" d="M-258.28,116.54a.73.73,0,0,1-.45-.16.68.68,0,0,1-.17-.21.62.62,0,0,1-.09-.26.67.67,0,0,1,0-.28.7.7,0,0,1,.13-.24A843.85,843.85,0,0,1-199,48.44,613.61,613.61,0,0,1-126.5-14C-98.75-34.15-70.26-50.6-41.81-62.89A346.77,346.77,0,0,1,54.68-89.3a288.93,288.93,0,0,1,109.11,7.35c32.51,8.39,61.75,21.07,92.71,34.49,46.13,20,93.83,40.69,154.78,47.17A375.33,375.33,0,0,0,460,1.65a411.35,411.35,0,0,0,54.27-5.06,482.37,482.37,0,0,0,60-13.68,593,593,0,0,0,66.06-24A756,756,0,0,0,712.64-77c25.68-14.43,52.17-31.07,78.74-49.48,27.84-19.28,56.57-41.06,85.39-64.7,30.09-24.69,61.14-52.14,92.27-81.56a.7.7,0,0,1,.5-.2.77.77,0,0,1,.5.22.72.72,0,0,1,.14.24.65.65,0,0,1,.05.27.63.63,0,0,1-.06.27,1.19,1.19,0,0,1-.16.23c-31.15,29.44-62.22,56.91-92.35,81.63-28.84,23.66-57.6,45.45-85.48,64.76-26.61,18.44-53.13,35.1-78.85,49.55a760,760,0,0,1-72.42,36,594.51,594.51,0,0,1-66.22,24A482.87,482.87,0,0,1,514.46-2,412.06,412.06,0,0,1,460,3.06a376.33,376.33,0,0,1-48.88-1.95C350-5.39,302.17-26.12,256-46.16c-30.91-13.4-60.1-26.06-92.5-34.42a293,293,0,0,0-51-8.63A291.79,291.79,0,0,0,54.85-87.9a345.12,345.12,0,0,0-96.1,26.31C-69.61-49.35-98-32.94-125.67-12.84A614.35,614.35,0,0,0-198,49.44a843,843,0,0,0-59.75,66.84.67.67,0,0,1-.25.19A.78.78,0,0,1-258.28,116.54Z"/><path class="cls-46" d="M-258.23,103.24a.83.83,0,0,1-.46-.17.83.83,0,0,1-.19-.23.84.84,0,0,1-.08-.27.57.57,0,0,1,0-.29.82.82,0,0,1,.14-.26,843.85,843.85,0,0,1,59.86-66.95,615.53,615.53,0,0,1,72.48-62.43C-98.72-47.52-70.22-64-41.77-76.27a346.49,346.49,0,0,1,96.5-26.41,289.11,289.11,0,0,1,109.14,7.35c32.51,8.39,61.75,21.07,92.71,34.49,46.12,20,93.82,40.69,154.76,47.16A373.57,373.57,0,0,0,460-11.73a411,411,0,0,0,54.25-5.05,482.18,482.18,0,0,0,60.05-13.69,596.37,596.37,0,0,0,66.06-24,760.77,760.77,0,0,0,72.28-35.91c25.67-14.42,52.16-31.07,78.73-49.47,27.85-19.29,56.58-41.06,85.39-64.7,30.1-24.69,61.14-52.14,92.26-81.56a1,1,0,0,1,.25-.16.93.93,0,0,1,.29-.05,1,1,0,0,1,.28.07.66.66,0,0,1,.24.17.75.75,0,0,1,.15.24.93.93,0,0,1,.05.29.88.88,0,0,1-.06.28.81.81,0,0,1-.17.24c-31.16,29.45-62.22,56.91-92.35,81.63-28.84,23.67-57.6,45.46-85.48,64.77-26.61,18.43-53.14,35.1-78.85,49.55a760.15,760.15,0,0,1-72.43,36,596.63,596.63,0,0,1-66.22,24,486.87,486.87,0,0,1-60.23,13.73,414.06,414.06,0,0,1-54.46,5.07,376.33,376.33,0,0,1-48.88-1.95C350-18.7,302.21-39.42,256-59.47c-30.91-13.4-60.1-26.06-92.5-34.42a288.1,288.1,0,0,0-108.58-7.32A345.24,345.24,0,0,0-41.17-74.9c-28.36,12.24-56.76,28.65-84.42,48.75a614.3,614.3,0,0,0-72.3,62.27A843,843,0,0,0-257.65,103a.82.82,0,0,1-.25.2A.76.76,0,0,1-258.23,103.24Z"/><path class="cls-47" d="M-258.17,89.93a.79.79,0,0,1-.49-.17.77.77,0,0,1-.28-.52.8.8,0,0,1,.17-.58,843.85,843.85,0,0,1,59.86-66.95,614.6,614.6,0,0,1,72.48-62.43c27.75-20.17,56.25-36.63,84.7-48.92A346.62,346.62,0,0,1,54.79-116a292.34,292.34,0,0,1,57.87-1.32,294.81,294.81,0,0,1,51.27,8.66c32.52,8.4,61.76,21.08,92.72,34.5,46.12,20,93.81,40.68,154.75,47.16a375.31,375.31,0,0,0,48.69,1.94,412.9,412.9,0,0,0,54.26-5.06,482.37,482.37,0,0,0,60-13.68,595.5,595.5,0,0,0,66.05-24,761.83,761.83,0,0,0,72.28-35.9c25.67-14.42,52.16-31.07,78.73-49.47,27.85-19.29,56.58-41.06,85.39-64.7,30.1-24.7,61.14-52.14,92.27-81.56a.67.67,0,0,1,.25-.16.8.8,0,0,1,.3-.06.94.94,0,0,1,.3.07,1.14,1.14,0,0,1,.25.18.77.77,0,0,1,.21.56.75.75,0,0,1-.24.54C939-268.87,908-241.4,877.83-216.68,849-193,820.22-171.22,792.34-151.91c-26.6,18.43-53.13,35.1-78.85,49.55a761.19,761.19,0,0,1-72.42,36,595.63,595.63,0,0,1-66.24,24,485.21,485.21,0,0,1-60.24,13.73,414.06,414.06,0,0,1-54.46,5.07,376.55,376.55,0,0,1-48.89-1.95C350.06-32,302.26-52.73,256-72.77c-30.9-13.4-60.09-26.06-92.49-34.42a292.71,292.71,0,0,0-51-8.63A291.59,291.59,0,0,0,55-114.51a345.4,345.4,0,0,0-96.08,26.3C-69.46-76-97.85-59.56-125.51-39.46a613.23,613.23,0,0,0-72.3,62.27,841,841,0,0,0-59.75,66.83.79.79,0,0,1-.27.21A.77.77,0,0,1-258.17,89.93Z"/><path class="cls-48" d="M-258.11,76.62a.78.78,0,0,1-.51-.18,1,1,0,0,1-.21-.24.85.85,0,0,1-.09-.31.82.82,0,0,1,0-.31.8.8,0,0,1,.15-.29A843.85,843.85,0,0,1-198.88,8.34a613.86,613.86,0,0,1,72.49-62.43C-98.64-74.27-70.14-90.73-41.69-103a346.78,346.78,0,0,1,96.53-26.41A289.22,289.22,0,0,1,164-122.08c32.51,8.39,61.76,21.07,92.72,34.5,46.12,20,93.81,40.68,154.75,47.16a373.25,373.25,0,0,0,48.68,1.93,409.2,409.2,0,0,0,54.25-5.06,482.37,482.37,0,0,0,60-13.68,595.36,595.36,0,0,0,66-24,759.44,759.44,0,0,0,72.28-35.9c25.67-14.43,52.16-31.07,78.73-49.47,27.84-19.29,56.57-41.06,85.38-64.7C907-256,938-283.4,969.13-312.83a1,1,0,0,1,.27-.17,1.13,1.13,0,0,1,.32-.05.82.82,0,0,1,.31.07.83.83,0,0,1,.26.19.73.73,0,0,1,.17.27.81.81,0,0,1,0,.31.82.82,0,0,1-.07.31.81.81,0,0,1-.18.26C939.1-282.19,908-254.72,877.91-230c-28.84,23.66-57.61,45.46-85.49,64.77-26.61,18.43-53.14,35.1-78.85,49.56a763.87,763.87,0,0,1-72.44,36,595.49,595.49,0,0,1-66.23,24,484.94,484.94,0,0,1-60.25,13.73,412.36,412.36,0,0,1-54.46,5.07,374.87,374.87,0,0,1-48.9-1.94c-61.18-6.51-109-27.24-155.22-47.28-30.9-13.4-60.09-26.06-92.48-34.42A287.77,287.77,0,0,0,55-127.81,345.31,345.31,0,0,0-41-101.52c-28.34,12.24-56.74,28.65-84.39,48.75A613.18,613.18,0,0,0-197.72,9.49a838.79,838.79,0,0,0-59.74,66.83.92.92,0,0,1-.29.23A.75.75,0,0,1-258.11,76.62Z"/><path class="cls-49" d="M-258,63.32a.89.89,0,0,1-.54-.19.9.9,0,0,1-.31-.57.82.82,0,0,1,.19-.62A844.25,844.25,0,0,1-198.85-5a616.66,616.66,0,0,1,72.49-62.44C-98.6-87.64-70.1-104.1-41.64-116.39A347,347,0,0,1,54.9-142.81a292.52,292.52,0,0,1,57.89-1.32,294.17,294.17,0,0,1,51.28,8.67c32.52,8.39,61.76,21.07,92.73,34.5,46.11,20,93.8,40.68,154.73,47.15a371.58,371.58,0,0,0,48.68,1.94,410.88,410.88,0,0,0,54.24-5.05,481.82,481.82,0,0,0,60-13.68,595.5,595.5,0,0,0,66-24,761.67,761.67,0,0,0,72.28-35.89c25.67-14.43,52.15-31.08,78.72-49.48,27.84-19.28,56.57-41.05,85.38-64.69,30.1-24.69,61.14-52.13,92.26-81.56a.68.68,0,0,1,.28-.17,1,1,0,0,1,.33-.06.93.93,0,0,1,.33.07,1.05,1.05,0,0,1,.27.2.84.84,0,0,1,.23.61.84.84,0,0,1-.27.59C939.19-295.5,908.12-268,878-243.31c-28.84,23.67-57.61,45.46-85.49,64.78-26.61,18.43-53.14,35.1-78.86,49.55a762.68,762.68,0,0,1-72.43,36A594.79,594.79,0,0,1,575-69a481.71,481.71,0,0,1-60.24,13.74,414.37,414.37,0,0,1-54.47,5.07,376.63,376.63,0,0,1-48.9-2c-61.19-6.5-109-27.23-155.23-47.27-30.91-13.4-60.09-26.06-92.48-34.42a292.72,292.72,0,0,0-51-8.62,291.49,291.49,0,0,0-57.56,1.31A345.68,345.68,0,0,0-41-114.82c-28.35,12.24-56.74,28.64-84.39,48.74A612.24,612.24,0,0,0-197.64-3.82,840.81,840.81,0,0,0-257.39,63a1,1,0,0,1-.29.24A1,1,0,0,1-258,63.32Z"/></g></g></g><path class="cls-50" d="M4.24,89.36a1.49,1.49,0,0,1-1.37-.88,1.52,1.52,0,0,1-.12-.84,1.57,1.57,0,0,1,.36-.77c1.34-1.52,2.71-3,4.08-4.47a1.49,1.49,0,0,1,1-.47,1.51,1.51,0,0,1,1.07.41,1.49,1.49,0,0,1,.47,1,1.47,1.47,0,0,1-.41,1.07c-1.34,1.42-2.69,2.9-4,4.4a1.59,1.59,0,0,1-.51.37A1.42,1.42,0,0,1,4.24,89.36ZM16.82,76.5a1.52,1.52,0,0,1-.85-.26,1.49,1.49,0,0,1-.61-1.58,1.45,1.45,0,0,1,.45-.76c1.48-1.37,3-2.72,4.54-4a1.44,1.44,0,0,1,1.09-.35,1.51,1.51,0,0,1,1,.52,1.5,1.5,0,0,1,.35,1.09,1.47,1.47,0,0,1-.52,1c-1.5,1.27-3,2.6-4.46,3.94A1.48,1.48,0,0,1,16.82,76.5Zm137.56-2.26h-.18a9.4,9.4,0,0,1-6-3.52,1.58,1.58,0,0,1-.28-.51,1.44,1.44,0,0,1-.06-.58,1.5,1.5,0,0,1,1-1.3,1.47,1.47,0,0,1,.59-.06,1.43,1.43,0,0,1,.56.16,1.46,1.46,0,0,1,.45.37,6.45,6.45,0,0,0,4.07,2.46,1.43,1.43,0,0,1,1,.53,1.48,1.48,0,0,1,.34,1,1.49,1.49,0,0,1-1.49,1.41Zm7.45-7.57h-.06a1.49,1.49,0,0,1-1.44-1.55V64.8a11,11,0,0,0-.3-2.55c-.19-.83-.43-1.65-.7-2.46a1.5,1.5,0,0,1,.94-1.9,1.5,1.5,0,0,1,1.14.07,1.53,1.53,0,0,1,.76.86c.3.9.57,1.83.78,2.76a14,14,0,0,1,.38,3.22c0,.14,0,.29,0,.43a1.46,1.46,0,0,1-.45,1A1.49,1.49,0,0,1,161.83,66.67ZM30.76,65.14a1.5,1.5,0,0,1-.88-.29,1.45,1.45,0,0,1-.54-.75,1.48,1.48,0,0,1,0-.93,1.52,1.52,0,0,1,.55-.75c1.64-1.18,3.32-2.34,5-3.43a1.5,1.5,0,0,1,2.29,1.56,1.48,1.48,0,0,1-.64.94c-1.64,1.08-3.28,2.21-4.89,3.37A1.53,1.53,0,0,1,30.76,65.14Zm114.6-5a1.49,1.49,0,0,1-1.49-1.34q-.06-.65-.12-1.32c-.07-1-.11-2-.11-3,0-.64,0-1.29.05-1.94a1.49,1.49,0,0,1,1.56-1.43,1.5,1.5,0,0,1,1.43,1.57c0,.6,0,1.2,0,1.8,0,.92,0,1.84.1,2.73,0,.42.07.83.11,1.23a1.28,1.28,0,0,1,0,.58,1.3,1.3,0,0,1-.27.52,1.45,1.45,0,0,1-1,.55ZM46,55.6a1.51,1.51,0,0,1-1.45-1.13,1.41,1.41,0,0,1,.08-1,1.49,1.49,0,0,1,.66-.72c1.77-1,3.59-1.88,5.4-2.75A1.48,1.48,0,0,1,51.85,50,1.51,1.51,0,0,1,52,52.73c-1.78.85-3.55,1.76-5.29,2.69A1.47,1.47,0,0,1,46,55.6Zm108.45-4.89a1.6,1.6,0,0,1-.57-.11,1.63,1.63,0,0,1-.49-.33,28.63,28.63,0,0,0-4.4-3.59,1.4,1.4,0,0,1-.42-.42,1.43,1.43,0,0,1-.22-.54,1.42,1.42,0,0,1,0-.58,1.29,1.29,0,0,1,.22-.54,1.49,1.49,0,0,1,.41-.42,1.58,1.58,0,0,1,.54-.22,1.47,1.47,0,0,1,.59,0,1.5,1.5,0,0,1,.54.22,32,32,0,0,1,4.87,4,1.52,1.52,0,0,1,.41.77,1.62,1.62,0,0,1-.09.87,1.5,1.5,0,0,1-.55.67A1.48,1.48,0,0,1,154.46,50.71ZM62.38,48.16a1.53,1.53,0,0,1-1-.35,1.57,1.57,0,0,1-.52-.88,1.53,1.53,0,0,1,.17-1,1.55,1.55,0,0,1,.78-.67c1.88-.7,3.8-1.38,5.72-2a1.65,1.65,0,0,1,.58-.07,1.62,1.62,0,0,1,.57.16,1.6,1.6,0,0,1,.46.36,1.7,1.7,0,0,1,.28.51,1.45,1.45,0,0,1,.07.58,1.6,1.6,0,0,1-.15.57,1.63,1.63,0,0,1-.37.46,1.61,1.61,0,0,1-.51.29c-1.87.61-3.76,1.27-5.59,2A1.39,1.39,0,0,1,62.38,48.16ZM79.59,43a1.53,1.53,0,0,1-1-.39,1.45,1.45,0,0,1-.49-.94A1.5,1.5,0,0,1,79.25,40c1.94-.45,3.93-.87,5.92-1.25a1.47,1.47,0,0,1,.59,0,1.73,1.73,0,0,1,.54.23,1.64,1.64,0,0,1,.41.42,1.58,1.58,0,0,1,.22.54,1.46,1.46,0,0,1,0,.59,1.58,1.58,0,0,1-.22.54,1.81,1.81,0,0,1-.42.41,1.58,1.58,0,0,1-.54.22c-1.95.37-3.91.78-5.81,1.23A2,2,0,0,1,79.59,43Zm67.66-.62a1.48,1.48,0,0,1-1.2-.6,1.53,1.53,0,0,1-.28-.64,1.47,1.47,0,0,1,0-.69c.56-1.91,1.23-3.86,2-5.8a1.57,1.57,0,0,1,.31-.49,1.51,1.51,0,0,1,.49-.33,1.39,1.39,0,0,1,.57-.12,1.37,1.37,0,0,1,.57.1,1.53,1.53,0,0,1,.5.32,1.58,1.58,0,0,1,.33.48,1.47,1.47,0,0,1,.12.58,1.41,1.41,0,0,1-.11.57c-.73,1.86-1.38,3.72-1.92,5.54a1.48,1.48,0,0,1-1.43,1.08Zm-8.27-.4a1.61,1.61,0,0,1-.44-.06c-1.78-.55-3.69-1-5.67-1.43a1.55,1.55,0,0,1-1-.64,1.71,1.71,0,0,1-.22-.54,1.42,1.42,0,0,1,0-.58,1.57,1.57,0,0,1,.23-.55,1.6,1.6,0,0,1,.41-.41,1.5,1.5,0,0,1,1.13-.22c2.08.42,4.08.92,6,1.5a1.48,1.48,0,0,1,1,1.65,1.51,1.51,0,0,1-.5.92A1.54,1.54,0,0,1,139,41.93Zm-41.66-2a1.49,1.49,0,0,1-1-.41,1.52,1.52,0,0,1-.47-1,1.49,1.49,0,0,1,.35-1.05,1.51,1.51,0,0,1,1-.52c2-.24,4.07-.43,6-.59a1.41,1.41,0,0,1,.58.07,1.43,1.43,0,0,1,.88.74,1.5,1.5,0,0,1-1.22,2.18c-1.92.16-3.91.35-5.92.58Zm24-.92h-.08c-1.9-.1-3.89-.16-5.92-.16a1.58,1.58,0,0,1-1.06-.44,1.45,1.45,0,0,1-.43-1.06,1.49,1.49,0,0,1,.43-1.06,1.54,1.54,0,0,1,1.07-.44h0c2.08,0,4.12.06,6.07.16a1.56,1.56,0,0,1,1,.48,1.5,1.5,0,0,1,.4,1.06,1.49,1.49,0,0,1-1.5,1.46Zm33.25-13.11a1.53,1.53,0,0,1-.75-.2,1.55,1.55,0,0,1-.55-.56,1.53,1.53,0,0,1-.2-.75,1.59,1.59,0,0,1,.21-.75c1-1.73,2.13-3.46,3.29-5.14a1.27,1.27,0,0,1,.42-.41,1.34,1.34,0,0,1,.54-.22,1.47,1.47,0,0,1,.59,0,1.54,1.54,0,0,1,.54.24,1.46,1.46,0,0,1,.62,1,1.47,1.47,0,0,1,0,.59,1.86,1.86,0,0,1-.24.54c-1.12,1.62-2.19,3.29-3.17,5a1.58,1.58,0,0,1-.55.54A1.53,1.53,0,0,1,154.52,25.91Zm10.67-14.47a1.52,1.52,0,0,1-.82-.25,1.49,1.49,0,0,1-.55-.64,1.46,1.46,0,0,1-.11-.85,1.54,1.54,0,0,1,.37-.77c1.37-1.52,2.79-3,4.23-4.39a1.51,1.51,0,0,1,2.12,0,1.53,1.53,0,0,1,.43,1.07,1.48,1.48,0,0,1-.46,1.05C169,8,167.63,9.47,166.31,10.94a1.55,1.55,0,0,1-.51.37A1.59,1.59,0,0,1,165.19,11.44Z"/><path class="cls-51" d="M436.75,495.05a1.54,1.54,0,0,1-.92-.31,1.51,1.51,0,0,1-.53-.82,56.09,56.09,0,0,1-1.2-6,1.53,1.53,0,0,1,.29-1.11,1.46,1.46,0,0,1,1-.58,1.49,1.49,0,0,1,1.7,1.27,55.63,55.63,0,0,0,1.14,5.72,1.51,1.51,0,0,1-.16,1.14,1.55,1.55,0,0,1-.92.69A1.64,1.64,0,0,1,436.75,495.05Zm-1.69-17.85H435a1.54,1.54,0,0,1-.56-.14,1.48,1.48,0,0,1-.47-.35,1.55,1.55,0,0,1-.31-.5,1.63,1.63,0,0,1-.08-.58c.09-2,.27-4,.54-6.09a1.47,1.47,0,0,1,.57-1,1.51,1.51,0,0,1,1.11-.3,1.47,1.47,0,0,1,1,.57,1.43,1.43,0,0,1,.3,1.11c-.25,2-.43,3.95-.52,5.85a1.47,1.47,0,0,1-.46,1A1.52,1.52,0,0,1,435.06,477.2Zm2.85-17.74a1.52,1.52,0,0,1-.66-.15,1.48,1.48,0,0,1-.53-.43,1.52,1.52,0,0,1-.28-.62,1.43,1.43,0,0,1,0-.68c.5-1.89,1.06-3.86,1.69-5.83a1.5,1.5,0,0,1,2.86.9c-.61,1.93-1.16,3.84-1.65,5.69a1.48,1.48,0,0,1-.53.81A1.52,1.52,0,0,1,437.91,459.46Zm5.77-17a1.47,1.47,0,0,1-.71-.18,1.49,1.49,0,0,1-.54-.49,1.46,1.46,0,0,1-.24-.68,1.49,1.49,0,0,1,.1-.72c.73-1.79,1.53-3.66,2.37-5.56a1.49,1.49,0,0,1,2-.76,1.48,1.48,0,0,1,.77,2c-.83,1.87-1.61,3.72-2.33,5.48a1.51,1.51,0,0,1-1.39.94Zm7.49-16.36a1.56,1.56,0,0,1-.73-.19,1.52,1.52,0,0,1-.54-.53,1.49,1.49,0,0,1-.23-.72,1.6,1.6,0,0,1,.16-.74c.84-1.66,1.7-3.34,2.59-5l.16-.32a1.5,1.5,0,0,1,.37-.46,1.42,1.42,0,0,1,1.09-.35,1.34,1.34,0,0,1,.56.16,1.37,1.37,0,0,1,.46.36,1.44,1.44,0,0,1,.29.51,1.65,1.65,0,0,1,.07.58,1.62,1.62,0,0,1-.16.57l-.19.35c-.87,1.66-1.73,3.32-2.56,5a1.39,1.39,0,0,1-.55.6A1.48,1.48,0,0,1,451.17,426.07ZM459,409.86a1.58,1.58,0,0,1-.71-.17,1.69,1.69,0,0,1-.54-.49,1.54,1.54,0,0,1-.24-.69,1.49,1.49,0,0,1,.1-.72c.76-1.84,1.48-3.7,2.12-5.53a1.53,1.53,0,0,1,.77-.85,1.5,1.5,0,0,1,1.14-.06,1.48,1.48,0,0,1,.86.77,1.5,1.5,0,0,1,.06,1.14c-.66,1.88-1.39,3.79-2.17,5.68a1.52,1.52,0,0,1-.56.67A1.42,1.42,0,0,1,459,409.86Zm5.49-17.12a1.84,1.84,0,0,1-.33,0,1.5,1.5,0,0,1-1.14-1.79c.44-2,.8-3.91,1.09-5.79a1.51,1.51,0,0,1,.59-1,1.57,1.57,0,0,1,1.11-.28,1.5,1.5,0,0,1,1.26,1.71c-.29,2-.67,4-1.12,6a1.51,1.51,0,0,1-.53.85A1.48,1.48,0,0,1,464.49,392.74Zm-1.82-15.08h-.06a37,37,0,0,1-6.2-.77,1.48,1.48,0,0,1-.53-.23,1.37,1.37,0,0,1-.41-.42,1.5,1.5,0,0,1-.22-.54,1.46,1.46,0,0,1,0-.59,1.6,1.6,0,0,1,.23-.54,1.56,1.56,0,0,1,1-.62,1.47,1.47,0,0,1,.59,0,33,33,0,0,0,5.69.71,1.49,1.49,0,0,1,1.44,1.53,1.5,1.5,0,0,1-.45,1A1.47,1.47,0,0,1,462.67,377.66Zm11.89-1.27a1.5,1.5,0,0,1-1-.37,1.49,1.49,0,0,1-.24-2,1.46,1.46,0,0,1,.87-.6,48.72,48.72,0,0,0,5.53-1.77,1.46,1.46,0,0,1,1.14,0,1.55,1.55,0,0,1,.8.83,1.5,1.5,0,0,1,0,1.14,1.46,1.46,0,0,1-.82.8,50.47,50.47,0,0,1-5.89,1.89A1.55,1.55,0,0,1,474.56,376.39Zm-8.18-1.5a1.5,1.5,0,0,1-1.5-1.46,53.92,53.92,0,0,0-.46-5.81,1.41,1.41,0,0,1,0-.58,1.72,1.72,0,0,1,.25-.53,1.49,1.49,0,0,1,.44-.39,1.39,1.39,0,0,1,.55-.19,1.46,1.46,0,0,1,.59,0,1.41,1.41,0,0,1,.52.26,1.45,1.45,0,0,1,.39.43,1.56,1.56,0,0,1,.2.56,54.82,54.82,0,0,1,.49,6.14,1.45,1.45,0,0,1-.1.58,1.57,1.57,0,0,1-.31.49,1.45,1.45,0,0,1-.48.34,1.4,1.4,0,0,1-.57.13Zm-20.61-2.66a1.46,1.46,0,0,1-.87-.28c-.69-.49-1.36-1-2-1.56a29.46,29.46,0,0,1-2.71-2.65,1.51,1.51,0,0,1-.38-1.08,1.5,1.5,0,0,1,2.61-.92,25.88,25.88,0,0,0,2.43,2.37c.57.49,1.17,1,1.79,1.4a1.46,1.46,0,0,1,.56.75,1.48,1.48,0,0,1,0,.93,1.46,1.46,0,0,1-.54.75A1.5,1.5,0,0,1,445.77,372.23Zm45-3.35a1.5,1.5,0,0,1-.89-.29,1.55,1.55,0,0,1-.54-.76,1.5,1.5,0,0,1,.57-1.68,52.87,52.87,0,0,0,4.57-3.61,1.22,1.22,0,0,1,.5-.3,1.63,1.63,0,0,1,.58-.08,1.42,1.42,0,0,1,.57.15,1.75,1.75,0,0,1,.46.35,1.63,1.63,0,0,1,.3.51,1.6,1.6,0,0,1,.08.58,1.33,1.33,0,0,1-.15.56,1.65,1.65,0,0,1-.35.47,55.73,55.73,0,0,1-4.84,3.83A1.46,1.46,0,0,1,490.81,368.88Zm-54.69-11.26a1.52,1.52,0,0,1-1-.37,1.47,1.47,0,0,1-.49-.93,16.41,16.41,0,0,1-.15-2.21,15.9,15.9,0,0,1,.6-4.34,1.48,1.48,0,0,1,.72-.9,1.51,1.51,0,0,1,1.14-.13,1.55,1.55,0,0,1,.9.71,1.53,1.53,0,0,1,.13,1.15,12.61,12.61,0,0,0-.49,3.51,13.79,13.79,0,0,0,.12,1.82,1.26,1.26,0,0,1,0,.58,1.54,1.54,0,0,1-.26.53,1.46,1.46,0,0,1-.44.38,1.57,1.57,0,0,1-.55.19Zm26.53-.21a1.5,1.5,0,0,1-.81-.24,1.46,1.46,0,0,1-.55-.63,29.17,29.17,0,0,0-2.86-4.93,1.5,1.5,0,0,1,2.43-1.76,33,33,0,0,1,3.16,5.43,1.53,1.53,0,0,1,.13.73,1.61,1.61,0,0,1-.23.71,1.68,1.68,0,0,1-.55.51A1.51,1.51,0,0,1,462.65,357.41Zm-12-12.85a1.36,1.36,0,0,1-.56-.11,9.43,9.43,0,0,0-5.06-.66,1.51,1.51,0,0,1-1.73-1.23,1.52,1.52,0,0,1,.26-1.12,1.49,1.49,0,0,1,1-.61,12.43,12.43,0,0,1,6.68.84,1.46,1.46,0,0,1,.75.68,1.49,1.49,0,0,1-1.32,2.21Z"/><path class="cls-52" d="M475.83,19.15c-2.55-.34-15,5.36-11.68,18.76,3.37,13.57,5.56,21.59,2.72,25.85-1,1.49,14.8,1.27,20.28-13.52C493.08,34.25,482.72,20.06,475.83,19.15Z"/><g class="cls-53"><path class="cls-54" d="M477.05,19.44c-.45,10.9,3,21.85-1.3,32.48A32.46,32.46,0,0,1,467,64.12c1.74,1,15.17-.47,20.14-13.88C492.73,35.18,483.86,21.71,477.05,19.44Z"/></g><g class="cls-55"><path class="cls-56" d="M470.33,41a29.53,29.53,0,0,1-.89-6.21c-.06-1.88-3.06-1.91-3,0a33.75,33.75,0,0,0,1,7C467.91,43.72,470.8,42.89,470.33,41Z"/></g><g class="cls-55"><path class="cls-56" d="M472.12,47.44l-.34-1.83c-.33-1.83-3.4-1.09-2.89.8.11.61.22,1.22.34,1.82C469.56,50.06,472.63,49.33,472.12,47.44Z"/></g><path class="cls-57" d="M440.38,24.79c.44.76,10.66,1.06,17.43-2.64s7.71-10,7.27-10.42-7.63-2.63-14.94,1.43S440.13,24.36,440.38,24.79Z"/><path class="cls-58" d="M453.3,16.23a97.48,97.48,0,0,1,10.26-5,19.23,19.23,0,0,0-13.42,2c-7,3.86-9.73,10.5-9.77,11.5C444.14,21.17,448.79,18.76,453.3,16.23Z"/><g class="cls-55"><path class="cls-59" d="M450.68,22.93a28.11,28.11,0,0,0,5-2.18c1.25-.69.14-2.65-1.14-1.94a24.58,24.58,0,0,1-4.5,2C448.71,21.2,449.3,23.38,450.68,22.93Z"/></g><g class="cls-55"><path class="cls-59" d="M460.19,17.14a.88.88,0,0,0-.17-.57.89.89,0,0,0-.48-.35c-.9-.38-1.77.58-2.32,1.14-1,1,.56,2.62,1.6,1.6C459.33,18.44,460.13,17.94,460.19,17.14Z"/></g><path class="cls-60" d="M24.66,477.77c2.55.34,15-5.36,11.68-18.76-3.37-13.57-5.56-21.58-2.72-25.85,1-1.49-14.8-1.27-20.28,13.53C7.41,462.67,17.77,476.86,24.66,477.77Z"/><g class="cls-53"><path class="cls-54" d="M23.44,477.48c.45-10.9-3-21.85,1.3-32.48a32.46,32.46,0,0,1,8.74-12.2c-1.74-1-15.17.48-20.14,13.89C7.75,461.75,16.63,475.21,23.44,477.48Z"/></g><g class="cls-55"><path class="cls-56" d="M30.16,455.89a29.63,29.63,0,0,1,.89,6.21c.06,1.88,3.06,1.92,3,0a33.94,33.94,0,0,0-1-7C32.58,453.2,29.69,454,30.16,455.89Z"/></g><g class="cls-55"><path class="cls-56" d="M28.37,449.48c.11.61.22,1.22.34,1.83.33,1.83,3.4,1.09,2.89-.8l-.34-1.82C30.93,446.87,27.86,447.59,28.37,449.48Z"/></g><path class="cls-61" d="M60.11,472.14c-.44-.77-10.66-1.07-17.43,2.63s-7.71,10-7.27,10.42,7.63,2.63,14.94-1.43S60.36,472.56,60.11,472.14Z"/><g class="cls-62"><path class="cls-63" d="M47.19,480.69a95.57,95.57,0,0,1-10.26,5,19.24,19.24,0,0,0,13.42-2c7-3.87,9.73-10.51,9.77-11.51C56.34,475.75,51.7,478.17,47.19,480.69Z"/></g><g class="cls-55"><path class="cls-59" d="M49.81,474a28.11,28.11,0,0,0-5,2.18c-1.25.69-.14,2.65,1.14,1.94a25.29,25.29,0,0,1,4.5-1.95C51.78,475.72,51.19,473.55,49.81,474Z"/></g><g class="cls-55"><path class="cls-59" d="M40.3,479.78a1,1,0,0,0,.16.58,1,1,0,0,0,.49.34c.89.39,1.77-.57,2.31-1.14,1-1-.55-2.62-1.59-1.59C41.16,478.48,40.36,479,40.3,479.78Z"/></g><path class="cls-64" d="M178,215.72c-2.1-2.1-1.8-4.81-1-7.51a5.1,5.1,0,0,0,.15-3,14,14,0,0,0-6.76-7.06c-8.72-4.06-18.34-2.41-24.35,5.26a71.51,71.51,0,0,0-8.27,13.83c-3,6.31-7.21,11.12-13.07,14-8.42-7.51-13.68-18.48-13.68-28.4,0-15.18,33.67-27.21,50.05-30.06,4.36-.75,9-2.11,10.07-6.47a10.72,10.72,0,0,0-4.81-11.57l-2.41-1.5a10.9,10.9,0,0,0-6.46-1.66c-27,1.81-71.09,22-71.09,49.45,0,25.4,18.19,51.41,42.24,57.12a46.59,46.59,0,0,0,10.52,1.95c11.12.75,20.89-2.55,28.25-11.27,7.52-9,10.22-19.84,11.28-31.26A2.41,2.41,0,0,0,178,215.72ZM160.85,229a18.91,18.91,0,0,1-11.72,12.62c-1.21.45-2.41.91-3.76,1.36l1.2-2.71a32.45,32.45,0,0,1-18.49-6.16c1.51-1.35,3-2.86,4.51-4.36,4.21-3.76,8.12-8,12.78-11.57a11,11,0,0,1,10.52-2C160.85,217.68,162.65,222.94,160.85,229Zm11-21.49a2.74,2.74,0,0,1-1.8-1.81c0-.75.9-1.65,1.8-2.85,1.05,1.35,1.81,2.1,2,3C173.77,206.4,172.42,207.61,171.82,207.46Z"/><path class="cls-65" d="M185.8,210.31l-7.52,3.31c-.15-2.26-.15-4.06-.3-6.62Z"/><path class="cls-66" d="M110.35,242.93a41.62,41.62,0,0,0,7.06-3,101.5,101.5,0,0,0,11.88-9.32c5.41-5,10.07-11,17-14a17,17,0,0,1,8.57-1.35,8.08,8.08,0,0,1,7.06,9v.3c-.9,8.87-6,14.28-14,17.59-8.41,3.3-17.13,3.3-25.85,2.55-3.91-.3-7.66-.75-11.42-1.2Z"/><path class="cls-67" d="M326.18,235.86h11.87V189.12l-11.87.9V171.68a45.7,45.7,0,0,0,13.38-2.4,55,55,0,0,0,14-6.91h14.88v73.49h11.88V256.6h-54Z"/><path class="cls-68" d="M298.37,210.61c0,29.31-24,52.91-53.65,52.91s-53.66-23.6-53.66-52.91,24.05-52.9,53.66-52.9a53.17,53.17,0,0,1,53.65,52.6Zm-29.15,0a24.58,24.58,0,1,0-25,24.2h.45a24.32,24.32,0,0,0,24.5-24.05Z"/><path class="cls-69" d="M375.48,326.79h-175c-8.05,0-14.43-6.91-14.43-15.63V285.31c0-8.72,6.38-15.63,14.43-15.63h175.1c8.05,0,14.42,6.91,14.42,15.63v25.85C390.21,319.88,383.52,326.79,375.48,326.79Z"/><path class="cls-1" d="M247.1,283.82v28.6h-8V296.64l-5.39,15.78h-6.66l-5.44-15.9v15.9h-8v-28.6h9.62l7.18,18.58,7-18.58Zm3.23,17.2a14.34,14.34,0,0,1,1.25-6.17,9.94,9.94,0,0,1,3.49-4.05,9,9,0,0,1,4.95-1.42,8.34,8.34,0,0,1,4.06.93,6.73,6.73,0,0,1,2.64,2.51v-3.16h7.95v22.76h-7.95v-3.16a6.66,6.66,0,0,1-2.68,2.52,8.23,8.23,0,0,1-4,.93,9.1,9.1,0,0,1-4.95-1.42,10,10,0,0,1-3.49-4.06A14.55,14.55,0,0,1,250.33,301Zm16.39,0a4.72,4.72,0,0,0-1.22-3.45,3.83,3.83,0,0,0-2.92-1.26,3.87,3.87,0,0,0-3,1.26,4.73,4.73,0,0,0-1.18,3.45,5,5,0,0,0,1.18,3.49,3.87,3.87,0,0,0,3,1.26,3.83,3.83,0,0,0,2.92-1.26A4.77,4.77,0,0,0,266.72,301Zm20.44-7.34a10.38,10.38,0,0,1,3.25-3.09,7.84,7.84,0,0,1,4.1-1.13v8.48h-2.24a6.11,6.11,0,0,0-3.85,1,4.3,4.3,0,0,0-1.26,3.53v9.94h-8V289.66h8Zm24.44,18.74-6.29-9.33v9.33h-7.95v-30h7.95v16.2l6.29-8.93h9.54l-9,11.44,9.13,11.32Zm33.78-11.64a14.52,14.52,0,0,1-.12,1.86H330.21a4.4,4.4,0,0,0,1,2.81,3.29,3.29,0,0,0,2.36.89,2.93,2.93,0,0,0,2.84-1.79h8.48a9.89,9.89,0,0,1-2.07,4.22,10.44,10.44,0,0,1-3.82,2.88,12,12,0,0,1-5.11,1.06,12.55,12.55,0,0,1-6-1.42,10.37,10.37,0,0,1-4.09-4.06,12.56,12.56,0,0,1-1.47-6.21,12.33,12.33,0,0,1,1.47-6.17,10.06,10.06,0,0,1,4.05-4.05,12.54,12.54,0,0,1,6-1.42,12.39,12.39,0,0,1,6,1.38,9.77,9.77,0,0,1,4.06,4A11.94,11.94,0,0,1,345.38,300.78Zm-8.11-2a2.8,2.8,0,0,0-1-2.27,3.55,3.55,0,0,0-2.43-.85,3.51,3.51,0,0,0-2.4.81,3.74,3.74,0,0,0-1.21,2.31Zm24.8,6.86v6.77h-3.45q-8.73,0-8.72-8.64v-7.51h-2.8v-6.61h2.8v-5.52h8v5.52H362v6.61h-4.14v7.63a1.85,1.85,0,0,0,.41,1.34,2.14,2.14,0,0,0,1.46.41Z"/></g></svg>