<svg id="Layer_1" data-name="Layer 1" xmlns="http://www.w3.org/2000/svg" viewBox="0 0 46.77 31.84">
  <defs>
    <style>
      .cls-1 {
        fill: #fff;
      }
    </style>
  </defs>
  <title>ihg-industry-logo-dark</title>
  <g>
    <rect x="8.59" y="1.02" width="29.58" height="27.33"/>
    <g>
      <g>
        <rect class="cls-1" x="11.98" y="9.52" width="3.09" height="10.06"/>
        <polygon class="cls-1" points="24.79 9.52 24.79 19.58 21.7 19.58 21.7 15.67 19.34 15.67 19.34 19.58 16.25 19.58 16.25 9.52 19.34 9.52 19.34 13.22 21.7 13.22 21.7 9.52 24.79 9.52"/>
        <path class="cls-1" d="M34.79,13.8v5.78H33.28a6.48,6.48,0,0,0-.41-1.08,3.24,3.24,0,0,1-2.77,1.24,4.09,4.09,0,0,1-3.2-1.39,5.41,5.41,0,0,1-1.25-3.77,6.18,6.18,0,0,1,1.21-3.89,4.27,4.27,0,0,1,3.61-1.57,4.31,4.31,0,0,1,2.89.93,4.44,4.44,0,0,1,1.43,2.66l-3,.3c-.14-1.07-.6-1.6-1.38-1.6-1,0-1.51,1-1.51,2.95a3.94,3.94,0,0,0,.48,2.36,1.51,1.51,0,0,0,1.18.57,1.41,1.41,0,0,0,1-.34,1.26,1.26,0,0,0,.4-.95H30.25V13.8Z"/>
      </g>
      <g>
        <path class="cls-1" d="M12,24.24v-3h.63v3Z"/>
        <path class="cls-1" d="M15.34,24.24l-1.29-2v2h-.59v-3h.67l1.2,1.94V21.23h.59v3Z"/>
        <path class="cls-1" d="M16.7,24.24v-3h1.16a1.52,1.52,0,0,1,.57.1,1.35,1.35,0,0,1,.44.29,1.39,1.39,0,0,1,.29.47,1.66,1.66,0,0,1,.1.61,2.08,2.08,0,0,1-.09.63,1.55,1.55,0,0,1-.27.49,1.14,1.14,0,0,1-.41.31,1.17,1.17,0,0,1-.53.11Zm1.13-.51a.69.69,0,0,0,.6-.26,1.32,1.32,0,0,0,.19-.77,1.75,1.75,0,0,0-.05-.43.71.71,0,0,0-.15-.3.59.59,0,0,0-.26-.17,1.35,1.35,0,0,0-.38-.05h-.47v2Z"/>
        <path class="cls-1" d="M21.77,21.23h.64v2a1,1,0,0,1-.32.83,1.38,1.38,0,0,1-.92.28,1.28,1.28,0,0,1-.86-.27,1,1,0,0,1-.32-.8V21.23h.64v2a.63.63,0,0,0,.14.44.48.48,0,0,0,.4.16c.4,0,.6-.19.6-.58Z"/>
        <path class="cls-1" d="M25,22.12a.48.48,0,0,0-.16-.35.77.77,0,0,0-.44-.11c-.36,0-.54.12-.54.37a.26.26,0,0,0,.12.22.77.77,0,0,0,.35.14l.51.13a3.54,3.54,0,0,1,.39.14,1,1,0,0,1,.18.1.54.54,0,0,1,.15.15.55.55,0,0,1,.1.22.93.93,0,0,1,0,.31.79.79,0,0,1-.09.38.78.78,0,0,1-.25.29,1.21,1.21,0,0,1-.36.18,1.89,1.89,0,0,1-1.43-.2.93.93,0,0,1-.35-.75h.61a.4.4,0,0,0,.19.36.74.74,0,0,0,.46.14.78.78,0,0,0,.45-.11.35.35,0,0,0,.16-.3.59.59,0,0,0,0-.13.26.26,0,0,0-.07-.11l-.15-.09L24.64,23l-.6-.15a1.43,1.43,0,0,1-.41-.18.76.76,0,0,1-.24-.27.83.83,0,0,1-.08-.41.84.84,0,0,1,.07-.35.69.69,0,0,1,.2-.28,1.17,1.17,0,0,1,.35-.19,1.45,1.45,0,0,1,.49-.07,1.49,1.49,0,0,1,.49.07,1,1,0,0,1,.37.2.84.84,0,0,1,.25.31,1.07,1.07,0,0,1,.09.41Z"/>
        <path class="cls-1" d="M27.12,24.24V21.76h-.91v-.53h2.46v.53h-.92v2.48Z"/>
        <path class="cls-1" d="M31,24.24v-.77a.39.39,0,0,0-.1-.31.5.5,0,0,0-.37-.1h-.67v1.18h-.61v-3h1.53a1.16,1.16,0,0,1,.38.06,1,1,0,0,1,.29.19.88.88,0,0,1,.19.27,1,1,0,0,1,.06.35.86.86,0,0,1-.11.43.61.61,0,0,1-.34.27.53.53,0,0,1,.29.19.83.83,0,0,1,.08.4v.85Zm-1.14-2.49v.8h.79a.46.46,0,0,0,.36-.11.41.41,0,0,0,.1-.29.43.43,0,0,0-.1-.29.46.46,0,0,0-.34-.11Z"/>
        <path class="cls-1" d="M33.15,24.24V23.1l-1-1.87h.74l.63,1.22.59-1.22h.73l-1,1.88v1.13Z"/>
      </g>
    </g>
    <g>
      <path d="M8.59,29.5h.57a.87.87,0,0,1,.37.08.56.56,0,0,1,.25.23.69.69,0,0,1,0,.68.62.62,0,0,1-.25.23.87.87,0,0,1-.37.08H8.59Zm.56,1.09a.51.51,0,0,0,.25-.05.44.44,0,0,0,.17-.16.41.41,0,0,0,.06-.23.48.48,0,0,0-.06-.24.41.41,0,0,0-.17-.15.51.51,0,0,0-.25-.06H8.83v.89Z"/>
      <path d="M11.34,30.59v.21h-1V29.5h1v.2h-.7V30h.62v.2h-.62v.35Z"/>
      <path d="M12,30.77a.5.5,0,0,1-.22-.11l.08-.19a.75.75,0,0,0,.2.11.85.85,0,0,0,.23,0,.42.42,0,0,0,.22-.05.15.15,0,0,0,.07-.12.18.18,0,0,0,0-.1.31.31,0,0,0-.1-.05l-.17-.05L12,30.18a.36.36,0,0,1-.16-.11.32.32,0,0,1-.07-.2.36.36,0,0,1,.06-.2.44.44,0,0,1,.18-.14.79.79,0,0,1,.29-.05.85.85,0,0,1,.23,0,.93.93,0,0,1,.2.08l-.08.19a.51.51,0,0,0-.17-.07l-.18,0a.42.42,0,0,0-.22.05.16.16,0,0,0-.07.13A.18.18,0,0,0,12,30l.1.05.17.05.24.07a.42.42,0,0,1,.16.11.32.32,0,0,1,.06.2.38.38,0,0,1,0,.19.37.37,0,0,1-.18.14.65.65,0,0,1-.29.06A.93.93,0,0,1,12,30.77Z"/>
      <path d="M13.25,29.5h.24v1.3h-.24Z"/>
      <path d="M15,30.13h.23v.52a.9.9,0,0,1-.24.12.86.86,0,0,1-.27.05.74.74,0,0,1-.36-.09.64.64,0,0,1-.25-.24.67.67,0,0,1-.09-.34.7.7,0,0,1,.09-.35.56.56,0,0,1,.25-.23.74.74,0,0,1,.36-.09.94.94,0,0,1,.3.05.6.6,0,0,1,.22.16l-.15.15a.49.49,0,0,0-.36-.15.48.48,0,0,0-.24.06.44.44,0,0,0-.17.16.48.48,0,0,0-.06.24.46.46,0,0,0,.23.4.6.6,0,0,0,.24.05.6.6,0,0,0,.27-.06Z"/>
      <path d="M16.91,29.5v1.3h-.2L16,29.92v.88h-.24V29.5H16l.72.88V29.5Z"/>
      <path d="M18.19,30h.51v.2h-.51Z"/>
      <path d="M21.08,30.24a.33.33,0,0,1,.06.21.3.3,0,0,1-.13.26.67.67,0,0,1-.38.09H20V29.5h.61a.62.62,0,0,1,.36.09.29.29,0,0,1,.12.25A.33.33,0,0,1,21,30a.32.32,0,0,1-.12.11A.41.41,0,0,1,21.08,30.24Zm-.85-.55v.36h.34a.33.33,0,0,0,.19-.05.14.14,0,0,0,.07-.13.15.15,0,0,0-.07-.14.34.34,0,0,0-.19,0Zm.67.73c0-.12-.1-.19-.28-.19h-.39v.38h.39C20.8,30.61,20.9,30.55,20.9,30.42Z"/>
      <path d="M21.77,30.67a.62.62,0,0,1-.15-.44V29.5h.24v.72c0,.26.11.38.34.38s.32-.12.32-.38V29.5h.24v.73a.62.62,0,0,1-.15.44.66.66,0,0,1-.84,0Z"/>
      <path d="M23.34,29.5h.24v1.3h-.24Z"/>
      <path d="M24.17,29.5h.24v1.09h.68v.21h-.92Z"/>
      <path d="M25.52,29.5h.57a.91.91,0,0,1,.37.08.61.61,0,0,1,.25.23.69.69,0,0,1,0,.68.69.69,0,0,1-.25.23.91.91,0,0,1-.37.08h-.57Zm.55,1.09a.55.55,0,0,0,.26-.05.44.44,0,0,0,.22-.39.48.48,0,0,0-.06-.24.39.39,0,0,0-.16-.15.55.55,0,0,0-.26-.06h-.31v.89Z"/>
      <path d="M28,30h.52v.2H28Z"/>
      <path d="M29,29.5h.24v1.3H29Z"/>
      <path d="M31,29.5v1.3h-.2l-.71-.88v.88h-.24V29.5h.2l.71.88V29.5Z"/>
      <path d="M31.71,30.77a.65.65,0,0,1-.22-.11l.08-.19a1,1,0,0,0,.2.11,1,1,0,0,0,.23,0,.42.42,0,0,0,.22-.05.13.13,0,0,0,.07-.12.13.13,0,0,0,0-.1.31.31,0,0,0-.1-.05L32,30.25l-.24-.07a.42.42,0,0,1-.16-.11.32.32,0,0,1-.06-.2.36.36,0,0,1,.06-.2.47.47,0,0,1,.17-.14.84.84,0,0,1,.29-.05,1,1,0,0,1,.24,0l.19.08-.07.19a.67.67,0,0,0-.18-.07.57.57,0,0,0-.18,0,.38.38,0,0,0-.21.05.14.14,0,0,0-.07.13.12.12,0,0,0,0,.09l.1.05.17.05.23.07a.31.31,0,0,1,.16.11.27.27,0,0,1,.07.2.31.31,0,0,1-.06.19.37.37,0,0,1-.18.14.62.62,0,0,1-.29.06A1,1,0,0,1,31.71,30.77Z"/>
      <path d="M33.25,29.7h-.43v-.2h1.1v.2h-.43v1.1h-.24Z"/>
      <path d="M35.12,30.5h-.65l-.13.3h-.25l.59-1.3h.24l.58,1.3h-.25ZM35,30.31l-.24-.57-.25.57Z"/>
      <path d="M35.91,29.5h.24v1.09h.68v.21h-.92Z"/>
      <path d="M37.26,29.5h.24v1.09h.68v.21h-.92Z"/>
    </g>
  </g>
</svg>
