<svg id="Layer_1" data-name="Layer 1" xmlns="http://www.w3.org/2000/svg" xmlns:xlink="http://www.w3.org/1999/xlink" viewBox="0 0 21 14"><defs><style>.cls-1{fill:none;}.cls-2{clip-path:url(#clip-path);}</style><clipPath id="clip-path"><rect class="cls-1" x="0.16" width="20.07" height="13.9"/></clipPath></defs><title>menu</title><g class="cls-2"><path d="M10.17,6.59H1.1a1.71,1.71,0,0,1-.32,0,.78.78,0,0,1-.46-.29.72.72,0,0,1-.16-.52.73.73,0,0,1,.23-.5.77.77,0,0,1,.5-.22H19.3a1.1,1.1,0,0,1,.31,0,.72.72,0,0,1,.46.28.76.76,0,0,1,.15.52.77.77,0,0,1-.22.5.79.79,0,0,1-.5.22H10.17Z"/><path d="M7.6,1.54H1a.77.77,0,0,1-.3,0,.68.68,0,0,1-.26-.15.71.71,0,0,1-.19-.23A.74.74,0,0,1,.16.84a.73.73,0,0,1,0-.3A.72.72,0,0,1,.34.27.84.84,0,0,1,.58.09.75.75,0,0,1,.87,0H14.13a1.83,1.83,0,0,1,.33,0,.75.75,0,0,1,.46.29.73.73,0,0,1,.15.53.79.79,0,0,1-.24.5.79.79,0,0,1-.51.2c-.51,0-1,0-1.54,0Z"/><path d="M5.57,11.64H1a.84.84,0,0,1-.31-.05,1.06,1.06,0,0,1-.26-.17,1,1,0,0,1-.18-.26.61.61,0,0,1,0-.3.81.81,0,0,1,.06-.31A.88.88,0,0,1,.4,10.3a.74.74,0,0,1,.27-.16.65.65,0,0,1,.31,0h9.14a.75.75,0,0,1,.68.3.82.82,0,0,1,.15.36.75.75,0,0,1,0,.39.79.79,0,0,1-.78.49Z"/></g></svg>