<svg width="186" height="136" viewBox="0 0 186 136" fill="none" xmlns="http://www.w3.org/2000/svg">
<path d="M151.648 58.7265C151.648 71.9542 147.219 84.3837 139.837 94.1904C135.748 99.5499 130.865 104.225 125.187 107.874C116.101 113.918 105.086 117.339 93.3883 117.339C61.2491 117.453 35.1289 91.2256 35.1289 58.7265C35.1289 26.3414 61.1355 0 93.3883 0C105.086 0 115.988 3.42096 125.187 9.46466C130.865 13.1137 135.748 17.789 139.837 23.1485C147.219 33.0693 151.648 45.3847 151.648 58.7265Z" fill="#EAEEF9"/>
<path d="M49.02 50.8743H48.3167C47.7892 50.8743 47.4375 50.7102 47.4375 50.464C47.4375 50.2178 47.7892 50.0537 48.3167 50.0537H49.02C49.5475 50.0537 49.8992 50.2178 49.8992 50.464C49.8992 50.7102 49.5475 50.8743 49.02 50.8743Z" fill="#2D5887"/>
<path d="M49.02 54.1565H48.3167C47.7892 54.1565 47.4375 53.9924 47.4375 53.7462C47.4375 53.5 47.7892 53.3359 48.3167 53.3359H49.02C49.5475 53.3359 49.8992 53.5 49.8992 53.7462C49.8992 53.9924 49.5475 54.1565 49.02 54.1565Z" fill="#2D5887"/>
<path d="M49.02 57.4387H48.3167C47.7892 57.4387 47.4375 57.2746 47.4375 57.0284C47.4375 56.7823 47.7892 56.6182 48.3167 56.6182H49.02C49.5475 56.6182 49.8992 56.7823 49.8992 57.0284C49.8992 57.2746 49.5475 57.4387 49.02 57.4387Z" fill="#2D5887"/>
<path d="M49.02 60.7209H48.3167C47.7892 60.7209 47.4375 60.5568 47.4375 60.3107C47.4375 60.0645 47.7892 59.9004 48.3167 59.9004H49.02C49.5475 59.9004 49.8992 60.0645 49.8992 60.3107C49.8992 60.5568 49.5475 60.7209 49.02 60.7209Z" fill="#2D5887"/>
<path d="M81.1208 50.8743H69.5549C69.086 50.8743 68.7734 50.7102 68.7734 50.464C68.7734 50.2178 69.086 50.0537 69.5549 50.0537H81.1208C81.5897 50.0537 81.9023 50.2178 81.9023 50.464C81.9023 50.7102 81.5897 50.8743 81.1208 50.8743Z" fill="white"/>
<path d="M105.764 60.7209H69.5283C69.0754 60.7209 68.7734 60.5568 68.7734 60.3107C68.7734 60.0645 69.0754 59.9004 69.5283 59.9004H105.764C106.217 59.9004 106.519 60.0645 106.519 60.3107C106.519 60.5568 106.217 60.7209 105.764 60.7209Z" fill="url(#paint0_linear_443_29637)"/>
<path d="M81.1632 54.1565H65.4044C64.9625 54.1565 64.668 53.9924 64.668 53.7462C64.668 53.5 64.9625 53.3359 65.4044 53.3359H81.1632C81.6051 53.3359 81.8996 53.5 81.8996 53.7462C81.8996 53.9924 81.6051 54.1565 81.1632 54.1565Z" fill="#2D5887"/>
<path d="M93.4731 57.4387H65.4028C64.9619 57.4387 64.668 57.2746 64.668 57.0284C64.668 56.7823 64.9619 56.6182 65.4028 56.6182H93.4731C93.914 56.6182 94.2079 56.7823 94.2079 57.0284C94.061 57.2746 93.767 57.4387 93.4731 57.4387Z" fill="#2D5887"/>
<path d="M105.716 57.4387H95.0063C94.5267 57.4387 94.207 57.2746 94.207 57.0284C94.207 56.7823 94.5267 56.6182 95.0063 56.6182H105.716C106.196 56.6182 106.515 56.7823 106.515 57.0284C106.515 57.2746 106.196 57.4387 105.716 57.4387Z" fill="white"/>
<path d="M112.304 57.4387H108.112C107.646 57.4387 107.336 57.2746 107.336 57.0284C107.336 56.7823 107.646 56.6182 108.112 56.6182H112.304C112.769 56.6182 113.08 56.7823 113.08 57.0284C113.08 57.2746 112.769 57.4387 112.304 57.4387Z" fill="url(#paint1_linear_443_29637)"/>
<path d="M22 102.569H159.853" stroke="#D6DEE8" stroke-width="2" stroke-miterlimit="10" stroke-linecap="round" stroke-linejoin="round"/>
<g filter="url(#filter0_d_443_29637)">
<path d="M118.824 50.0537V102.569H44.3703C41.4332 102.569 39.2305 100.209 39.2305 97.4062V50.0537H118.824Z" fill="white"/>
</g>
<path d="M148.364 50.0537V97.4062C148.364 100.356 145.915 102.569 143.007 102.569H118.824V50.0537H148.364Z" fill="#DAE1ED"/>
<g filter="url(#filter1_d_443_29637)">
<path d="M148.364 50.0537V97.4062C148.364 100.356 145.915 102.569 143.007 102.569H118.824V50.0537H148.364Z" fill="#E7EAF4"/>
</g>
<path d="M67.9492 50.0541L83.6054 25.4375H163.954L147.855 50.0541H67.9492Z" fill="#C5CDDB"/>
<g filter="url(#filter2_d_443_29637)">
<path d="M67.9492 50.0541L83.6054 25.4375H163.954L147.855 50.0541H67.9492Z" fill="url(#paint2_linear_443_29637)"/>
</g>
<path opacity="0.3" d="M148.364 50.1975V77.9526H126.825C124.825 77.9526 123.44 76.6583 123.132 74.7888L118.824 50.0537L148.364 50.1975Z" fill="url(#paint3_linear_443_29637)"/>
<g filter="url(#filter3_d_443_29637)">
<path d="M147.745 50.0537H118.824L133.509 72.3119C134.558 73.7859 136.207 74.6704 137.855 74.6704H160.333C161.831 74.6704 162.88 72.9015 161.981 71.7223L147.745 50.0537Z" fill="url(#paint4_linear_443_29637)"/>
</g>
<g filter="url(#filter4_d_443_29637)">
<path d="M118.825 50.0541L103.06 25.4375H22L38.3607 50.0541H118.825Z" fill="#E7EAF4"/>
</g>
<path d="M78.9548 80.4148H47.9223C47.1972 80.4148 46.6172 79.8678 46.6172 79.184C46.6172 78.5002 47.1972 77.9531 47.9223 77.9531H78.9548C79.6799 77.9531 80.2599 78.5002 80.2599 79.184C80.1149 79.8678 79.6799 80.4148 78.9548 80.4148Z" fill="#DAE1ED"/>
<path d="M78.9548 86.1587H47.9223C47.1972 86.1587 46.6172 85.794 46.6172 85.3381C46.6172 84.8823 47.1972 84.5176 47.9223 84.5176H78.9548C79.6799 84.5176 80.2599 84.8823 80.2599 85.3381C80.1149 85.794 79.6799 86.1587 78.9548 86.1587Z" fill="#DAE1ED"/>
<path d="M62.5233 92.7231H47.9427C47.2063 92.7231 46.6172 92.3584 46.6172 91.9026C46.6172 91.4467 47.2063 91.082 47.9427 91.082H62.5233C63.2597 91.082 63.8488 91.4467 63.8488 91.9026C63.7016 92.3584 63.1124 92.7231 62.5233 92.7231Z" fill="#DAE1ED"/>
<defs>
<filter id="filter0_d_443_29637" x="17.2305" y="39.0537" width="123.594" height="96.5156" filterUnits="userSpaceOnUse" color-interpolation-filters="sRGB">
<feFlood flood-opacity="0" result="BackgroundImageFix"/>
<feColorMatrix in="SourceAlpha" type="matrix" values="0 0 0 0 0 0 0 0 0 0 0 0 0 0 0 0 0 0 127 0" result="hardAlpha"/>
<feOffset dy="11"/>
<feGaussianBlur stdDeviation="11"/>
<feColorMatrix type="matrix" values="0 0 0 0 0.397708 0 0 0 0 0.47749 0 0 0 0 0.575 0 0 0 0.27 0"/>
<feBlend mode="normal" in2="BackgroundImageFix" result="effect1_dropShadow_443_29637"/>
<feBlend mode="normal" in="SourceGraphic" in2="effect1_dropShadow_443_29637" result="shape"/>
</filter>
<filter id="filter1_d_443_29637" x="96.8242" y="39.0537" width="73.5391" height="96.5156" filterUnits="userSpaceOnUse" color-interpolation-filters="sRGB">
<feFlood flood-opacity="0" result="BackgroundImageFix"/>
<feColorMatrix in="SourceAlpha" type="matrix" values="0 0 0 0 0 0 0 0 0 0 0 0 0 0 0 0 0 0 127 0" result="hardAlpha"/>
<feOffset dy="11"/>
<feGaussianBlur stdDeviation="11"/>
<feColorMatrix type="matrix" values="0 0 0 0 0.397708 0 0 0 0 0.47749 0 0 0 0 0.575 0 0 0 0.27 0"/>
<feBlend mode="normal" in2="BackgroundImageFix" result="effect1_dropShadow_443_29637"/>
<feBlend mode="normal" in="SourceGraphic" in2="effect1_dropShadow_443_29637" result="shape"/>
</filter>
<filter id="filter2_d_443_29637" x="45.9492" y="14.4375" width="140.004" height="68.6162" filterUnits="userSpaceOnUse" color-interpolation-filters="sRGB">
<feFlood flood-opacity="0" result="BackgroundImageFix"/>
<feColorMatrix in="SourceAlpha" type="matrix" values="0 0 0 0 0 0 0 0 0 0 0 0 0 0 0 0 0 0 127 0" result="hardAlpha"/>
<feOffset dy="11"/>
<feGaussianBlur stdDeviation="11"/>
<feColorMatrix type="matrix" values="0 0 0 0 0.397708 0 0 0 0 0.47749 0 0 0 0 0.575 0 0 0 0.27 0"/>
<feBlend mode="normal" in2="BackgroundImageFix" result="effect1_dropShadow_443_29637"/>
<feBlend mode="normal" in="SourceGraphic" in2="effect1_dropShadow_443_29637" result="shape"/>
</filter>
<filter id="filter3_d_443_29637" x="96.8242" y="39.0537" width="87.4883" height="68.6162" filterUnits="userSpaceOnUse" color-interpolation-filters="sRGB">
<feFlood flood-opacity="0" result="BackgroundImageFix"/>
<feColorMatrix in="SourceAlpha" type="matrix" values="0 0 0 0 0 0 0 0 0 0 0 0 0 0 0 0 0 0 127 0" result="hardAlpha"/>
<feOffset dy="11"/>
<feGaussianBlur stdDeviation="11"/>
<feColorMatrix type="matrix" values="0 0 0 0 0.397708 0 0 0 0 0.47749 0 0 0 0 0.575 0 0 0 0.27 0"/>
<feBlend mode="normal" in2="BackgroundImageFix" result="effect1_dropShadow_443_29637"/>
<feBlend mode="normal" in="SourceGraphic" in2="effect1_dropShadow_443_29637" result="shape"/>
</filter>
<filter id="filter4_d_443_29637" x="0" y="14.4375" width="140.824" height="68.6162" filterUnits="userSpaceOnUse" color-interpolation-filters="sRGB">
<feFlood flood-opacity="0" result="BackgroundImageFix"/>
<feColorMatrix in="SourceAlpha" type="matrix" values="0 0 0 0 0 0 0 0 0 0 0 0 0 0 0 0 0 0 127 0" result="hardAlpha"/>
<feOffset dy="11"/>
<feGaussianBlur stdDeviation="11"/>
<feColorMatrix type="matrix" values="0 0 0 0 0.397708 0 0 0 0 0.47749 0 0 0 0 0.575 0 0 0 0.27 0"/>
<feBlend mode="normal" in2="BackgroundImageFix" result="effect1_dropShadow_443_29637"/>
<feBlend mode="normal" in="SourceGraphic" in2="effect1_dropShadow_443_29637" result="shape"/>
</filter>
<linearGradient id="paint0_linear_443_29637" x1="68.943" y1="60.3273" x2="106.563" y2="60.3273" gradientUnits="userSpaceOnUse">
<stop stop-color="#FF66A9"/>
<stop offset="1" stop-color="#F53689"/>
</linearGradient>
<linearGradient id="paint1_linear_443_29637" x1="107.374" y1="57.0033" x2="113.079" y2="57.0033" gradientUnits="userSpaceOnUse">
<stop stop-color="#83A6FF"/>
<stop offset="1" stop-color="#5A78FF"/>
</linearGradient>
<linearGradient id="paint2_linear_443_29637" x1="115.92" y1="24.8681" x2="115.92" y2="50.3195" gradientUnits="userSpaceOnUse">
<stop stop-color="#FDFEFF"/>
<stop offset="0.9964" stop-color="#ECF0F5"/>
</linearGradient>
<linearGradient id="paint3_linear_443_29637" x1="133.601" y1="78.5252" x2="133.601" y2="53.1127" gradientUnits="userSpaceOnUse">
<stop offset="0.00289017" stop-color="#606673" stop-opacity="0"/>
<stop offset="1" stop-color="#AAB2C5"/>
</linearGradient>
<linearGradient id="paint4_linear_443_29637" x1="140.555" y1="49.4843" x2="140.555" y2="74.9357" gradientUnits="userSpaceOnUse">
<stop stop-color="#FDFEFF"/>
<stop offset="0.9964" stop-color="#ECF0F5"/>
</linearGradient>
</defs>
</svg>
