<svg id="Layer_1" data-name="Layer 1" xmlns="http://www.w3.org/2000/svg" viewBox="0 0 64 64"><title>smiley</title><path d="M30.81223,54.781a31.84516,31.84516,0,0,1-3.49771-.5928,22.68253,22.68253,0,0,1-14.39669-10.7967,21.38628,21.38628,0,0,1-2.9211-8.88508A22.38694,22.38694,0,0,1,15.48389,17.0391,21.82942,21.82942,0,0,1,28.28365,9.629a22.18965,22.18965,0,0,1,19.45008,5.26521,22.3038,22.3038,0,0,1,7.54379,13.88113c.06984.45244.11928.908.17819,1.36215v3.73656a1.34238,1.34238,0,0,0-.05438.21405,21.87021,21.87021,0,0,1-2.968,9.31712A22.65323,22.65323,0,0,1,38.04384,54.18878a31.949,31.949,0,0,1-3.49506.59223ZM53.4036,32.02074A20.73077,20.73077,0,1,0,32.65447,52.74419,20.76364,20.76364,0,0,0,53.4036,32.02074Z"/><path d="M32.713,42.95368a13.10786,13.10786,0,0,1-9.58145-4.1716,1.065,1.065,0,0,1-.09336-1.54786,1.04291,1.04291,0,0,1,1.54427.06883,11.77442,11.77442,0,0,0,3.14064,2.37,11.07011,11.07011,0,0,0,11.18829-.75072,9.79918,9.79918,0,0,0,1.52516-1.28813,4.49266,4.49266,0,0,1,.55893-.50551,1.01315,1.01315,0,0,1,1.44034,1.38541,5.70329,5.70329,0,0,1-1.00855,1.05976A13.10361,13.10361,0,0,1,34.13407,42.865C33.6505,42.92573,33.1595,42.92725,32.713,42.95368Z"/><path d="M19.761,29.82245a4.99741,4.99741,0,0,1,9.39434-2.16331,5.2897,5.2897,0,0,1,.59625,2.03221,1.136,1.136,0,0,1-.662,1.28,1.038,1.038,0,0,1-1.41061-1.0067,2.98248,2.98248,0,0,0-.86432-1.99183,2.77513,2.77513,0,0,0-3.033-.67427,2.80694,2.80694,0,0,0-1.92108,2.44723c-.01008.07324-.007.14823-.01606.22167a1.04941,1.04941,0,1,1-2.08351-.145Z"/><path d="M40.60165,25.03818a5.002,5.002,0,0,1,4.992,4.60691,1.61142,1.61142,0,0,1-.09668.78628,1.021,1.021,0,0,1-.99633.61172A.96834.96834,0,0,1,43.606,30.356a2.44829,2.44829,0,0,1-.09733-.52209,2.91623,2.91623,0,0,0-5.8171-.00191,2.40123,2.40123,0,0,1-.091.52242,1.0222,1.0222,0,0,1-.98418.69325,1.00373,1.00373,0,0,1-.94405-.74283,3.14184,3.14184,0,0,1,.18508-1.82965A4.95516,4.95516,0,0,1,40.60165,25.03818Z"/></svg>