<svg width="12" height="12" viewBox="0 0 12 12" fill="none" xmlns="http://www.w3.org/2000/svg">
<path d="M6 11C5.591 11 5.2 10.8325 4.4185 10.497C2.473 9.662 1.5 9.245 1.5 8.5425V3.8735M6 11C6.409 11 6.8 10.8325 7.5815 10.497C9.527 9.662 10.5 9.245 10.5 8.5425V3.8735M6 11V6.085M1.5 3.8735C1.5 4.1755 1.901 4.3665 2.7025 4.7475L4.1625 5.4425C5.0645 5.871 5.515 6.085 6 6.085M1.5 3.8735C1.5 3.5715 1.901 3.3815 2.7025 3M10.5 3.8735C10.5 4.175 10.099 4.366 9.2975 4.7475L7.8375 5.4425C6.935 5.8705 6.485 6.085 6 6.085M10.5 3.8735C10.5 3.5715 10.099 3.381 9.2975 2.9995M3.166 6.6555L4.163 7.1295M6 1V2M8 1.5L7.25 2.5M4 1.5L4.75 2.5" stroke="#070D17" stroke-width="0.75" stroke-linecap="round" stroke-linejoin="round"/>
</svg>
