<svg id="Layer_1" data-name="Layer 1" xmlns="http://www.w3.org/2000/svg" viewBox="0 0 64 64"><title>time</title><path d="M49.2864,8.21739a1.66453,1.66453,0,0,1,1.07311,1.73136c-.00912,2.0953.00081,4.19067-.00471,6.286A1.54471,1.54471,0,0,1,48.61449,17.96c-2.1112.00277-4.22246-.00737-6.33359.00528a1.51157,1.51157,0,0,1-1.583-.901,1.54915,1.54915,0,0,1,.45669-1.8121c.41931-.41122.823-.83862,1.24922-1.24242.23292-.22067.25509-.34191-.0664-.506a21.04009,21.04009,0,0,0-6.63068-2.12422,20.75853,20.75853,0,0,0-13.26548,2.289A20.84832,20.84832,0,0,0,11.41721,28.83674a20.637,20.637,0,0,0,4.39184,17.19644,20.21611,20.21611,0,0,0,13.58723,7.76891c9.16556,1.14038,16.3323-2.29069,21.39951-9.97807a19.5899,19.5899,0,0,0,3.15482-10.249c.01252-.34858.0452-.69641.067-1.04469a1.45988,1.45988,0,0,1,2.918.05155,21.94465,21.94465,0,0,1-1.10767,7.35294A24.20122,24.20122,0,0,1,40.99725,55.51947a21.93235,21.93235,0,0,1-6.19778,1.40213,2.03446,2.03446,0,0,0-.276.061H30.52322a2.01083,2.01083,0,0,0-.276-.061,21.41765,21.41765,0,0,1-6.01692-1.335,24.23461,24.23461,0,0,1-15.366-16.87308,29.14287,29.14287,0,0,1-.72351-4.11343V30.59986a2.03578,2.03578,0,0,0,.06086-.27686A21.43074,21.43074,0,0,1,9.537,24.3062,24.23692,24.23692,0,0,1,26.41068,8.941a29.36537,29.36537,0,0,1,4.11254-.72364h4.00027c.48488.06339.971.11866,1.45443.1915a24.03624,24.03624,0,0,1,8.53218,2.91954.48181.48181,0,0,0,.69322-.11474c.761-.78463,1.54293-1.54882,2.31377-2.3239a3.18188,3.18188,0,0,1,.91211-.6724Z"/><path d="M31.06215,27.98083c-.00062-1.47625-.00415-2.95252.00066-4.42876a1.46923,1.46923,0,1,1,2.92122.01551q.00573,3.47634.00174,6.9527c.00018.61622.0015.61717.63689.61738,2.34931.00077,4.69867-.00816,7.04792.00506a1.44757,1.44757,0,0,1,1.33878,2.12963,1.3649,1.3649,0,0,1-1.26743.7849q-4.61924.0082-9.23847-.001a1.40094,1.40094,0,0,1-1.43728-1.45618C31.05419,31.0604,31.06277,29.52058,31.06215,27.98083Z"/></svg>