<svg id="Layer_1" data-name="Layer 1" xmlns="http://www.w3.org/2000/svg" viewBox="0 0 31.02301 27.74796"><title>dashboard</title><path d="M4.17864,10.179a2.8227,2.8227,0,0,0,2.8194,2.82h4.8612a2.8227,2.8227,0,0,0,2.8194-2.82V5.319a2.82269,2.82269,0,0,0-2.8194-2.82H6.998a2.82269,2.82269,0,0,0-2.8194,2.82Zm1.75-4.86A1.0712,1.0712,0,0,1,6.998,4.249h4.8612a1.07119,1.07119,0,0,1,1.0694,1.07v4.86a1.07122,1.07122,0,0,1-1.0694,1.07H6.998a1.07122,1.07122,0,0,1-1.0694-1.07Z"/><path d="M4.17864,22.429a2.8227,2.8227,0,0,0,2.8194,2.82h4.8612a2.8227,2.8227,0,0,0,2.8194-2.82v-4.86a2.82269,2.82269,0,0,0-2.8194-2.82H6.998a2.82269,2.82269,0,0,0-2.8194,2.82Zm1.75-4.86a1.07119,1.07119,0,0,1,1.0694-1.07h4.8612a1.07119,1.07119,0,0,1,1.0694,1.07v4.86a1.07121,1.07121,0,0,1-1.0694,1.07H6.998a1.07121,1.07121,0,0,1-1.0694-1.07Z"/><path d="M21.67864,2.499a5.25517,5.25517,0,1,0,3.7106,1.539A5.25516,5.25516,0,0,0,21.67864,2.499Zm0,8.75a3.50333,3.50333,0,1,1,2.4738-1.026A3.50333,3.50333,0,0,1,21.67864,11.249Z"/><path d="M19.248,14.749a2.82269,2.82269,0,0,0-2.8194,2.82v4.86a2.8227,2.8227,0,0,0,2.8194,2.82h4.8612a2.8227,2.8227,0,0,0,2.8194-2.82v-4.86a2.82269,2.82269,0,0,0-2.8194-2.82Zm5.9306,2.82v4.86a1.07121,1.07121,0,0,1-1.0694,1.07H19.248a1.07121,1.07121,0,0,1-1.0694-1.07v-4.86a1.07119,1.07119,0,0,1,1.0694-1.07h4.8612A1.07119,1.07119,0,0,1,25.1786,17.569Z"/></svg>