<svg id="Layer_1" data-name="Layer 1" xmlns="http://www.w3.org/2000/svg" viewBox="0 0 14.14799 15.56539"><defs><style>.cls-1,.cls-2,.cls-3{fill:none;stroke:#2d2d2d;stroke-linecap:round;stroke-linejoin:round;}.cls-1{stroke-width:1.2px;}.cls-2{stroke-width:1.1px;}.cls-3{stroke-width:1.048px;}</style></defs><title>My-Profile</title><path class="cls-1" d="M10.2885,3.36764,4.31342,9.692a2.21965,2.21965,0,0,0-.48761,1.04074l-.26928,2.358a1.11146,1.11146,0,0,0,1.361,1.2881l2.34344-.4003a2.08978,2.08978,0,0,0,1.01161-.5458L14.2476,7.10838c1.0334-1.09166,1.4992-2.33615-.1092-3.85719C12.5373,1.74471,11.3219,2.276,10.2885,3.36764Z" transform="translate(-2.29631 -1.72031)"/><path class="cls-2" d="M9.291,4.42578a4.45846,4.45846,0,0,0,3.96638,3.748" transform="translate(-2.29631 -1.72031)"/><path class="cls-3" d="M2.82031,16.7617h13.1" transform="translate(-2.29631 -1.72031)"/></svg>