<svg width="14" height="14" viewBox="0 0 14 14" fill="none" xmlns="http://www.w3.org/2000/svg">
<g clip-path="url(#clip0_551_2741)">
<path d="M7 14C10.866 14 14 10.866 14 7C14 3.13401 10.866 0 7 0C3.13401 0 0 3.13401 0 7C0 10.866 3.13401 14 7 14Z" fill="black" fill-opacity="0.22"/>
<path d="M7 7.5C8.38071 7.5 9.5 6.38071 9.5 5C9.5 3.61929 8.38071 2.5 7 2.5C5.61929 2.5 4.5 3.61929 4.5 5C4.5 6.38071 5.61929 7.5 7 7.5Z" fill="black"/>
<path d="M11.2436 10.5C10.2348 9.2785 8.7086 8.5 7.00066 8.5C5.29271 8.5 3.7666 9.2785 2.75781 10.5C3.7666 11.7215 5.29271 12.5 7.00066 12.5C8.7086 12.5 10.2348 11.7215 11.2436 10.5Z" fill="black"/>
</g>
<defs>
<clipPath id="clip0_551_2741">
<rect width="14" height="14" fill="white"/>
</clipPath>
</defs>
</svg>
