<svg width="14" height="14" viewBox="0 0 14 14" fill="none" xmlns="http://www.w3.org/2000/svg">
<g clip-path="url(#clip0_551_2761)">
<path d="M0 1.5C0 0.671573 0.671573 0 1.5 0H12.5C13.3284 0 14 0.671573 14 1.5V12.5C14 13.3284 13.3284 14 12.5 14H1.5C0.671573 14 0 13.3284 0 12.5V1.5Z" fill="black" fill-opacity="0.22"/>
<path d="M11.5 7H5.15741H4.5H2.5C2.22386 7 2 7.22386 2 7.5C2 7.77614 2.22386 8 2.5 8H5.15741H11.5C11.7761 8 12 7.77614 12 7.5C12 7.22386 11.7761 7 11.5 7Z" fill="black"/>
<path d="M11.5 10H5.15741H4.5H2.5C2.22386 10 2 10.2239 2 10.5C2 10.7761 2.22386 11 2.5 11H5.15741H11.5C11.7761 11 12 10.7761 12 10.5C12 10.2239 11.7761 10 11.5 10Z" fill="black"/>
<path d="M12.5 0H1.5C0.671573 0 0 0.671573 0 1.5V4H5.15741H14V1.5C14 0.671573 13.3284 0 12.5 0Z" fill="black"/>
</g>
<defs>
<clipPath id="clip0_551_2761">
<rect width="14" height="14" fill="white"/>
</clipPath>
</defs>
</svg>
