<svg id="Layer_1" data-name="Layer 1" xmlns="http://www.w3.org/2000/svg" xmlns:xlink="http://www.w3.org/1999/xlink" viewBox="0 0 102 102"><defs><style>.cls-1{fill:none;}.cls-2{clip-path:url(#clip-path);}.cls-3{fill:#a9e9c4;}.cls-4{fill:#008037;}</style><clipPath id="clip-path"><rect class="cls-1" x="0.5" y="0.48" width="101" height="101"/></clipPath></defs><title>no-blog-01 (1)</title><g class="cls-2"><path class="cls-3" d="M16.05,1.4a1.76,1.76,0,0,0-.31.61,1.69,1.69,0,0,0-.05.67,1.71,1.71,0,0,0,.65,1.16l.67.68-.67.69c-1.79,1.85.32,3.92,2.25,2.22l.7-.62.63.62a1.76,1.76,0,0,0,.62.46,1.74,1.74,0,0,0,.75.15c1.54,0,2-1.54.89-2.83l-.6-.73.6-.68C23.32,2.51,22.83,1,21.29,1a1.78,1.78,0,0,0-.75.16,1.71,1.71,0,0,0-.62.44l-.63.63-.7-.63a1.85,1.85,0,0,0-2.54-.17Z"/><path class="cls-3" d="M46.76,6.62A10.19,10.19,0,0,0,45,7.25a7.09,7.09,0,0,0,.09,12.69c1,.51,1.27.54,3.15.54s2.08,0,3.22-.63a7.27,7.27,0,0,0,3.16-3.37,5.35,5.35,0,0,0,.5-3c0-1.85,0-2-.59-3.09a7.33,7.33,0,0,0-7.8-3.77Zm2.44,3a4.74,4.74,0,0,1,2.72,2.29,4.1,4.1,0,0,1-1,4.7,3.76,3.76,0,0,1-3.11.95,4,4,0,0,1-3.66-3.63A4.16,4.16,0,0,1,46.23,10a3.51,3.51,0,0,1,1.44-.55A3.45,3.45,0,0,1,49.2,9.62Z"/><path class="cls-3" d="M29,8.48a5.78,5.78,0,0,0-3.51,8.22,5.7,5.7,0,0,0,2.36,2.38,4.38,4.38,0,0,0,2.73.65,5,5,0,0,0,2.36-.4,5.12,5.12,0,0,0,1.92-1.44,5.32,5.32,0,0,0,1.16-2,5.42,5.42,0,0,0,.22-2.3,5,5,0,0,0-1.66-3.68A5.93,5.93,0,0,0,32,8.49,6.09,6.09,0,0,0,29,8.48Zm2.23,3c2.85.81,2.34,5.08-.61,5.08a2.39,2.39,0,0,1-1.42-.39A2.42,2.42,0,0,1,28.24,15a2.26,2.26,0,0,1-.27-.95,2.39,2.39,0,0,1,.15-1,2.53,2.53,0,0,1,.54-.83,2.42,2.42,0,0,1,.84-.54c.94-.43.83-.41,1.71-.18Z"/><path class="cls-3" d="M87.08,61a6.79,6.79,0,0,0-3,3.11,5.49,5.49,0,0,0-.41,2.56,4.93,4.93,0,0,0,.55,2.77,6.33,6.33,0,0,0,1.91,2.29,6.43,6.43,0,0,0,5.71,1,6.33,6.33,0,0,0,2.56-1.53,5.35,5.35,0,0,0,1.41-2,5.46,5.46,0,0,0,.31-2.47,4.64,4.64,0,0,0-.53-2.85,7.26,7.26,0,0,0-3.41-3.09,9.83,9.83,0,0,0-2.41-.31A4.85,4.85,0,0,0,87.08,61Zm4.63,3.09A3.21,3.21,0,0,1,93,67.26a3.22,3.22,0,0,1-.82,1.61,3.16,3.16,0,0,1-1.56.9,3.33,3.33,0,0,1-1.44,0,3.33,3.33,0,0,1-2.56-3.16A4,4,0,0,1,88,64a3.24,3.24,0,0,1,3.67,0Z"/><path class="cls-3" d="M34.5,87.33c-.67.66-.53,1.64.37,2.6l.76.82-.76.82c-.92,1-1,1.89-.31,2.56s1.67.58,2.57-.36l.75-.76.83.76a2.12,2.12,0,0,0,.68.55,2,2,0,0,0,.85.23,1.54,1.54,0,0,0,1-.34,1.57,1.57,0,0,0,.55-1c.1-.55,0-.75-.76-1.57l-.9-1,.76-.78c1-1,1.15-1.74.59-2.48A1.37,1.37,0,0,0,41,87a1.39,1.39,0,0,0-.67-.1c-.63,0-.92.14-1.63.78l-.83.76-.75-.76c-.62-.64-.9-.78-1.5-.78A1.57,1.57,0,0,0,35,87,1.77,1.77,0,0,0,34.5,87.33Z"/><path class="cls-3" d="M19.74,88.48a7.11,7.11,0,0,0-2.61,1.37,7,7,0,0,0-1.82,2.32,7.12,7.12,0,0,0,.12,5.31,6.55,6.55,0,0,0,2.91,3,7.86,7.86,0,0,0,5,.28,7.1,7.1,0,0,0,3.49-3.11,4.84,4.84,0,0,0,.53-2.85A5.15,5.15,0,0,0,26.89,92a6.47,6.47,0,0,0-2.19-2.48,6.54,6.54,0,0,0-3.14-1.06A7.91,7.91,0,0,0,19.74,88.48ZM22.89,92a3.27,3.27,0,0,1,1,4.31,3.21,3.21,0,0,1-2.65,1.56,3.09,3.09,0,0,1-1.55-.35,3.2,3.2,0,0,1-1.19-1.06,3.06,3.06,0,0,1-.51-1.3,3.16,3.16,0,0,1,.11-1.4,3.1,3.1,0,0,1,.71-1.21A3.22,3.22,0,0,1,22.89,92Z"/><path class="cls-4" d="M69.82,42H66.4V36.84a5.08,5.08,0,0,0-1.51-3.62,5.17,5.17,0,0,0-3.62-1.51H32.18a5.08,5.08,0,0,0-2,.39,5.24,5.24,0,0,0-1.67,1.11,5.19,5.19,0,0,0-1.11,1.67,5.08,5.08,0,0,0-.39,2V71.06a5.1,5.1,0,0,0,5.13,5.13H69a6,6,0,0,0,6-6V47.1a5.08,5.08,0,0,0-1.51-3.62A5.17,5.17,0,0,0,69.83,42ZM30.5,71.06V36.84a1.74,1.74,0,0,1,.5-1.21,1.72,1.72,0,0,1,1.21-.5H61.27a1.81,1.81,0,0,1,1.21.5,1.74,1.74,0,0,1,.5,1.21V70.2a5.68,5.68,0,0,0,.6,2.57H32.18A1.67,1.67,0,0,1,31,72.26,1.73,1.73,0,0,1,30.5,71.06Zm41-.86a2.63,2.63,0,0,1-.15,1,2.49,2.49,0,0,1-.54.88,2.53,2.53,0,0,1-.85.6,2.61,2.61,0,0,1-2,0,2.53,2.53,0,0,1-.85-.6,2.49,2.49,0,0,1-.54-.88,2.63,2.63,0,0,1-.15-1V45.39h3.42a1.72,1.72,0,0,1,1.21.5,1.74,1.74,0,0,1,.5,1.21Z"/><path class="cls-4" d="M57.84,43.68H40.73a1.81,1.81,0,0,0-1.21.5,1.74,1.74,0,0,0-.5,1.21,1.65,1.65,0,0,0,.13.66,1.49,1.49,0,0,0,.37.55,1.72,1.72,0,0,0,1.21.5H57.84a1.72,1.72,0,0,0,1.21-.5,1.7,1.7,0,0,0,.5-1.21,1.74,1.74,0,0,0-.5-1.21,1.84,1.84,0,0,0-.55-.37A1.89,1.89,0,0,0,57.84,43.68Zm0,8.56H35.6a1.72,1.72,0,0,0-1.21.5,1.61,1.61,0,0,0-.37.56,1.64,1.64,0,0,0-.13.65,1.7,1.7,0,0,0,.5,1.21,1.72,1.72,0,0,0,1.21.5H57.84a1.69,1.69,0,0,0,.66-.13,1.67,1.67,0,0,0,.55-.37,1.7,1.7,0,0,0,.5-1.21,1.74,1.74,0,0,0-.5-1.21A1.72,1.72,0,0,0,57.84,52.24Zm0,8.55H35.6a1.72,1.72,0,0,0-1.71,1.69,1.65,1.65,0,0,0,.13.66,1.49,1.49,0,0,0,.37.55,1.72,1.72,0,0,0,1.21.5H57.84a1.72,1.72,0,0,0,1.21-.5,1.7,1.7,0,0,0,.5-1.21,1.74,1.74,0,0,0-.5-1.21,1.92,1.92,0,0,0-.56-.36A1.78,1.78,0,0,0,57.84,60.79Z"/></g></svg>