<svg width="101" height="101" viewBox="0 0 101 101" fill="none" xmlns="http://www.w3.org/2000/svg">
<path d="M15.5536 0.918502C15.2686 1.27791 15.138 1.73579 15.1905 2.19148C15.243 2.64716 15.4743 3.06334 15.8336 3.34851L16.5036 4.02851L15.8336 4.71851C14.0436 6.56851 16.1536 8.63851 18.0836 6.93851L18.7836 6.31851L19.4136 6.93851C19.5851 7.13218 19.7961 7.28684 20.0325 7.39207C20.2688 7.49729 20.5249 7.55064 20.7836 7.54851C22.3236 7.54851 22.7836 6.00851 21.6736 4.71851L21.0836 3.99851L21.6836 3.31851C22.8236 1.99851 22.3336 0.488502 20.7936 0.488502C20.5356 0.484465 20.2797 0.535953 20.0433 0.639475C19.807 0.742998 19.5956 0.896134 19.4236 1.08851L18.7936 1.71851L18.0936 1.08851C17.7724 0.740434 17.33 0.528787 16.8575 0.497161C16.385 0.465534 15.9183 0.616336 15.5536 0.918502Z" fill="#D1A6A4"/>
<path d="M46.2634 6.14142C45.6661 6.28986 45.0862 6.50103 44.5334 6.77142C43.361 7.37048 42.3783 8.28372 41.695 9.4091C41.0118 10.5345 40.6549 11.8277 40.6642 13.1442C40.6736 14.4607 41.0488 15.7487 41.7479 16.8643C42.4471 17.9799 43.4426 18.8791 44.6234 19.4615C45.6234 19.9715 45.8934 20.0015 47.7734 20.0015C49.6534 20.0015 49.8534 20.0015 50.9934 19.3715C52.3851 18.6216 53.4945 17.4385 54.1534 16.0015C54.6068 15.0709 54.7805 14.0288 54.6534 13.0015C54.6534 11.1515 54.6534 11.0015 54.0634 9.91142C53.3374 8.53146 52.188 7.42064 50.7841 6.74209C49.3802 6.06354 47.7958 5.85301 46.2634 6.14142ZM48.7034 9.14142C49.8744 9.52007 50.8507 10.3421 51.4234 11.4315C51.7709 12.2207 51.8613 13.0993 51.6818 13.9428C51.5023 14.7863 51.0621 15.552 50.4234 16.1315C50.0061 16.5077 49.5113 16.7878 48.9739 16.9519C48.4365 17.1161 47.8697 17.1603 47.3134 17.0815C46.3733 17.005 45.4904 16.5989 44.8207 15.9346C44.151 15.2704 43.7375 14.3909 43.6534 13.4515C43.595 12.6711 43.7595 11.8902 44.1278 11.1998C44.496 10.5093 45.0528 9.93766 45.7334 9.55142C46.1642 9.26062 46.6559 9.07245 47.1708 9.00137C47.6856 8.9303 48.2099 8.97821 48.7034 9.14142Z" fill="#D1A6A4"/>
<path d="M28.4792 8.00052C27.3803 8.31683 26.4004 8.95306 25.6644 9.82817C24.9283 10.7033 24.4694 11.7777 24.3461 12.9145C24.2227 14.0513 24.4406 15.1991 24.9718 16.2117C25.5031 17.2243 26.3237 18.0559 27.3292 18.6005C28.1449 19.1066 29.1028 19.3347 30.0592 19.2505C30.8671 19.3034 31.6762 19.1642 32.4201 18.8444C33.164 18.5246 33.8216 18.0332 34.3392 17.4105C34.8663 16.8381 35.2627 16.158 35.5009 15.4173C35.7392 14.6766 35.8137 13.8929 35.7192 13.1205C35.7135 12.4254 35.5629 11.7392 35.2771 11.1055C34.9913 10.4719 34.5765 9.90483 34.0592 9.44052C33.3247 8.75147 32.4285 8.2584 31.4534 8.00674C30.4782 7.75509 29.4554 7.75295 28.4792 8.00052ZM30.7092 11.0005C33.5592 11.8105 33.0492 16.0805 30.0992 16.0805C29.5974 16.0995 29.102 15.9639 28.6799 15.692C28.2578 15.4202 27.9294 15.0252 27.7392 14.5605C27.5948 14.2855 27.5062 13.9847 27.4784 13.6754C27.4505 13.3661 27.484 13.0543 27.5769 12.7579C27.6698 12.4616 27.8203 12.1865 28.0198 11.9484C28.2192 11.7103 28.4637 11.5139 28.7392 11.3705L29.0092 11.2505C29.9492 10.8205 29.8392 10.8405 30.7192 11.0705L30.7092 11.0005Z" fill="#D1A6A4"/>
<path d="M86.5804 60.4801C85.2667 61.1601 84.2126 62.2527 83.5804 63.5901C83.2414 64.3985 83.1008 65.2763 83.1704 66.1501C83.0797 67.1073 83.2709 68.0702 83.7204 68.9201C84.1695 69.8203 84.8244 70.602 85.6321 71.2017C86.4398 71.8015 87.3775 72.2023 88.3692 72.3718C89.3608 72.5413 90.3784 72.4747 91.3394 72.1773C92.3005 71.8799 93.1779 71.3601 93.9004 70.6601C94.5257 70.0998 95.008 69.3981 95.3071 68.6136C95.6063 67.8291 95.7137 66.9845 95.6204 66.1501C95.7527 65.1679 95.5669 64.1691 95.0904 63.3001C94.3218 61.9253 93.1241 60.84 91.6804 60.2101C90.894 60.0026 90.0838 59.8984 89.2704 59.9001C88.3359 59.8195 87.3987 60.0216 86.5804 60.4801ZM91.2104 63.5701C91.7153 63.9203 92.1083 64.4087 92.3423 64.9769C92.5762 65.545 92.6411 66.1686 92.5292 66.7727C92.4172 67.3768 92.1332 67.9358 91.7112 68.3824C91.2892 68.8289 90.7473 69.1442 90.1504 69.2901C89.2859 69.4673 88.3863 69.2941 87.6495 68.8084C86.9126 68.3228 86.3986 67.5645 86.2204 66.7001C86.1768 66.5064 86.1534 66.3087 86.1504 66.1101C86.2755 65.1124 86.7718 64.1984 87.5404 63.5501C88.0798 63.1752 88.7217 62.9759 89.3786 62.9795C90.0355 62.9831 90.6752 63.1893 91.2104 63.5701Z" fill="#D1A6A4"/>
<path d="M33.9974 86.8514C33.3274 87.5114 33.4674 88.4914 34.3674 89.4514L35.1274 90.2714L34.3674 91.0914C33.4474 92.0914 33.3674 92.9814 34.0574 93.6514C34.7474 94.3214 35.7274 94.2314 36.6274 93.2914L37.3774 92.5314L38.2074 93.2914C38.3956 93.5192 38.6284 93.7059 38.8916 93.84C39.1547 93.9742 39.4426 94.0529 39.7374 94.0714C40.1161 94.0843 40.4866 93.9598 40.7807 93.7208C41.0747 93.4819 41.2725 93.1447 41.3374 92.7714C41.4374 92.2214 41.3374 92.0214 40.5774 91.2014L39.6774 90.2014L40.4374 89.4214C41.4374 88.4214 41.5874 87.6814 41.0274 86.9414C40.8954 86.7539 40.7151 86.6056 40.5056 86.5122C40.296 86.4189 40.0651 86.3841 39.8374 86.4114C39.2074 86.4114 38.9174 86.5514 38.2074 87.1914L37.3774 87.9514L36.6274 87.1914C36.0074 86.5514 35.7274 86.4114 35.1274 86.4114C34.9194 86.4068 34.7124 86.4432 34.5185 86.5187C34.3246 86.5942 34.1475 86.7073 33.9974 86.8514Z" fill="#D1A6A4"/>
<path d="M19.2371 88.0014C18.279 88.2667 17.3884 88.7329 16.6245 89.3692C15.8607 90.0054 15.2411 90.7971 14.8071 91.6915C14.1607 93.4107 14.2037 95.3132 14.9271 97.0014C15.5465 98.2903 16.5677 99.3431 17.8371 100.001C19.4298 100.633 21.1839 100.731 22.8371 100.282C24.3181 99.6684 25.5482 98.5723 26.3271 97.1714C26.7896 96.2975 26.9745 95.3032 26.8571 94.3214C26.9689 93.3592 26.8059 92.385 26.3871 91.5115C25.8826 90.5118 25.1251 89.6618 24.19 89.046C23.2548 88.4302 22.1747 88.07 21.0571 88.0014C20.4531 87.9214 19.8411 87.9214 19.2371 88.0014ZM22.3871 91.5414C23.0634 92.0039 23.5415 92.7035 23.7267 93.5016C23.9119 94.2998 23.7907 95.1384 23.3871 95.8514C23.1762 96.2171 22.8948 96.5372 22.5592 96.7933C22.2236 97.0494 21.8406 97.2363 21.4323 97.3433C21.0239 97.4503 20.5984 97.4751 20.1804 97.4165C19.7624 97.3578 19.3602 97.2167 18.9971 97.0014C18.5399 96.7339 18.1576 96.3554 17.8855 95.9009C17.6133 95.4464 17.4602 94.9307 17.4403 94.4013C17.4204 93.872 17.5342 93.3462 17.7714 92.8725C18.0085 92.3988 18.3613 91.9926 18.7971 91.6915C19.3216 91.3393 19.9348 91.1423 20.5663 91.1228C21.1977 91.1033 21.8219 91.2623 22.3671 91.5815L22.3871 91.5414Z" fill="#D1A6A4"/>
<path d="M29.3894 71.7612V43.163C30.1931 43.6543 31.138 43.9375 32.1487 43.9375H68.3322H68.3341L70.6652 43.9971C71.1905 44.0106 71.6094 44.4403 71.6094 44.9658V52.5891H54.9752C51.8025 52.5891 49.2305 55.1611 49.2305 58.3338C49.2305 61.5065 51.8025 64.0785 54.9752 64.0785H71.6094V71.7612C71.6094 72.2963 71.1756 72.7301 70.6404 72.7301H30.3584C29.8233 72.7301 29.3894 72.2963 29.3894 71.7612ZM26.8516 38.6404C26.8516 38.7925 26.858 38.9431 26.8705 39.092C26.858 39.1635 26.8516 39.2369 26.8516 39.3117V71.7612C26.8516 73.6979 28.4216 75.268 30.3584 75.268H70.6404C72.5772 75.268 74.1473 73.6979 74.1473 71.7612V44.9658C74.1473 43.0639 72.6313 41.5087 70.73 41.4601L69.6715 41.433V33.717C69.6715 33.0162 69.1034 32.4481 68.4025 32.4481H61.6889C60.988 32.4481 60.4199 33.0162 60.4199 33.717C60.4199 34.4178 60.988 34.986 61.6889 34.986H67.1336V41.3996H32.1487C30.6248 41.3996 29.3894 40.1643 29.3894 38.6404V38.1928C29.3894 36.4217 30.8252 34.986 32.5963 34.986H39.31C40.0108 34.986 40.5789 34.4178 40.5789 33.717C40.5789 33.0162 40.0108 32.4481 39.31 32.4481H32.5963C29.4236 32.4481 26.8516 35.0201 26.8516 38.1928V38.6404ZM54.9752 55.127H71.6094V61.5406H54.9752C53.2041 61.5406 51.7684 60.1049 51.7684 58.3338C51.7684 56.5627 53.2041 55.127 54.9752 55.127ZM50.4994 34.986C51.2002 34.986 51.7684 34.4178 51.7684 33.717V27.0033C51.7684 26.3025 51.2002 25.7344 50.4994 25.7344C49.7986 25.7344 49.2305 26.3025 49.2305 27.0033V33.717C49.2305 34.4178 49.7986 34.986 50.4994 34.986ZM45.0313 34.7098C45.6665 34.4136 45.9413 33.6586 45.6451 33.0235L44.2265 29.9812C43.9303 29.346 43.1753 29.0712 42.5401 29.3674C41.905 29.6636 41.6302 30.4186 41.9263 31.0537L43.345 34.096C43.6412 34.7312 44.3962 35.006 45.0313 34.7098ZM55.9675 34.7098C56.6026 35.006 57.3576 34.7312 57.6538 34.096L59.0725 31.0537C59.3686 30.4186 59.0938 29.6636 58.4587 29.3674C57.8235 29.0712 57.0685 29.346 56.7724 29.9812L55.3537 33.0235C55.0575 33.6586 55.3323 34.4136 55.9675 34.7098ZM54.8252 58.3338C54.8252 59.6526 55.8943 60.7217 57.2131 60.7217C58.5319 60.7217 59.601 59.6526 59.601 58.3338C59.601 57.015 58.5319 55.9459 57.2131 55.9459C55.8943 55.9459 54.8252 57.015 54.8252 58.3338Z" fill="#BBA1A0" stroke="#BBA1A0" stroke-width="0.3"/>
</svg>
