<svg id="Layer_1" data-name="Layer 1" xmlns="http://www.w3.org/2000/svg" viewBox="0 0 19.5 21.52064"><defs><style>.cls-1{fill:#2d2d2d;}</style></defs><title>Billing-Details</title><path class="cls-1" d="M6,13.2969H2.5a1.25124,1.25124,0,0,1-1.25-1.25v-7.5a2.75,2.75,0,1,1,5.5,0v8a.75032.75032,0,0,1-.75.75Zm-3.25-1.5h2.5v-7.25a1.25,1.25,0,1,0-2.5,0Z" transform="translate(-1.25 -1.79688)"/><path class="cls-1" d="M16.5,8.79688h-7a.75.75,0,1,1,0-1.5h7a.75.75,0,0,1,0,1.5Zm-3,7h-4a.75.75,0,1,1,0-1.5h4a.75.75,0,0,1,0,1.5Zm3-3.5h-7a.75.75,0,1,1,0-1.5h7a.75.75,0,0,1,0,1.5Z" transform="translate(-1.25 -1.79688)"/><path class="cls-1" d="M13.0098,23.3169a3.74658,3.74658,0,0,1-2.1426-.626A2.26253,2.26253,0,0,0,9.5,22.2769a2.2466,2.2466,0,0,0-1.36035.4145c-.09961.0596-.2002.1192-.30469.1758A1.751,1.751,0,0,1,5.25,21.3267V6.04688a.75.75,0,1,1,1.5,0V21.3267a.24587.24587,0,0,0,.125.2177.238.238,0,0,0,.24316.0054c.08789-.0478.1709-.0977.25489-.1475A3.71462,3.71462,0,0,1,9.5,20.7769a3.73128,3.73128,0,0,1,2.1318.6235,2.27525,2.27525,0,0,0,1.378.4165,2.23143,2.23143,0,0,0,1.3554-.4131,3.93759,3.93759,0,0,1,4.2588-.0029c.084.0498.167.1001.2549.148a.24828.24828,0,0,0,.2471-.0093.24269.24269,0,0,0,.124-.2129V7.54688a4.25479,4.25479,0,0,0-4.25-4.25H4a.75.75,0,1,1,0-1.5H15a5.75638,5.75638,0,0,1,5.75,5.75V21.3267a1.75592,1.75592,0,0,1-2.585,1.5415c-.1103-.0601-.21-.1202-.3105-.1802A2.21786,2.21786,0,0,0,16.5,22.2769a2.24481,2.24481,0,0,0-1.3662.4155A3.70537,3.70537,0,0,1,13.0098,23.3169Z" transform="translate(-1.25 -1.79688)"/></svg>