<svg id="Layer_1" data-name="Layer 1" xmlns="http://www.w3.org/2000/svg" viewBox="0 0 24 25"><defs><style>.cls-1{fill:none;stroke:#2d2d2d;stroke-linecap:round;stroke-linejoin:round;stroke-width:1.5px;}</style></defs><title>payment-methods</title><path class="cls-1" d="M12.6609,3.065l-.03.07-2.9,6.73h-2.85a4.9149,4.9149,0,0,0-1.92.39l1.75-4.18.04-.1.07-.16a.86509.86509,0,0,1,.07-.17C8.20094,2.615,9.68094,1.925,12.6609,3.065Z"/><path class="cls-1" d="M18.0505,10.0645a4.75833,4.75833,0,0,0-1.41-.20005h-6.91l2.9-6.73.03-.07c.15.05.29.12.44.18l2.21.93a6.49651,6.49651,0,0,1,2.61,1.68,2.11538,2.11538,0,0,1,.25.36,1.5216,1.5216,0,0,1,.2.43,1.61443,1.61443,0,0,1,.09.26A4.728,4.728,0,0,1,18.0505,10.0645Z"/><path class="cls-1" d="M21.5217,14.7452v1.95c0,.2-.01.4-.02.6-.19,3.49-2.14,5.25-5.84,5.25h-7.8a5.51877,5.51877,0,0,1-.71-.05q-4.77-.315-5.09-5.09a5.51877,5.51877,0,0,1-.05-.71v-1.95a4.89363,4.89363,0,0,1,2.96-4.49,4.95209,4.95209,0,0,1,1.92-.39h9.76a5.00615,5.00615,0,0,1,1.41.2A4.90338,4.90338,0,0,1,21.5217,14.7452Z"/><path class="cls-1" d="M6.71,6.07422l-1.75,4.18A4.89363,4.89363,0,0,0,2,14.7442v-2.93A5.84861,5.84861,0,0,1,6.71,6.07422Z"/><path class="cls-1" d="M21.5186,11.8145v2.93a4.87876,4.87876,0,0,0-3.46-4.67,4.89649,4.89649,0,0,0,.42-3.17,1.14222,1.14222,0,0,0-.09-.26A5.82294,5.82294,0,0,1,21.5186,11.8145Z"/></svg>