<svg id="Layer_1" data-name="Layer 1" xmlns="http://www.w3.org/2000/svg" viewBox="0 0 15.6339 17.23733"><defs><style>.cls-1{fill:#292d32;fill-rule:evenodd;}</style></defs><title>My-Profile</title><path class="cls-1" d="M8.19194.89917a4.61158,4.61158,0,1,0,3.25926,1.3507A4.61167,4.61167,0,0,0,8.19194.89917Zm0,1.20261A3.409,3.409,0,1,1,5.783,3.10025,3.40914,3.40914,0,0,1,8.19194,2.10178Zm7.817,13.82992A5.41187,5.41187,0,0,0,10.5972,10.52H5.78673A5.4118,5.4118,0,0,0,.375,15.9317a2.20353,2.20353,0,0,0,2.20478,2.2048H13.8041a2.20353,2.20353,0,0,0,2.2048-2.2048Zm-1.2026,0a1.00378,1.00378,0,0,1-1.0022,1.0022H2.57978a1.00377,1.00377,0,0,1-1.00217-1.0022,4.20684,4.20684,0,0,1,4.20912-4.2091H10.5972a4.20686,4.20686,0,0,1,4.2091,4.2091Z" transform="translate(-0.375 -0.89917)"/></svg>