<svg id="Layer_1" data-name="Layer 1" xmlns="http://www.w3.org/2000/svg" xmlns:xlink="http://www.w3.org/1999/xlink" viewBox="0 0 18 18"><defs><style>.cls-1,.cls-4{fill:none;}.cls-2{clip-path:url(#clip-path);}.cls-3{clip-path:url(#clip-path-2);}.cls-4{stroke:#292d32;stroke-linecap:round;stroke-linejoin:round;stroke-width:1.21501px;}</style><clipPath id="clip-path"><rect class="cls-1" y="0.09599" width="18" height="17"/></clipPath><clipPath id="clip-path-2"><rect class="cls-1" x="1.02734" y="0.62349" width="15.945" height="15.945"/></clipPath></defs><title>Categories</title><g class="cls-2"><g class="cls-3"><path class="cls-4" d="M5.55283,1.26989H3.82905A2.15473,2.15473,0,0,0,1.67432,3.42462V5.14841A2.15473,2.15473,0,0,0,3.82905,7.30314H5.55283A2.15474,2.15474,0,0,0,7.70757,5.14841V3.42462A2.15474,2.15474,0,0,0,5.55283,1.26989Z"/><path class="cls-4" d="M5.55283,9.8889H3.82905a2.15472,2.15472,0,0,0-2.15473,2.1547v1.7238a2.1548,2.1548,0,0,0,2.15473,2.1548H5.55283a2.15481,2.15481,0,0,0,2.15474-2.1548V12.0436A2.15473,2.15473,0,0,0,5.55283,9.8889Z"/><path class="cls-4" d="M14.1717,1.26989H12.4479a2.15472,2.15472,0,0,0-2.1547,2.15473V5.14841a2.15472,2.15472,0,0,0,2.1547,2.15473h1.7238a2.15474,2.15474,0,0,0,2.1548-2.15473V3.42462A2.15474,2.15474,0,0,0,14.1717,1.26989Z"/><path class="cls-4" d="M14.1717,9.8889H12.4479a2.15471,2.15471,0,0,0-2.1547,2.1547v1.7238a2.1548,2.1548,0,0,0,2.1547,2.1548h1.7238a2.15482,2.15482,0,0,0,2.1548-2.1548V12.0436A2.15473,2.15473,0,0,0,14.1717,9.8889Z"/></g></g></svg>