<svg id="Layer_1" data-name="Layer 1" xmlns="http://www.w3.org/2000/svg" viewBox="0 0 69.93238 66.94905"><defs><style>.cls-1{fill:#26d7fe;}.cls-1,.cls-3,.cls-4,.cls-5,.cls-6,.cls-7{fill-rule:evenodd;}.cls-2{fill:#56b7cd;}.cls-3{fill:#e21b22;}.cls-4{fill:#fff;}.cls-5,.cls-9{fill:#d45985;}.cls-6,.cls-8{fill:#d85b53;}.cls-7{fill:#855868;}</style></defs><title>congratulations</title><path class="cls-1" d="M37.99552,27.21146l34.9801,34.98011c-3.89137,3.50131-29.47569,12.06852-51.35728,19.789A2.67691,2.67691,0,0,1,18.19359,78.565C25.52567,57.71294,34.63988,31.66362,37.99552,27.21146Z" transform="translate(-17.17764 -15.18802)"/><ellipse class="cls-2" cx="55.48557" cy="44.70151" rx="8.13661" ry="24.73467" transform="translate(-32.53503 37.13898) rotate(-45)"/><path class="cls-3" d="M31.64571,41.31317c6.83342,15.36121,22.75758,24.43448,33.06052,25.07089-4.19043,1.73476-9.59858,3.75605-15.59264,5.91324-8.435-5.2208-16.53117-14.16367-20.26151-23.58593C29.81911,46.09867,30.75491,43.61271,31.64571,41.31317ZM24.208,61.5306A33.65634,33.65634,0,0,0,39.77032,75.61621c-2.78718.97988-5.624,1.97262-8.46165,2.96443a38.69064,38.69064,0,0,1-9.11736-11.371C22.8617,65.31418,23.53577,63.41505,24.208,61.5306Z" transform="translate(-17.17764 -15.18802)"/><path class="cls-4" d="M26.158,67.88223,36.80618,43.00811a.74961.74961,0,1,0-1.37809-.59034L24.7789,67.29188a.75005.75005,0,0,0,1.37906.59035Z" transform="translate(-17.17764 -15.18802)"/><path class="cls-3" d="M76.72664,44.9208a1.009,1.009,0,0,1,1.88623,0c.73889,1.94087,1.63908,4.31362,1.63908,4.31362a3.25466,3.25466,0,0,0,1.894,1.89143s2.37276.90279,4.31363,1.64168a1.00709,1.00709,0,0,1,0,1.88363C84.51873,55.39,82.146,56.29283,82.146,56.29283a3.25471,3.25471,0,0,0-1.894,1.89144s-.90019,2.37275-1.63908,4.31362a1.009,1.009,0,0,1-1.88623,0c-.73628-1.94087-1.63907-4.31362-1.63907-4.31362a3.26,3.26,0,0,0-1.89144-1.89144s-2.37275-.90279-4.31362-1.64167a1.00708,1.00708,0,0,1,0-1.88363c1.94087-.73889,4.31362-1.64168,4.31362-1.64168a3.25991,3.25991,0,0,0,1.89144-1.89143S75.99036,46.86167,76.72664,44.9208Z" transform="translate(-17.17764 -15.18802)"/><path class="cls-3" d="M23.10645,39.68984a.69793.69793,0,0,1,1.30423,0c.51445,1.355,1.14482,3.016,1.14482,3.016a2.2661,2.2661,0,0,0,1.31872,1.31691s1.66109.63219,3.016,1.14664a.69792.69792,0,0,1,0,1.30423c-1.35494.51444-3.016,1.14663-3.016,1.14663a2.2661,2.2661,0,0,0-1.31872,1.31691s-.63037,1.66108-1.14482,3.016a.69793.69793,0,0,1-1.30423,0c-.51445-1.355-1.14664-3.016-1.14664-3.016a2.26966,2.26966,0,0,0-1.31691-1.31691l-3.016-1.14663a.69793.69793,0,0,1,0-1.30423c1.35314-.51445,3.016-1.14664,3.016-1.14664a2.26966,2.26966,0,0,0,1.31691-1.31691S22.592,41.04479,23.10645,39.68984Z" transform="translate(-17.17764 -15.18802)"/><path class="cls-5" d="M44.57432,15.51173a.50292.50292,0,0,1,.93982,0c.37071.97638.825,2.17334.825,2.17334a1.633,1.633,0,0,0,.95026.949s1.197.45555,2.17334.82626a.50292.50292,0,0,1,0,.93982c-.97637.37071-2.17334.82626-2.17334.82626a1.63292,1.63292,0,0,0-.95026.949s-.45425,1.197-.825,2.17335a.50292.50292,0,0,1-.93982,0c-.37071-.97638-.82626-2.17335-.82626-2.17335a1.63553,1.63553,0,0,0-.949-.949l-2.17335-.82626a.50292.50292,0,0,1,0-.93982L42.7991,18.634a1.63558,1.63558,0,0,0,.949-.949S44.20361,16.48811,44.57432,15.51173Z" transform="translate(-17.17764 -15.18802)"/><path class="cls-6" d="M58.98843,53.513c.59193-2.02825,2.24463-7.51219,5.37379-11.14306a.74989.74989,0,0,0-1.13637-.97879c-3.28913,3.81666-5.05453,9.56912-5.67747,11.702a.75.75,0,1,0,1.44.41989Z" transform="translate(-17.17764 -15.18802)"/><path class="cls-7" d="M68.73952,37.80216a10.38674,10.38674,0,0,0-5.51367,3.589.74989.74989,0,0,0,1.13637.97879A9.68051,9.68051,0,0,1,68.0501,39.581a3.46945,3.46945,0,0,0,.07334,1.7782,2.24336,2.24336,0,0,0,1.76319,1.52069,4.8661,4.8661,0,0,0,2.29454-.14077A6.05613,6.05613,0,0,0,74.55348,41.476a2.217,2.217,0,0,0,.78774-1.47994,1.6242,1.6242,0,0,0-.746-1.41231,6.72721,6.72721,0,0,0-3.24485-.93393q-.35346-.03444-.69832-.04037c.13724-.18647.28487-.37386.43949-.56095a27.24339,27.24339,0,0,1,7.03558-5.69.74995.74995,0,0,0-.721-1.31525c-2.50157,1.37091-6.57142,4.43929-8.40789,7.32525Q68.86016,37.58522,68.73952,37.80216Zm1.00314,1.35189-.03189.07454a2.43549,2.43549,0,0,0-.16259,1.66135.81141.81141,0,0,0,.66105.52474,3.32857,3.32857,0,0,0,1.56327-.11892,4.48,4.48,0,0,0,1.75973-.91839c.16057-.14863.30414-.28249.31059-.439.00168-.04091-.04056-.0656-.08121-.10194a1.25535,1.25535,0,0,0-.2396-.15907,6.59961,6.59961,0,0,0-2.3175-.53508A6.84645,6.84645,0,0,0,69.74266,39.15405Z" transform="translate(-17.17764 -15.18802)"/><path class="cls-6" d="M53.58809,30.342a4.76089,4.76089,0,0,0-1.19741-2.12189,1.82274,1.82274,0,0,0-1.92637-.46691,2.91643,2.91643,0,0,0-1.53244,1.701,6.20254,6.20254,0,0,0-.66474,2.78271,1.88253,1.88253,0,0,0,.59821,1.326,2.27159,2.27159,0,0,0,2.20836.28676,6.1339,6.1339,0,0,0,1.36683-.62711,10.8154,10.8154,0,0,1-3.63555,7.4542A.7503.7503,0,0,0,49.82864,41.774a12.02882,12.02882,0,0,0,4.08181-9.64609q.34046-.30349.66923-.65046a9.897,9.897,0,0,0,2.886-7.29412.74972.74972,0,1,0-1.49591.10277A8.00685,8.00685,0,0,1,54.196,29.61541C54.00123,29.871,53.79781,30.11347,53.58809,30.342ZM52.328,31.49672a5.57456,5.57456,0,0,0-.45888-1.46258,2.396,2.396,0,0,0-.49378-.70988.5528.5528,0,0,0-.31158-.176c-.118-.00818-.21788.0781-.3289.19888a2.59143,2.59143,0,0,0-.42854.709,5.6649,5.6649,0,0,0-.54386,1.86488c-.01272.24176-.01233.42166.09876.52a.40482.40482,0,0,0,.27945.06082,1.88777,1.88777,0,0,0,.503-.08886A5.58646,5.58646,0,0,0,52.328,31.49672Z" transform="translate(-17.17764 -15.18802)"/><path class="cls-6" d="M76.2207,25.9084a11.81308,11.81308,0,0,0-8.99155,5.48115.7501.7501,0,0,0,1.25271.82541,10.29809,10.29809,0,0,1,7.81706-4.80869.75.75,0,0,0-.07822-1.49787Z" transform="translate(-17.17764 -15.18802)"/><path class="cls-7" d="M61.3588,34.07882c3.02821-4.88441,4.28907-10.76235.294-16.14879a.74951.74951,0,1,0-1.20389.89313c3.57782,4.82627,2.34775,10.08851-.36486,14.46559a.74985.74985,0,0,0,1.27471.79007Z" transform="translate(-17.17764 -15.18802)"/><circle class="cls-8" cx="57.76539" cy="6.29213" r="2.47184"/><circle class="cls-8" cx="10.52539" cy="12.05813" r="2.47184"/><circle class="cls-9" cx="49.50039" cy="58.33314" r="2.47184"/></svg>