<svg id="Layer_1" data-name="Layer 1" xmlns="http://www.w3.org/2000/svg" viewBox="0 0 17.1045 17.04768"><defs><style>.cls-1{fill:none;stroke:#2d2d2d;stroke-linecap:round;stroke-linejoin:round;stroke-width:1.2px;}</style></defs><title>crown</title><path class="cls-1" d="M13.2214,15.5247H5.77969a.934.934,0,0,1-.81542-.5779L1.68677,5.77927c-.46708-1.31417.07917-1.71792,1.20334-.91042L5.97761,7.0776a.8342.8342,0,0,0,1.32208-.40375L8.693,2.96094c.44334-1.1875,1.17959-1.1875,1.62288,0l1.3934,3.71291a.82813.82813,0,0,0,1.3141.40375l2.8975-2.06625c1.235-.88666,1.8288-.43541,1.3221.9975L14.0447,14.9626A.96707.96707,0,0,1,13.2214,15.5247Z" transform="translate(-0.91953 -1.47031)"/><path class="cls-1" d="M5.14648,17.918H13.8548" transform="translate(-0.91953 -1.47031)"/><path class="cls-1" d="M7.52148,11.582H11.4798" transform="translate(-0.91953 -1.47031)"/></svg>