<svg id="Layer_1" data-name="Layer 1" xmlns="http://www.w3.org/2000/svg" viewBox="0 0 26 26"><defs><style>.cls-1{fill:#666;fill-opacity:0.4;}</style></defs><title>Date-and-time</title><path class="cls-1" d="M7.627,2.64355a1.111,1.111,0,0,0-.5664.52246c-.083.166-.09278.29786-.09278,1.34766v1.167l-.81543.02442a3.227,3.227,0,0,0-1.1914.15136,3.12425,3.12425,0,0,0-1.25489.77149,2.963,2.963,0,0,0-.77148,1.24023,3.25864,3.25864,0,0,0-.15625,1.20606l-.02441.82031H23.6816l-.0293-.82031a3.04841,3.04841,0,0,0-.3515-1.66992,3.09881,3.09881,0,0,0-1.8067-1.543,3.25818,3.25818,0,0,0-1.206-.15625l-.8203-.02442v-1.167c0-1.05957-.0098-1.18164-.0928-1.35254a1.07356,1.07356,0,0,0-1.8359-.1123l-.1465.21484-.0147,1.21582-.0146,1.21582h-8.291L9.05762,4.47949,9.043,3.26367l-.14649-.21484A1.14024,1.14024,0,0,0,7.627,2.64355Z"/><path class="cls-1" d="M2.77832,16.4219,2.793,20.9043l.13183.3711a3.212,3.212,0,0,0,2.168,2.0801c.27344.083.66407.0879,8.125.0879s7.8515-.0049,8.1299-.0879a3.26794,3.26794,0,0,0,2.2021-2.1826c.0879-.254.0928-.5469.1074-4.751l.0147-4.4776H2.76367Z"/></svg>