<svg id="Layer_1" data-name="Layer 1" xmlns="http://www.w3.org/2000/svg" xmlns:xlink="http://www.w3.org/1999/xlink" viewBox="0 0 14.8952 14.82584"><defs><style>.cls-1,.cls-3{fill:none;}.cls-2{clip-path:url(#clip-path);}.cls-3{stroke:#292d32;stroke-linecap:round;stroke-linejoin:round;stroke-width:1.21501px;}</style><clipPath id="clip-path" transform="translate(-1.5524 -1.08736)"><rect class="cls-1" x="1.61987" y="1.15459" width="14.7602" height="14.6908"/></clipPath></defs><title>home</title><g class="cls-2"><path class="cls-3" d="M2.15991,7.70125A2.88,2.88,0,0,1,3.25535,5.44077l3.96-3.12635a2.88,2.88,0,0,1,3.56921,0l3.96,3.12635a2.88,2.88,0,0,1,1.0955,2.26048V12.4257a2.88023,2.88023,0,0,1-2.8801,2.88H11.88a.72006.72006,0,0,1-.72-.72v-2.16a1.44012,1.44012,0,0,0-1.44-1.4401H8.28a1.44006,1.44006,0,0,0-1.44,1.4401v2.16a.72.72,0,0,1-.72.72h-1.08a2.88013,2.88013,0,0,1-2.88-2.88Z" transform="translate(-1.5524 -1.08736)"/></g></svg>