<svg id="Layer_1" data-name="Layer 1" xmlns="http://www.w3.org/2000/svg" xmlns:xlink="http://www.w3.org/1999/xlink" viewBox="0 0 13.2381 13.18362"><defs><style>.cls-1{fill:url(#linear-gradient);}.cls-2{fill:url(#linear-gradient-2);}</style><linearGradient id="linear-gradient" x1="7.99936" y1="3.332" x2="7.99936" y2="2.332" gradientTransform="matrix(1, 0, 0, -1, 0, 17)" gradientUnits="userSpaceOnUse"><stop offset="0" stop-color="#ffb932"/><stop offset="1" stop-color="#fdcb69"/></linearGradient><linearGradient id="linear-gradient-2" x1="7.99796" y1="15.51562" x2="7.99796" y2="4.3473" xlink:href="#linear-gradient"/></defs><title>premium</title><path class="cls-1" d="M11.3327,14.668H4.666a.5.5,0,0,1,0-1H11.3327a.5.5,0,1,1,0,1Z" transform="translate(-1.37891 -1.48438)"/><path class="cls-2" d="M13.5668,3.67937,10.9001,5.586a.671.671,0,0,1-1.01329-.30666l-1.26-3.36a.6641.6641,0,0,0-1.24666,0L6.11348,5.27271a.65725.65725,0,0,1-1.00667.30667L2.44015,3.67271a.67183.67183,0,0,0-1.02.77333L4.19348,12.2127a.6614.6614,0,0,0,.62667.44H11.1735a.67053.67053,0,0,0,.6266-.44L14.5735,4.446A.66107.66107,0,0,0,13.5668,3.67937Zm-3.9,6.15334H6.33348a.5.5,0,0,1,0-1H9.66681a.5.5,0,0,1,0,1Z" transform="translate(-1.37891 -1.48438)"/></svg>