<svg width="33" height="32" viewBox="0 0 33 32" fill="none" xmlns="http://www.w3.org/2000/svg">
<path fill-rule="evenodd" clip-rule="evenodd" d="M16.8363 0C24.4696 0.186028 30.7565 5.803 31.9797 13.1339C30.4244 9.38347 25.9626 6.69813 22.2758 4.47922C19.4966 2.8066 17.1579 1.399 16.8363 0ZM0.699951 15.354C0.886049 7.72104 6.5025 1.43452 13.8329 0.210886C10.0827 1.76641 7.39756 6.22794 5.17875 9.91458C3.5063 12.6934 2.09881 15.032 0.699951 15.354ZM16.0535 31.4905C8.4213 31.3042 2.13532 25.6886 0.911089 18.3591C2.46722 22.1084 6.928 24.7931 10.6141 27.0116C13.393 28.6841 15.7316 30.0916 16.0535 31.4905ZM32.1904 16.1367C32.0042 23.7694 26.3881 30.0557 19.0581 31.2795C22.8076 29.7236 25.4925 25.2625 27.7111 21.5762C29.3838 18.7971 30.7914 16.4582 32.1904 16.1367ZM4.17487 15.4756C1.82538 15.424 4.32398 20.0982 8.17109 23.7542C6.1646 21.6818 4.92977 18.8577 4.92977 15.7452C4.92977 13.1588 5.78247 10.7715 7.22209 8.84923C5.49923 10.9666 4.22194 13.3348 4.17487 15.4756ZM16.1752 28.0155C14.0331 27.9684 11.6634 26.6897 9.54513 24.9653C11.4681 26.4068 13.8569 27.2607 16.4452 27.2607C19.5547 27.2607 22.3763 26.0282 24.4482 24.0251C20.793 27.8689 16.1236 30.3638 16.1752 28.0155ZM28.715 16.0152C28.668 18.1548 27.3921 20.5215 25.6707 22.638C27.1089 20.7163 27.9606 18.3302 27.9606 15.7452C27.9606 12.6377 26.7297 9.81771 24.7289 7.74615C28.5703 11.4007 31.0625 16.0668 28.715 16.0152ZM16.7147 3.47534C18.8532 3.52235 21.2184 4.79682 23.334 6.51672C21.4129 5.08039 19.0284 4.22983 16.4452 4.22983C13.3347 4.22983 10.5122 5.46308 8.44014 7.46731C12.0956 3.62261 16.7663 1.12671 16.7147 3.47534ZM21.6976 11.77L21.8318 11.5692C21.934 11.4164 21.9349 11.2149 21.8112 11.079C20.7364 9.89753 17.4602 8.33548 14.1477 9.63831C9.91795 11.302 9.48705 15.7018 10.0347 18.3407C11.1719 23.8202 17.3316 23.9556 22.2639 22.7129L22.3893 17.0108C22.3948 16.7623 22.1978 16.5565 21.9493 16.551L17.8093 16.46C17.5608 16.4545 17.355 16.6515 17.3495 16.9L17.3435 17.172C17.3381 17.4205 17.5351 17.6263 17.7835 17.6318L20.1335 17.6835L20.0433 21.7848C16.99 22.6368 12.816 21.3726 12.3406 17.5121C11.6927 12.2502 15.5283 10.5479 17.4882 10.591C18.8735 10.6214 20.0222 11.1353 21.0301 11.8777C21.2442 12.0354 21.5498 11.9911 21.6976 11.77Z" fill="#340C0C"/>
</svg>
