<svg width="24" height="20" viewBox="0 0 24 20" fill="none" xmlns="http://www.w3.org/2000/svg">
<path fill-rule="evenodd" clip-rule="evenodd" d="M5.25291 17.9003C5.55747 17.9003 5.81692 18.1597 5.81692 18.4643C5.81692 18.6139 5.75749 18.7573 5.65171 18.863C5.54594 18.9688 5.40249 19.0283 5.25291 19.0283C5.10332 19.0283 4.95987 18.9688 4.8541 18.863C4.74833 18.7573 4.6889 18.6139 4.6889 18.4643C4.6889 18.1597 4.93706 17.9003 5.25291 17.9003ZM10.2162 17.9003C10.3658 17.9003 10.5092 17.9597 10.615 18.0655C10.7208 18.1713 10.7802 18.3147 10.7802 18.4643C10.7802 18.6139 10.7208 18.7573 10.615 18.863C10.5092 18.9688 10.3658 19.0283 10.2162 19.0283C10.0666 19.0283 9.92315 18.9688 9.81738 18.863C9.71161 18.7573 9.65217 18.6139 9.65217 18.4643C9.65217 18.1597 9.91162 17.9003 10.2162 17.9003ZM15.202 17.9003C15.5066 17.9003 15.7661 18.1597 15.7661 18.4643C15.7661 18.6139 15.7066 18.7573 15.6009 18.863C15.4951 18.9688 15.3516 19.0283 15.202 19.0283C15.0525 19.0283 14.909 18.9688 14.8032 18.863C14.6974 18.7573 14.638 18.6139 14.638 18.4643C14.638 18.1597 14.8862 17.9003 15.202 17.9003ZM7.73455 16.6256C7.88413 16.6256 8.0276 16.6851 8.13337 16.7908C8.23914 16.8966 8.29856 17.04 8.29856 17.1896C8.29856 17.3392 8.23914 17.4826 8.13337 17.5884C8.0276 17.6942 7.88413 17.7536 7.73455 17.7536C7.58496 17.7536 7.44151 17.6942 7.33574 17.5884C7.22997 17.4826 7.17054 17.3392 7.17054 17.1896C7.17054 16.885 7.4187 16.6256 7.73455 16.6256ZM12.7091 16.6256C12.8587 16.6256 13.0021 16.6851 13.1079 16.7908C13.2137 16.8966 13.2731 17.04 13.2731 17.1896C13.2731 17.3392 13.2137 17.4826 13.1079 17.5884C13.0021 17.6942 12.8587 17.7536 12.7091 17.7536C12.5595 17.7536 12.4161 17.6942 12.3103 17.5884C12.2045 17.4826 12.1451 17.3392 12.1451 17.1896C12.1451 16.885 12.3933 16.6256 12.7091 16.6256ZM5.25291 15.43C5.55747 15.43 5.81692 15.6894 5.81692 15.994C5.81692 16.1436 5.75749 16.287 5.65171 16.3927C5.54594 16.4985 5.40249 16.558 5.25291 16.558C5.10332 16.558 4.95987 16.4985 4.8541 16.3927C4.74833 16.287 4.6889 16.1436 4.6889 15.994C4.6889 15.6894 4.93706 15.43 5.25291 15.43ZM10.2162 15.43C10.3658 15.43 10.5092 15.4893 10.615 15.5951C10.7208 15.7008 10.7802 15.8444 10.7802 15.994C10.7802 16.1436 10.7208 16.287 10.615 16.3927C10.5092 16.4985 10.3658 16.558 10.2162 16.558C10.0666 16.558 9.92315 16.4985 9.81738 16.3927C9.71161 16.287 9.65217 16.1436 9.65217 15.994C9.65217 15.6894 9.91162 15.43 10.2162 15.43ZM15.202 15.43C15.5066 15.43 15.7661 15.6894 15.7661 15.994C15.7661 16.1436 15.7066 16.287 15.6009 16.3927C15.4951 16.4985 15.3516 16.558 15.202 16.558C15.0525 16.558 14.909 16.4985 14.8032 16.3927C14.6974 16.287 14.638 16.1436 14.638 15.994C14.638 15.6894 14.8862 15.43 15.202 15.43ZM17.6837 3.30376C18.5914 3.32457 19.4623 3.66666 20.1414 4.2693C20.8205 4.87194 21.2638 5.69594 21.3924 6.59474C21.521 7.49353 21.3265 8.40878 20.8437 9.17767C20.3608 9.94656 19.6208 10.5192 18.7553 10.7937V10.805C18.7891 10.9403 18.8004 11.0757 18.8117 11.2111V11.3916C18.8068 12.2005 18.4917 12.9768 17.9313 13.5603C17.3709 14.1438 16.608 14.49 15.7999 14.5275H5.01602C4.26211 14.5076 3.5402 14.2187 2.98082 13.7129C2.42143 13.2071 2.0615 12.5177 1.96612 11.7696C1.87073 11.0214 2.04618 10.264 2.46074 9.634C2.87531 9.00399 3.50161 8.54309 4.22641 8.33469H4.29408L4.36178 8.3121L4.35049 8.22191V8.01881C4.35259 7.53101 4.46765 7.05031 4.68664 6.61443C4.90563 6.17855 5.2226 5.79937 5.61271 5.50651C6.00282 5.21366 6.45546 5.01515 6.93514 4.92653C7.41483 4.83792 7.90853 4.86164 8.37753 4.99579L8.49032 5.02953L8.54672 4.96192C8.96764 4.46339 9.48813 4.05832 10.0748 3.77276C10.6614 3.4872 11.3013 3.32749 11.9533 3.30376H12.1451C13.228 3.30376 14.2207 3.6647 15.0103 4.26255L15.078 4.31887C15.7878 3.66458 16.7183 3.30216 17.6837 3.30376ZM12.1451 4.2061C10.8704 4.2061 9.70858 4.81529 9.02049 5.81922C8.96063 5.90834 8.87096 5.97314 8.76759 6.00209C8.66421 6.03103 8.55391 6.02224 8.45648 5.97716C8.07628 5.80021 7.65429 5.73261 7.23787 5.78218C6.82145 5.83175 6.42709 5.99653 6.09906 6.25779C5.77102 6.51905 5.52229 6.86656 5.38079 7.26133C5.2393 7.6561 5.21063 8.08247 5.29802 8.49262L5.33188 8.61669C5.34323 8.68034 5.34077 8.74561 5.32467 8.80823C5.30856 8.87084 5.2792 8.92925 5.23855 8.97952C5.19791 9.0298 5.14692 9.07088 5.08906 9.09973C5.03121 9.12859 4.96784 9.1446 4.90322 9.14683C4.3266 9.17569 3.78298 9.42448 3.38428 9.84206C2.98558 10.2596 2.76215 10.8142 2.75999 11.3916C2.76274 11.9783 2.99397 12.5409 3.40463 12.9599C3.81528 13.379 4.37307 13.6217 4.95963 13.6363H15.7096C16.2496 13.6057 16.7605 13.3822 17.1494 13.0065C17.5384 12.6307 17.7794 12.1277 17.8286 11.5892C17.8778 11.0506 17.7319 10.5124 17.4175 10.0724C17.1031 9.63242 16.6412 9.31995 16.1157 9.19199C16.0567 9.17878 16.001 9.15376 15.9518 9.1186C15.9027 9.08343 15.8611 9.03879 15.8295 8.98723C15.7979 8.93568 15.777 8.87834 15.7681 8.81855C15.7591 8.75877 15.7623 8.69782 15.7773 8.63927C15.845 8.36855 15.8788 8.07526 15.8788 7.79326C15.8581 6.82288 15.4534 5.90025 14.7535 5.22781C14.0535 4.55538 13.1155 4.18796 12.1451 4.2061ZM20.6955 11.0532L20.7068 11.087L21.1918 11.8428C21.2545 11.9446 21.2743 12.067 21.2468 12.1833C21.2193 12.2996 21.1468 12.4004 21.0452 12.4633C20.9484 12.5258 20.8314 12.5488 20.7182 12.5279C20.6049 12.5069 20.504 12.4434 20.436 12.3504L20.4248 12.3166L19.9397 11.5608C19.877 11.4591 19.8572 11.3366 19.8847 11.2203C19.9122 11.104 19.9847 11.0032 20.0863 10.9403C20.1831 10.8778 20.3001 10.8548 20.4133 10.8758C20.5266 10.8967 20.6275 10.9603 20.6955 11.0532ZM17.6837 4.2061C16.9615 4.20049 16.2626 4.4616 15.7209 4.93934L15.7435 4.96192C16.1286 5.41706 16.4172 5.94574 16.5917 6.51584C16.7662 7.08594 16.823 7.6855 16.7587 8.27823L16.7361 8.391V8.43617L16.7813 8.45875C17.4752 8.72199 18.0543 9.22119 18.4169 9.86877L18.462 9.93638C19.1232 9.72957 19.6897 9.29546 20.0614 8.71088C20.4331 8.12629 20.5858 7.42905 20.4926 6.74263C20.3994 6.0562 20.0662 5.42495 19.552 4.96068C19.0379 4.49641 18.376 4.22907 17.6837 4.2061ZM5.38826 1.91619C5.9866 1.93312 6.57267 2.08988 7.09957 2.37389C7.62647 2.65791 8.07958 3.06139 8.42264 3.5519C8.558 3.73238 8.51289 4.00303 8.28728 4.18351C8.18146 4.24084 8.05871 4.25871 7.94094 4.23391C7.82317 4.20912 7.71803 4.14328 7.6443 4.04816C7.39156 3.67403 7.0527 3.36615 6.65618 3.15023C6.25967 2.93431 5.81711 2.81668 5.36572 2.80736C4.95034 2.79032 4.53628 2.86457 4.15272 3.02493C3.76916 3.18528 3.42544 3.42783 3.14579 3.73545C2.86614 4.04306 2.65737 4.4083 2.53419 4.80536C2.41101 5.20242 2.37642 5.6216 2.43286 6.03348C2.45035 6.13918 2.42763 6.2476 2.36917 6.33738C2.31071 6.42716 2.22075 6.49184 2.11702 6.51859C1.86571 6.61257 1.64248 6.76896 1.46841 6.97313C1.29433 7.1773 1.17515 7.42244 1.1221 7.68544C1.06905 7.94845 1.08388 8.22069 1.16519 8.47638C1.2465 8.73206 1.39162 8.96278 1.58685 9.14683C1.76733 9.29347 1.75605 9.57552 1.56429 9.756C1.41765 9.95904 1.12436 9.94776 0.921319 9.756C0.647789 9.48342 0.441646 9.15067 0.319287 8.78441C0.196929 8.41814 0.161723 8.02845 0.216487 7.6462C0.271252 7.26394 0.414472 6.89979 0.634744 6.58262C0.855016 6.26545 1.14627 6.00404 1.48533 5.81922C1.4611 5.29929 1.54585 4.78002 1.73414 4.29477C1.92243 3.80953 2.2101 3.36904 2.57868 3.00152C2.94726 2.634 3.38861 2.34749 3.8744 2.1606C4.36019 1.97371 4.87969 1.89046 5.39956 1.91619H5.38826ZM22.6018 7.78197L22.6357 7.79326L23.5155 7.99622C23.6206 8.02984 23.7098 8.10085 23.7661 8.19575C23.8224 8.29064 23.842 8.40285 23.8212 8.51121C23.8004 8.61958 23.7405 8.71662 23.653 8.78385C23.5655 8.85109 23.4564 8.88388 23.3463 8.87611H23.3012L22.4214 8.67301C22.3162 8.6394 22.2271 8.56852 22.1708 8.47362C22.1145 8.37873 22.0949 8.26652 22.1157 8.15816C22.1365 8.04979 22.1964 7.95275 22.2839 7.88552C22.3714 7.81828 22.4805 7.78549 22.5906 7.79326L22.6018 7.78197ZM23.053 3.77744C23.1155 3.87419 23.1387 3.99123 23.1177 4.10448C23.0967 4.21773 23.0332 4.31867 22.9402 4.38662L22.9177 4.39791L22.1506 4.88288C22.0489 4.94559 21.9264 4.96545 21.8101 4.93796C21.6938 4.91047 21.5931 4.83786 21.5302 4.73623C21.4711 4.64047 21.4498 4.52615 21.4707 4.41553C21.4916 4.30492 21.553 4.20611 21.643 4.13849L21.6769 4.11591L22.4439 3.64209C22.5443 3.57835 22.6658 3.55684 22.782 3.58219C22.8981 3.60754 22.9996 3.67768 23.0643 3.77744H23.053ZM14.9313 1.89374L14.9426 1.91619L15.4276 2.6833C15.4904 2.78505 15.5101 2.90751 15.4826 3.02383C15.4551 3.14014 15.3826 3.24086 15.281 3.30376C15.1852 3.36292 15.0708 3.38412 14.9602 3.36325C14.8496 3.34238 14.7508 3.28084 14.6831 3.19085L14.6606 3.15712L14.1755 2.40129C14.1128 2.29955 14.093 2.17708 14.1205 2.06077C14.148 1.94445 14.2205 1.84373 14.3222 1.78083C14.4189 1.71833 14.5359 1.69528 14.6492 1.71625C14.7624 1.73722 14.8634 1.80075 14.9313 1.89374ZM19.105 0.991271C19.3306 1.04767 19.4885 1.26194 19.4434 1.49882V1.5327L19.2403 2.40129C19.2067 2.5064 19.1358 2.59558 19.0409 2.6519C18.946 2.70823 18.8337 2.72782 18.7254 2.70698C18.617 2.68614 18.52 2.62622 18.4528 2.53872C18.3856 2.45121 18.3527 2.34214 18.3605 2.23206V2.20948L18.5635 1.32973C18.5768 1.27194 18.6014 1.21733 18.6358 1.16904C18.6702 1.12075 18.7138 1.07971 18.7641 1.04828C18.8144 1.01685 18.8704 0.995537 18.9289 0.985763C18.9874 0.975988 19.0472 0.9779 19.105 0.991271Z" fill="#616161"/>
</svg>
