<svg width="20" height="20" viewBox="0 0 20 20" fill="none" xmlns="http://www.w3.org/2000/svg">
<path d="M19.2991 9.90002C19.2991 4.93202 15.2671 0.900024 10.2991 0.900024C5.33107 0.900024 1.29907 4.93202 1.29907 9.90002C1.29907 14.868 5.33107 18.9 10.2991 18.9" stroke="#340C0C" stroke-width="0.9" stroke-linecap="round" stroke-linejoin="round"/>
<path d="M6.6997 1.80042H7.5997C5.8447 7.05642 5.8447 12.7444 7.5997 18.0004H6.6997" stroke="#340C0C" stroke-width="0.9" stroke-linecap="round" stroke-linejoin="round"/>
<path d="M13.0002 1.80042C13.8732 4.42842 14.3143 7.16442 14.3143 9.90042" stroke="#340C0C" stroke-width="0.9" stroke-linecap="round" stroke-linejoin="round"/>
<path d="M2.19922 13.5V12.6C4.82722 13.473 7.56322 13.914 10.2992 13.914" stroke="#340C0C" stroke-width="0.9" stroke-linecap="round" stroke-linejoin="round"/>
<path d="M2.19946 7.19967C7.45546 5.44467 13.1435 5.44467 18.3995 7.19967" stroke="#340C0C" stroke-width="0.9" stroke-linecap="round" stroke-linejoin="round"/>
<path d="M15.8802 18.3602C17.4708 18.3602 18.7602 17.0708 18.7602 15.4802C18.7602 13.8897 17.4708 12.6002 15.8802 12.6002C14.2897 12.6002 13.0002 13.8897 13.0002 15.4802C13.0002 17.0708 14.2897 18.3602 15.8802 18.3602Z" stroke="#340C0C" stroke-width="0.9" stroke-linecap="round" stroke-linejoin="round"/>
<path d="M19.2987 18.8996L18.3987 17.9996" stroke="#340C0C" stroke-width="0.9" stroke-linecap="round" stroke-linejoin="round"/>
</svg>
