<?xml version="1.0" encoding="utf-8"?>
<!-- Generator: Adobe Illustrator 18.1.1, SVG Export Plug-In . SVG Version: 6.00 Build 0)  -->
<svg version="1.1" id="Layer_1" xmlns="http://www.w3.org/2000/svg" xmlns:xlink="http://www.w3.org/1999/xlink" x="0px" y="0px"
	 viewBox="0 0 100 100" enable-background="new 0 0 100 100" xml:space="preserve">
<path fill="#CCCCCC" d="M4.7,24.8C3,25.7,3,26.5,3,28.1c0,0.8,0,1.7,0,2.5c0.8,0.8,44,44.8,44.8,44.8c0.8,0,3.3,0,4.1,0
	c0.8-0.8,44.8-44,44.8-44.8c0,0,0-1.7,0-2.5c0-2.5-1.7-4.1-4.1-4.1c-0.8,0-1.7,0-1.7,0s-10,9.1-20.7,20.7L50.3,64.7L30.4,44.7
	C19.6,34,9.6,24,9.6,24C8,24,5.5,24,4.7,24.8z"/>
</svg>
