<svg width="100" height="100" viewBox="0 0 100 100" fill="none" xmlns="http://www.w3.org/2000/svg">
<path d="M74.75 4.55C73.85 2.85 73.05 2.85 71.45 2.85H69C68.2 3.65 24.2 46.85 24.2 47.65V51.75C25 52.55 68.2 96.55 69 96.55H71.5C72.0468 96.582 72.5941 96.4979 73.1061 96.3031C73.618 96.1084 74.0829 95.8075 74.4702 95.4202C74.8575 95.0329 75.1584 94.568 75.3531 94.0561C75.5479 93.5441 75.632 92.9968 75.6 92.45V90.75C75.6 90.75 66.5 80.75 54.9 70.05L34.9 50.15L54.9 30.25C65.6 19.45 75.6 9.45 75.6 9.45C75.55 7.85 75.55 5.35 74.75 4.55Z" fill="white"/>
</svg>
